<svg width="1070" height="44" viewBox="0 0 1070 44" fill="none" xmlns="http://www.w3.org/2000/svg">
<path d="M6.9375 29.0234C6.9375 28.8203 6.90625 28.638 6.84375 28.4766C6.78646 28.3099 6.67708 28.1589 6.51562 28.0234C6.35417 27.8828 6.1276 27.7448 5.83594 27.6094C5.54427 27.474 5.16667 27.3333 4.70312 27.1875C4.1875 27.0208 3.69792 26.8333 3.23438 26.625C2.77604 26.4167 2.36979 26.1745 2.01562 25.8984C1.66667 25.6172 1.39062 25.2917 1.1875 24.9219C0.989583 24.5521 0.890625 24.1224 0.890625 23.6328C0.890625 23.1589 0.994792 22.7292 1.20312 22.3438C1.41146 21.9531 1.70312 21.6198 2.07812 21.3438C2.45312 21.0625 2.89583 20.8464 3.40625 20.6953C3.92188 20.5443 4.48698 20.4688 5.10156 20.4688C5.9401 20.4688 6.67188 20.6198 7.29688 20.9219C7.92188 21.224 8.40625 21.638 8.75 22.1641C9.09896 22.6901 9.27344 23.2917 9.27344 23.9688H6.94531C6.94531 23.6354 6.875 23.3438 6.73438 23.0938C6.59896 22.8385 6.39062 22.638 6.10938 22.4922C5.83333 22.3464 5.48438 22.2734 5.0625 22.2734C4.65625 22.2734 4.31771 22.3359 4.04688 22.4609C3.77604 22.5807 3.57292 22.7448 3.4375 22.9531C3.30208 23.1562 3.23438 23.3854 3.23438 23.6406C3.23438 23.8333 3.28125 24.0078 3.375 24.1641C3.47396 24.3203 3.61979 24.4661 3.8125 24.6016C4.00521 24.737 4.24219 24.8646 4.52344 24.9844C4.80469 25.1042 5.13021 25.2214 5.5 25.3359C6.11979 25.5234 6.66406 25.7344 7.13281 25.9688C7.60677 26.2031 8.0026 26.4661 8.32031 26.7578C8.63802 27.0495 8.8776 27.3802 9.03906 27.75C9.20052 28.1198 9.28125 28.5391 9.28125 29.0078C9.28125 29.5026 9.1849 29.9453 8.99219 30.3359C8.79948 30.7266 8.52083 31.0573 8.15625 31.3281C7.79167 31.599 7.35677 31.8047 6.85156 31.9453C6.34635 32.0859 5.78125 32.1562 5.15625 32.1562C4.59375 32.1562 4.03906 32.0833 3.49219 31.9375C2.94531 31.7865 2.44792 31.5599 2 31.2578C1.55729 30.9557 1.20312 30.5703 0.9375 30.1016C0.671875 29.6328 0.539062 29.0781 0.539062 28.4375H2.89062C2.89062 28.7917 2.94531 29.0911 3.05469 29.3359C3.16406 29.5807 3.31771 29.7786 3.51562 29.9297C3.71875 30.0807 3.95833 30.1901 4.23438 30.2578C4.51562 30.3255 4.82292 30.3594 5.15625 30.3594C5.5625 30.3594 5.89583 30.3021 6.15625 30.1875C6.42188 30.0729 6.61719 29.9141 6.74219 29.7109C6.8724 29.5078 6.9375 29.2786 6.9375 29.0234ZM14.625 32.1562C13.9688 32.1562 13.3802 32.0521 12.8594 31.8438C12.3385 31.6302 11.8958 31.3359 11.5312 30.9609C11.1719 30.5859 10.8958 30.151 10.7031 29.6562C10.5104 29.1562 10.4141 28.625 10.4141 28.0625V27.75C10.4141 27.1094 10.5052 26.5234 10.6875 25.9922C10.8698 25.4609 11.1302 25 11.4688 24.6094C11.8125 24.2188 12.2292 23.9193 12.7188 23.7109C13.2083 23.4974 13.7604 23.3906 14.375 23.3906C14.974 23.3906 15.5052 23.4896 15.9688 23.6875C16.4323 23.8854 16.8203 24.1667 17.1328 24.5312C17.4505 24.8958 17.6901 25.3333 17.8516 25.8438C18.013 26.349 18.0938 26.9115 18.0938 27.5312V28.4688H11.375V26.9688H15.8828V26.7969C15.8828 26.4844 15.8255 26.2057 15.7109 25.9609C15.6016 25.7109 15.4349 25.513 15.2109 25.3672C14.987 25.2214 14.7005 25.1484 14.3516 25.1484C14.0547 25.1484 13.7995 25.2135 13.5859 25.3438C13.3724 25.474 13.1979 25.6562 13.0625 25.8906C12.9323 26.125 12.8333 26.401 12.7656 26.7188C12.7031 27.0312 12.6719 27.375 12.6719 27.75V28.0625C12.6719 28.401 12.7188 28.7135 12.8125 29C12.9115 29.2865 13.0495 29.5339 13.2266 29.7422C13.4089 29.9505 13.6276 30.112 13.8828 30.2266C14.1432 30.3411 14.4375 30.3984 14.7656 30.3984C15.1719 30.3984 15.5495 30.3203 15.8984 30.1641C16.2526 30.0026 16.5573 29.7604 16.8125 29.4375L17.9062 30.625C17.7292 30.8802 17.487 31.125 17.1797 31.3594C16.8776 31.5938 16.513 31.7865 16.0859 31.9375C15.6589 32.0833 15.1719 32.1562 14.625 32.1562ZM23.9375 30.0938V26.3281C23.9375 26.0573 23.8932 25.8255 23.8047 25.6328C23.7161 25.4349 23.5781 25.2812 23.3906 25.1719C23.2083 25.0625 22.9714 25.0078 22.6797 25.0078C22.4297 25.0078 22.2135 25.0521 22.0312 25.1406C21.849 25.224 21.7083 25.3464 21.6094 25.5078C21.5104 25.6641 21.4609 25.849 21.4609 26.0625H19.2109C19.2109 25.7031 19.2943 25.362 19.4609 25.0391C19.6276 24.7161 19.8698 24.4323 20.1875 24.1875C20.5052 23.9375 20.8828 23.7422 21.3203 23.6016C21.763 23.4609 22.2578 23.3906 22.8047 23.3906C23.4609 23.3906 24.0443 23.5 24.5547 23.7188C25.0651 23.9375 25.4661 24.2656 25.7578 24.7031C26.0547 25.1406 26.2031 25.6875 26.2031 26.3438V29.9609C26.2031 30.4245 26.2318 30.8047 26.2891 31.1016C26.3464 31.3932 26.4297 31.6484 26.5391 31.8672V32H24.2656C24.1562 31.7708 24.0729 31.4844 24.0156 31.1406C23.9635 30.7917 23.9375 30.4427 23.9375 30.0938ZM24.2344 26.8516L24.25 28.125H22.9922C22.6953 28.125 22.4375 28.1589 22.2188 28.2266C22 28.2943 21.8203 28.3906 21.6797 28.5156C21.5391 28.6354 21.4349 28.776 21.3672 28.9375C21.3047 29.099 21.2734 29.276 21.2734 29.4688C21.2734 29.6615 21.3177 29.8359 21.4062 29.9922C21.4948 30.1432 21.6224 30.263 21.7891 30.3516C21.9557 30.4349 22.151 30.4766 22.375 30.4766C22.7135 30.4766 23.0078 30.4089 23.2578 30.2734C23.5078 30.138 23.7005 29.9714 23.8359 29.7734C23.9766 29.5755 24.0495 29.388 24.0547 29.2109L24.6484 30.1641C24.5651 30.3776 24.4505 30.599 24.3047 30.8281C24.1641 31.0573 23.9844 31.2734 23.7656 31.4766C23.5469 31.6745 23.2839 31.8385 22.9766 31.9688C22.6693 32.0938 22.3047 32.1562 21.8828 32.1562C21.3464 32.1562 20.8594 32.0495 20.4219 31.8359C19.9896 31.6172 19.6458 31.3177 19.3906 30.9375C19.1406 30.5521 19.0156 30.1146 19.0156 29.625C19.0156 29.1823 19.099 28.7891 19.2656 28.4453C19.4323 28.1016 19.6771 27.8125 20 27.5781C20.3281 27.3385 20.737 27.1589 21.2266 27.0391C21.7161 26.9141 22.2839 26.8516 22.9297 26.8516H24.2344ZM30.1875 25.3906V32H27.9375V23.5469H30.0547L30.1875 25.3906ZM32.7344 23.4922L32.6953 25.5781C32.5859 25.5625 32.4531 25.5495 32.2969 25.5391C32.1458 25.5234 32.0078 25.5156 31.8828 25.5156C31.5651 25.5156 31.2891 25.5573 31.0547 25.6406C30.8255 25.7188 30.6328 25.8359 30.4766 25.9922C30.3255 26.1484 30.2109 26.3385 30.1328 26.5625C30.0599 26.7865 30.0182 27.0417 30.0078 27.3281L29.5547 27.1875C29.5547 26.6406 29.6094 26.138 29.7188 25.6797C29.8281 25.2161 29.987 24.8125 30.1953 24.4688C30.4089 24.125 30.6693 23.8594 30.9766 23.6719C31.2839 23.4844 31.6354 23.3906 32.0312 23.3906C32.1562 23.3906 32.2839 23.401 32.4141 23.4219C32.5443 23.4375 32.651 23.4609 32.7344 23.4922ZM37.1328 30.3984C37.4089 30.3984 37.6536 30.3464 37.8672 30.2422C38.0807 30.1328 38.2474 29.9818 38.3672 29.7891C38.4922 29.5911 38.5573 29.3594 38.5625 29.0938H40.6797C40.6745 29.6875 40.5156 30.2161 40.2031 30.6797C39.8906 31.138 39.4714 31.5 38.9453 31.7656C38.4193 32.026 37.8307 32.1562 37.1797 32.1562C36.5234 32.1562 35.9505 32.0469 35.4609 31.8281C34.9766 31.6094 34.5729 31.3073 34.25 30.9219C33.9271 30.5312 33.6849 30.0781 33.5234 29.5625C33.362 29.0417 33.2812 28.4844 33.2812 27.8906V27.6641C33.2812 27.0651 33.362 26.5078 33.5234 25.9922C33.6849 25.4714 33.9271 25.0182 34.25 24.6328C34.5729 24.2422 34.9766 23.9375 35.4609 23.7188C35.9453 23.5 36.513 23.3906 37.1641 23.3906C37.8568 23.3906 38.4635 23.5234 38.9844 23.7891C39.5104 24.0547 39.9219 24.4349 40.2188 24.9297C40.5208 25.4193 40.6745 26 40.6797 26.6719H38.5625C38.5573 26.3906 38.4974 26.1354 38.3828 25.9062C38.2734 25.6771 38.112 25.4948 37.8984 25.3594C37.6901 25.2188 37.4323 25.1484 37.125 25.1484C36.7969 25.1484 36.5286 25.2188 36.3203 25.3594C36.112 25.4948 35.9505 25.6823 35.8359 25.9219C35.7214 26.1562 35.6406 26.4245 35.5938 26.7266C35.5521 27.0234 35.5312 27.3359 35.5312 27.6641V27.8906C35.5312 28.2188 35.5521 28.5339 35.5938 28.8359C35.6354 29.138 35.7135 29.4062 35.8281 29.6406C35.9479 29.875 36.112 30.0599 36.3203 30.1953C36.5286 30.3307 36.7995 30.3984 37.1328 30.3984ZM44.1797 20V32H41.9297V20H44.1797ZM43.8594 27.4766H43.2422C43.2474 26.888 43.3255 26.3464 43.4766 25.8516C43.6276 25.3516 43.8438 24.9193 44.125 24.5547C44.4062 24.1849 44.7422 23.8984 45.1328 23.6953C45.5286 23.4922 45.9661 23.3906 46.4453 23.3906C46.862 23.3906 47.2396 23.4505 47.5781 23.5703C47.9219 23.6849 48.2161 23.8724 48.4609 24.1328C48.7109 24.388 48.9036 24.724 49.0391 25.1406C49.1745 25.5573 49.2422 26.0625 49.2422 26.6562V32H46.9766V26.6406C46.9766 26.2656 46.9219 25.9714 46.8125 25.7578C46.7083 25.5391 46.5547 25.3854 46.3516 25.2969C46.1536 25.2031 45.9089 25.1562 45.6172 25.1562C45.2943 25.1562 45.0182 25.2161 44.7891 25.3359C44.5651 25.4557 44.3854 25.6224 44.25 25.8359C44.1146 26.0443 44.0156 26.2891 43.9531 26.5703C43.8906 26.8516 43.8594 27.1536 43.8594 27.4766ZM64.4219 26.0469V26.5859C64.4219 27.4505 64.3047 28.2266 64.0703 28.9141C63.8359 29.6016 63.5052 30.1875 63.0781 30.6719C62.651 31.151 62.1406 31.5182 61.5469 31.7734C60.9583 32.0286 60.3047 32.1562 59.5859 32.1562C58.8724 32.1562 58.2188 32.0286 57.625 31.7734C57.0365 31.5182 56.526 31.151 56.0938 30.6719C55.6615 30.1875 55.3255 29.6016 55.0859 28.9141C54.8516 28.2266 54.7344 27.4505 54.7344 26.5859V26.0469C54.7344 25.1771 54.8516 24.401 55.0859 23.7188C55.3203 23.0312 55.651 22.4453 56.0781 21.9609C56.5104 21.4766 57.0208 21.1068 57.6094 20.8516C58.2031 20.5964 58.8568 20.4688 59.5703 20.4688C60.2891 20.4688 60.9427 20.5964 61.5312 20.8516C62.125 21.1068 62.6354 21.4766 63.0625 21.9609C63.4948 22.4453 63.8281 23.0312 64.0625 23.7188C64.3021 24.401 64.4219 25.1771 64.4219 26.0469ZM62.0547 26.5859V26.0312C62.0547 25.4271 62 24.8958 61.8906 24.4375C61.7812 23.9792 61.6198 23.5938 61.4062 23.2812C61.1927 22.9688 60.9323 22.7344 60.625 22.5781C60.3177 22.4167 59.9661 22.3359 59.5703 22.3359C59.1745 22.3359 58.8229 22.4167 58.5156 22.5781C58.2135 22.7344 57.9557 22.9688 57.7422 23.2812C57.5339 23.5938 57.375 23.9792 57.2656 24.4375C57.1562 24.8958 57.1016 25.4271 57.1016 26.0312V26.5859C57.1016 27.1849 57.1562 27.7161 57.2656 28.1797C57.375 28.638 57.5365 29.026 57.75 29.3438C57.9635 29.6562 58.224 29.8932 58.5312 30.0547C58.8385 30.2161 59.1901 30.2969 59.5859 30.2969C59.9818 30.2969 60.3333 30.2161 60.6406 30.0547C60.9479 29.8932 61.2057 29.6562 61.4141 29.3438C61.6224 29.026 61.7812 28.638 61.8906 28.1797C62 27.7161 62.0547 27.1849 62.0547 26.5859ZM68.1719 25.3516V32H65.9219V23.5469H68.0312L68.1719 25.3516ZM67.8438 27.4766H67.2344C67.2344 26.8516 67.3151 26.2891 67.4766 25.7891C67.638 25.2839 67.8646 24.8542 68.1562 24.5C68.4479 24.1406 68.7943 23.8672 69.1953 23.6797C69.6016 23.487 70.0547 23.3906 70.5547 23.3906C70.9505 23.3906 71.3125 23.4479 71.6406 23.5625C71.9688 23.6771 72.25 23.8594 72.4844 24.1094C72.724 24.3594 72.9062 24.6901 73.0312 25.1016C73.1615 25.513 73.2266 26.0156 73.2266 26.6094V32H70.9609V26.6016C70.9609 26.2266 70.9089 25.9349 70.8047 25.7266C70.7005 25.5182 70.5469 25.3724 70.3438 25.2891C70.1458 25.2005 69.901 25.1562 69.6094 25.1562C69.3073 25.1562 69.0443 25.2161 68.8203 25.3359C68.6016 25.4557 68.4193 25.6224 68.2734 25.8359C68.1328 26.0443 68.026 26.2891 67.9531 26.5703C67.8802 26.8516 67.8438 27.1536 67.8438 27.4766ZM78.8594 23.7812V22.6172C78.8594 22.2786 78.9245 21.9297 79.0547 21.5703C79.1849 21.2109 79.3568 20.8724 79.5703 20.5547C79.7839 20.2318 80.0182 19.9583 80.2734 19.7344L81.3203 20.3438C81.1328 20.6562 80.9714 20.9922 80.8359 21.3516C80.7005 21.7109 80.6328 22.1328 80.6328 22.6172V23.7812H78.8594ZM90.3438 30.2422V32H82.5625V30.5L86.2422 26.5547C86.612 26.1432 86.9036 25.7812 87.1172 25.4688C87.3307 25.151 87.4844 24.8672 87.5781 24.6172C87.6771 24.362 87.7266 24.1198 87.7266 23.8906C87.7266 23.5469 87.6693 23.2526 87.5547 23.0078C87.4401 22.7578 87.2708 22.5651 87.0469 22.4297C86.8281 22.2943 86.5573 22.2266 86.2344 22.2266C85.8906 22.2266 85.5938 22.3099 85.3438 22.4766C85.099 22.6432 84.9115 22.875 84.7812 23.1719C84.6562 23.4688 84.5938 23.8047 84.5938 24.1797H82.3359C82.3359 23.5026 82.4974 22.8828 82.8203 22.3203C83.1432 21.7526 83.599 21.3021 84.1875 20.9688C84.776 20.6302 85.474 20.4609 86.2812 20.4609C87.0781 20.4609 87.75 20.5911 88.2969 20.8516C88.849 21.1068 89.2656 21.4766 89.5469 21.9609C89.8333 22.4401 89.9766 23.013 89.9766 23.6797C89.9766 24.0547 89.9167 24.4219 89.7969 24.7812C89.6771 25.1354 89.5052 25.4896 89.2812 25.8438C89.0625 26.1927 88.7969 26.5469 88.4844 26.9062C88.1719 27.2656 87.8255 27.638 87.4453 28.0234L85.4688 30.2422H90.3438ZM97.2344 20.6016V32H94.9844V23.1953L92.2812 24.0547V22.2812L96.9922 20.6016H97.2344Z" fill="white"/>
<path d="M131 18L143 26L131 34V18Z" fill="#AAAAAA"/>
<path d="M162.445 27.9453H159.547V26.1172H162.445C162.893 26.1172 163.258 26.0443 163.539 25.8984C163.82 25.7474 164.026 25.5391 164.156 25.2734C164.286 25.0078 164.352 24.7083 164.352 24.375C164.352 24.0365 164.286 23.7214 164.156 23.4297C164.026 23.138 163.82 22.9036 163.539 22.7266C163.258 22.5495 162.893 22.4609 162.445 22.4609H160.359V32H158.016V20.625H162.445C163.336 20.625 164.099 20.7865 164.734 21.1094C165.375 21.4271 165.865 21.8672 166.203 22.4297C166.542 22.9922 166.711 23.6354 166.711 24.3594C166.711 25.0938 166.542 25.7292 166.203 26.2656C165.865 26.8021 165.375 27.2161 164.734 27.5078C164.099 27.7995 163.336 27.9453 162.445 27.9453ZM175.641 30.1719V32H169.914V30.1719H175.641ZM170.672 20.625V32H168.328V20.625H170.672ZM181.766 22.5703L178.672 32H176.18L180.406 20.625H181.992L181.766 22.5703ZM184.336 32L181.234 22.5703L180.984 20.625H182.586L186.836 32H184.336ZM184.195 27.7656V29.6016H178.188V27.7656H184.195ZM188.422 20.625L190.797 25.8125L193.172 20.625H195.727L191.984 27.8594V32H189.609V27.8594L185.859 20.625H188.422ZM205.375 22.5703L202.281 32H199.789L204.016 20.625H205.602L205.375 22.5703ZM207.945 32L204.844 22.5703L204.594 20.625H206.195L210.445 32H207.945ZM207.805 27.7656V29.6016H201.797V27.7656H207.805ZM218.812 30.1719V32H213.086V30.1719H218.812ZM213.844 20.625V32H211.5V20.625H213.844ZM227.469 30.1719V32H221.742V30.1719H227.469ZM222.5 20.625V32H220.156V20.625H222.5Z" fill="#AAAAAA"/>
</svg>
