<svg width="748" height="48" viewBox="0 0 748 48" fill="none" xmlns="http://www.w3.org/2000/svg">
<path d="M39.5264 23.1006V24.7002H34.3311V23.1006H39.5264ZM34.9395 19.0469V29H32.8887V19.0469H34.9395ZM40.9893 19.0469V29H38.9453V19.0469H40.9893ZM50.9492 23.791V24.2627C50.9492 25.0192 50.8467 25.6982 50.6416 26.2998C50.4365 26.9014 50.1471 27.4141 49.7734 27.8379C49.3997 28.2572 48.9531 28.5785 48.4336 28.8018C47.9186 29.0251 47.3467 29.1367 46.7178 29.1367C46.0934 29.1367 45.5215 29.0251 45.002 28.8018C44.487 28.5785 44.0404 28.2572 43.6621 27.8379C43.2839 27.4141 42.9899 26.9014 42.7803 26.2998C42.5752 25.6982 42.4727 25.0192 42.4727 24.2627V23.791C42.4727 23.0299 42.5752 22.3509 42.7803 21.7539C42.9854 21.1523 43.2747 20.6396 43.6484 20.2158C44.0267 19.792 44.4733 19.4684 44.9883 19.2451C45.5078 19.0218 46.0798 18.9102 46.7041 18.9102C47.333 18.9102 47.9049 19.0218 48.4199 19.2451C48.9395 19.4684 49.3861 19.792 49.7598 20.2158C50.138 20.6396 50.4297 21.1523 50.6348 21.7539C50.8444 22.3509 50.9492 23.0299 50.9492 23.791ZM48.8779 24.2627V23.7773C48.8779 23.2487 48.8301 22.7839 48.7344 22.3828C48.6387 21.9818 48.4974 21.6445 48.3105 21.3711C48.1237 21.0977 47.8958 20.8926 47.627 20.7559C47.3581 20.6146 47.0505 20.5439 46.7041 20.5439C46.3577 20.5439 46.0501 20.6146 45.7812 20.7559C45.5169 20.8926 45.2913 21.0977 45.1045 21.3711C44.9222 21.6445 44.7832 21.9818 44.6875 22.3828C44.5918 22.7839 44.5439 23.2487 44.5439 23.7773V24.2627C44.5439 24.7868 44.5918 25.2516 44.6875 25.6572C44.7832 26.0583 44.9245 26.3978 45.1113 26.6758C45.2982 26.9492 45.526 27.1566 45.7949 27.2979C46.0638 27.4391 46.3714 27.5098 46.7178 27.5098C47.0641 27.5098 47.3717 27.4391 47.6406 27.2979C47.9095 27.1566 48.1351 26.9492 48.3174 26.6758C48.4997 26.3978 48.6387 26.0583 48.7344 25.6572C48.8301 25.2516 48.8779 24.7868 48.8779 24.2627ZM53.3623 19.0469H55.0986L57.6553 26.3545L60.2119 19.0469H61.9482L58.3525 29H56.958L53.3623 19.0469ZM52.4258 19.0469H54.1553L54.4697 26.1699V29H52.4258V19.0469ZM61.1553 19.0469H62.8916V29H60.8408V26.1699L61.1553 19.0469ZM71.3682 27.4004V29H66.0703V27.4004H71.3682ZM66.7402 19.0469V29H64.6895V19.0469H66.7402ZM70.6777 23.1006V24.6592H66.0703V23.1006H70.6777ZM71.3613 19.0469V20.6533H66.0703V19.0469H71.3613Z" fill="white"/>
<rect y="47" width="104" height="1" fill="#AAAAAA"/>
<path d="M140.478 26.9219L142.822 19.0469H145.105L141.64 29H140.136L140.478 26.9219ZM138.317 19.0469L140.655 26.9219L141.011 29H139.493L136.048 19.0469H138.317ZM148.216 19.0469V29H146.172V19.0469H148.216ZM153.192 29H151.025L151.039 27.4004H153.192C153.73 27.4004 154.184 27.2796 154.553 27.0381C154.922 26.792 155.2 26.4342 155.387 25.9648C155.578 25.4954 155.674 24.9281 155.674 24.2627V23.7773C155.674 23.2669 155.619 22.818 155.51 22.4307C155.405 22.0433 155.248 21.7174 155.038 21.4531C154.828 21.1888 154.571 20.9906 154.266 20.8584C153.96 20.7217 153.609 20.6533 153.213 20.6533H150.984V19.0469H153.213C153.878 19.0469 154.487 19.1608 155.038 19.3887C155.594 19.612 156.075 19.9333 156.48 20.3525C156.886 20.7718 157.198 21.2731 157.417 21.8564C157.64 22.4352 157.752 23.0801 157.752 23.791V24.2627C157.752 24.9691 157.64 25.6139 157.417 26.1973C157.198 26.7806 156.886 27.2819 156.48 27.7012C156.079 28.1159 155.599 28.4372 155.038 28.665C154.482 28.8883 153.867 29 153.192 29ZM152.188 19.0469V29H150.137V19.0469H152.188ZM165.921 27.4004V29H160.623V27.4004H165.921ZM161.293 19.0469V29H159.242V19.0469H161.293ZM165.23 23.1006V24.6592H160.623V23.1006H165.23ZM165.914 19.0469V20.6533H160.623V19.0469H165.914ZM175.293 23.791V24.2627C175.293 25.0192 175.19 25.6982 174.985 26.2998C174.78 26.9014 174.491 27.4141 174.117 27.8379C173.743 28.2572 173.297 28.5785 172.777 28.8018C172.262 29.0251 171.69 29.1367 171.062 29.1367C170.437 29.1367 169.865 29.0251 169.346 28.8018C168.831 28.5785 168.384 28.2572 168.006 27.8379C167.628 27.4141 167.334 26.9014 167.124 26.2998C166.919 25.6982 166.816 25.0192 166.816 24.2627V23.791C166.816 23.0299 166.919 22.3509 167.124 21.7539C167.329 21.1523 167.618 20.6396 167.992 20.2158C168.37 19.792 168.817 19.4684 169.332 19.2451C169.852 19.0218 170.424 18.9102 171.048 18.9102C171.677 18.9102 172.249 19.0218 172.764 19.2451C173.283 19.4684 173.73 19.792 174.104 20.2158C174.482 20.6396 174.773 21.1523 174.979 21.7539C175.188 22.3509 175.293 23.0299 175.293 23.791ZM173.222 24.2627V23.7773C173.222 23.2487 173.174 22.7839 173.078 22.3828C172.982 21.9818 172.841 21.6445 172.654 21.3711C172.467 21.0977 172.24 20.8926 171.971 20.7559C171.702 20.6146 171.394 20.5439 171.048 20.5439C170.701 20.5439 170.394 20.6146 170.125 20.7559C169.861 20.8926 169.635 21.0977 169.448 21.3711C169.266 21.6445 169.127 21.9818 169.031 22.3828C168.936 22.7839 168.888 23.2487 168.888 23.7773V24.2627C168.888 24.7868 168.936 25.2516 169.031 25.6572C169.127 26.0583 169.268 26.3978 169.455 26.6758C169.642 26.9492 169.87 27.1566 170.139 27.2979C170.408 27.4391 170.715 27.5098 171.062 27.5098C171.408 27.5098 171.715 27.4391 171.984 27.2979C172.253 27.1566 172.479 26.9492 172.661 26.6758C172.843 26.3978 172.982 26.0583 173.078 25.6572C173.174 25.2516 173.222 24.7868 173.222 24.2627ZM181.951 26.3955C181.951 26.2178 181.924 26.0583 181.869 25.917C181.819 25.7712 181.723 25.639 181.582 25.5205C181.441 25.3975 181.243 25.2767 180.987 25.1582C180.732 25.0397 180.402 24.9167 179.996 24.7891C179.545 24.6432 179.117 24.4792 178.711 24.2969C178.31 24.1146 177.954 23.9027 177.645 23.6611C177.339 23.415 177.098 23.1302 176.92 22.8066C176.747 22.4831 176.66 22.1071 176.66 21.6787C176.66 21.264 176.751 20.888 176.934 20.5508C177.116 20.209 177.371 19.9173 177.699 19.6758C178.027 19.4297 178.415 19.2406 178.861 19.1084C179.312 18.9762 179.807 18.9102 180.345 18.9102C181.078 18.9102 181.719 19.0423 182.266 19.3066C182.812 19.571 183.236 19.9333 183.537 20.3936C183.842 20.8538 183.995 21.3802 183.995 21.9727H181.958C181.958 21.681 181.896 21.4258 181.773 21.207C181.655 20.9837 181.473 20.8083 181.227 20.6807C180.985 20.5531 180.68 20.4893 180.311 20.4893C179.955 20.4893 179.659 20.5439 179.422 20.6533C179.185 20.7581 179.007 20.9017 178.889 21.084C178.77 21.2617 178.711 21.4622 178.711 21.6855C178.711 21.8542 178.752 22.0068 178.834 22.1436C178.921 22.2803 179.048 22.4079 179.217 22.5264C179.385 22.6449 179.593 22.7565 179.839 22.8613C180.085 22.9661 180.37 23.0687 180.693 23.1689C181.236 23.333 181.712 23.5176 182.122 23.7227C182.537 23.9277 182.883 24.1579 183.161 24.4131C183.439 24.6683 183.649 24.9577 183.79 25.2812C183.931 25.6048 184.002 25.9717 184.002 26.3818C184.002 26.8148 183.918 27.2021 183.749 27.5439C183.58 27.8857 183.337 28.1751 183.018 28.4121C182.699 28.6491 182.318 28.8291 181.876 28.9521C181.434 29.0752 180.939 29.1367 180.393 29.1367C179.9 29.1367 179.415 29.0729 178.937 28.9453C178.458 28.8132 178.023 28.6149 177.631 28.3506C177.243 28.0863 176.934 27.749 176.701 27.3389C176.469 26.9287 176.353 26.4434 176.353 25.8828H178.41C178.41 26.1927 178.458 26.4548 178.554 26.6689C178.649 26.8831 178.784 27.0563 178.957 27.1885C179.135 27.3206 179.344 27.4163 179.586 27.4756C179.832 27.5348 180.101 27.5645 180.393 27.5645C180.748 27.5645 181.04 27.5143 181.268 27.4141C181.5 27.3138 181.671 27.1748 181.78 26.9971C181.894 26.8193 181.951 26.6188 181.951 26.3955Z" fill="#AAAAAA"/>
<path d="M253.765 25.4521H251.229V23.8525H253.765C254.157 23.8525 254.476 23.7887 254.722 23.6611C254.968 23.529 255.148 23.3467 255.262 23.1143C255.376 22.8818 255.433 22.6198 255.433 22.3281C255.433 22.0319 255.376 21.7562 255.262 21.501C255.148 21.2458 254.968 21.0407 254.722 20.8857C254.476 20.7308 254.157 20.6533 253.765 20.6533H251.939V29H249.889V19.0469H253.765C254.544 19.0469 255.212 19.1882 255.768 19.4707C256.328 19.7487 256.757 20.1338 257.053 20.626C257.349 21.1182 257.497 21.681 257.497 22.3145C257.497 22.957 257.349 23.513 257.053 23.9824C256.757 24.4518 256.328 24.8141 255.768 25.0693C255.212 25.3245 254.544 25.4521 253.765 25.4521ZM265.311 27.4004V29H260.3V27.4004H265.311ZM260.963 19.0469V29H258.912V19.0469H260.963ZM270.67 20.749L267.963 29H265.782L269.48 19.0469H270.868L270.67 20.749ZM272.919 29L270.205 20.749L269.986 19.0469H271.388L275.106 29H272.919ZM272.796 25.2949V26.9014H267.539V25.2949H272.796ZM276.494 19.0469L278.572 23.5859L280.65 19.0469H282.886L279.611 25.377V29H277.533V25.377L274.252 19.0469H276.494ZM290.193 27.4004V29H285.183V27.4004H290.193ZM285.846 19.0469V29H283.795V19.0469H285.846ZM293.55 19.0469V29H291.506V19.0469H293.55ZM300.652 26.3955C300.652 26.2178 300.625 26.0583 300.57 25.917C300.52 25.7712 300.424 25.639 300.283 25.5205C300.142 25.3975 299.944 25.2767 299.688 25.1582C299.433 25.0397 299.103 24.9167 298.697 24.7891C298.246 24.6432 297.818 24.4792 297.412 24.2969C297.011 24.1146 296.656 23.9027 296.346 23.6611C296.04 23.415 295.799 23.1302 295.621 22.8066C295.448 22.4831 295.361 22.1071 295.361 21.6787C295.361 21.264 295.452 20.888 295.635 20.5508C295.817 20.209 296.072 19.9173 296.4 19.6758C296.729 19.4297 297.116 19.2406 297.562 19.1084C298.014 18.9762 298.508 18.9102 299.046 18.9102C299.78 18.9102 300.42 19.0423 300.967 19.3066C301.514 19.571 301.938 19.9333 302.238 20.3936C302.544 20.8538 302.696 21.3802 302.696 21.9727H300.659C300.659 21.681 300.598 21.4258 300.475 21.207C300.356 20.9837 300.174 20.8083 299.928 20.6807C299.686 20.5531 299.381 20.4893 299.012 20.4893C298.656 20.4893 298.36 20.5439 298.123 20.6533C297.886 20.7581 297.708 20.9017 297.59 21.084C297.471 21.2617 297.412 21.4622 297.412 21.6855C297.412 21.8542 297.453 22.0068 297.535 22.1436C297.622 22.2803 297.749 22.4079 297.918 22.5264C298.087 22.6449 298.294 22.7565 298.54 22.8613C298.786 22.9661 299.071 23.0687 299.395 23.1689C299.937 23.333 300.413 23.5176 300.823 23.7227C301.238 23.9277 301.584 24.1579 301.862 24.4131C302.14 24.6683 302.35 24.9577 302.491 25.2812C302.632 25.6048 302.703 25.9717 302.703 26.3818C302.703 26.8148 302.619 27.2021 302.45 27.5439C302.282 27.8857 302.038 28.1751 301.719 28.4121C301.4 28.6491 301.019 28.8291 300.577 28.9521C300.135 29.0752 299.641 29.1367 299.094 29.1367C298.602 29.1367 298.116 29.0729 297.638 28.9453C297.159 28.8132 296.724 28.6149 296.332 28.3506C295.945 28.0863 295.635 27.749 295.402 27.3389C295.17 26.9287 295.054 26.4434 295.054 25.8828H297.111C297.111 26.1927 297.159 26.4548 297.255 26.6689C297.351 26.8831 297.485 27.0563 297.658 27.1885C297.836 27.3206 298.046 27.4163 298.287 27.4756C298.533 27.5348 298.802 27.5645 299.094 27.5645C299.449 27.5645 299.741 27.5143 299.969 27.4141C300.201 27.3138 300.372 27.1748 300.481 26.9971C300.595 26.8193 300.652 26.6188 300.652 26.3955ZM308.548 19.0469V29H306.504V19.0469H308.548ZM311.61 19.0469V20.6533H303.489V19.0469H311.61ZM317.852 26.3955C317.852 26.2178 317.824 26.0583 317.77 25.917C317.719 25.7712 317.624 25.639 317.482 25.5205C317.341 25.3975 317.143 25.2767 316.888 25.1582C316.632 25.0397 316.302 24.9167 315.896 24.7891C315.445 24.6432 315.017 24.4792 314.611 24.2969C314.21 24.1146 313.855 23.9027 313.545 23.6611C313.24 23.415 312.998 23.1302 312.82 22.8066C312.647 22.4831 312.561 22.1071 312.561 21.6787C312.561 21.264 312.652 20.888 312.834 20.5508C313.016 20.209 313.271 19.9173 313.6 19.6758C313.928 19.4297 314.315 19.2406 314.762 19.1084C315.213 18.9762 315.707 18.9102 316.245 18.9102C316.979 18.9102 317.619 19.0423 318.166 19.3066C318.713 19.571 319.137 19.9333 319.438 20.3936C319.743 20.8538 319.896 21.3802 319.896 21.9727H317.858C317.858 21.681 317.797 21.4258 317.674 21.207C317.555 20.9837 317.373 20.8083 317.127 20.6807C316.885 20.5531 316.58 20.4893 316.211 20.4893C315.855 20.4893 315.559 20.5439 315.322 20.6533C315.085 20.7581 314.908 20.9017 314.789 21.084C314.671 21.2617 314.611 21.4622 314.611 21.6855C314.611 21.8542 314.652 22.0068 314.734 22.1436C314.821 22.2803 314.949 22.4079 315.117 22.5264C315.286 22.6449 315.493 22.7565 315.739 22.8613C315.985 22.9661 316.27 23.0687 316.594 23.1689C317.136 23.333 317.612 23.5176 318.022 23.7227C318.437 23.9277 318.784 24.1579 319.062 24.4131C319.34 24.6683 319.549 24.9577 319.69 25.2812C319.832 25.6048 319.902 25.9717 319.902 26.3818C319.902 26.8148 319.818 27.2021 319.649 27.5439C319.481 27.8857 319.237 28.1751 318.918 28.4121C318.599 28.6491 318.218 28.8291 317.776 28.9521C317.334 29.0752 316.84 29.1367 316.293 29.1367C315.801 29.1367 315.315 29.0729 314.837 28.9453C314.358 28.8132 313.923 28.6149 313.531 28.3506C313.144 28.0863 312.834 27.749 312.602 27.3389C312.369 26.9287 312.253 26.4434 312.253 25.8828H314.311C314.311 26.1927 314.358 26.4548 314.454 26.6689C314.55 26.8831 314.684 27.0563 314.857 27.1885C315.035 27.3206 315.245 27.4163 315.486 27.4756C315.732 27.5348 316.001 27.5645 316.293 27.5645C316.648 27.5645 316.94 27.5143 317.168 27.4141C317.4 27.3138 317.571 27.1748 317.681 26.9971C317.795 26.8193 317.852 26.6188 317.852 26.3955Z" fill="#AAAAAA"/>
<path d="M391.658 25.6982H393.702C393.661 26.3682 393.477 26.9629 393.148 27.4824C392.825 28.002 392.371 28.4076 391.788 28.6992C391.209 28.9909 390.512 29.1367 389.696 29.1367C389.058 29.1367 388.486 29.0273 387.98 28.8086C387.475 28.5853 387.042 28.2663 386.682 27.8516C386.326 27.4368 386.055 26.9355 385.868 26.3477C385.681 25.7598 385.588 25.1012 385.588 24.3721V23.6816C385.588 22.9525 385.684 22.2939 385.875 21.7061C386.071 21.1136 386.349 20.61 386.709 20.1953C387.074 19.7806 387.509 19.4616 388.015 19.2383C388.521 19.015 389.086 18.9033 389.71 18.9033C390.539 18.9033 391.239 19.0537 391.809 19.3545C392.383 19.6553 392.827 20.07 393.142 20.5986C393.461 21.1273 393.652 21.7288 393.716 22.4033H391.665C391.642 22.0023 391.562 21.6628 391.426 21.3848C391.289 21.1022 391.082 20.8903 390.804 20.749C390.53 20.6032 390.166 20.5303 389.71 20.5303C389.368 20.5303 389.07 20.5941 388.814 20.7217C388.559 20.8493 388.345 21.043 388.172 21.3027C387.999 21.5625 387.869 21.8906 387.782 22.2871C387.7 22.679 387.659 23.1393 387.659 23.668V24.3721C387.659 24.887 387.698 25.3405 387.775 25.7324C387.853 26.1198 387.971 26.4479 388.131 26.7168C388.295 26.9811 388.505 27.1816 388.76 27.3184C389.02 27.4505 389.332 27.5166 389.696 27.5166C390.125 27.5166 390.478 27.4482 390.756 27.3115C391.034 27.1748 391.246 26.972 391.392 26.7031C391.542 26.4342 391.631 26.0993 391.658 25.6982ZM403.225 23.791V24.2627C403.225 25.0192 403.122 25.6982 402.917 26.2998C402.712 26.9014 402.423 27.4141 402.049 27.8379C401.675 28.2572 401.229 28.5785 400.709 28.8018C400.194 29.0251 399.622 29.1367 398.993 29.1367C398.369 29.1367 397.797 29.0251 397.277 28.8018C396.762 28.5785 396.316 28.2572 395.938 27.8379C395.559 27.4141 395.265 26.9014 395.056 26.2998C394.851 25.6982 394.748 25.0192 394.748 24.2627V23.791C394.748 23.0299 394.851 22.3509 395.056 21.7539C395.261 21.1523 395.55 20.6396 395.924 20.2158C396.302 19.792 396.749 19.4684 397.264 19.2451C397.783 19.0218 398.355 18.9102 398.979 18.9102C399.608 18.9102 400.18 19.0218 400.695 19.2451C401.215 19.4684 401.661 19.792 402.035 20.2158C402.413 20.6396 402.705 21.1523 402.91 21.7539C403.12 22.3509 403.225 23.0299 403.225 23.791ZM401.153 24.2627V23.7773C401.153 23.2487 401.105 22.7839 401.01 22.3828C400.914 21.9818 400.773 21.6445 400.586 21.3711C400.399 21.0977 400.171 20.8926 399.902 20.7559C399.633 20.6146 399.326 20.5439 398.979 20.5439C398.633 20.5439 398.326 20.6146 398.057 20.7559C397.792 20.8926 397.567 21.0977 397.38 21.3711C397.198 21.6445 397.059 21.9818 396.963 22.3828C396.867 22.7839 396.819 23.2487 396.819 23.7773V24.2627C396.819 24.7868 396.867 25.2516 396.963 25.6572C397.059 26.0583 397.2 26.3978 397.387 26.6758C397.574 26.9492 397.801 27.1566 398.07 27.2979C398.339 27.4391 398.647 27.5098 398.993 27.5098C399.34 27.5098 399.647 27.4391 399.916 27.2979C400.185 27.1566 400.41 26.9492 400.593 26.6758C400.775 26.3978 400.914 26.0583 401.01 25.6572C401.105 25.2516 401.153 24.7868 401.153 24.2627ZM405.638 19.0469H407.374L409.931 26.3545L412.487 19.0469H414.224L410.628 29H409.233L405.638 19.0469ZM404.701 19.0469H406.431L406.745 26.1699V29H404.701V19.0469ZM413.431 19.0469H415.167V29H413.116V26.1699L413.431 19.0469ZM417.901 19.0469H419.638L422.194 26.3545L424.751 19.0469H426.487L422.892 29H421.497L417.901 19.0469ZM416.965 19.0469H418.694L419.009 26.1699V29H416.965V19.0469ZM425.694 19.0469H427.431V29H425.38V26.1699L425.694 19.0469ZM434.725 19.0469H436.769V25.623C436.769 26.3887 436.604 27.0335 436.276 27.5576C435.953 28.0817 435.504 28.4759 434.93 28.7402C434.36 29.0046 433.704 29.1367 432.961 29.1367C432.218 29.1367 431.557 29.0046 430.979 28.7402C430.404 28.4759 429.953 28.0817 429.625 27.5576C429.301 27.0335 429.14 26.3887 429.14 25.623V19.0469H431.19V25.623C431.19 26.0697 431.261 26.4342 431.402 26.7168C431.544 26.9993 431.746 27.2067 432.011 27.3389C432.28 27.471 432.596 27.5371 432.961 27.5371C433.335 27.5371 433.651 27.471 433.911 27.3389C434.175 27.2067 434.376 26.9993 434.513 26.7168C434.654 26.4342 434.725 26.0697 434.725 25.623V19.0469ZM446.558 19.0469V29H444.507L440.508 22.3281V29H438.457V19.0469H440.508L444.514 25.7256V19.0469H446.558ZM450.522 19.0469V29H448.479V19.0469H450.522ZM456.688 19.0469V29H454.645V19.0469H456.688ZM459.751 19.0469V20.6533H451.63V19.0469H459.751ZM462.396 19.0469L464.475 23.5859L466.553 19.0469H468.788L465.514 25.377V29H463.436V25.377L460.154 19.0469H462.396Z" fill="#AAAAAA"/>
<path d="M539.658 25.6982H541.702C541.661 26.3682 541.477 26.9629 541.148 27.4824C540.825 28.002 540.371 28.4076 539.788 28.6992C539.209 28.9909 538.512 29.1367 537.696 29.1367C537.058 29.1367 536.486 29.0273 535.98 28.8086C535.475 28.5853 535.042 28.2663 534.682 27.8516C534.326 27.4368 534.055 26.9355 533.868 26.3477C533.681 25.7598 533.588 25.1012 533.588 24.3721V23.6816C533.588 22.9525 533.684 22.2939 533.875 21.7061C534.071 21.1136 534.349 20.61 534.709 20.1953C535.074 19.7806 535.509 19.4616 536.015 19.2383C536.521 19.015 537.086 18.9033 537.71 18.9033C538.539 18.9033 539.239 19.0537 539.809 19.3545C540.383 19.6553 540.827 20.07 541.142 20.5986C541.461 21.1273 541.652 21.7288 541.716 22.4033H539.665C539.642 22.0023 539.562 21.6628 539.426 21.3848C539.289 21.1022 539.082 20.8903 538.804 20.749C538.53 20.6032 538.166 20.5303 537.71 20.5303C537.368 20.5303 537.07 20.5941 536.814 20.7217C536.559 20.8493 536.345 21.043 536.172 21.3027C535.999 21.5625 535.869 21.8906 535.782 22.2871C535.7 22.679 535.659 23.1393 535.659 23.668V24.3721C535.659 24.887 535.698 25.3405 535.775 25.7324C535.853 26.1198 535.971 26.4479 536.131 26.7168C536.295 26.9811 536.505 27.1816 536.76 27.3184C537.02 27.4505 537.332 27.5166 537.696 27.5166C538.125 27.5166 538.478 27.4482 538.756 27.3115C539.034 27.1748 539.246 26.972 539.392 26.7031C539.542 26.4342 539.631 26.0993 539.658 25.6982ZM549.687 23.1006V24.7002H544.491V23.1006H549.687ZM545.1 19.0469V29H543.049V19.0469H545.1ZM551.149 19.0469V29H549.105V19.0469H551.149ZM557.104 20.749L554.396 29H552.216L555.914 19.0469H557.302L557.104 20.749ZM559.353 29L556.639 20.749L556.42 19.0469H557.821L561.54 29H559.353ZM559.229 25.2949V26.9014H553.973V25.2949H559.229ZM570.563 19.0469V29H568.513L564.514 22.3281V29H562.463V19.0469H564.514L568.52 25.7256V19.0469H570.563ZM580.448 19.0469V29H578.397L574.398 22.3281V29H572.348V19.0469H574.398L578.404 25.7256V19.0469H580.448ZM588.911 27.4004V29H583.613V27.4004H588.911ZM584.283 19.0469V29H582.232V19.0469H584.283ZM588.221 23.1006V24.6592H583.613V23.1006H588.221ZM588.904 19.0469V20.6533H583.613V19.0469H588.904ZM596.506 27.4004V29H591.495V27.4004H596.506ZM592.158 19.0469V29H590.107V19.0469H592.158ZM602.863 26.3955C602.863 26.2178 602.836 26.0583 602.781 25.917C602.731 25.7712 602.635 25.639 602.494 25.5205C602.353 25.3975 602.155 25.2767 601.899 25.1582C601.644 25.0397 601.314 24.9167 600.908 24.7891C600.457 24.6432 600.029 24.4792 599.623 24.2969C599.222 24.1146 598.867 23.9027 598.557 23.6611C598.251 23.415 598.01 23.1302 597.832 22.8066C597.659 22.4831 597.572 22.1071 597.572 21.6787C597.572 21.264 597.663 20.888 597.846 20.5508C598.028 20.209 598.283 19.9173 598.611 19.6758C598.939 19.4297 599.327 19.2406 599.773 19.1084C600.225 18.9762 600.719 18.9102 601.257 18.9102C601.991 18.9102 602.631 19.0423 603.178 19.3066C603.725 19.571 604.148 19.9333 604.449 20.3936C604.755 20.8538 604.907 21.3802 604.907 21.9727H602.87C602.87 21.681 602.809 21.4258 602.686 21.207C602.567 20.9837 602.385 20.8083 602.139 20.6807C601.897 20.5531 601.592 20.4893 601.223 20.4893C600.867 20.4893 600.571 20.5439 600.334 20.6533C600.097 20.7581 599.919 20.9017 599.801 21.084C599.682 21.2617 599.623 21.4622 599.623 21.6855C599.623 21.8542 599.664 22.0068 599.746 22.1436C599.833 22.2803 599.96 22.4079 600.129 22.5264C600.298 22.6449 600.505 22.7565 600.751 22.8613C600.997 22.9661 601.282 23.0687 601.605 23.1689C602.148 23.333 602.624 23.5176 603.034 23.7227C603.449 23.9277 603.795 24.1579 604.073 24.4131C604.351 24.6683 604.561 24.9577 604.702 25.2812C604.843 25.6048 604.914 25.9717 604.914 26.3818C604.914 26.8148 604.83 27.2021 604.661 27.5439C604.493 27.8857 604.249 28.1751 603.93 28.4121C603.611 28.6491 603.23 28.8291 602.788 28.9521C602.346 29.0752 601.852 29.1367 601.305 29.1367C600.812 29.1367 600.327 29.0729 599.849 28.9453C599.37 28.8132 598.935 28.6149 598.543 28.3506C598.156 28.0863 597.846 27.749 597.613 27.3389C597.381 26.9287 597.265 26.4434 597.265 25.8828H599.322C599.322 26.1927 599.37 26.4548 599.466 26.6689C599.562 26.8831 599.696 27.0563 599.869 27.1885C600.047 27.3206 600.257 27.4163 600.498 27.4756C600.744 27.5348 601.013 27.5645 601.305 27.5645C601.66 27.5645 601.952 27.5143 602.18 27.4141C602.412 27.3138 602.583 27.1748 602.692 26.9971C602.806 26.8193 602.863 26.6188 602.863 26.3955Z" fill="#AAAAAA"/>
<path d="M674.936 20.749L672.229 29H670.048L673.746 19.0469H675.134L674.936 20.749ZM677.185 29L674.471 20.749L674.252 19.0469H675.653L679.372 29H677.185ZM677.062 25.2949V26.9014H671.805V25.2949H677.062ZM684.191 24.6318H681.635L681.621 23.2236H683.768C684.146 23.2236 684.456 23.1758 684.697 23.0801C684.939 22.9798 685.119 22.8363 685.237 22.6494C685.36 22.458 685.422 22.2256 685.422 21.9521C685.422 21.6423 685.363 21.3916 685.244 21.2002C685.13 21.0088 684.95 20.8698 684.704 20.7832C684.463 20.6966 684.15 20.6533 683.768 20.6533H682.346V29H680.295V19.0469H683.768C684.346 19.0469 684.864 19.1016 685.319 19.2109C685.78 19.3203 686.169 19.4867 686.488 19.71C686.807 19.9333 687.051 20.2158 687.22 20.5576C687.388 20.8949 687.473 21.2959 687.473 21.7607C687.473 22.1709 687.379 22.5492 687.192 22.8955C687.01 23.2419 686.721 23.5244 686.324 23.7432C685.932 23.9619 685.42 24.0827 684.786 24.1055L684.191 24.6318ZM684.103 29H681.074L681.874 27.4004H684.103C684.463 27.4004 684.757 27.3434 684.984 27.2295C685.212 27.111 685.381 26.9515 685.49 26.751C685.6 26.5505 685.654 26.3203 685.654 26.0605C685.654 25.7689 685.604 25.516 685.504 25.3018C685.408 25.0876 685.253 24.9235 685.039 24.8096C684.825 24.6911 684.542 24.6318 684.191 24.6318H682.216L682.229 23.2236H684.69L685.162 23.7773C685.768 23.7682 686.256 23.8753 686.625 24.0986C686.999 24.3174 687.27 24.6022 687.438 24.9531C687.612 25.304 687.698 25.68 687.698 26.0811C687.698 26.7191 687.559 27.2568 687.281 27.6943C687.003 28.1273 686.595 28.4531 686.058 28.6719C685.524 28.8906 684.873 29 684.103 29ZM697.412 23.791V24.2627C697.412 25.0192 697.31 25.6982 697.104 26.2998C696.899 26.9014 696.61 27.4141 696.236 27.8379C695.863 28.2572 695.416 28.5785 694.896 28.8018C694.382 29.0251 693.81 29.1367 693.181 29.1367C692.556 29.1367 691.984 29.0251 691.465 28.8018C690.95 28.5785 690.503 28.2572 690.125 27.8379C689.747 27.4141 689.453 26.9014 689.243 26.2998C689.038 25.6982 688.936 25.0192 688.936 24.2627V23.791C688.936 23.0299 689.038 22.3509 689.243 21.7539C689.448 21.1523 689.738 20.6396 690.111 20.2158C690.49 19.792 690.936 19.4684 691.451 19.2451C691.971 19.0218 692.543 18.9102 693.167 18.9102C693.796 18.9102 694.368 19.0218 694.883 19.2451C695.402 19.4684 695.849 19.792 696.223 20.2158C696.601 20.6396 696.893 21.1523 697.098 21.7539C697.307 22.3509 697.412 23.0299 697.412 23.791ZM695.341 24.2627V23.7773C695.341 23.2487 695.293 22.7839 695.197 22.3828C695.102 21.9818 694.96 21.6445 694.773 21.3711C694.587 21.0977 694.359 20.8926 694.09 20.7559C693.821 20.6146 693.513 20.5439 693.167 20.5439C692.821 20.5439 692.513 20.6146 692.244 20.7559C691.98 20.8926 691.754 21.0977 691.567 21.3711C691.385 21.6445 691.246 21.9818 691.15 22.3828C691.055 22.7839 691.007 23.2487 691.007 23.7773V24.2627C691.007 24.7868 691.055 25.2516 691.15 25.6572C691.246 26.0583 691.387 26.3978 691.574 26.6758C691.761 26.9492 691.989 27.1566 692.258 27.2979C692.527 27.4391 692.834 27.5098 693.181 27.5098C693.527 27.5098 693.835 27.4391 694.104 27.2979C694.372 27.1566 694.598 26.9492 694.78 26.6758C694.963 26.3978 695.102 26.0583 695.197 25.6572C695.293 25.2516 695.341 24.7868 695.341 24.2627ZM704.385 19.0469H706.429V25.623C706.429 26.3887 706.265 27.0335 705.937 27.5576C705.613 28.0817 705.164 28.4759 704.59 28.7402C704.02 29.0046 703.364 29.1367 702.621 29.1367C701.878 29.1367 701.217 29.0046 700.639 28.7402C700.064 28.4759 699.613 28.0817 699.285 27.5576C698.962 27.0335 698.8 26.3887 698.8 25.623V19.0469H700.851V25.623C700.851 26.0697 700.921 26.4342 701.062 26.7168C701.204 26.9993 701.407 27.2067 701.671 27.3389C701.94 27.471 702.257 27.5371 702.621 27.5371C702.995 27.5371 703.312 27.471 703.571 27.3389C703.836 27.2067 704.036 26.9993 704.173 26.7168C704.314 26.4342 704.385 26.0697 704.385 25.623V19.0469ZM712.567 19.0469V29H710.523V19.0469H712.567ZM715.63 19.0469V20.6533H707.509V19.0469H715.63Z" fill="#AAAAAA"/>
</svg>
