<svg width="202" height="40" viewBox="0 0 202 40" fill="none" xmlns="http://www.w3.org/2000/svg">
<path d="M4.14844 7.22461L1.32422 15H0.169922L3.42188 6.46875H4.16602L4.14844 7.22461ZM6.51562 15L3.68555 7.22461L3.66797 6.46875H4.41211L7.67578 15H6.51562ZM6.36914 11.8418V12.7676H1.57617V11.8418H6.36914ZM9.83203 6V15H8.74219V6H9.83203ZM15.3105 13.916V10.6523C15.3105 10.4023 15.2598 10.1855 15.1582 10.002C15.0605 9.81445 14.9121 9.66992 14.7129 9.56836C14.5137 9.4668 14.2676 9.41602 13.9746 9.41602C13.7012 9.41602 13.4609 9.46289 13.2539 9.55664C13.0508 9.65039 12.8906 9.77344 12.7734 9.92578C12.6602 10.0781 12.6035 10.2422 12.6035 10.418H11.5195C11.5195 10.1914 11.5781 9.9668 11.6953 9.74414C11.8125 9.52148 11.9805 9.32031 12.1992 9.14062C12.4219 8.95703 12.6875 8.8125 12.9961 8.70703C13.3086 8.59766 13.6562 8.54297 14.0391 8.54297C14.5 8.54297 14.9062 8.62109 15.2578 8.77734C15.6133 8.93359 15.8906 9.16992 16.0898 9.48633C16.293 9.79883 16.3945 10.1914 16.3945 10.6641V13.6172C16.3945 13.8281 16.4121 14.0527 16.4473 14.291C16.4863 14.5293 16.543 14.7344 16.6172 14.9062V15H15.4863C15.4316 14.875 15.3887 14.709 15.3574 14.502C15.3262 14.291 15.3105 14.0957 15.3105 13.916ZM15.498 11.1562L15.5098 11.918H14.4141C14.1055 11.918 13.8301 11.9434 13.5879 11.9941C13.3457 12.041 13.1426 12.1133 12.9785 12.2109C12.8145 12.3086 12.6895 12.4316 12.6035 12.5801C12.5176 12.7246 12.4746 12.8945 12.4746 13.0898C12.4746 13.2891 12.5195 13.4707 12.6094 13.6348C12.6992 13.7988 12.834 13.9297 13.0137 14.0273C13.1973 14.1211 13.4219 14.168 13.6875 14.168C14.0195 14.168 14.3125 14.0977 14.5664 13.957C14.8203 13.8164 15.0215 13.6445 15.1699 13.4414C15.3223 13.2383 15.4043 13.041 15.416 12.8496L15.8789 13.3711C15.8516 13.5352 15.7773 13.7168 15.6562 13.916C15.5352 14.1152 15.373 14.3066 15.1699 14.4902C14.9707 14.6699 14.7324 14.8203 14.4551 14.9414C14.1816 15.0586 13.873 15.1172 13.5293 15.1172C13.0996 15.1172 12.7227 15.0332 12.3984 14.8652C12.0781 14.6973 11.8281 14.4727 11.6484 14.1914C11.4727 13.9062 11.3848 13.5879 11.3848 13.2363C11.3848 12.8965 11.4512 12.5977 11.584 12.3398C11.7168 12.0781 11.9082 11.8613 12.1582 11.6895C12.4082 11.5137 12.709 11.3809 13.0605 11.291C13.4121 11.2012 13.8047 11.1562 14.2383 11.1562H15.498ZM19.1836 10.0137V15H18.0996V8.66016H19.125L19.1836 10.0137ZM18.9258 11.5898L18.4746 11.5723C18.4785 11.1387 18.543 10.7383 18.668 10.3711C18.793 10 18.9688 9.67773 19.1953 9.4043C19.4219 9.13086 19.6914 8.91992 20.0039 8.77148C20.3203 8.61914 20.6699 8.54297 21.0527 8.54297C21.3652 8.54297 21.6465 8.58594 21.8965 8.67188C22.1465 8.75391 22.3594 8.88672 22.5352 9.07031C22.7148 9.25391 22.8516 9.49219 22.9453 9.78516C23.0391 10.0742 23.0859 10.4277 23.0859 10.8457V15H21.9961V10.834C21.9961 10.502 21.9473 10.2363 21.8496 10.0371C21.752 9.83398 21.6094 9.6875 21.4219 9.59766C21.2344 9.50391 21.0039 9.45703 20.7305 9.45703C20.4609 9.45703 20.2148 9.51367 19.9922 9.62695C19.7734 9.74023 19.584 9.89648 19.4238 10.0957C19.2676 10.2949 19.1445 10.5234 19.0547 10.7812C18.9688 11.0352 18.9258 11.3047 18.9258 11.5898ZM33.0234 12.2871H34.1484C34.0898 12.8262 33.9355 13.3086 33.6855 13.7344C33.4355 14.1602 33.082 14.498 32.625 14.748C32.168 14.9941 31.5977 15.1172 30.9141 15.1172C30.4141 15.1172 29.959 15.0234 29.5488 14.8359C29.1426 14.6484 28.793 14.3828 28.5 14.0391C28.207 13.6914 27.9805 13.2754 27.8203 12.791C27.6641 12.3027 27.5859 11.7598 27.5859 11.1621V10.3125C27.5859 9.71484 27.6641 9.17383 27.8203 8.68945C27.9805 8.20117 28.209 7.7832 28.5059 7.43555C28.8066 7.08789 29.168 6.82031 29.5898 6.63281C30.0117 6.44531 30.4863 6.35156 31.0137 6.35156C31.6582 6.35156 32.2031 6.47266 32.6484 6.71484C33.0938 6.95703 33.4395 7.29297 33.6855 7.72266C33.9355 8.14844 34.0898 8.64258 34.1484 9.20508H33.0234C32.9688 8.80664 32.8672 8.46484 32.7188 8.17969C32.5703 7.89062 32.3594 7.66797 32.0859 7.51172C31.8125 7.35547 31.4551 7.27734 31.0137 7.27734C30.6348 7.27734 30.3008 7.34961 30.0117 7.49414C29.7266 7.63867 29.4863 7.84375 29.291 8.10938C29.0996 8.375 28.9551 8.69336 28.8574 9.06445C28.7598 9.43555 28.7109 9.84766 28.7109 10.3008V11.1621C28.7109 11.5801 28.7539 11.9727 28.8398 12.3398C28.9297 12.707 29.0645 13.0293 29.2441 13.3066C29.4238 13.584 29.6523 13.8027 29.9297 13.9629C30.207 14.1191 30.5352 14.1973 30.9141 14.1973C31.3945 14.1973 31.7773 14.1211 32.0625 13.9688C32.3477 13.8164 32.5625 13.5977 32.707 13.3125C32.8555 13.0273 32.9609 12.6855 33.0234 12.2871ZM35.2383 11.9004V11.7656C35.2383 11.3086 35.3047 10.8848 35.4375 10.4941C35.5703 10.0996 35.7617 9.75781 36.0117 9.46875C36.2617 9.17578 36.5645 8.94922 36.9199 8.78906C37.2754 8.625 37.6738 8.54297 38.1152 8.54297C38.5605 8.54297 38.9609 8.625 39.3164 8.78906C39.6758 8.94922 39.9805 9.17578 40.2305 9.46875C40.4844 9.75781 40.6777 10.0996 40.8105 10.4941C40.9434 10.8848 41.0098 11.3086 41.0098 11.7656V11.9004C41.0098 12.3574 40.9434 12.7812 40.8105 13.1719C40.6777 13.5625 40.4844 13.9043 40.2305 14.1973C39.9805 14.4863 39.6777 14.7129 39.3223 14.877C38.9707 15.0371 38.5723 15.1172 38.127 15.1172C37.6816 15.1172 37.2812 15.0371 36.9258 14.877C36.5703 14.7129 36.2656 14.4863 36.0117 14.1973C35.7617 13.9043 35.5703 13.5625 35.4375 13.1719C35.3047 12.7812 35.2383 12.3574 35.2383 11.9004ZM36.3223 11.7656V11.9004C36.3223 12.2168 36.3594 12.5156 36.4336 12.7969C36.5078 13.0742 36.6191 13.3203 36.7676 13.5352C36.9199 13.75 37.1094 13.9199 37.3359 14.0449C37.5625 14.166 37.8262 14.2266 38.127 14.2266C38.4238 14.2266 38.6836 14.166 38.9062 14.0449C39.1328 13.9199 39.3203 13.75 39.4688 13.5352C39.6172 13.3203 39.7285 13.0742 39.8027 12.7969C39.8809 12.5156 39.9199 12.2168 39.9199 11.9004V11.7656C39.9199 11.4531 39.8809 11.1582 39.8027 10.8809C39.7285 10.5996 39.6152 10.3516 39.4629 10.1367C39.3145 9.91797 39.127 9.74609 38.9004 9.62109C38.6777 9.49609 38.416 9.43359 38.1152 9.43359C37.8184 9.43359 37.5566 9.49609 37.3301 9.62109C37.1074 9.74609 36.9199 9.91797 36.7676 10.1367C36.6191 10.3516 36.5078 10.5996 36.4336 10.8809C36.3594 11.1582 36.3223 11.4531 36.3223 11.7656ZM42.082 11.9004V11.7656C42.082 11.3086 42.1484 10.8848 42.2812 10.4941C42.4141 10.0996 42.6055 9.75781 42.8555 9.46875C43.1055 9.17578 43.4082 8.94922 43.7637 8.78906C44.1191 8.625 44.5176 8.54297 44.959 8.54297C45.4043 8.54297 45.8047 8.625 46.1602 8.78906C46.5195 8.94922 46.8242 9.17578 47.0742 9.46875C47.3281 9.75781 47.5215 10.0996 47.6543 10.4941C47.7871 10.8848 47.8535 11.3086 47.8535 11.7656V11.9004C47.8535 12.3574 47.7871 12.7812 47.6543 13.1719C47.5215 13.5625 47.3281 13.9043 47.0742 14.1973C46.8242 14.4863 46.5215 14.7129 46.166 14.877C45.8145 15.0371 45.416 15.1172 44.9707 15.1172C44.5254 15.1172 44.125 15.0371 43.7695 14.877C43.4141 14.7129 43.1094 14.4863 42.8555 14.1973C42.6055 13.9043 42.4141 13.5625 42.2812 13.1719C42.1484 12.7812 42.082 12.3574 42.082 11.9004ZM43.166 11.7656V11.9004C43.166 12.2168 43.2031 12.5156 43.2773 12.7969C43.3516 13.0742 43.4629 13.3203 43.6113 13.5352C43.7637 13.75 43.9531 13.9199 44.1797 14.0449C44.4062 14.166 44.6699 14.2266 44.9707 14.2266C45.2676 14.2266 45.5273 14.166 45.75 14.0449C45.9766 13.9199 46.1641 13.75 46.3125 13.5352C46.4609 13.3203 46.5723 13.0742 46.6465 12.7969C46.7246 12.5156 46.7637 12.2168 46.7637 11.9004V11.7656C46.7637 11.4531 46.7246 11.1582 46.6465 10.8809C46.5723 10.5996 46.459 10.3516 46.3066 10.1367C46.1582 9.91797 45.9707 9.74609 45.7441 9.62109C45.5215 9.49609 45.2598 9.43359 44.959 9.43359C44.6621 9.43359 44.4004 9.49609 44.1738 9.62109C43.9512 9.74609 43.7637 9.91797 43.6113 10.1367C43.4629 10.3516 43.3516 10.5996 43.2773 10.8809C43.2031 11.1582 43.166 11.4531 43.166 11.7656ZM50.2969 9.87891V17.4375H49.207V8.66016H50.2031L50.2969 9.87891ZM54.5684 11.7773V11.9004C54.5684 12.3613 54.5137 12.7891 54.4043 13.1836C54.2949 13.5742 54.1348 13.9141 53.9238 14.2031C53.7168 14.4922 53.4609 14.7168 53.1562 14.877C52.8516 15.0371 52.502 15.1172 52.1074 15.1172C51.7051 15.1172 51.3496 15.0508 51.041 14.918C50.7324 14.7852 50.4707 14.5918 50.2559 14.3379C50.041 14.084 49.8691 13.7793 49.7402 13.4238C49.6152 13.0684 49.5293 12.668 49.4824 12.2227V11.5664C49.5293 11.0977 49.6172 10.6777 49.7461 10.3066C49.875 9.93555 50.0449 9.61914 50.2559 9.35742C50.4707 9.0918 50.7305 8.89062 51.0352 8.75391C51.3398 8.61328 51.6914 8.54297 52.0898 8.54297C52.4883 8.54297 52.8418 8.62109 53.1504 8.77734C53.459 8.92969 53.7188 9.14844 53.9297 9.43359C54.1406 9.71875 54.2988 10.0605 54.4043 10.459C54.5137 10.8535 54.5684 11.293 54.5684 11.7773ZM53.4785 11.9004V11.7773C53.4785 11.4609 53.4453 11.1641 53.3789 10.8867C53.3125 10.6055 53.209 10.3594 53.0684 10.1484C52.9316 9.93359 52.7559 9.76562 52.541 9.64453C52.3262 9.51953 52.0703 9.45703 51.7734 9.45703C51.5 9.45703 51.2617 9.50391 51.0586 9.59766C50.8594 9.69141 50.6895 9.81836 50.5488 9.97852C50.4082 10.1348 50.293 10.3145 50.2031 10.5176C50.1172 10.7168 50.0527 10.9238 50.0098 11.1387V12.6562C50.0879 12.9297 50.1973 13.1875 50.3379 13.4297C50.4785 13.668 50.666 13.8613 50.9004 14.0098C51.1348 14.1543 51.4297 14.2266 51.7852 14.2266C52.0781 14.2266 52.3301 14.166 52.541 14.0449C52.7559 13.9199 52.9316 13.75 53.0684 13.5352C53.209 13.3203 53.3125 13.0742 53.3789 12.7969C53.4453 12.5156 53.4785 12.2168 53.4785 11.9004ZM58.582 15.1172C58.1406 15.1172 57.7402 15.043 57.3809 14.8945C57.0254 14.7422 56.7188 14.5293 56.4609 14.2559C56.207 13.9824 56.0117 13.6582 55.875 13.2832C55.7383 12.9082 55.6699 12.498 55.6699 12.0527V11.8066C55.6699 11.291 55.7461 10.832 55.8984 10.4297C56.0508 10.0234 56.2578 9.67969 56.5195 9.39844C56.7812 9.11719 57.0781 8.9043 57.4102 8.75977C57.7422 8.61523 58.0859 8.54297 58.4414 8.54297C58.8945 8.54297 59.2852 8.62109 59.6133 8.77734C59.9453 8.93359 60.2168 9.15234 60.4277 9.43359C60.6387 9.71094 60.7949 10.0391 60.8965 10.418C60.998 10.793 61.0488 11.2031 61.0488 11.6484V12.1348H56.3145V11.25H59.9648V11.168C59.9492 10.8867 59.8906 10.6133 59.7891 10.3477C59.6914 10.082 59.5352 9.86328 59.3203 9.69141C59.1055 9.51953 58.8125 9.43359 58.4414 9.43359C58.1953 9.43359 57.9688 9.48633 57.7617 9.5918C57.5547 9.69336 57.377 9.8457 57.2285 10.0488C57.0801 10.252 56.9648 10.5 56.8828 10.793C56.8008 11.0859 56.7598 11.4238 56.7598 11.8066V12.0527C56.7598 12.3535 56.8008 12.6367 56.8828 12.9023C56.9688 13.1641 57.0918 13.3945 57.252 13.5938C57.416 13.793 57.6133 13.9492 57.8438 14.0625C58.0781 14.1758 58.3438 14.2324 58.6406 14.2324C59.0234 14.2324 59.3477 14.1543 59.6133 13.998C59.8789 13.8418 60.1113 13.6328 60.3105 13.3711L60.9668 13.8926C60.8301 14.0996 60.6562 14.2969 60.4453 14.4844C60.2344 14.6719 59.9746 14.8242 59.666 14.9414C59.3613 15.0586 59 15.1172 58.582 15.1172ZM63.3984 9.65625V15H62.3145V8.66016H63.3691L63.3984 9.65625ZM65.3789 8.625L65.373 9.63281C65.2832 9.61328 65.1973 9.60156 65.1152 9.59766C65.0371 9.58984 64.9473 9.58594 64.8457 9.58594C64.5957 9.58594 64.375 9.625 64.1836 9.70312C63.9922 9.78125 63.8301 9.89062 63.6973 10.0312C63.5645 10.1719 63.459 10.3398 63.3809 10.5352C63.3066 10.7266 63.2578 10.9375 63.2344 11.168L62.9297 11.3438C62.9297 10.9609 62.9668 10.6016 63.041 10.2656C63.1191 9.92969 63.2383 9.63281 63.3984 9.375C63.5586 9.11328 63.7617 8.91016 64.0078 8.76562C64.2578 8.61719 64.5547 8.54297 64.8984 8.54297C64.9766 8.54297 65.0664 8.55273 65.168 8.57227C65.2695 8.58789 65.3398 8.60547 65.3789 8.625Z" fill="#AAAAAA"/>
<path d="M4.27148 24.4219V33H3.1875V25.7754L1.00195 26.5723V25.5938L4.10156 24.4219H4.27148ZM8.09766 24.4688H9.19336L11.9883 31.4238L14.7773 24.4688H15.8789L12.4102 33H11.5547L8.09766 24.4688ZM7.74023 24.4688H8.70703L8.86523 29.6719V33H7.74023V24.4688ZM15.2637 24.4688H16.2305V33H15.1055V29.6719L15.2637 24.4688ZM22.957 32.0215L24.6914 26.6602H25.7988L23.5195 33H22.793L22.957 32.0215ZM21.5098 26.6602L23.2969 32.0508L23.4199 33H22.6934L20.3965 26.6602H21.5098ZM28.0195 26.6602V33H26.9297V26.6602H28.0195ZM26.8477 24.9785C26.8477 24.8027 26.9004 24.6543 27.0059 24.5332C27.1152 24.4121 27.2754 24.3516 27.4863 24.3516C27.6934 24.3516 27.8516 24.4121 27.9609 24.5332C28.0742 24.6543 28.1309 24.8027 28.1309 24.9785C28.1309 25.1465 28.0742 25.291 27.9609 25.4121C27.8516 25.5293 27.6934 25.5879 27.4863 25.5879C27.2754 25.5879 27.1152 25.5293 27.0059 25.4121C26.9004 25.291 26.8477 25.1465 26.8477 24.9785ZM32.3906 33.1172C31.9492 33.1172 31.5488 33.043 31.1895 32.8945C30.834 32.7422 30.5273 32.5293 30.2695 32.2559C30.0156 31.9824 29.8203 31.6582 29.6836 31.2832C29.5469 30.9082 29.4785 30.498 29.4785 30.0527V29.8066C29.4785 29.291 29.5547 28.832 29.707 28.4297C29.8594 28.0234 30.0664 27.6797 30.3281 27.3984C30.5898 27.1172 30.8867 26.9043 31.2188 26.7598C31.5508 26.6152 31.8945 26.543 32.25 26.543C32.7031 26.543 33.0938 26.6211 33.4219 26.7773C33.7539 26.9336 34.0254 27.1523 34.2363 27.4336C34.4473 27.7109 34.6035 28.0391 34.7051 28.418C34.8066 28.793 34.8574 29.2031 34.8574 29.6484V30.1348H30.123V29.25H33.7734V29.168C33.7578 28.8867 33.6992 28.6133 33.5977 28.3477C33.5 28.082 33.3438 27.8633 33.1289 27.6914C32.9141 27.5195 32.6211 27.4336 32.25 27.4336C32.0039 27.4336 31.7773 27.4863 31.5703 27.5918C31.3633 27.6934 31.1855 27.8457 31.0371 28.0488C30.8887 28.252 30.7734 28.5 30.6914 28.793C30.6094 29.0859 30.5684 29.4238 30.5684 29.8066V30.0527C30.5684 30.3535 30.6094 30.6367 30.6914 30.9023C30.7773 31.1641 30.9004 31.3945 31.0605 31.5938C31.2246 31.793 31.4219 31.9492 31.6523 32.0625C31.8867 32.1758 32.1523 32.2324 32.4492 32.2324C32.832 32.2324 33.1562 32.1543 33.4219 31.998C33.6875 31.8418 33.9199 31.6328 34.1191 31.3711L34.7754 31.8926C34.6387 32.0996 34.4648 32.2969 34.2539 32.4844C34.043 32.6719 33.7832 32.8242 33.4746 32.9414C33.1699 33.0586 32.8086 33.1172 32.3906 33.1172ZM37.7285 31.875L39.3574 26.6602H40.0723L39.9316 27.6973L38.2734 33H37.5762L37.7285 31.875ZM36.6328 26.6602L38.0215 31.9336L38.1211 33H37.3887L35.5488 26.6602H36.6328ZM41.6309 31.8926L42.9551 26.6602H44.0332L42.1934 33H41.4668L41.6309 31.8926ZM40.2305 26.6602L41.8242 31.7871L42.0059 33H41.3145L39.6094 27.6855L39.4688 26.6602H40.2305ZM48.8379 31.3184C48.8379 31.1621 48.8027 31.0176 48.7324 30.8848C48.666 30.748 48.5273 30.625 48.3164 30.5156C48.1094 30.4023 47.7969 30.3047 47.3789 30.2227C47.0273 30.1484 46.709 30.0605 46.4238 29.959C46.1426 29.8574 45.9023 29.7344 45.7031 29.5898C45.5078 29.4453 45.3574 29.2754 45.252 29.0801C45.1465 28.8848 45.0938 28.6562 45.0938 28.3945C45.0938 28.1445 45.1484 27.9082 45.2578 27.6855C45.3711 27.4629 45.5293 27.2656 45.7324 27.0938C45.9395 26.9219 46.1875 26.7871 46.4766 26.6895C46.7656 26.5918 47.0879 26.543 47.4434 26.543C47.9512 26.543 48.3848 26.6328 48.7441 26.8125C49.1035 26.9922 49.3789 27.2324 49.5703 27.5332C49.7617 27.8301 49.8574 28.1602 49.8574 28.5234H48.7734C48.7734 28.3477 48.7207 28.1777 48.6152 28.0137C48.5137 27.8457 48.3633 27.707 48.1641 27.5977C47.9688 27.4883 47.7285 27.4336 47.4434 27.4336C47.1426 27.4336 46.8984 27.4805 46.7109 27.5742C46.5273 27.6641 46.3926 27.7793 46.3066 27.9199C46.2246 28.0605 46.1836 28.209 46.1836 28.3652C46.1836 28.4824 46.2031 28.5879 46.2422 28.6816C46.2852 28.7715 46.3594 28.8555 46.4648 28.9336C46.5703 29.0078 46.7188 29.0781 46.9102 29.1445C47.1016 29.2109 47.3457 29.2773 47.6426 29.3438C48.1621 29.4609 48.5898 29.6016 48.9258 29.7656C49.2617 29.9297 49.5117 30.1309 49.6758 30.3691C49.8398 30.6074 49.9219 30.8965 49.9219 31.2363C49.9219 31.5137 49.8633 31.7676 49.7461 31.998C49.6328 32.2285 49.4668 32.4277 49.248 32.5957C49.0332 32.7598 48.7754 32.8887 48.4746 32.9824C48.1777 33.0723 47.8438 33.1172 47.4727 33.1172C46.9141 33.1172 46.4414 33.0176 46.0547 32.8184C45.668 32.6191 45.375 32.3613 45.1758 32.0449C44.9766 31.7285 44.877 31.3945 44.877 31.043H45.9668C45.9824 31.3398 46.0684 31.5762 46.2246 31.752C46.3809 31.9238 46.5723 32.0469 46.7988 32.1211C47.0254 32.1914 47.25 32.2266 47.4727 32.2266C47.7695 32.2266 48.0176 32.1875 48.2168 32.1094C48.4199 32.0312 48.5742 31.9238 48.6797 31.7871C48.7852 31.6504 48.8379 31.4941 48.8379 31.3184ZM54.3398 32.4258C54.3398 32.2422 54.3965 32.0879 54.5098 31.9629C54.627 31.834 54.7949 31.7695 55.0137 31.7695C55.2324 31.7695 55.3984 31.834 55.5117 31.9629C55.6289 32.0879 55.6875 32.2422 55.6875 32.4258C55.6875 32.6055 55.6289 32.7578 55.5117 32.8828C55.3984 33.0078 55.2324 33.0703 55.0137 33.0703C54.7949 33.0703 54.627 33.0078 54.5098 32.8828C54.3965 32.7578 54.3398 32.6055 54.3398 32.4258ZM61.9277 28.2012H62.7012C63.0801 28.2012 63.3926 28.1387 63.6387 28.0137C63.8887 27.8848 64.0742 27.7109 64.1953 27.4922C64.3203 27.2695 64.3828 27.0195 64.3828 26.7422C64.3828 26.4141 64.3281 26.1387 64.2188 25.916C64.1094 25.6934 63.9453 25.5254 63.7266 25.4121C63.5078 25.2988 63.2305 25.2422 62.8945 25.2422C62.5898 25.2422 62.3203 25.3027 62.0859 25.4238C61.8555 25.541 61.6738 25.709 61.541 25.9277C61.4121 26.1465 61.3477 26.4043 61.3477 26.7012H60.2637C60.2637 26.2676 60.373 25.873 60.5918 25.5176C60.8105 25.1621 61.1172 24.8789 61.5117 24.668C61.9102 24.457 62.3711 24.3516 62.8945 24.3516C63.4102 24.3516 63.8613 24.4434 64.248 24.627C64.6348 24.8066 64.9355 25.0762 65.1504 25.4355C65.3652 25.791 65.4727 26.2344 65.4727 26.7656C65.4727 26.9805 65.4219 27.2109 65.3203 27.457C65.2227 27.6992 65.0684 27.9258 64.8574 28.1367C64.6504 28.3477 64.3809 28.5215 64.0488 28.6582C63.7168 28.791 63.3184 28.8574 62.8535 28.8574H61.9277V28.2012ZM61.9277 29.0918V28.4414H62.8535C63.3965 28.4414 63.8457 28.5059 64.2012 28.6348C64.5566 28.7637 64.8359 28.9355 65.0391 29.1504C65.2461 29.3652 65.3906 29.6016 65.4727 29.8594C65.5586 30.1133 65.6016 30.3672 65.6016 30.6211C65.6016 31.0195 65.5332 31.373 65.3965 31.6816C65.2637 31.9902 65.0742 32.252 64.8281 32.4668C64.5859 32.6816 64.3008 32.8438 63.9727 32.9531C63.6445 33.0625 63.2871 33.1172 62.9004 33.1172C62.5293 33.1172 62.1797 33.0645 61.8516 32.959C61.5273 32.8535 61.2402 32.7012 60.9902 32.502C60.7402 32.2988 60.5449 32.0508 60.4043 31.7578C60.2637 31.4609 60.1934 31.123 60.1934 30.7441H61.2773C61.2773 31.041 61.3418 31.3008 61.4707 31.5234C61.6035 31.7461 61.791 31.9199 62.0332 32.0449C62.2793 32.166 62.5684 32.2266 62.9004 32.2266C63.2324 32.2266 63.5176 32.1699 63.7559 32.0566C63.998 31.9395 64.1836 31.7637 64.3125 31.5293C64.4453 31.2949 64.5117 31 64.5117 30.6445C64.5117 30.2891 64.4375 29.998 64.2891 29.7715C64.1406 29.541 63.9297 29.3711 63.6562 29.2617C63.3867 29.1484 63.0684 29.0918 62.7012 29.0918H61.9277ZM71.9707 32.3438L73.7344 26.6602H74.8945L72.3516 33.9785C72.293 34.1348 72.2148 34.3027 72.1172 34.4824C72.0234 34.666 71.9023 34.8398 71.7539 35.0039C71.6055 35.168 71.4258 35.3008 71.2148 35.4023C71.0078 35.5078 70.7598 35.5605 70.4707 35.5605C70.3848 35.5605 70.2754 35.5488 70.1426 35.5254C70.0098 35.502 69.916 35.4824 69.8613 35.4668L69.8555 34.5879C69.8867 34.5918 69.9355 34.5957 70.002 34.5996C70.0723 34.6074 70.1211 34.6113 70.1484 34.6113C70.3945 34.6113 70.6035 34.5781 70.7754 34.5117C70.9473 34.4492 71.0918 34.3418 71.209 34.1895C71.3301 34.041 71.4336 33.8359 71.5195 33.5742L71.9707 32.3438ZM70.6758 26.6602L72.3223 31.582L72.6035 32.7246L71.8242 33.123L69.4922 26.6602H70.6758ZM78.4219 33.1172C77.9805 33.1172 77.5801 33.043 77.2207 32.8945C76.8652 32.7422 76.5586 32.5293 76.3008 32.2559C76.0469 31.9824 75.8516 31.6582 75.7148 31.2832C75.5781 30.9082 75.5098 30.498 75.5098 30.0527V29.8066C75.5098 29.291 75.5859 28.832 75.7383 28.4297C75.8906 28.0234 76.0977 27.6797 76.3594 27.3984C76.6211 27.1172 76.918 26.9043 77.25 26.7598C77.582 26.6152 77.9258 26.543 78.2812 26.543C78.7344 26.543 79.125 26.6211 79.4531 26.7773C79.7852 26.9336 80.0566 27.1523 80.2676 27.4336C80.4785 27.7109 80.6348 28.0391 80.7363 28.418C80.8379 28.793 80.8887 29.2031 80.8887 29.6484V30.1348H76.1543V29.25H79.8047V29.168C79.7891 28.8867 79.7305 28.6133 79.6289 28.3477C79.5312 28.082 79.375 27.8633 79.1602 27.6914C78.9453 27.5195 78.6523 27.4336 78.2812 27.4336C78.0352 27.4336 77.8086 27.4863 77.6016 27.5918C77.3945 27.6934 77.2168 27.8457 77.0684 28.0488C76.9199 28.252 76.8047 28.5 76.7227 28.793C76.6406 29.0859 76.5996 29.4238 76.5996 29.8066V30.0527C76.5996 30.3535 76.6406 30.6367 76.7227 30.9023C76.8086 31.1641 76.9316 31.3945 77.0918 31.5938C77.2559 31.793 77.4531 31.9492 77.6836 32.0625C77.918 32.1758 78.1836 32.2324 78.4805 32.2324C78.8633 32.2324 79.1875 32.1543 79.4531 31.998C79.7188 31.8418 79.9512 31.6328 80.1504 31.3711L80.8066 31.8926C80.6699 32.0996 80.4961 32.2969 80.2852 32.4844C80.0742 32.6719 79.8145 32.8242 79.5059 32.9414C79.2012 33.0586 78.8398 33.1172 78.4219 33.1172ZM85.8926 31.916V28.6523C85.8926 28.4023 85.8418 28.1855 85.7402 28.002C85.6426 27.8145 85.4941 27.6699 85.2949 27.5684C85.0957 27.4668 84.8496 27.416 84.5566 27.416C84.2832 27.416 84.043 27.4629 83.8359 27.5566C83.6328 27.6504 83.4727 27.7734 83.3555 27.9258C83.2422 28.0781 83.1855 28.2422 83.1855 28.418H82.1016C82.1016 28.1914 82.1602 27.9668 82.2773 27.7441C82.3945 27.5215 82.5625 27.3203 82.7812 27.1406C83.0039 26.957 83.2695 26.8125 83.5781 26.707C83.8906 26.5977 84.2383 26.543 84.6211 26.543C85.082 26.543 85.4883 26.6211 85.8398 26.7773C86.1953 26.9336 86.4727 27.1699 86.6719 27.4863C86.875 27.7988 86.9766 28.1914 86.9766 28.6641V31.6172C86.9766 31.8281 86.9941 32.0527 87.0293 32.291C87.0684 32.5293 87.125 32.7344 87.1992 32.9062V33H86.0684C86.0137 32.875 85.9707 32.709 85.9395 32.502C85.9082 32.291 85.8926 32.0957 85.8926 31.916ZM86.0801 29.1562L86.0918 29.918H84.9961C84.6875 29.918 84.4121 29.9434 84.1699 29.9941C83.9277 30.041 83.7246 30.1133 83.5605 30.2109C83.3965 30.3086 83.2715 30.4316 83.1855 30.5801C83.0996 30.7246 83.0566 30.8945 83.0566 31.0898C83.0566 31.2891 83.1016 31.4707 83.1914 31.6348C83.2812 31.7988 83.416 31.9297 83.5957 32.0273C83.7793 32.1211 84.0039 32.168 84.2695 32.168C84.6016 32.168 84.8945 32.0977 85.1484 31.957C85.4023 31.8164 85.6035 31.6445 85.752 31.4414C85.9043 31.2383 85.9863 31.041 85.998 30.8496L86.4609 31.3711C86.4336 31.5352 86.3594 31.7168 86.2383 31.916C86.1172 32.1152 85.9551 32.3066 85.752 32.4902C85.5527 32.6699 85.3145 32.8203 85.0371 32.9414C84.7637 33.0586 84.4551 33.1172 84.1113 33.1172C83.6816 33.1172 83.3047 33.0332 82.9805 32.8652C82.6602 32.6973 82.4102 32.4727 82.2305 32.1914C82.0547 31.9062 81.9668 31.5879 81.9668 31.2363C81.9668 30.8965 82.0332 30.5977 82.166 30.3398C82.2988 30.0781 82.4902 29.8613 82.7402 29.6895C82.9902 29.5137 83.291 29.3809 83.6426 29.291C83.9941 29.2012 84.3867 29.1562 84.8203 29.1562H86.0801ZM89.7656 27.6562V33H88.6816V26.6602H89.7363L89.7656 27.6562ZM91.7461 26.625L91.7402 27.6328C91.6504 27.6133 91.5645 27.6016 91.4824 27.5977C91.4043 27.5898 91.3145 27.5859 91.2129 27.5859C90.9629 27.5859 90.7422 27.625 90.5508 27.7031C90.3594 27.7812 90.1973 27.8906 90.0645 28.0312C89.9316 28.1719 89.8262 28.3398 89.748 28.5352C89.6738 28.7266 89.625 28.9375 89.6016 29.168L89.2969 29.3438C89.2969 28.9609 89.334 28.6016 89.4082 28.2656C89.4863 27.9297 89.6055 27.6328 89.7656 27.375C89.9258 27.1133 90.1289 26.9102 90.375 26.7656C90.625 26.6172 90.9219 26.543 91.2656 26.543C91.3438 26.543 91.4336 26.5527 91.5352 26.5723C91.6367 26.5879 91.707 26.6055 91.7461 26.625ZM96.4395 31.3184C96.4395 31.1621 96.4043 31.0176 96.334 30.8848C96.2676 30.748 96.1289 30.625 95.918 30.5156C95.7109 30.4023 95.3984 30.3047 94.9805 30.2227C94.6289 30.1484 94.3105 30.0605 94.0254 29.959C93.7441 29.8574 93.5039 29.7344 93.3047 29.5898C93.1094 29.4453 92.959 29.2754 92.8535 29.0801C92.748 28.8848 92.6953 28.6562 92.6953 28.3945C92.6953 28.1445 92.75 27.9082 92.8594 27.6855C92.9727 27.4629 93.1309 27.2656 93.334 27.0938C93.541 26.9219 93.7891 26.7871 94.0781 26.6895C94.3672 26.5918 94.6895 26.543 95.0449 26.543C95.5527 26.543 95.9863 26.6328 96.3457 26.8125C96.7051 26.9922 96.9805 27.2324 97.1719 27.5332C97.3633 27.8301 97.459 28.1602 97.459 28.5234H96.375C96.375 28.3477 96.3223 28.1777 96.2168 28.0137C96.1152 27.8457 95.9648 27.707 95.7656 27.5977C95.5703 27.4883 95.3301 27.4336 95.0449 27.4336C94.7441 27.4336 94.5 27.4805 94.3125 27.5742C94.1289 27.6641 93.9941 27.7793 93.9082 27.9199C93.8262 28.0605 93.7852 28.209 93.7852 28.3652C93.7852 28.4824 93.8047 28.5879 93.8438 28.6816C93.8867 28.7715 93.9609 28.8555 94.0664 28.9336C94.1719 29.0078 94.3203 29.0781 94.5117 29.1445C94.7031 29.2109 94.9473 29.2773 95.2441 29.3438C95.7637 29.4609 96.1914 29.6016 96.5273 29.7656C96.8633 29.9297 97.1133 30.1309 97.2773 30.3691C97.4414 30.6074 97.5234 30.8965 97.5234 31.2363C97.5234 31.5137 97.4648 31.7676 97.3477 31.998C97.2344 32.2285 97.0684 32.4277 96.8496 32.5957C96.6348 32.7598 96.377 32.8887 96.0762 32.9824C95.7793 33.0723 95.4453 33.1172 95.0742 33.1172C94.5156 33.1172 94.043 33.0176 93.6562 32.8184C93.2695 32.6191 92.9766 32.3613 92.7773 32.0449C92.5781 31.7285 92.4785 31.3945 92.4785 31.043H93.5684C93.584 31.3398 93.6699 31.5762 93.8262 31.752C93.9824 31.9238 94.1738 32.0469 94.4004 32.1211C94.627 32.1914 94.8516 32.2266 95.0742 32.2266C95.3711 32.2266 95.6191 32.1875 95.8184 32.1094C96.0215 32.0312 96.1758 31.9238 96.2812 31.7871C96.3867 31.6504 96.4395 31.4941 96.4395 31.3184ZM105.662 31.916V28.6523C105.662 28.4023 105.611 28.1855 105.51 28.002C105.412 27.8145 105.264 27.6699 105.064 27.5684C104.865 27.4668 104.619 27.416 104.326 27.416C104.053 27.416 103.812 27.4629 103.605 27.5566C103.402 27.6504 103.242 27.7734 103.125 27.9258C103.012 28.0781 102.955 28.2422 102.955 28.418H101.871C101.871 28.1914 101.93 27.9668 102.047 27.7441C102.164 27.5215 102.332 27.3203 102.551 27.1406C102.773 26.957 103.039 26.8125 103.348 26.707C103.66 26.5977 104.008 26.543 104.391 26.543C104.852 26.543 105.258 26.6211 105.609 26.7773C105.965 26.9336 106.242 27.1699 106.441 27.4863C106.645 27.7988 106.746 28.1914 106.746 28.6641V31.6172C106.746 31.8281 106.764 32.0527 106.799 32.291C106.838 32.5293 106.895 32.7344 106.969 32.9062V33H105.838C105.783 32.875 105.74 32.709 105.709 32.502C105.678 32.291 105.662 32.0957 105.662 31.916ZM105.85 29.1562L105.861 29.918H104.766C104.457 29.918 104.182 29.9434 103.939 29.9941C103.697 30.041 103.494 30.1133 103.33 30.2109C103.166 30.3086 103.041 30.4316 102.955 30.5801C102.869 30.7246 102.826 30.8945 102.826 31.0898C102.826 31.2891 102.871 31.4707 102.961 31.6348C103.051 31.7988 103.186 31.9297 103.365 32.0273C103.549 32.1211 103.773 32.168 104.039 32.168C104.371 32.168 104.664 32.0977 104.918 31.957C105.172 31.8164 105.373 31.6445 105.521 31.4414C105.674 31.2383 105.756 31.041 105.768 30.8496L106.23 31.3711C106.203 31.5352 106.129 31.7168 106.008 31.916C105.887 32.1152 105.725 32.3066 105.521 32.4902C105.322 32.6699 105.084 32.8203 104.807 32.9414C104.533 33.0586 104.225 33.1172 103.881 33.1172C103.451 33.1172 103.074 33.0332 102.75 32.8652C102.43 32.6973 102.18 32.4727 102 32.1914C101.824 31.9062 101.736 31.5879 101.736 31.2363C101.736 30.8965 101.803 30.5977 101.936 30.3398C102.068 30.0781 102.26 29.8613 102.51 29.6895C102.76 29.5137 103.061 29.3809 103.412 29.291C103.764 29.2012 104.156 29.1562 104.59 29.1562H105.85ZM112.559 26.6602H113.543V32.8652C113.543 33.4238 113.43 33.9004 113.203 34.2949C112.977 34.6895 112.66 34.9883 112.254 35.1914C111.852 35.3984 111.387 35.502 110.859 35.502C110.641 35.502 110.383 35.4668 110.086 35.3965C109.793 35.3301 109.504 35.2148 109.219 35.0508C108.938 34.8906 108.701 34.6738 108.51 34.4004L109.078 33.7559C109.344 34.0762 109.621 34.2988 109.91 34.4238C110.203 34.5488 110.492 34.6113 110.777 34.6113C111.121 34.6113 111.418 34.5469 111.668 34.418C111.918 34.2891 112.111 34.0977 112.248 33.8438C112.389 33.5938 112.459 33.2852 112.459 32.918V28.0547L112.559 26.6602ZM108.193 29.9004V29.7773C108.193 29.293 108.25 28.8535 108.363 28.459C108.48 28.0605 108.646 27.7188 108.861 27.4336C109.08 27.1484 109.344 26.9297 109.652 26.7773C109.961 26.6211 110.309 26.543 110.695 26.543C111.094 26.543 111.441 26.6133 111.738 26.7539C112.039 26.8906 112.293 27.0918 112.5 27.3574C112.711 27.6191 112.877 27.9355 112.998 28.3066C113.119 28.6777 113.203 29.0977 113.25 29.5664V30.1055C113.207 30.5703 113.123 30.9883 112.998 31.3594C112.877 31.7305 112.711 32.0469 112.5 32.3086C112.293 32.5703 112.039 32.7715 111.738 32.9121C111.438 33.0488 111.086 33.1172 110.684 33.1172C110.305 33.1172 109.961 33.0371 109.652 32.877C109.348 32.7168 109.086 32.4922 108.867 32.2031C108.648 31.9141 108.48 31.5742 108.363 31.1836C108.25 30.7891 108.193 30.3613 108.193 29.9004ZM109.277 29.7773V29.9004C109.277 30.2168 109.309 30.5137 109.371 30.791C109.438 31.0684 109.537 31.3125 109.67 31.5234C109.807 31.7344 109.98 31.9004 110.191 32.0215C110.402 32.1387 110.654 32.1973 110.947 32.1973C111.307 32.1973 111.604 32.1211 111.838 31.9688C112.072 31.8164 112.258 31.6152 112.395 31.3652C112.535 31.1152 112.645 30.8438 112.723 30.5508V29.1387C112.68 28.9238 112.613 28.7168 112.523 28.5176C112.438 28.3145 112.324 28.1348 112.184 27.9785C112.047 27.8184 111.877 27.6914 111.674 27.5977C111.471 27.5039 111.232 27.457 110.959 27.457C110.662 27.457 110.406 27.5195 110.191 27.6445C109.98 27.7656 109.807 27.9336 109.67 28.1484C109.537 28.3594 109.438 28.6055 109.371 28.8867C109.309 29.1641 109.277 29.4609 109.277 29.7773ZM114.902 29.9004V29.7656C114.902 29.3086 114.969 28.8848 115.102 28.4941C115.234 28.0996 115.426 27.7578 115.676 27.4688C115.926 27.1758 116.229 26.9492 116.584 26.7891C116.939 26.625 117.338 26.543 117.779 26.543C118.225 26.543 118.625 26.625 118.98 26.7891C119.34 26.9492 119.645 27.1758 119.895 27.4688C120.148 27.7578 120.342 28.0996 120.475 28.4941C120.607 28.8848 120.674 29.3086 120.674 29.7656V29.9004C120.674 30.3574 120.607 30.7812 120.475 31.1719C120.342 31.5625 120.148 31.9043 119.895 32.1973C119.645 32.4863 119.342 32.7129 118.986 32.877C118.635 33.0371 118.236 33.1172 117.791 33.1172C117.346 33.1172 116.945 33.0371 116.59 32.877C116.234 32.7129 115.93 32.4863 115.676 32.1973C115.426 31.9043 115.234 31.5625 115.102 31.1719C114.969 30.7812 114.902 30.3574 114.902 29.9004ZM115.986 29.7656V29.9004C115.986 30.2168 116.023 30.5156 116.098 30.7969C116.172 31.0742 116.283 31.3203 116.432 31.5352C116.584 31.75 116.773 31.9199 117 32.0449C117.227 32.166 117.49 32.2266 117.791 32.2266C118.088 32.2266 118.348 32.166 118.57 32.0449C118.797 31.9199 118.984 31.75 119.133 31.5352C119.281 31.3203 119.393 31.0742 119.467 30.7969C119.545 30.5156 119.584 30.2168 119.584 29.9004V29.7656C119.584 29.4531 119.545 29.1582 119.467 28.8809C119.393 28.5996 119.279 28.3516 119.127 28.1367C118.979 27.918 118.791 27.7461 118.564 27.6211C118.342 27.4961 118.08 27.4336 117.779 27.4336C117.482 27.4336 117.221 27.4961 116.994 27.6211C116.771 27.7461 116.584 27.918 116.432 28.1367C116.283 28.3516 116.172 28.5996 116.098 28.8809C116.023 29.1582 115.986 29.4531 115.986 29.7656Z" fill="#AAAAAA"/>
</svg>
