<svg width="202" height="40" viewBox="0 0 202 40" fill="none" xmlns="http://www.w3.org/2000/svg">
<path d="M1.34766 6.46875H2.44336L5.23828 13.4238L8.02734 6.46875H9.12891L5.66016 15H4.80469L1.34766 6.46875ZM0.990234 6.46875H1.95703L2.11523 11.6719V15H0.990234V6.46875ZM8.51367 6.46875H9.48047V15H8.35547V11.6719L8.51367 6.46875ZM15.041 13.916V10.6523C15.041 10.4023 14.9902 10.1855 14.8887 10.002C14.791 9.81445 14.6426 9.66992 14.4434 9.56836C14.2441 9.4668 13.998 9.41602 13.7051 9.41602C13.4316 9.41602 13.1914 9.46289 12.9844 9.55664C12.7812 9.65039 12.6211 9.77344 12.5039 9.92578C12.3906 10.0781 12.334 10.2422 12.334 10.418H11.25C11.25 10.1914 11.3086 9.9668 11.4258 9.74414C11.543 9.52148 11.7109 9.32031 11.9297 9.14062C12.1523 8.95703 12.418 8.8125 12.7266 8.70703C13.0391 8.59766 13.3867 8.54297 13.7695 8.54297C14.2305 8.54297 14.6367 8.62109 14.9883 8.77734C15.3438 8.93359 15.6211 9.16992 15.8203 9.48633C16.0234 9.79883 16.125 10.1914 16.125 10.6641V13.6172C16.125 13.8281 16.1426 14.0527 16.1777 14.291C16.2168 14.5293 16.2734 14.7344 16.3477 14.9062V15H15.2168C15.1621 14.875 15.1191 14.709 15.0879 14.502C15.0566 14.291 15.041 14.0957 15.041 13.916ZM15.2285 11.1562L15.2402 11.918H14.1445C13.8359 11.918 13.5605 11.9434 13.3184 11.9941C13.0762 12.041 12.873 12.1133 12.709 12.2109C12.5449 12.3086 12.4199 12.4316 12.334 12.5801C12.248 12.7246 12.2051 12.8945 12.2051 13.0898C12.2051 13.2891 12.25 13.4707 12.3398 13.6348C12.4297 13.7988 12.5645 13.9297 12.7441 14.0273C12.9277 14.1211 13.1523 14.168 13.418 14.168C13.75 14.168 14.043 14.0977 14.2969 13.957C14.5508 13.8164 14.752 13.6445 14.9004 13.4414C15.0527 13.2383 15.1348 13.041 15.1465 12.8496L15.6094 13.3711C15.582 13.5352 15.5078 13.7168 15.3867 13.916C15.2656 14.1152 15.1035 14.3066 14.9004 14.4902C14.7012 14.6699 14.4629 14.8203 14.1855 14.9414C13.9121 15.0586 13.6035 15.1172 13.2598 15.1172C12.8301 15.1172 12.4531 15.0332 12.1289 14.8652C11.8086 14.6973 11.5586 14.4727 11.3789 14.1914C11.2031 13.9062 11.1152 13.5879 11.1152 13.2363C11.1152 12.8965 11.1816 12.5977 11.3145 12.3398C11.4473 12.0781 11.6387 11.8613 11.8887 11.6895C12.1387 11.5137 12.4395 11.3809 12.791 11.291C13.1426 11.2012 13.5352 11.1562 13.9688 11.1562H15.2285ZM18.9141 9.65625V15H17.8301V8.66016H18.8848L18.9141 9.65625ZM20.8945 8.625L20.8887 9.63281C20.7988 9.61328 20.7129 9.60156 20.6309 9.59766C20.5527 9.58984 20.4629 9.58594 20.3613 9.58594C20.1113 9.58594 19.8906 9.625 19.6992 9.70312C19.5078 9.78125 19.3457 9.89062 19.2129 10.0312C19.0801 10.1719 18.9746 10.3398 18.8965 10.5352C18.8223 10.7266 18.7734 10.9375 18.75 11.168L18.4453 11.3438C18.4453 10.9609 18.4824 10.6016 18.5566 10.2656C18.6348 9.92969 18.7539 9.63281 18.9141 9.375C19.0742 9.11328 19.2773 8.91016 19.5234 8.76562C19.7734 8.61719 20.0703 8.54297 20.4141 8.54297C20.4922 8.54297 20.582 8.55273 20.6836 8.57227C20.7852 8.58789 20.8555 8.60547 20.8945 8.625ZM24.3164 14.2266C24.5742 14.2266 24.8125 14.1738 25.0312 14.0684C25.25 13.9629 25.4297 13.8184 25.5703 13.6348C25.7109 13.4473 25.791 13.2344 25.8105 12.9961H26.8418C26.8223 13.3711 26.6953 13.7207 26.4609 14.0449C26.2305 14.3652 25.9277 14.625 25.5527 14.8242C25.1777 15.0195 24.7656 15.1172 24.3164 15.1172C23.8398 15.1172 23.4238 15.0332 23.0684 14.8652C22.7168 14.6973 22.4238 14.4668 22.1895 14.1738C21.959 13.8809 21.7852 13.5449 21.668 13.166C21.5547 12.7832 21.498 12.3789 21.498 11.9531V11.707C21.498 11.2812 21.5547 10.8789 21.668 10.5C21.7852 10.1172 21.959 9.7793 22.1895 9.48633C22.4238 9.19336 22.7168 8.96289 23.0684 8.79492C23.4238 8.62695 23.8398 8.54297 24.3164 8.54297C24.8125 8.54297 25.2461 8.64453 25.6172 8.84766C25.9883 9.04688 26.2793 9.32031 26.4902 9.66797C26.7051 10.0117 26.8223 10.4023 26.8418 10.8398H25.8105C25.791 10.5781 25.7168 10.3418 25.5879 10.1309C25.4629 9.91992 25.291 9.75195 25.0723 9.62695C24.8574 9.49805 24.6055 9.43359 24.3164 9.43359C23.9844 9.43359 23.7051 9.5 23.4785 9.63281C23.2559 9.76172 23.0781 9.9375 22.9453 10.1602C22.8164 10.3789 22.7227 10.623 22.6641 10.8926C22.6094 11.1582 22.582 11.4297 22.582 11.707V11.9531C22.582 12.2305 22.6094 12.5039 22.6641 12.7734C22.7188 13.043 22.8105 13.2871 22.9395 13.5059C23.0723 13.7246 23.25 13.9004 23.4727 14.0332C23.6992 14.1621 23.9805 14.2266 24.3164 14.2266ZM31.9395 13.5352V8.66016H33.0293V15H31.9922L31.9395 13.5352ZM32.1445 12.1992L32.5957 12.1875C32.5957 12.6094 32.5508 13 32.4609 13.3594C32.375 13.7148 32.2344 14.0234 32.0391 14.2852C31.8438 14.5469 31.5879 14.752 31.2715 14.9004C30.9551 15.0449 30.5703 15.1172 30.1172 15.1172C29.8086 15.1172 29.5254 15.0723 29.2676 14.9824C29.0137 14.8926 28.7949 14.7539 28.6113 14.5664C28.4277 14.3789 28.2852 14.1348 28.1836 13.834C28.0859 13.5332 28.0371 13.1719 28.0371 12.75V8.66016H29.1211V12.7617C29.1211 13.0469 29.1523 13.2832 29.2148 13.4707C29.2812 13.6543 29.3691 13.8008 29.4785 13.9102C29.5918 14.0156 29.7168 14.0898 29.8535 14.1328C29.9941 14.1758 30.1387 14.1973 30.2871 14.1973C30.748 14.1973 31.1133 14.1094 31.3828 13.9336C31.6523 13.7539 31.8457 13.5137 31.9629 13.2129C32.084 12.9082 32.1445 12.5703 32.1445 12.1992ZM38.373 13.3184C38.373 13.1621 38.3379 13.0176 38.2676 12.8848C38.2012 12.748 38.0625 12.625 37.8516 12.5156C37.6445 12.4023 37.332 12.3047 36.9141 12.2227C36.5625 12.1484 36.2441 12.0605 35.959 11.959C35.6777 11.8574 35.4375 11.7344 35.2383 11.5898C35.043 11.4453 34.8926 11.2754 34.7871 11.0801C34.6816 10.8848 34.6289 10.6562 34.6289 10.3945C34.6289 10.1445 34.6836 9.9082 34.793 9.68555C34.9062 9.46289 35.0645 9.26562 35.2676 9.09375C35.4746 8.92188 35.7227 8.78711 36.0117 8.68945C36.3008 8.5918 36.623 8.54297 36.9785 8.54297C37.4863 8.54297 37.9199 8.63281 38.2793 8.8125C38.6387 8.99219 38.9141 9.23242 39.1055 9.5332C39.2969 9.83008 39.3926 10.1602 39.3926 10.5234H38.3086C38.3086 10.3477 38.2559 10.1777 38.1504 10.0137C38.0488 9.8457 37.8984 9.70703 37.6992 9.59766C37.5039 9.48828 37.2637 9.43359 36.9785 9.43359C36.6777 9.43359 36.4336 9.48047 36.2461 9.57422C36.0625 9.66406 35.9277 9.7793 35.8418 9.91992C35.7598 10.0605 35.7188 10.209 35.7188 10.3652C35.7188 10.4824 35.7383 10.5879 35.7773 10.6816C35.8203 10.7715 35.8945 10.8555 36 10.9336C36.1055 11.0078 36.2539 11.0781 36.4453 11.1445C36.6367 11.2109 36.8809 11.2773 37.1777 11.3438C37.6973 11.4609 38.125 11.6016 38.4609 11.7656C38.7969 11.9297 39.0469 12.1309 39.2109 12.3691C39.375 12.6074 39.457 12.8965 39.457 13.2363C39.457 13.5137 39.3984 13.7676 39.2812 13.998C39.168 14.2285 39.002 14.4277 38.7832 14.5957C38.5684 14.7598 38.3105 14.8887 38.0098 14.9824C37.7129 15.0723 37.3789 15.1172 37.0078 15.1172C36.4492 15.1172 35.9766 15.0176 35.5898 14.8184C35.2031 14.6191 34.9102 14.3613 34.7109 14.0449C34.5117 13.7285 34.4121 13.3945 34.4121 13.043H35.502C35.5176 13.3398 35.6035 13.5762 35.7598 13.752C35.916 13.9238 36.1074 14.0469 36.334 14.1211C36.5605 14.1914 36.7852 14.2266 37.0078 14.2266C37.3047 14.2266 37.5527 14.1875 37.752 14.1094C37.9551 14.0312 38.1094 13.9238 38.2148 13.7871C38.3203 13.6504 38.373 13.4941 38.373 13.3184ZM49.1953 14.0801V15H44.9297V14.0801H49.1953ZM45.1523 6.46875V15H44.0215V6.46875H45.1523ZM52.957 15.1172C52.5156 15.1172 52.1152 15.043 51.7559 14.8945C51.4004 14.7422 51.0938 14.5293 50.8359 14.2559C50.582 13.9824 50.3867 13.6582 50.25 13.2832C50.1133 12.9082 50.0449 12.498 50.0449 12.0527V11.8066C50.0449 11.291 50.1211 10.832 50.2734 10.4297C50.4258 10.0234 50.6328 9.67969 50.8945 9.39844C51.1562 9.11719 51.4531 8.9043 51.7852 8.75977C52.1172 8.61523 52.4609 8.54297 52.8164 8.54297C53.2695 8.54297 53.6602 8.62109 53.9883 8.77734C54.3203 8.93359 54.5918 9.15234 54.8027 9.43359C55.0137 9.71094 55.1699 10.0391 55.2715 10.418C55.373 10.793 55.4238 11.2031 55.4238 11.6484V12.1348H50.6895V11.25H54.3398V11.168C54.3242 10.8867 54.2656 10.6133 54.1641 10.3477C54.0664 10.082 53.9102 9.86328 53.6953 9.69141C53.4805 9.51953 53.1875 9.43359 52.8164 9.43359C52.5703 9.43359 52.3438 9.48633 52.1367 9.5918C51.9297 9.69336 51.752 9.8457 51.6035 10.0488C51.4551 10.252 51.3398 10.5 51.2578 10.793C51.1758 11.0859 51.1348 11.4238 51.1348 11.8066V12.0527C51.1348 12.3535 51.1758 12.6367 51.2578 12.9023C51.3438 13.1641 51.4668 13.3945 51.627 13.5938C51.791 13.793 51.9883 13.9492 52.2188 14.0625C52.4531 14.1758 52.7188 14.2324 53.0156 14.2324C53.3984 14.2324 53.7227 14.1543 53.9883 13.998C54.2539 13.8418 54.4863 13.6328 54.6855 13.3711L55.3418 13.8926C55.2051 14.0996 55.0312 14.2969 54.8203 14.4844C54.6094 14.6719 54.3496 14.8242 54.041 14.9414C53.7363 15.0586 53.375 15.1172 52.957 15.1172ZM58.5352 14.0215L60.2695 8.66016H61.377L59.0977 15H58.3711L58.5352 14.0215ZM57.0879 8.66016L58.875 14.0508L58.998 15H58.2715L55.9746 8.66016H57.0879ZM63.5977 8.66016V15H62.5078V8.66016H63.5977ZM62.4258 6.97852C62.4258 6.80273 62.4785 6.6543 62.584 6.5332C62.6934 6.41211 62.8535 6.35156 63.0645 6.35156C63.2715 6.35156 63.4297 6.41211 63.5391 6.5332C63.6523 6.6543 63.709 6.80273 63.709 6.97852C63.709 7.14648 63.6523 7.29102 63.5391 7.41211C63.4297 7.5293 63.2715 7.58789 63.0645 7.58789C62.8535 7.58789 62.6934 7.5293 62.584 7.41211C62.4785 7.29102 62.4258 7.14648 62.4258 6.97852ZM66.4219 10.0137V15H65.3379V8.66016H66.3633L66.4219 10.0137ZM66.1641 11.5898L65.7129 11.5723C65.7168 11.1387 65.7812 10.7383 65.9062 10.3711C66.0312 10 66.207 9.67773 66.4336 9.4043C66.6602 9.13086 66.9297 8.91992 67.2422 8.77148C67.5586 8.61914 67.9082 8.54297 68.291 8.54297C68.6035 8.54297 68.8848 8.58594 69.1348 8.67188C69.3848 8.75391 69.5977 8.88672 69.7734 9.07031C69.9531 9.25391 70.0898 9.49219 70.1836 9.78516C70.2773 10.0742 70.3242 10.4277 70.3242 10.8457V15H69.2344V10.834C69.2344 10.502 69.1855 10.2363 69.0879 10.0371C68.9902 9.83398 68.8477 9.6875 68.6602 9.59766C68.4727 9.50391 68.2422 9.45703 67.9688 9.45703C67.6992 9.45703 67.4531 9.51367 67.2305 9.62695C67.0117 9.74023 66.8223 9.89648 66.6621 10.0957C66.5059 10.2949 66.3828 10.5234 66.293 10.7812C66.207 11.0352 66.1641 11.3047 66.1641 11.5898Z" fill="#AAAAAA"/>
<path d="M4.27148 24.4219V33H3.1875V25.7754L1.00195 26.5723V25.5938L4.10156 24.4219H4.27148ZM8.09766 24.4688H9.19336L11.9883 31.4238L14.7773 24.4688H15.8789L12.4102 33H11.5547L8.09766 24.4688ZM7.74023 24.4688H8.70703L8.86523 29.6719V33H7.74023V24.4688ZM15.2637 24.4688H16.2305V33H15.1055V29.6719L15.2637 24.4688ZM22.957 32.0215L24.6914 26.6602H25.7988L23.5195 33H22.793L22.957 32.0215ZM21.5098 26.6602L23.2969 32.0508L23.4199 33H22.6934L20.3965 26.6602H21.5098ZM28.0195 26.6602V33H26.9297V26.6602H28.0195ZM26.8477 24.9785C26.8477 24.8027 26.9004 24.6543 27.0059 24.5332C27.1152 24.4121 27.2754 24.3516 27.4863 24.3516C27.6934 24.3516 27.8516 24.4121 27.9609 24.5332C28.0742 24.6543 28.1309 24.8027 28.1309 24.9785C28.1309 25.1465 28.0742 25.291 27.9609 25.4121C27.8516 25.5293 27.6934 25.5879 27.4863 25.5879C27.2754 25.5879 27.1152 25.5293 27.0059 25.4121C26.9004 25.291 26.8477 25.1465 26.8477 24.9785ZM32.3906 33.1172C31.9492 33.1172 31.5488 33.043 31.1895 32.8945C30.834 32.7422 30.5273 32.5293 30.2695 32.2559C30.0156 31.9824 29.8203 31.6582 29.6836 31.2832C29.5469 30.9082 29.4785 30.498 29.4785 30.0527V29.8066C29.4785 29.291 29.5547 28.832 29.707 28.4297C29.8594 28.0234 30.0664 27.6797 30.3281 27.3984C30.5898 27.1172 30.8867 26.9043 31.2188 26.7598C31.5508 26.6152 31.8945 26.543 32.25 26.543C32.7031 26.543 33.0938 26.6211 33.4219 26.7773C33.7539 26.9336 34.0254 27.1523 34.2363 27.4336C34.4473 27.7109 34.6035 28.0391 34.7051 28.418C34.8066 28.793 34.8574 29.2031 34.8574 29.6484V30.1348H30.123V29.25H33.7734V29.168C33.7578 28.8867 33.6992 28.6133 33.5977 28.3477C33.5 28.082 33.3438 27.8633 33.1289 27.6914C32.9141 27.5195 32.6211 27.4336 32.25 27.4336C32.0039 27.4336 31.7773 27.4863 31.5703 27.5918C31.3633 27.6934 31.1855 27.8457 31.0371 28.0488C30.8887 28.252 30.7734 28.5 30.6914 28.793C30.6094 29.0859 30.5684 29.4238 30.5684 29.8066V30.0527C30.5684 30.3535 30.6094 30.6367 30.6914 30.9023C30.7773 31.1641 30.9004 31.3945 31.0605 31.5938C31.2246 31.793 31.4219 31.9492 31.6523 32.0625C31.8867 32.1758 32.1523 32.2324 32.4492 32.2324C32.832 32.2324 33.1562 32.1543 33.4219 31.998C33.6875 31.8418 33.9199 31.6328 34.1191 31.3711L34.7754 31.8926C34.6387 32.0996 34.4648 32.2969 34.2539 32.4844C34.043 32.6719 33.7832 32.8242 33.4746 32.9414C33.1699 33.0586 32.8086 33.1172 32.3906 33.1172ZM37.7285 31.875L39.3574 26.6602H40.0723L39.9316 27.6973L38.2734 33H37.5762L37.7285 31.875ZM36.6328 26.6602L38.0215 31.9336L38.1211 33H37.3887L35.5488 26.6602H36.6328ZM41.6309 31.8926L42.9551 26.6602H44.0332L42.1934 33H41.4668L41.6309 31.8926ZM40.2305 26.6602L41.8242 31.7871L42.0059 33H41.3145L39.6094 27.6855L39.4688 26.6602H40.2305ZM48.8379 31.3184C48.8379 31.1621 48.8027 31.0176 48.7324 30.8848C48.666 30.748 48.5273 30.625 48.3164 30.5156C48.1094 30.4023 47.7969 30.3047 47.3789 30.2227C47.0273 30.1484 46.709 30.0605 46.4238 29.959C46.1426 29.8574 45.9023 29.7344 45.7031 29.5898C45.5078 29.4453 45.3574 29.2754 45.252 29.0801C45.1465 28.8848 45.0938 28.6562 45.0938 28.3945C45.0938 28.1445 45.1484 27.9082 45.2578 27.6855C45.3711 27.4629 45.5293 27.2656 45.7324 27.0938C45.9395 26.9219 46.1875 26.7871 46.4766 26.6895C46.7656 26.5918 47.0879 26.543 47.4434 26.543C47.9512 26.543 48.3848 26.6328 48.7441 26.8125C49.1035 26.9922 49.3789 27.2324 49.5703 27.5332C49.7617 27.8301 49.8574 28.1602 49.8574 28.5234H48.7734C48.7734 28.3477 48.7207 28.1777 48.6152 28.0137C48.5137 27.8457 48.3633 27.707 48.1641 27.5977C47.9688 27.4883 47.7285 27.4336 47.4434 27.4336C47.1426 27.4336 46.8984 27.4805 46.7109 27.5742C46.5273 27.6641 46.3926 27.7793 46.3066 27.9199C46.2246 28.0605 46.1836 28.209 46.1836 28.3652C46.1836 28.4824 46.2031 28.5879 46.2422 28.6816C46.2852 28.7715 46.3594 28.8555 46.4648 28.9336C46.5703 29.0078 46.7188 29.0781 46.9102 29.1445C47.1016 29.2109 47.3457 29.2773 47.6426 29.3438C48.1621 29.4609 48.5898 29.6016 48.9258 29.7656C49.2617 29.9297 49.5117 30.1309 49.6758 30.3691C49.8398 30.6074 49.9219 30.8965 49.9219 31.2363C49.9219 31.5137 49.8633 31.7676 49.7461 31.998C49.6328 32.2285 49.4668 32.4277 49.248 32.5957C49.0332 32.7598 48.7754 32.8887 48.4746 32.9824C48.1777 33.0723 47.8438 33.1172 47.4727 33.1172C46.9141 33.1172 46.4414 33.0176 46.0547 32.8184C45.668 32.6191 45.375 32.3613 45.1758 32.0449C44.9766 31.7285 44.877 31.3945 44.877 31.043H45.9668C45.9824 31.3398 46.0684 31.5762 46.2246 31.752C46.3809 31.9238 46.5723 32.0469 46.7988 32.1211C47.0254 32.1914 47.25 32.2266 47.4727 32.2266C47.7695 32.2266 48.0176 32.1875 48.2168 32.1094C48.4199 32.0312 48.5742 31.9238 48.6797 31.7871C48.7852 31.6504 48.8379 31.4941 48.8379 31.3184ZM54.3398 32.4258C54.3398 32.2422 54.3965 32.0879 54.5098 31.9629C54.627 31.834 54.7949 31.7695 55.0137 31.7695C55.2324 31.7695 55.3984 31.834 55.5117 31.9629C55.6289 32.0879 55.6875 32.2422 55.6875 32.4258C55.6875 32.6055 55.6289 32.7578 55.5117 32.8828C55.3984 33.0078 55.2324 33.0703 55.0137 33.0703C54.7949 33.0703 54.627 33.0078 54.5098 32.8828C54.3965 32.7578 54.3398 32.6055 54.3398 32.4258ZM61.9277 28.2012H62.7012C63.0801 28.2012 63.3926 28.1387 63.6387 28.0137C63.8887 27.8848 64.0742 27.7109 64.1953 27.4922C64.3203 27.2695 64.3828 27.0195 64.3828 26.7422C64.3828 26.4141 64.3281 26.1387 64.2188 25.916C64.1094 25.6934 63.9453 25.5254 63.7266 25.4121C63.5078 25.2988 63.2305 25.2422 62.8945 25.2422C62.5898 25.2422 62.3203 25.3027 62.0859 25.4238C61.8555 25.541 61.6738 25.709 61.541 25.9277C61.4121 26.1465 61.3477 26.4043 61.3477 26.7012H60.2637C60.2637 26.2676 60.373 25.873 60.5918 25.5176C60.8105 25.1621 61.1172 24.8789 61.5117 24.668C61.9102 24.457 62.3711 24.3516 62.8945 24.3516C63.4102 24.3516 63.8613 24.4434 64.248 24.627C64.6348 24.8066 64.9355 25.0762 65.1504 25.4355C65.3652 25.791 65.4727 26.2344 65.4727 26.7656C65.4727 26.9805 65.4219 27.2109 65.3203 27.457C65.2227 27.6992 65.0684 27.9258 64.8574 28.1367C64.6504 28.3477 64.3809 28.5215 64.0488 28.6582C63.7168 28.791 63.3184 28.8574 62.8535 28.8574H61.9277V28.2012ZM61.9277 29.0918V28.4414H62.8535C63.3965 28.4414 63.8457 28.5059 64.2012 28.6348C64.5566 28.7637 64.8359 28.9355 65.0391 29.1504C65.2461 29.3652 65.3906 29.6016 65.4727 29.8594C65.5586 30.1133 65.6016 30.3672 65.6016 30.6211C65.6016 31.0195 65.5332 31.373 65.3965 31.6816C65.2637 31.9902 65.0742 32.252 64.8281 32.4668C64.5859 32.6816 64.3008 32.8438 63.9727 32.9531C63.6445 33.0625 63.2871 33.1172 62.9004 33.1172C62.5293 33.1172 62.1797 33.0645 61.8516 32.959C61.5273 32.8535 61.2402 32.7012 60.9902 32.502C60.7402 32.2988 60.5449 32.0508 60.4043 31.7578C60.2637 31.4609 60.1934 31.123 60.1934 30.7441H61.2773C61.2773 31.041 61.3418 31.3008 61.4707 31.5234C61.6035 31.7461 61.791 31.9199 62.0332 32.0449C62.2793 32.166 62.5684 32.2266 62.9004 32.2266C63.2324 32.2266 63.5176 32.1699 63.7559 32.0566C63.998 31.9395 64.1836 31.7637 64.3125 31.5293C64.4453 31.2949 64.5117 31 64.5117 30.6445C64.5117 30.2891 64.4375 29.998 64.2891 29.7715C64.1406 29.541 63.9297 29.3711 63.6562 29.2617C63.3867 29.1484 63.0684 29.0918 62.7012 29.0918H61.9277ZM71.9707 32.3438L73.7344 26.6602H74.8945L72.3516 33.9785C72.293 34.1348 72.2148 34.3027 72.1172 34.4824C72.0234 34.666 71.9023 34.8398 71.7539 35.0039C71.6055 35.168 71.4258 35.3008 71.2148 35.4023C71.0078 35.5078 70.7598 35.5605 70.4707 35.5605C70.3848 35.5605 70.2754 35.5488 70.1426 35.5254C70.0098 35.502 69.916 35.4824 69.8613 35.4668L69.8555 34.5879C69.8867 34.5918 69.9355 34.5957 70.002 34.5996C70.0723 34.6074 70.1211 34.6113 70.1484 34.6113C70.3945 34.6113 70.6035 34.5781 70.7754 34.5117C70.9473 34.4492 71.0918 34.3418 71.209 34.1895C71.3301 34.041 71.4336 33.8359 71.5195 33.5742L71.9707 32.3438ZM70.6758 26.6602L72.3223 31.582L72.6035 32.7246L71.8242 33.123L69.4922 26.6602H70.6758ZM78.4219 33.1172C77.9805 33.1172 77.5801 33.043 77.2207 32.8945C76.8652 32.7422 76.5586 32.5293 76.3008 32.2559C76.0469 31.9824 75.8516 31.6582 75.7148 31.2832C75.5781 30.9082 75.5098 30.498 75.5098 30.0527V29.8066C75.5098 29.291 75.5859 28.832 75.7383 28.4297C75.8906 28.0234 76.0977 27.6797 76.3594 27.3984C76.6211 27.1172 76.918 26.9043 77.25 26.7598C77.582 26.6152 77.9258 26.543 78.2812 26.543C78.7344 26.543 79.125 26.6211 79.4531 26.7773C79.7852 26.9336 80.0566 27.1523 80.2676 27.4336C80.4785 27.7109 80.6348 28.0391 80.7363 28.418C80.8379 28.793 80.8887 29.2031 80.8887 29.6484V30.1348H76.1543V29.25H79.8047V29.168C79.7891 28.8867 79.7305 28.6133 79.6289 28.3477C79.5312 28.082 79.375 27.8633 79.1602 27.6914C78.9453 27.5195 78.6523 27.4336 78.2812 27.4336C78.0352 27.4336 77.8086 27.4863 77.6016 27.5918C77.3945 27.6934 77.2168 27.8457 77.0684 28.0488C76.9199 28.252 76.8047 28.5 76.7227 28.793C76.6406 29.0859 76.5996 29.4238 76.5996 29.8066V30.0527C76.5996 30.3535 76.6406 30.6367 76.7227 30.9023C76.8086 31.1641 76.9316 31.3945 77.0918 31.5938C77.2559 31.793 77.4531 31.9492 77.6836 32.0625C77.918 32.1758 78.1836 32.2324 78.4805 32.2324C78.8633 32.2324 79.1875 32.1543 79.4531 31.998C79.7188 31.8418 79.9512 31.6328 80.1504 31.3711L80.8066 31.8926C80.6699 32.0996 80.4961 32.2969 80.2852 32.4844C80.0742 32.6719 79.8145 32.8242 79.5059 32.9414C79.2012 33.0586 78.8398 33.1172 78.4219 33.1172ZM85.8926 31.916V28.6523C85.8926 28.4023 85.8418 28.1855 85.7402 28.002C85.6426 27.8145 85.4941 27.6699 85.2949 27.5684C85.0957 27.4668 84.8496 27.416 84.5566 27.416C84.2832 27.416 84.043 27.4629 83.8359 27.5566C83.6328 27.6504 83.4727 27.7734 83.3555 27.9258C83.2422 28.0781 83.1855 28.2422 83.1855 28.418H82.1016C82.1016 28.1914 82.1602 27.9668 82.2773 27.7441C82.3945 27.5215 82.5625 27.3203 82.7812 27.1406C83.0039 26.957 83.2695 26.8125 83.5781 26.707C83.8906 26.5977 84.2383 26.543 84.6211 26.543C85.082 26.543 85.4883 26.6211 85.8398 26.7773C86.1953 26.9336 86.4727 27.1699 86.6719 27.4863C86.875 27.7988 86.9766 28.1914 86.9766 28.6641V31.6172C86.9766 31.8281 86.9941 32.0527 87.0293 32.291C87.0684 32.5293 87.125 32.7344 87.1992 32.9062V33H86.0684C86.0137 32.875 85.9707 32.709 85.9395 32.502C85.9082 32.291 85.8926 32.0957 85.8926 31.916ZM86.0801 29.1562L86.0918 29.918H84.9961C84.6875 29.918 84.4121 29.9434 84.1699 29.9941C83.9277 30.041 83.7246 30.1133 83.5605 30.2109C83.3965 30.3086 83.2715 30.4316 83.1855 30.5801C83.0996 30.7246 83.0566 30.8945 83.0566 31.0898C83.0566 31.2891 83.1016 31.4707 83.1914 31.6348C83.2812 31.7988 83.416 31.9297 83.5957 32.0273C83.7793 32.1211 84.0039 32.168 84.2695 32.168C84.6016 32.168 84.8945 32.0977 85.1484 31.957C85.4023 31.8164 85.6035 31.6445 85.752 31.4414C85.9043 31.2383 85.9863 31.041 85.998 30.8496L86.4609 31.3711C86.4336 31.5352 86.3594 31.7168 86.2383 31.916C86.1172 32.1152 85.9551 32.3066 85.752 32.4902C85.5527 32.6699 85.3145 32.8203 85.0371 32.9414C84.7637 33.0586 84.4551 33.1172 84.1113 33.1172C83.6816 33.1172 83.3047 33.0332 82.9805 32.8652C82.6602 32.6973 82.4102 32.4727 82.2305 32.1914C82.0547 31.9062 81.9668 31.5879 81.9668 31.2363C81.9668 30.8965 82.0332 30.5977 82.166 30.3398C82.2988 30.0781 82.4902 29.8613 82.7402 29.6895C82.9902 29.5137 83.291 29.3809 83.6426 29.291C83.9941 29.2012 84.3867 29.1562 84.8203 29.1562H86.0801ZM89.7656 27.6562V33H88.6816V26.6602H89.7363L89.7656 27.6562ZM91.7461 26.625L91.7402 27.6328C91.6504 27.6133 91.5645 27.6016 91.4824 27.5977C91.4043 27.5898 91.3145 27.5859 91.2129 27.5859C90.9629 27.5859 90.7422 27.625 90.5508 27.7031C90.3594 27.7812 90.1973 27.8906 90.0645 28.0312C89.9316 28.1719 89.8262 28.3398 89.748 28.5352C89.6738 28.7266 89.625 28.9375 89.6016 29.168L89.2969 29.3438C89.2969 28.9609 89.334 28.6016 89.4082 28.2656C89.4863 27.9297 89.6055 27.6328 89.7656 27.375C89.9258 27.1133 90.1289 26.9102 90.375 26.7656C90.625 26.6172 90.9219 26.543 91.2656 26.543C91.3438 26.543 91.4336 26.5527 91.5352 26.5723C91.6367 26.5879 91.707 26.6055 91.7461 26.625ZM96.4395 31.3184C96.4395 31.1621 96.4043 31.0176 96.334 30.8848C96.2676 30.748 96.1289 30.625 95.918 30.5156C95.7109 30.4023 95.3984 30.3047 94.9805 30.2227C94.6289 30.1484 94.3105 30.0605 94.0254 29.959C93.7441 29.8574 93.5039 29.7344 93.3047 29.5898C93.1094 29.4453 92.959 29.2754 92.8535 29.0801C92.748 28.8848 92.6953 28.6562 92.6953 28.3945C92.6953 28.1445 92.75 27.9082 92.8594 27.6855C92.9727 27.4629 93.1309 27.2656 93.334 27.0938C93.541 26.9219 93.7891 26.7871 94.0781 26.6895C94.3672 26.5918 94.6895 26.543 95.0449 26.543C95.5527 26.543 95.9863 26.6328 96.3457 26.8125C96.7051 26.9922 96.9805 27.2324 97.1719 27.5332C97.3633 27.8301 97.459 28.1602 97.459 28.5234H96.375C96.375 28.3477 96.3223 28.1777 96.2168 28.0137C96.1152 27.8457 95.9648 27.707 95.7656 27.5977C95.5703 27.4883 95.3301 27.4336 95.0449 27.4336C94.7441 27.4336 94.5 27.4805 94.3125 27.5742C94.1289 27.6641 93.9941 27.7793 93.9082 27.9199C93.8262 28.0605 93.7852 28.209 93.7852 28.3652C93.7852 28.4824 93.8047 28.5879 93.8438 28.6816C93.8867 28.7715 93.9609 28.8555 94.0664 28.9336C94.1719 29.0078 94.3203 29.0781 94.5117 29.1445C94.7031 29.2109 94.9473 29.2773 95.2441 29.3438C95.7637 29.4609 96.1914 29.6016 96.5273 29.7656C96.8633 29.9297 97.1133 30.1309 97.2773 30.3691C97.4414 30.6074 97.5234 30.8965 97.5234 31.2363C97.5234 31.5137 97.4648 31.7676 97.3477 31.998C97.2344 32.2285 97.0684 32.4277 96.8496 32.5957C96.6348 32.7598 96.377 32.8887 96.0762 32.9824C95.7793 33.0723 95.4453 33.1172 95.0742 33.1172C94.5156 33.1172 94.043 33.0176 93.6562 32.8184C93.2695 32.6191 92.9766 32.3613 92.7773 32.0449C92.5781 31.7285 92.4785 31.3945 92.4785 31.043H93.5684C93.584 31.3398 93.6699 31.5762 93.8262 31.752C93.9824 31.9238 94.1738 32.0469 94.4004 32.1211C94.627 32.1914 94.8516 32.2266 95.0742 32.2266C95.3711 32.2266 95.6191 32.1875 95.8184 32.1094C96.0215 32.0312 96.1758 31.9238 96.2812 31.7871C96.3867 31.6504 96.4395 31.4941 96.4395 31.3184ZM105.662 31.916V28.6523C105.662 28.4023 105.611 28.1855 105.51 28.002C105.412 27.8145 105.264 27.6699 105.064 27.5684C104.865 27.4668 104.619 27.416 104.326 27.416C104.053 27.416 103.812 27.4629 103.605 27.5566C103.402 27.6504 103.242 27.7734 103.125 27.9258C103.012 28.0781 102.955 28.2422 102.955 28.418H101.871C101.871 28.1914 101.93 27.9668 102.047 27.7441C102.164 27.5215 102.332 27.3203 102.551 27.1406C102.773 26.957 103.039 26.8125 103.348 26.707C103.66 26.5977 104.008 26.543 104.391 26.543C104.852 26.543 105.258 26.6211 105.609 26.7773C105.965 26.9336 106.242 27.1699 106.441 27.4863C106.645 27.7988 106.746 28.1914 106.746 28.6641V31.6172C106.746 31.8281 106.764 32.0527 106.799 32.291C106.838 32.5293 106.895 32.7344 106.969 32.9062V33H105.838C105.783 32.875 105.74 32.709 105.709 32.502C105.678 32.291 105.662 32.0957 105.662 31.916ZM105.85 29.1562L105.861 29.918H104.766C104.457 29.918 104.182 29.9434 103.939 29.9941C103.697 30.041 103.494 30.1133 103.33 30.2109C103.166 30.3086 103.041 30.4316 102.955 30.5801C102.869 30.7246 102.826 30.8945 102.826 31.0898C102.826 31.2891 102.871 31.4707 102.961 31.6348C103.051 31.7988 103.186 31.9297 103.365 32.0273C103.549 32.1211 103.773 32.168 104.039 32.168C104.371 32.168 104.664 32.0977 104.918 31.957C105.172 31.8164 105.373 31.6445 105.521 31.4414C105.674 31.2383 105.756 31.041 105.768 30.8496L106.23 31.3711C106.203 31.5352 106.129 31.7168 106.008 31.916C105.887 32.1152 105.725 32.3066 105.521 32.4902C105.322 32.6699 105.084 32.8203 104.807 32.9414C104.533 33.0586 104.225 33.1172 103.881 33.1172C103.451 33.1172 103.074 33.0332 102.75 32.8652C102.43 32.6973 102.18 32.4727 102 32.1914C101.824 31.9062 101.736 31.5879 101.736 31.2363C101.736 30.8965 101.803 30.5977 101.936 30.3398C102.068 30.0781 102.26 29.8613 102.51 29.6895C102.76 29.5137 103.061 29.3809 103.412 29.291C103.764 29.2012 104.156 29.1562 104.59 29.1562H105.85ZM112.559 26.6602H113.543V32.8652C113.543 33.4238 113.43 33.9004 113.203 34.2949C112.977 34.6895 112.66 34.9883 112.254 35.1914C111.852 35.3984 111.387 35.502 110.859 35.502C110.641 35.502 110.383 35.4668 110.086 35.3965C109.793 35.3301 109.504 35.2148 109.219 35.0508C108.938 34.8906 108.701 34.6738 108.51 34.4004L109.078 33.7559C109.344 34.0762 109.621 34.2988 109.91 34.4238C110.203 34.5488 110.492 34.6113 110.777 34.6113C111.121 34.6113 111.418 34.5469 111.668 34.418C111.918 34.2891 112.111 34.0977 112.248 33.8438C112.389 33.5938 112.459 33.2852 112.459 32.918V28.0547L112.559 26.6602ZM108.193 29.9004V29.7773C108.193 29.293 108.25 28.8535 108.363 28.459C108.48 28.0605 108.646 27.7188 108.861 27.4336C109.08 27.1484 109.344 26.9297 109.652 26.7773C109.961 26.6211 110.309 26.543 110.695 26.543C111.094 26.543 111.441 26.6133 111.738 26.7539C112.039 26.8906 112.293 27.0918 112.5 27.3574C112.711 27.6191 112.877 27.9355 112.998 28.3066C113.119 28.6777 113.203 29.0977 113.25 29.5664V30.1055C113.207 30.5703 113.123 30.9883 112.998 31.3594C112.877 31.7305 112.711 32.0469 112.5 32.3086C112.293 32.5703 112.039 32.7715 111.738 32.9121C111.438 33.0488 111.086 33.1172 110.684 33.1172C110.305 33.1172 109.961 33.0371 109.652 32.877C109.348 32.7168 109.086 32.4922 108.867 32.2031C108.648 31.9141 108.48 31.5742 108.363 31.1836C108.25 30.7891 108.193 30.3613 108.193 29.9004ZM109.277 29.7773V29.9004C109.277 30.2168 109.309 30.5137 109.371 30.791C109.438 31.0684 109.537 31.3125 109.67 31.5234C109.807 31.7344 109.98 31.9004 110.191 32.0215C110.402 32.1387 110.654 32.1973 110.947 32.1973C111.307 32.1973 111.604 32.1211 111.838 31.9688C112.072 31.8164 112.258 31.6152 112.395 31.3652C112.535 31.1152 112.645 30.8438 112.723 30.5508V29.1387C112.68 28.9238 112.613 28.7168 112.523 28.5176C112.438 28.3145 112.324 28.1348 112.184 27.9785C112.047 27.8184 111.877 27.6914 111.674 27.5977C111.471 27.5039 111.232 27.457 110.959 27.457C110.662 27.457 110.406 27.5195 110.191 27.6445C109.98 27.7656 109.807 27.9336 109.67 28.1484C109.537 28.3594 109.438 28.6055 109.371 28.8867C109.309 29.1641 109.277 29.4609 109.277 29.7773ZM114.902 29.9004V29.7656C114.902 29.3086 114.969 28.8848 115.102 28.4941C115.234 28.0996 115.426 27.7578 115.676 27.4688C115.926 27.1758 116.229 26.9492 116.584 26.7891C116.939 26.625 117.338 26.543 117.779 26.543C118.225 26.543 118.625 26.625 118.98 26.7891C119.34 26.9492 119.645 27.1758 119.895 27.4688C120.148 27.7578 120.342 28.0996 120.475 28.4941C120.607 28.8848 120.674 29.3086 120.674 29.7656V29.9004C120.674 30.3574 120.607 30.7812 120.475 31.1719C120.342 31.5625 120.148 31.9043 119.895 32.1973C119.645 32.4863 119.342 32.7129 118.986 32.877C118.635 33.0371 118.236 33.1172 117.791 33.1172C117.346 33.1172 116.945 33.0371 116.59 32.877C116.234 32.7129 115.93 32.4863 115.676 32.1973C115.426 31.9043 115.234 31.5625 115.102 31.1719C114.969 30.7812 114.902 30.3574 114.902 29.9004ZM115.986 29.7656V29.9004C115.986 30.2168 116.023 30.5156 116.098 30.7969C116.172 31.0742 116.283 31.3203 116.432 31.5352C116.584 31.75 116.773 31.9199 117 32.0449C117.227 32.166 117.49 32.2266 117.791 32.2266C118.088 32.2266 118.348 32.166 118.57 32.0449C118.797 31.9199 118.984 31.75 119.133 31.5352C119.281 31.3203 119.393 31.0742 119.467 30.7969C119.545 30.5156 119.584 30.2168 119.584 29.9004V29.7656C119.584 29.4531 119.545 29.1582 119.467 28.8809C119.393 28.5996 119.279 28.3516 119.127 28.1367C118.979 27.918 118.791 27.7461 118.564 27.6211C118.342 27.4961 118.08 27.4336 117.779 27.4336C117.482 27.4336 117.221 27.4961 116.994 27.6211C116.771 27.7461 116.584 27.918 116.432 28.1367C116.283 28.3516 116.172 28.5996 116.098 28.8809C116.023 29.1582 115.986 29.4531 115.986 29.7656Z" fill="#AAAAAA"/>
</svg>
