<svg width="202" height="40" viewBox="0 0 202 40" fill="none" xmlns="http://www.w3.org/2000/svg">
<path d="M4.57031 12.5098V6.46875H5.69531V12.5098C5.69531 13.0723 5.58008 13.5469 5.34961 13.9336C5.11914 14.3203 4.80078 14.6152 4.39453 14.8184C3.99219 15.0176 3.5293 15.1172 3.00586 15.1172C2.48242 15.1172 2.01758 15.0273 1.61133 14.8477C1.20508 14.668 0.886719 14.3945 0.65625 14.0273C0.425781 13.6602 0.310547 13.1973 0.310547 12.6387H1.44141C1.44141 12.998 1.50781 13.293 1.64062 13.5234C1.77344 13.7539 1.95703 13.9238 2.19141 14.0332C2.42969 14.1426 2.70117 14.1973 3.00586 14.1973C3.30273 14.1973 3.56836 14.1348 3.80273 14.0098C4.04102 13.8809 4.22852 13.6914 4.36523 13.4414C4.50195 13.1875 4.57031 12.877 4.57031 12.5098ZM10.0781 15.1172C9.63672 15.1172 9.23633 15.043 8.87695 14.8945C8.52148 14.7422 8.21484 14.5293 7.95703 14.2559C7.70312 13.9824 7.50781 13.6582 7.37109 13.2832C7.23438 12.9082 7.16602 12.498 7.16602 12.0527V11.8066C7.16602 11.291 7.24219 10.832 7.39453 10.4297C7.54688 10.0234 7.75391 9.67969 8.01562 9.39844C8.27734 9.11719 8.57422 8.9043 8.90625 8.75977C9.23828 8.61523 9.58203 8.54297 9.9375 8.54297C10.3906 8.54297 10.7812 8.62109 11.1094 8.77734C11.4414 8.93359 11.7129 9.15234 11.9238 9.43359C12.1348 9.71094 12.291 10.0391 12.3926 10.418C12.4941 10.793 12.5449 11.2031 12.5449 11.6484V12.1348H7.81055V11.25H11.4609V11.168C11.4453 10.8867 11.3867 10.6133 11.2852 10.3477C11.1875 10.082 11.0312 9.86328 10.8164 9.69141C10.6016 9.51953 10.3086 9.43359 9.9375 9.43359C9.69141 9.43359 9.46484 9.48633 9.25781 9.5918C9.05078 9.69336 8.87305 9.8457 8.72461 10.0488C8.57617 10.252 8.46094 10.5 8.37891 10.793C8.29688 11.0859 8.25586 11.4238 8.25586 11.8066V12.0527C8.25586 12.3535 8.29688 12.6367 8.37891 12.9023C8.46484 13.1641 8.58789 13.3945 8.74805 13.5938C8.91211 13.793 9.10938 13.9492 9.33984 14.0625C9.57422 14.1758 9.83984 14.2324 10.1367 14.2324C10.5195 14.2324 10.8438 14.1543 11.1094 13.998C11.375 13.8418 11.6074 13.6328 11.8066 13.3711L12.4629 13.8926C12.3262 14.0996 12.1523 14.2969 11.9414 14.4844C11.7305 14.6719 11.4707 14.8242 11.1621 14.9414C10.8574 15.0586 10.4961 15.1172 10.0781 15.1172ZM17.502 13.3184C17.502 13.1621 17.4668 13.0176 17.3965 12.8848C17.3301 12.748 17.1914 12.625 16.9805 12.5156C16.7734 12.4023 16.4609 12.3047 16.043 12.2227C15.6914 12.1484 15.373 12.0605 15.0879 11.959C14.8066 11.8574 14.5664 11.7344 14.3672 11.5898C14.1719 11.4453 14.0215 11.2754 13.916 11.0801C13.8105 10.8848 13.7578 10.6562 13.7578 10.3945C13.7578 10.1445 13.8125 9.9082 13.9219 9.68555C14.0352 9.46289 14.1934 9.26562 14.3965 9.09375C14.6035 8.92188 14.8516 8.78711 15.1406 8.68945C15.4297 8.5918 15.752 8.54297 16.1074 8.54297C16.6152 8.54297 17.0488 8.63281 17.4082 8.8125C17.7676 8.99219 18.043 9.23242 18.2344 9.5332C18.4258 9.83008 18.5215 10.1602 18.5215 10.5234H17.4375C17.4375 10.3477 17.3848 10.1777 17.2793 10.0137C17.1777 9.8457 17.0273 9.70703 16.8281 9.59766C16.6328 9.48828 16.3926 9.43359 16.1074 9.43359C15.8066 9.43359 15.5625 9.48047 15.375 9.57422C15.1914 9.66406 15.0566 9.7793 14.9707 9.91992C14.8887 10.0605 14.8477 10.209 14.8477 10.3652C14.8477 10.4824 14.8672 10.5879 14.9062 10.6816C14.9492 10.7715 15.0234 10.8555 15.1289 10.9336C15.2344 11.0078 15.3828 11.0781 15.5742 11.1445C15.7656 11.2109 16.0098 11.2773 16.3066 11.3438C16.8262 11.4609 17.2539 11.6016 17.5898 11.7656C17.9258 11.9297 18.1758 12.1309 18.3398 12.3691C18.5039 12.6074 18.5859 12.8965 18.5859 13.2363C18.5859 13.5137 18.5273 13.7676 18.4102 13.998C18.2969 14.2285 18.1309 14.4277 17.9121 14.5957C17.6973 14.7598 17.4395 14.8887 17.1387 14.9824C16.8418 15.0723 16.5078 15.1172 16.1367 15.1172C15.5781 15.1172 15.1055 15.0176 14.7188 14.8184C14.332 14.6191 14.0391 14.3613 13.8398 14.0449C13.6406 13.7285 13.541 13.3945 13.541 13.043H14.6309C14.6465 13.3398 14.7324 13.5762 14.8887 13.752C15.0449 13.9238 15.2363 14.0469 15.4629 14.1211C15.6895 14.1914 15.9141 14.2266 16.1367 14.2266C16.4336 14.2266 16.6816 14.1875 16.8809 14.1094C17.084 14.0312 17.2383 13.9238 17.3438 13.7871C17.4492 13.6504 17.502 13.4941 17.502 13.3184ZM21.1875 8.66016V15H20.0977V8.66016H21.1875ZM20.0156 6.97852C20.0156 6.80273 20.0684 6.6543 20.1738 6.5332C20.2832 6.41211 20.4434 6.35156 20.6543 6.35156C20.8613 6.35156 21.0195 6.41211 21.1289 6.5332C21.2422 6.6543 21.2988 6.80273 21.2988 6.97852C21.2988 7.14648 21.2422 7.29102 21.1289 7.41211C21.0195 7.5293 20.8613 7.58789 20.6543 7.58789C20.4434 7.58789 20.2832 7.5293 20.1738 7.41211C20.0684 7.29102 20.0156 7.14648 20.0156 6.97852ZM25.4648 14.2266C25.7227 14.2266 25.9609 14.1738 26.1797 14.0684C26.3984 13.9629 26.5781 13.8184 26.7188 13.6348C26.8594 13.4473 26.9395 13.2344 26.959 12.9961H27.9902C27.9707 13.3711 27.8438 13.7207 27.6094 14.0449C27.3789 14.3652 27.0762 14.625 26.7012 14.8242C26.3262 15.0195 25.9141 15.1172 25.4648 15.1172C24.9883 15.1172 24.5723 15.0332 24.2168 14.8652C23.8652 14.6973 23.5723 14.4668 23.3379 14.1738C23.1074 13.8809 22.9336 13.5449 22.8164 13.166C22.7031 12.7832 22.6465 12.3789 22.6465 11.9531V11.707C22.6465 11.2812 22.7031 10.8789 22.8164 10.5C22.9336 10.1172 23.1074 9.7793 23.3379 9.48633C23.5723 9.19336 23.8652 8.96289 24.2168 8.79492C24.5723 8.62695 24.9883 8.54297 25.4648 8.54297C25.9609 8.54297 26.3945 8.64453 26.7656 8.84766C27.1367 9.04688 27.4277 9.32031 27.6387 9.66797C27.8535 10.0117 27.9707 10.4023 27.9902 10.8398H26.959C26.9395 10.5781 26.8652 10.3418 26.7363 10.1309C26.6113 9.91992 26.4395 9.75195 26.2207 9.62695C26.0059 9.49805 25.7539 9.43359 25.4648 9.43359C25.1328 9.43359 24.8535 9.5 24.627 9.63281C24.4043 9.76172 24.2266 9.9375 24.0938 10.1602C23.9648 10.3789 23.8711 10.623 23.8125 10.8926C23.7578 11.1582 23.7305 11.4297 23.7305 11.707V11.9531C23.7305 12.2305 23.7578 12.5039 23.8125 12.7734C23.8672 13.043 23.959 13.2871 24.0879 13.5059C24.2207 13.7246 24.3984 13.9004 24.6211 14.0332C24.8477 14.1621 25.1289 14.2266 25.4648 14.2266ZM32.9473 13.916V10.6523C32.9473 10.4023 32.8965 10.1855 32.7949 10.002C32.6973 9.81445 32.5488 9.66992 32.3496 9.56836C32.1504 9.4668 31.9043 9.41602 31.6113 9.41602C31.3379 9.41602 31.0977 9.46289 30.8906 9.55664C30.6875 9.65039 30.5273 9.77344 30.4102 9.92578C30.2969 10.0781 30.2402 10.2422 30.2402 10.418H29.1562C29.1562 10.1914 29.2148 9.9668 29.332 9.74414C29.4492 9.52148 29.6172 9.32031 29.8359 9.14062C30.0586 8.95703 30.3242 8.8125 30.6328 8.70703C30.9453 8.59766 31.293 8.54297 31.6758 8.54297C32.1367 8.54297 32.543 8.62109 32.8945 8.77734C33.25 8.93359 33.5273 9.16992 33.7266 9.48633C33.9297 9.79883 34.0312 10.1914 34.0312 10.6641V13.6172C34.0312 13.8281 34.0488 14.0527 34.084 14.291C34.123 14.5293 34.1797 14.7344 34.2539 14.9062V15H33.123C33.0684 14.875 33.0254 14.709 32.9941 14.502C32.9629 14.291 32.9473 14.0957 32.9473 13.916ZM33.1348 11.1562L33.1465 11.918H32.0508C31.7422 11.918 31.4668 11.9434 31.2246 11.9941C30.9824 12.041 30.7793 12.1133 30.6152 12.2109C30.4512 12.3086 30.3262 12.4316 30.2402 12.5801C30.1543 12.7246 30.1113 12.8945 30.1113 13.0898C30.1113 13.2891 30.1562 13.4707 30.2461 13.6348C30.3359 13.7988 30.4707 13.9297 30.6504 14.0273C30.834 14.1211 31.0586 14.168 31.3242 14.168C31.6562 14.168 31.9492 14.0977 32.2031 13.957C32.457 13.8164 32.6582 13.6445 32.8066 13.4414C32.959 13.2383 33.041 13.041 33.0527 12.8496L33.5156 13.3711C33.4883 13.5352 33.4141 13.7168 33.293 13.916C33.1719 14.1152 33.0098 14.3066 32.8066 14.4902C32.6074 14.6699 32.3691 14.8203 32.0918 14.9414C31.8184 15.0586 31.5098 15.1172 31.166 15.1172C30.7363 15.1172 30.3594 15.0332 30.0352 14.8652C29.7148 14.6973 29.4648 14.4727 29.2852 14.1914C29.1094 13.9062 29.0215 13.5879 29.0215 13.2363C29.0215 12.8965 29.0879 12.5977 29.2207 12.3398C29.3535 12.0781 29.5449 11.8613 29.7949 11.6895C30.0449 11.5137 30.3457 11.3809 30.6973 11.291C31.0488 11.2012 31.4414 11.1562 31.875 11.1562H33.1348ZM44.0508 14.0801V15H39.7852V14.0801H44.0508ZM40.0078 6.46875V15H38.877V6.46875H40.0078ZM48.9199 13.916V10.6523C48.9199 10.4023 48.8691 10.1855 48.7676 10.002C48.6699 9.81445 48.5215 9.66992 48.3223 9.56836C48.123 9.4668 47.877 9.41602 47.584 9.41602C47.3105 9.41602 47.0703 9.46289 46.8633 9.55664C46.6602 9.65039 46.5 9.77344 46.3828 9.92578C46.2695 10.0781 46.2129 10.2422 46.2129 10.418H45.1289C45.1289 10.1914 45.1875 9.9668 45.3047 9.74414C45.4219 9.52148 45.5898 9.32031 45.8086 9.14062C46.0312 8.95703 46.2969 8.8125 46.6055 8.70703C46.918 8.59766 47.2656 8.54297 47.6484 8.54297C48.1094 8.54297 48.5156 8.62109 48.8672 8.77734C49.2227 8.93359 49.5 9.16992 49.6992 9.48633C49.9023 9.79883 50.0039 10.1914 50.0039 10.6641V13.6172C50.0039 13.8281 50.0215 14.0527 50.0566 14.291C50.0957 14.5293 50.1523 14.7344 50.2266 14.9062V15H49.0957C49.041 14.875 48.998 14.709 48.9668 14.502C48.9355 14.291 48.9199 14.0957 48.9199 13.916ZM49.1074 11.1562L49.1191 11.918H48.0234C47.7148 11.918 47.4395 11.9434 47.1973 11.9941C46.9551 12.041 46.752 12.1133 46.5879 12.2109C46.4238 12.3086 46.2988 12.4316 46.2129 12.5801C46.127 12.7246 46.084 12.8945 46.084 13.0898C46.084 13.2891 46.1289 13.4707 46.2188 13.6348C46.3086 13.7988 46.4434 13.9297 46.623 14.0273C46.8066 14.1211 47.0312 14.168 47.2969 14.168C47.6289 14.168 47.9219 14.0977 48.1758 13.957C48.4297 13.8164 48.6309 13.6445 48.7793 13.4414C48.9316 13.2383 49.0137 13.041 49.0254 12.8496L49.4883 13.3711C49.4609 13.5352 49.3867 13.7168 49.2656 13.916C49.1445 14.1152 48.9824 14.3066 48.7793 14.4902C48.5801 14.6699 48.3418 14.8203 48.0645 14.9414C47.791 15.0586 47.4824 15.1172 47.1387 15.1172C46.709 15.1172 46.332 15.0332 46.0078 14.8652C45.6875 14.6973 45.4375 14.4727 45.2578 14.1914C45.082 13.9062 44.9941 13.5879 44.9941 13.2363C44.9941 12.8965 45.0605 12.5977 45.1934 12.3398C45.3262 12.0781 45.5176 11.8613 45.7676 11.6895C46.0176 11.5137 46.3184 11.3809 46.6699 11.291C47.0215 11.2012 47.4141 11.1562 47.8477 11.1562H49.1074ZM52.7871 9.91992V15H51.6973V8.66016H52.7285L52.7871 9.91992ZM52.5645 11.5898L52.0605 11.5723C52.0645 11.1387 52.1211 10.7383 52.2305 10.3711C52.3398 10 52.502 9.67773 52.7168 9.4043C52.9316 9.13086 53.1992 8.91992 53.5195 8.77148C53.8398 8.61914 54.2109 8.54297 54.6328 8.54297C54.9297 8.54297 55.2031 8.58594 55.4531 8.67188C55.7031 8.75391 55.9199 8.88477 56.1035 9.06445C56.2871 9.24414 56.4297 9.47461 56.5312 9.75586C56.6328 10.0371 56.6836 10.377 56.6836 10.7754V15H55.5996V10.8281C55.5996 10.4961 55.543 10.2305 55.4297 10.0312C55.3203 9.83203 55.1641 9.6875 54.9609 9.59766C54.7578 9.50391 54.5195 9.45703 54.2461 9.45703C53.9258 9.45703 53.6582 9.51367 53.4434 9.62695C53.2285 9.74023 53.0566 9.89648 52.9277 10.0957C52.7988 10.2949 52.7051 10.5234 52.6465 10.7812C52.5918 11.0352 52.5645 11.3047 52.5645 11.5898ZM56.6719 10.9922L55.9453 11.2148C55.9492 10.8672 56.0059 10.5332 56.1152 10.2129C56.2285 9.89258 56.3906 9.60742 56.6016 9.35742C56.8164 9.10742 57.0801 8.91016 57.3926 8.76562C57.7051 8.61719 58.0625 8.54297 58.4648 8.54297C58.8047 8.54297 59.1055 8.58789 59.3672 8.67773C59.6328 8.76758 59.8555 8.90625 60.0352 9.09375C60.2188 9.27734 60.3574 9.51367 60.4512 9.80273C60.5449 10.0918 60.5918 10.4355 60.5918 10.834V15H59.502V10.8223C59.502 10.4668 59.4453 10.1914 59.332 9.99609C59.2227 9.79688 59.0664 9.6582 58.8633 9.58008C58.6641 9.49805 58.4258 9.45703 58.1484 9.45703C57.9102 9.45703 57.6992 9.49805 57.5156 9.58008C57.332 9.66211 57.1777 9.77539 57.0527 9.91992C56.9277 10.0605 56.832 10.2227 56.7656 10.4062C56.7031 10.5898 56.6719 10.7852 56.6719 10.9922ZM62.2266 6H63.3164V13.7695L63.2227 15H62.2266V6ZM67.5996 11.7773V11.9004C67.5996 12.3613 67.5449 12.7891 67.4355 13.1836C67.3262 13.5742 67.166 13.9141 66.9551 14.2031C66.7441 14.4922 66.4863 14.7168 66.1816 14.877C65.877 15.0371 65.5273 15.1172 65.1328 15.1172C64.7305 15.1172 64.377 15.0488 64.0723 14.9121C63.7715 14.7715 63.5176 14.5703 63.3105 14.3086C63.1035 14.0469 62.9375 13.7305 62.8125 13.3594C62.6914 12.9883 62.6074 12.5703 62.5605 12.1055V11.5664C62.6074 11.0977 62.6914 10.6777 62.8125 10.3066C62.9375 9.93555 63.1035 9.61914 63.3105 9.35742C63.5176 9.0918 63.7715 8.89062 64.0723 8.75391C64.373 8.61328 64.7227 8.54297 65.1211 8.54297C65.5195 8.54297 65.873 8.62109 66.1816 8.77734C66.4902 8.92969 66.748 9.14844 66.9551 9.43359C67.166 9.71875 67.3262 10.0605 67.4355 10.459C67.5449 10.8535 67.5996 11.293 67.5996 11.7773ZM66.5098 11.9004V11.7773C66.5098 11.4609 66.4805 11.1641 66.4219 10.8867C66.3633 10.6055 66.2695 10.3594 66.1406 10.1484C66.0117 9.93359 65.8418 9.76562 65.6309 9.64453C65.4199 9.51953 65.1602 9.45703 64.8516 9.45703C64.5781 9.45703 64.3398 9.50391 64.1367 9.59766C63.9375 9.69141 63.7676 9.81836 63.627 9.97852C63.4863 10.1348 63.3711 10.3145 63.2812 10.5176C63.1953 10.7168 63.1309 10.9238 63.0879 11.1387V12.5508C63.1504 12.8242 63.252 13.0879 63.3926 13.3418C63.5371 13.5918 63.7285 13.7969 63.9668 13.957C64.209 14.1172 64.5078 14.1973 64.8633 14.1973C65.1562 14.1973 65.4062 14.1387 65.6133 14.0215C65.8242 13.9004 65.9941 13.7344 66.123 13.5234C66.2559 13.3125 66.3535 13.0684 66.416 12.791C66.4785 12.5137 66.5098 12.2168 66.5098 11.9004ZM71.6016 15.1172C71.1602 15.1172 70.7598 15.043 70.4004 14.8945C70.0449 14.7422 69.7383 14.5293 69.4805 14.2559C69.2266 13.9824 69.0312 13.6582 68.8945 13.2832C68.7578 12.9082 68.6895 12.498 68.6895 12.0527V11.8066C68.6895 11.291 68.7656 10.832 68.918 10.4297C69.0703 10.0234 69.2773 9.67969 69.5391 9.39844C69.8008 9.11719 70.0977 8.9043 70.4297 8.75977C70.7617 8.61523 71.1055 8.54297 71.4609 8.54297C71.9141 8.54297 72.3047 8.62109 72.6328 8.77734C72.9648 8.93359 73.2363 9.15234 73.4473 9.43359C73.6582 9.71094 73.8145 10.0391 73.916 10.418C74.0176 10.793 74.0684 11.2031 74.0684 11.6484V12.1348H69.334V11.25H72.9844V11.168C72.9688 10.8867 72.9102 10.6133 72.8086 10.3477C72.7109 10.082 72.5547 9.86328 72.3398 9.69141C72.125 9.51953 71.832 9.43359 71.4609 9.43359C71.2148 9.43359 70.9883 9.48633 70.7812 9.5918C70.5742 9.69336 70.3965 9.8457 70.248 10.0488C70.0996 10.252 69.9844 10.5 69.9023 10.793C69.8203 11.0859 69.7793 11.4238 69.7793 11.8066V12.0527C69.7793 12.3535 69.8203 12.6367 69.9023 12.9023C69.9883 13.1641 70.1113 13.3945 70.2715 13.5938C70.4355 13.793 70.6328 13.9492 70.8633 14.0625C71.0977 14.1758 71.3633 14.2324 71.6602 14.2324C72.043 14.2324 72.3672 14.1543 72.6328 13.998C72.8984 13.8418 73.1309 13.6328 73.3301 13.3711L73.9863 13.8926C73.8496 14.0996 73.6758 14.2969 73.4648 14.4844C73.2539 14.6719 72.9941 14.8242 72.6855 14.9414C72.3809 15.0586 72.0195 15.1172 71.6016 15.1172ZM76.418 9.65625V15H75.334V8.66016H76.3887L76.418 9.65625ZM78.3984 8.625L78.3926 9.63281C78.3027 9.61328 78.2168 9.60156 78.1348 9.59766C78.0566 9.58984 77.9668 9.58594 77.8652 9.58594C77.6152 9.58594 77.3945 9.625 77.2031 9.70312C77.0117 9.78125 76.8496 9.89062 76.7168 10.0312C76.584 10.1719 76.4785 10.3398 76.4004 10.5352C76.3262 10.7266 76.2773 10.9375 76.2539 11.168L75.9492 11.3438C75.9492 10.9609 75.9863 10.6016 76.0605 10.2656C76.1387 9.92969 76.2578 9.63281 76.418 9.375C76.5781 9.11328 76.7812 8.91016 77.0273 8.76562C77.2773 8.61719 77.5742 8.54297 77.918 8.54297C77.9961 8.54297 78.0859 8.55273 78.1875 8.57227C78.2891 8.58789 78.3594 8.60547 78.3984 8.625ZM82.3477 8.66016V9.49219H78.9199V8.66016H82.3477ZM80.0801 7.11914H81.1641V13.4297C81.1641 13.6445 81.1973 13.8066 81.2637 13.916C81.3301 14.0254 81.416 14.0977 81.5215 14.1328C81.627 14.168 81.7402 14.1855 81.8613 14.1855C81.9512 14.1855 82.0449 14.1777 82.1426 14.1621C82.2441 14.1426 82.3203 14.127 82.3711 14.1152L82.377 15C82.291 15.0273 82.1777 15.0527 82.0371 15.0762C81.9004 15.1035 81.7344 15.1172 81.5391 15.1172C81.2734 15.1172 81.0293 15.0645 80.8066 14.959C80.584 14.8535 80.4062 14.6777 80.2734 14.4316C80.1445 14.1816 80.0801 13.8457 80.0801 13.4238V7.11914Z" fill="#AAAAAA"/>
<path d="M4.27148 24.4219V33H3.1875V25.7754L1.00195 26.5723V25.5938L4.10156 24.4219H4.27148ZM8.09766 24.4688H9.19336L11.9883 31.4238L14.7773 24.4688H15.8789L12.4102 33H11.5547L8.09766 24.4688ZM7.74023 24.4688H8.70703L8.86523 29.6719V33H7.74023V24.4688ZM15.2637 24.4688H16.2305V33H15.1055V29.6719L15.2637 24.4688ZM22.957 32.0215L24.6914 26.6602H25.7988L23.5195 33H22.793L22.957 32.0215ZM21.5098 26.6602L23.2969 32.0508L23.4199 33H22.6934L20.3965 26.6602H21.5098ZM28.0195 26.6602V33H26.9297V26.6602H28.0195ZM26.8477 24.9785C26.8477 24.8027 26.9004 24.6543 27.0059 24.5332C27.1152 24.4121 27.2754 24.3516 27.4863 24.3516C27.6934 24.3516 27.8516 24.4121 27.9609 24.5332C28.0742 24.6543 28.1309 24.8027 28.1309 24.9785C28.1309 25.1465 28.0742 25.291 27.9609 25.4121C27.8516 25.5293 27.6934 25.5879 27.4863 25.5879C27.2754 25.5879 27.1152 25.5293 27.0059 25.4121C26.9004 25.291 26.8477 25.1465 26.8477 24.9785ZM32.3906 33.1172C31.9492 33.1172 31.5488 33.043 31.1895 32.8945C30.834 32.7422 30.5273 32.5293 30.2695 32.2559C30.0156 31.9824 29.8203 31.6582 29.6836 31.2832C29.5469 30.9082 29.4785 30.498 29.4785 30.0527V29.8066C29.4785 29.291 29.5547 28.832 29.707 28.4297C29.8594 28.0234 30.0664 27.6797 30.3281 27.3984C30.5898 27.1172 30.8867 26.9043 31.2188 26.7598C31.5508 26.6152 31.8945 26.543 32.25 26.543C32.7031 26.543 33.0938 26.6211 33.4219 26.7773C33.7539 26.9336 34.0254 27.1523 34.2363 27.4336C34.4473 27.7109 34.6035 28.0391 34.7051 28.418C34.8066 28.793 34.8574 29.2031 34.8574 29.6484V30.1348H30.123V29.25H33.7734V29.168C33.7578 28.8867 33.6992 28.6133 33.5977 28.3477C33.5 28.082 33.3438 27.8633 33.1289 27.6914C32.9141 27.5195 32.6211 27.4336 32.25 27.4336C32.0039 27.4336 31.7773 27.4863 31.5703 27.5918C31.3633 27.6934 31.1855 27.8457 31.0371 28.0488C30.8887 28.252 30.7734 28.5 30.6914 28.793C30.6094 29.0859 30.5684 29.4238 30.5684 29.8066V30.0527C30.5684 30.3535 30.6094 30.6367 30.6914 30.9023C30.7773 31.1641 30.9004 31.3945 31.0605 31.5938C31.2246 31.793 31.4219 31.9492 31.6523 32.0625C31.8867 32.1758 32.1523 32.2324 32.4492 32.2324C32.832 32.2324 33.1562 32.1543 33.4219 31.998C33.6875 31.8418 33.9199 31.6328 34.1191 31.3711L34.7754 31.8926C34.6387 32.0996 34.4648 32.2969 34.2539 32.4844C34.043 32.6719 33.7832 32.8242 33.4746 32.9414C33.1699 33.0586 32.8086 33.1172 32.3906 33.1172ZM37.7285 31.875L39.3574 26.6602H40.0723L39.9316 27.6973L38.2734 33H37.5762L37.7285 31.875ZM36.6328 26.6602L38.0215 31.9336L38.1211 33H37.3887L35.5488 26.6602H36.6328ZM41.6309 31.8926L42.9551 26.6602H44.0332L42.1934 33H41.4668L41.6309 31.8926ZM40.2305 26.6602L41.8242 31.7871L42.0059 33H41.3145L39.6094 27.6855L39.4688 26.6602H40.2305ZM48.8379 31.3184C48.8379 31.1621 48.8027 31.0176 48.7324 30.8848C48.666 30.748 48.5273 30.625 48.3164 30.5156C48.1094 30.4023 47.7969 30.3047 47.3789 30.2227C47.0273 30.1484 46.709 30.0605 46.4238 29.959C46.1426 29.8574 45.9023 29.7344 45.7031 29.5898C45.5078 29.4453 45.3574 29.2754 45.252 29.0801C45.1465 28.8848 45.0938 28.6562 45.0938 28.3945C45.0938 28.1445 45.1484 27.9082 45.2578 27.6855C45.3711 27.4629 45.5293 27.2656 45.7324 27.0938C45.9395 26.9219 46.1875 26.7871 46.4766 26.6895C46.7656 26.5918 47.0879 26.543 47.4434 26.543C47.9512 26.543 48.3848 26.6328 48.7441 26.8125C49.1035 26.9922 49.3789 27.2324 49.5703 27.5332C49.7617 27.8301 49.8574 28.1602 49.8574 28.5234H48.7734C48.7734 28.3477 48.7207 28.1777 48.6152 28.0137C48.5137 27.8457 48.3633 27.707 48.1641 27.5977C47.9688 27.4883 47.7285 27.4336 47.4434 27.4336C47.1426 27.4336 46.8984 27.4805 46.7109 27.5742C46.5273 27.6641 46.3926 27.7793 46.3066 27.9199C46.2246 28.0605 46.1836 28.209 46.1836 28.3652C46.1836 28.4824 46.2031 28.5879 46.2422 28.6816C46.2852 28.7715 46.3594 28.8555 46.4648 28.9336C46.5703 29.0078 46.7188 29.0781 46.9102 29.1445C47.1016 29.2109 47.3457 29.2773 47.6426 29.3438C48.1621 29.4609 48.5898 29.6016 48.9258 29.7656C49.2617 29.9297 49.5117 30.1309 49.6758 30.3691C49.8398 30.6074 49.9219 30.8965 49.9219 31.2363C49.9219 31.5137 49.8633 31.7676 49.7461 31.998C49.6328 32.2285 49.4668 32.4277 49.248 32.5957C49.0332 32.7598 48.7754 32.8887 48.4746 32.9824C48.1777 33.0723 47.8438 33.1172 47.4727 33.1172C46.9141 33.1172 46.4414 33.0176 46.0547 32.8184C45.668 32.6191 45.375 32.3613 45.1758 32.0449C44.9766 31.7285 44.877 31.3945 44.877 31.043H45.9668C45.9824 31.3398 46.0684 31.5762 46.2246 31.752C46.3809 31.9238 46.5723 32.0469 46.7988 32.1211C47.0254 32.1914 47.25 32.2266 47.4727 32.2266C47.7695 32.2266 48.0176 32.1875 48.2168 32.1094C48.4199 32.0312 48.5742 31.9238 48.6797 31.7871C48.7852 31.6504 48.8379 31.4941 48.8379 31.3184ZM54.3398 32.4258C54.3398 32.2422 54.3965 32.0879 54.5098 31.9629C54.627 31.834 54.7949 31.7695 55.0137 31.7695C55.2324 31.7695 55.3984 31.834 55.5117 31.9629C55.6289 32.0879 55.6875 32.2422 55.6875 32.4258C55.6875 32.6055 55.6289 32.7578 55.5117 32.8828C55.3984 33.0078 55.2324 33.0703 55.0137 33.0703C54.7949 33.0703 54.627 33.0078 54.5098 32.8828C54.3965 32.7578 54.3398 32.6055 54.3398 32.4258ZM61.9277 28.2012H62.7012C63.0801 28.2012 63.3926 28.1387 63.6387 28.0137C63.8887 27.8848 64.0742 27.7109 64.1953 27.4922C64.3203 27.2695 64.3828 27.0195 64.3828 26.7422C64.3828 26.4141 64.3281 26.1387 64.2188 25.916C64.1094 25.6934 63.9453 25.5254 63.7266 25.4121C63.5078 25.2988 63.2305 25.2422 62.8945 25.2422C62.5898 25.2422 62.3203 25.3027 62.0859 25.4238C61.8555 25.541 61.6738 25.709 61.541 25.9277C61.4121 26.1465 61.3477 26.4043 61.3477 26.7012H60.2637C60.2637 26.2676 60.373 25.873 60.5918 25.5176C60.8105 25.1621 61.1172 24.8789 61.5117 24.668C61.9102 24.457 62.3711 24.3516 62.8945 24.3516C63.4102 24.3516 63.8613 24.4434 64.248 24.627C64.6348 24.8066 64.9355 25.0762 65.1504 25.4355C65.3652 25.791 65.4727 26.2344 65.4727 26.7656C65.4727 26.9805 65.4219 27.2109 65.3203 27.457C65.2227 27.6992 65.0684 27.9258 64.8574 28.1367C64.6504 28.3477 64.3809 28.5215 64.0488 28.6582C63.7168 28.791 63.3184 28.8574 62.8535 28.8574H61.9277V28.2012ZM61.9277 29.0918V28.4414H62.8535C63.3965 28.4414 63.8457 28.5059 64.2012 28.6348C64.5566 28.7637 64.8359 28.9355 65.0391 29.1504C65.2461 29.3652 65.3906 29.6016 65.4727 29.8594C65.5586 30.1133 65.6016 30.3672 65.6016 30.6211C65.6016 31.0195 65.5332 31.373 65.3965 31.6816C65.2637 31.9902 65.0742 32.252 64.8281 32.4668C64.5859 32.6816 64.3008 32.8438 63.9727 32.9531C63.6445 33.0625 63.2871 33.1172 62.9004 33.1172C62.5293 33.1172 62.1797 33.0645 61.8516 32.959C61.5273 32.8535 61.2402 32.7012 60.9902 32.502C60.7402 32.2988 60.5449 32.0508 60.4043 31.7578C60.2637 31.4609 60.1934 31.123 60.1934 30.7441H61.2773C61.2773 31.041 61.3418 31.3008 61.4707 31.5234C61.6035 31.7461 61.791 31.9199 62.0332 32.0449C62.2793 32.166 62.5684 32.2266 62.9004 32.2266C63.2324 32.2266 63.5176 32.1699 63.7559 32.0566C63.998 31.9395 64.1836 31.7637 64.3125 31.5293C64.4453 31.2949 64.5117 31 64.5117 30.6445C64.5117 30.2891 64.4375 29.998 64.2891 29.7715C64.1406 29.541 63.9297 29.3711 63.6562 29.2617C63.3867 29.1484 63.0684 29.0918 62.7012 29.0918H61.9277ZM71.9707 32.3438L73.7344 26.6602H74.8945L72.3516 33.9785C72.293 34.1348 72.2148 34.3027 72.1172 34.4824C72.0234 34.666 71.9023 34.8398 71.7539 35.0039C71.6055 35.168 71.4258 35.3008 71.2148 35.4023C71.0078 35.5078 70.7598 35.5605 70.4707 35.5605C70.3848 35.5605 70.2754 35.5488 70.1426 35.5254C70.0098 35.502 69.916 35.4824 69.8613 35.4668L69.8555 34.5879C69.8867 34.5918 69.9355 34.5957 70.002 34.5996C70.0723 34.6074 70.1211 34.6113 70.1484 34.6113C70.3945 34.6113 70.6035 34.5781 70.7754 34.5117C70.9473 34.4492 71.0918 34.3418 71.209 34.1895C71.3301 34.041 71.4336 33.8359 71.5195 33.5742L71.9707 32.3438ZM70.6758 26.6602L72.3223 31.582L72.6035 32.7246L71.8242 33.123L69.4922 26.6602H70.6758ZM78.4219 33.1172C77.9805 33.1172 77.5801 33.043 77.2207 32.8945C76.8652 32.7422 76.5586 32.5293 76.3008 32.2559C76.0469 31.9824 75.8516 31.6582 75.7148 31.2832C75.5781 30.9082 75.5098 30.498 75.5098 30.0527V29.8066C75.5098 29.291 75.5859 28.832 75.7383 28.4297C75.8906 28.0234 76.0977 27.6797 76.3594 27.3984C76.6211 27.1172 76.918 26.9043 77.25 26.7598C77.582 26.6152 77.9258 26.543 78.2812 26.543C78.7344 26.543 79.125 26.6211 79.4531 26.7773C79.7852 26.9336 80.0566 27.1523 80.2676 27.4336C80.4785 27.7109 80.6348 28.0391 80.7363 28.418C80.8379 28.793 80.8887 29.2031 80.8887 29.6484V30.1348H76.1543V29.25H79.8047V29.168C79.7891 28.8867 79.7305 28.6133 79.6289 28.3477C79.5312 28.082 79.375 27.8633 79.1602 27.6914C78.9453 27.5195 78.6523 27.4336 78.2812 27.4336C78.0352 27.4336 77.8086 27.4863 77.6016 27.5918C77.3945 27.6934 77.2168 27.8457 77.0684 28.0488C76.9199 28.252 76.8047 28.5 76.7227 28.793C76.6406 29.0859 76.5996 29.4238 76.5996 29.8066V30.0527C76.5996 30.3535 76.6406 30.6367 76.7227 30.9023C76.8086 31.1641 76.9316 31.3945 77.0918 31.5938C77.2559 31.793 77.4531 31.9492 77.6836 32.0625C77.918 32.1758 78.1836 32.2324 78.4805 32.2324C78.8633 32.2324 79.1875 32.1543 79.4531 31.998C79.7188 31.8418 79.9512 31.6328 80.1504 31.3711L80.8066 31.8926C80.6699 32.0996 80.4961 32.2969 80.2852 32.4844C80.0742 32.6719 79.8145 32.8242 79.5059 32.9414C79.2012 33.0586 78.8398 33.1172 78.4219 33.1172ZM85.8926 31.916V28.6523C85.8926 28.4023 85.8418 28.1855 85.7402 28.002C85.6426 27.8145 85.4941 27.6699 85.2949 27.5684C85.0957 27.4668 84.8496 27.416 84.5566 27.416C84.2832 27.416 84.043 27.4629 83.8359 27.5566C83.6328 27.6504 83.4727 27.7734 83.3555 27.9258C83.2422 28.0781 83.1855 28.2422 83.1855 28.418H82.1016C82.1016 28.1914 82.1602 27.9668 82.2773 27.7441C82.3945 27.5215 82.5625 27.3203 82.7812 27.1406C83.0039 26.957 83.2695 26.8125 83.5781 26.707C83.8906 26.5977 84.2383 26.543 84.6211 26.543C85.082 26.543 85.4883 26.6211 85.8398 26.7773C86.1953 26.9336 86.4727 27.1699 86.6719 27.4863C86.875 27.7988 86.9766 28.1914 86.9766 28.6641V31.6172C86.9766 31.8281 86.9941 32.0527 87.0293 32.291C87.0684 32.5293 87.125 32.7344 87.1992 32.9062V33H86.0684C86.0137 32.875 85.9707 32.709 85.9395 32.502C85.9082 32.291 85.8926 32.0957 85.8926 31.916ZM86.0801 29.1562L86.0918 29.918H84.9961C84.6875 29.918 84.4121 29.9434 84.1699 29.9941C83.9277 30.041 83.7246 30.1133 83.5605 30.2109C83.3965 30.3086 83.2715 30.4316 83.1855 30.5801C83.0996 30.7246 83.0566 30.8945 83.0566 31.0898C83.0566 31.2891 83.1016 31.4707 83.1914 31.6348C83.2812 31.7988 83.416 31.9297 83.5957 32.0273C83.7793 32.1211 84.0039 32.168 84.2695 32.168C84.6016 32.168 84.8945 32.0977 85.1484 31.957C85.4023 31.8164 85.6035 31.6445 85.752 31.4414C85.9043 31.2383 85.9863 31.041 85.998 30.8496L86.4609 31.3711C86.4336 31.5352 86.3594 31.7168 86.2383 31.916C86.1172 32.1152 85.9551 32.3066 85.752 32.4902C85.5527 32.6699 85.3145 32.8203 85.0371 32.9414C84.7637 33.0586 84.4551 33.1172 84.1113 33.1172C83.6816 33.1172 83.3047 33.0332 82.9805 32.8652C82.6602 32.6973 82.4102 32.4727 82.2305 32.1914C82.0547 31.9062 81.9668 31.5879 81.9668 31.2363C81.9668 30.8965 82.0332 30.5977 82.166 30.3398C82.2988 30.0781 82.4902 29.8613 82.7402 29.6895C82.9902 29.5137 83.291 29.3809 83.6426 29.291C83.9941 29.2012 84.3867 29.1562 84.8203 29.1562H86.0801ZM89.7656 27.6562V33H88.6816V26.6602H89.7363L89.7656 27.6562ZM91.7461 26.625L91.7402 27.6328C91.6504 27.6133 91.5645 27.6016 91.4824 27.5977C91.4043 27.5898 91.3145 27.5859 91.2129 27.5859C90.9629 27.5859 90.7422 27.625 90.5508 27.7031C90.3594 27.7812 90.1973 27.8906 90.0645 28.0312C89.9316 28.1719 89.8262 28.3398 89.748 28.5352C89.6738 28.7266 89.625 28.9375 89.6016 29.168L89.2969 29.3438C89.2969 28.9609 89.334 28.6016 89.4082 28.2656C89.4863 27.9297 89.6055 27.6328 89.7656 27.375C89.9258 27.1133 90.1289 26.9102 90.375 26.7656C90.625 26.6172 90.9219 26.543 91.2656 26.543C91.3438 26.543 91.4336 26.5527 91.5352 26.5723C91.6367 26.5879 91.707 26.6055 91.7461 26.625ZM96.4395 31.3184C96.4395 31.1621 96.4043 31.0176 96.334 30.8848C96.2676 30.748 96.1289 30.625 95.918 30.5156C95.7109 30.4023 95.3984 30.3047 94.9805 30.2227C94.6289 30.1484 94.3105 30.0605 94.0254 29.959C93.7441 29.8574 93.5039 29.7344 93.3047 29.5898C93.1094 29.4453 92.959 29.2754 92.8535 29.0801C92.748 28.8848 92.6953 28.6562 92.6953 28.3945C92.6953 28.1445 92.75 27.9082 92.8594 27.6855C92.9727 27.4629 93.1309 27.2656 93.334 27.0938C93.541 26.9219 93.7891 26.7871 94.0781 26.6895C94.3672 26.5918 94.6895 26.543 95.0449 26.543C95.5527 26.543 95.9863 26.6328 96.3457 26.8125C96.7051 26.9922 96.9805 27.2324 97.1719 27.5332C97.3633 27.8301 97.459 28.1602 97.459 28.5234H96.375C96.375 28.3477 96.3223 28.1777 96.2168 28.0137C96.1152 27.8457 95.9648 27.707 95.7656 27.5977C95.5703 27.4883 95.3301 27.4336 95.0449 27.4336C94.7441 27.4336 94.5 27.4805 94.3125 27.5742C94.1289 27.6641 93.9941 27.7793 93.9082 27.9199C93.8262 28.0605 93.7852 28.209 93.7852 28.3652C93.7852 28.4824 93.8047 28.5879 93.8438 28.6816C93.8867 28.7715 93.9609 28.8555 94.0664 28.9336C94.1719 29.0078 94.3203 29.0781 94.5117 29.1445C94.7031 29.2109 94.9473 29.2773 95.2441 29.3438C95.7637 29.4609 96.1914 29.6016 96.5273 29.7656C96.8633 29.9297 97.1133 30.1309 97.2773 30.3691C97.4414 30.6074 97.5234 30.8965 97.5234 31.2363C97.5234 31.5137 97.4648 31.7676 97.3477 31.998C97.2344 32.2285 97.0684 32.4277 96.8496 32.5957C96.6348 32.7598 96.377 32.8887 96.0762 32.9824C95.7793 33.0723 95.4453 33.1172 95.0742 33.1172C94.5156 33.1172 94.043 33.0176 93.6562 32.8184C93.2695 32.6191 92.9766 32.3613 92.7773 32.0449C92.5781 31.7285 92.4785 31.3945 92.4785 31.043H93.5684C93.584 31.3398 93.6699 31.5762 93.8262 31.752C93.9824 31.9238 94.1738 32.0469 94.4004 32.1211C94.627 32.1914 94.8516 32.2266 95.0742 32.2266C95.3711 32.2266 95.6191 32.1875 95.8184 32.1094C96.0215 32.0312 96.1758 31.9238 96.2812 31.7871C96.3867 31.6504 96.4395 31.4941 96.4395 31.3184ZM105.662 31.916V28.6523C105.662 28.4023 105.611 28.1855 105.51 28.002C105.412 27.8145 105.264 27.6699 105.064 27.5684C104.865 27.4668 104.619 27.416 104.326 27.416C104.053 27.416 103.812 27.4629 103.605 27.5566C103.402 27.6504 103.242 27.7734 103.125 27.9258C103.012 28.0781 102.955 28.2422 102.955 28.418H101.871C101.871 28.1914 101.93 27.9668 102.047 27.7441C102.164 27.5215 102.332 27.3203 102.551 27.1406C102.773 26.957 103.039 26.8125 103.348 26.707C103.66 26.5977 104.008 26.543 104.391 26.543C104.852 26.543 105.258 26.6211 105.609 26.7773C105.965 26.9336 106.242 27.1699 106.441 27.4863C106.645 27.7988 106.746 28.1914 106.746 28.6641V31.6172C106.746 31.8281 106.764 32.0527 106.799 32.291C106.838 32.5293 106.895 32.7344 106.969 32.9062V33H105.838C105.783 32.875 105.74 32.709 105.709 32.502C105.678 32.291 105.662 32.0957 105.662 31.916ZM105.85 29.1562L105.861 29.918H104.766C104.457 29.918 104.182 29.9434 103.939 29.9941C103.697 30.041 103.494 30.1133 103.33 30.2109C103.166 30.3086 103.041 30.4316 102.955 30.5801C102.869 30.7246 102.826 30.8945 102.826 31.0898C102.826 31.2891 102.871 31.4707 102.961 31.6348C103.051 31.7988 103.186 31.9297 103.365 32.0273C103.549 32.1211 103.773 32.168 104.039 32.168C104.371 32.168 104.664 32.0977 104.918 31.957C105.172 31.8164 105.373 31.6445 105.521 31.4414C105.674 31.2383 105.756 31.041 105.768 30.8496L106.23 31.3711C106.203 31.5352 106.129 31.7168 106.008 31.916C105.887 32.1152 105.725 32.3066 105.521 32.4902C105.322 32.6699 105.084 32.8203 104.807 32.9414C104.533 33.0586 104.225 33.1172 103.881 33.1172C103.451 33.1172 103.074 33.0332 102.75 32.8652C102.43 32.6973 102.18 32.4727 102 32.1914C101.824 31.9062 101.736 31.5879 101.736 31.2363C101.736 30.8965 101.803 30.5977 101.936 30.3398C102.068 30.0781 102.26 29.8613 102.51 29.6895C102.76 29.5137 103.061 29.3809 103.412 29.291C103.764 29.2012 104.156 29.1562 104.59 29.1562H105.85ZM112.559 26.6602H113.543V32.8652C113.543 33.4238 113.43 33.9004 113.203 34.2949C112.977 34.6895 112.66 34.9883 112.254 35.1914C111.852 35.3984 111.387 35.502 110.859 35.502C110.641 35.502 110.383 35.4668 110.086 35.3965C109.793 35.3301 109.504 35.2148 109.219 35.0508C108.938 34.8906 108.701 34.6738 108.51 34.4004L109.078 33.7559C109.344 34.0762 109.621 34.2988 109.91 34.4238C110.203 34.5488 110.492 34.6113 110.777 34.6113C111.121 34.6113 111.418 34.5469 111.668 34.418C111.918 34.2891 112.111 34.0977 112.248 33.8438C112.389 33.5938 112.459 33.2852 112.459 32.918V28.0547L112.559 26.6602ZM108.193 29.9004V29.7773C108.193 29.293 108.25 28.8535 108.363 28.459C108.48 28.0605 108.646 27.7188 108.861 27.4336C109.08 27.1484 109.344 26.9297 109.652 26.7773C109.961 26.6211 110.309 26.543 110.695 26.543C111.094 26.543 111.441 26.6133 111.738 26.7539C112.039 26.8906 112.293 27.0918 112.5 27.3574C112.711 27.6191 112.877 27.9355 112.998 28.3066C113.119 28.6777 113.203 29.0977 113.25 29.5664V30.1055C113.207 30.5703 113.123 30.9883 112.998 31.3594C112.877 31.7305 112.711 32.0469 112.5 32.3086C112.293 32.5703 112.039 32.7715 111.738 32.9121C111.438 33.0488 111.086 33.1172 110.684 33.1172C110.305 33.1172 109.961 33.0371 109.652 32.877C109.348 32.7168 109.086 32.4922 108.867 32.2031C108.648 31.9141 108.48 31.5742 108.363 31.1836C108.25 30.7891 108.193 30.3613 108.193 29.9004ZM109.277 29.7773V29.9004C109.277 30.2168 109.309 30.5137 109.371 30.791C109.438 31.0684 109.537 31.3125 109.67 31.5234C109.807 31.7344 109.98 31.9004 110.191 32.0215C110.402 32.1387 110.654 32.1973 110.947 32.1973C111.307 32.1973 111.604 32.1211 111.838 31.9688C112.072 31.8164 112.258 31.6152 112.395 31.3652C112.535 31.1152 112.645 30.8438 112.723 30.5508V29.1387C112.68 28.9238 112.613 28.7168 112.523 28.5176C112.438 28.3145 112.324 28.1348 112.184 27.9785C112.047 27.8184 111.877 27.6914 111.674 27.5977C111.471 27.5039 111.232 27.457 110.959 27.457C110.662 27.457 110.406 27.5195 110.191 27.6445C109.98 27.7656 109.807 27.9336 109.67 28.1484C109.537 28.3594 109.438 28.6055 109.371 28.8867C109.309 29.1641 109.277 29.4609 109.277 29.7773ZM114.902 29.9004V29.7656C114.902 29.3086 114.969 28.8848 115.102 28.4941C115.234 28.0996 115.426 27.7578 115.676 27.4688C115.926 27.1758 116.229 26.9492 116.584 26.7891C116.939 26.625 117.338 26.543 117.779 26.543C118.225 26.543 118.625 26.625 118.98 26.7891C119.34 26.9492 119.645 27.1758 119.895 27.4688C120.148 27.7578 120.342 28.0996 120.475 28.4941C120.607 28.8848 120.674 29.3086 120.674 29.7656V29.9004C120.674 30.3574 120.607 30.7812 120.475 31.1719C120.342 31.5625 120.148 31.9043 119.895 32.1973C119.645 32.4863 119.342 32.7129 118.986 32.877C118.635 33.0371 118.236 33.1172 117.791 33.1172C117.346 33.1172 116.945 33.0371 116.59 32.877C116.234 32.7129 115.93 32.4863 115.676 32.1973C115.426 31.9043 115.234 31.5625 115.102 31.1719C114.969 30.7812 114.902 30.3574 114.902 29.9004ZM115.986 29.7656V29.9004C115.986 30.2168 116.023 30.5156 116.098 30.7969C116.172 31.0742 116.283 31.3203 116.432 31.5352C116.584 31.75 116.773 31.9199 117 32.0449C117.227 32.166 117.49 32.2266 117.791 32.2266C118.088 32.2266 118.348 32.166 118.57 32.0449C118.797 31.9199 118.984 31.75 119.133 31.5352C119.281 31.3203 119.393 31.0742 119.467 30.7969C119.545 30.5156 119.584 30.2168 119.584 29.9004V29.7656C119.584 29.4531 119.545 29.1582 119.467 28.8809C119.393 28.5996 119.279 28.3516 119.127 28.1367C118.979 27.918 118.791 27.7461 118.564 27.6211C118.342 27.4961 118.08 27.4336 117.779 27.4336C117.482 27.4336 117.221 27.4961 116.994 27.6211C116.771 27.7461 116.584 27.918 116.432 28.1367C116.283 28.3516 116.172 28.5996 116.098 28.8809C116.023 29.1582 115.986 29.4531 115.986 29.7656Z" fill="#AAAAAA"/>
</svg>
