<svg width="202" height="40" viewBox="0 0 202 40" fill="none" xmlns="http://www.w3.org/2000/svg">
<path d="M4.14844 7.22461L1.32422 15H0.169922L3.42188 6.46875H4.16602L4.14844 7.22461ZM6.51562 15L3.68555 7.22461L3.66797 6.46875H4.41211L7.67578 15H6.51562ZM6.36914 11.8418V12.7676H1.57617V11.8418H6.36914ZM9.83203 6V15H8.74219V6H9.83203ZM14.2031 15.1172C13.7617 15.1172 13.3613 15.043 13.002 14.8945C12.6465 14.7422 12.3398 14.5293 12.082 14.2559C11.8281 13.9824 11.6328 13.6582 11.4961 13.2832C11.3594 12.9082 11.291 12.498 11.291 12.0527V11.8066C11.291 11.291 11.3672 10.832 11.5195 10.4297C11.6719 10.0234 11.8789 9.67969 12.1406 9.39844C12.4023 9.11719 12.6992 8.9043 13.0312 8.75977C13.3633 8.61523 13.707 8.54297 14.0625 8.54297C14.5156 8.54297 14.9062 8.62109 15.2344 8.77734C15.5664 8.93359 15.8379 9.15234 16.0488 9.43359C16.2598 9.71094 16.416 10.0391 16.5176 10.418C16.6191 10.793 16.6699 11.2031 16.6699 11.6484V12.1348H11.9355V11.25H15.5859V11.168C15.5703 10.8867 15.5117 10.6133 15.4102 10.3477C15.3125 10.082 15.1562 9.86328 14.9414 9.69141C14.7266 9.51953 14.4336 9.43359 14.0625 9.43359C13.8164 9.43359 13.5898 9.48633 13.3828 9.5918C13.1758 9.69336 12.998 9.8457 12.8496 10.0488C12.7012 10.252 12.5859 10.5 12.5039 10.793C12.4219 11.0859 12.3809 11.4238 12.3809 11.8066V12.0527C12.3809 12.3535 12.4219 12.6367 12.5039 12.9023C12.5898 13.1641 12.7129 13.3945 12.873 13.5938C13.0371 13.793 13.2344 13.9492 13.4648 14.0625C13.6992 14.1758 13.9648 14.2324 14.2617 14.2324C14.6445 14.2324 14.9688 14.1543 15.2344 13.998C15.5 13.8418 15.7324 13.6328 15.9316 13.3711L16.5879 13.8926C16.4512 14.0996 16.2773 14.2969 16.0664 14.4844C15.8555 14.6719 15.5957 14.8242 15.2871 14.9414C14.9824 15.0586 14.6211 15.1172 14.2031 15.1172ZM18.668 8.66016L20.0566 10.9688L21.4629 8.66016H22.7344L20.6602 11.7891L22.7988 15H21.5449L20.0801 12.6211L18.6152 15H17.3555L19.4883 11.7891L17.4199 8.66016H18.668ZM25.0664 8.66016V15H23.9766V8.66016H25.0664ZM23.8945 6.97852C23.8945 6.80273 23.9473 6.6543 24.0527 6.5332C24.1621 6.41211 24.3223 6.35156 24.5332 6.35156C24.7402 6.35156 24.8984 6.41211 25.0078 6.5332C25.1211 6.6543 25.1777 6.80273 25.1777 6.97852C25.1777 7.14648 25.1211 7.29102 25.0078 7.41211C24.8984 7.5293 24.7402 7.58789 24.5332 7.58789C24.3223 7.58789 24.1621 7.5293 24.0527 7.41211C23.9473 7.29102 23.8945 7.14648 23.8945 6.97852ZM30.498 13.3184C30.498 13.1621 30.4629 13.0176 30.3926 12.8848C30.3262 12.748 30.1875 12.625 29.9766 12.5156C29.7695 12.4023 29.457 12.3047 29.0391 12.2227C28.6875 12.1484 28.3691 12.0605 28.084 11.959C27.8027 11.8574 27.5625 11.7344 27.3633 11.5898C27.168 11.4453 27.0176 11.2754 26.9121 11.0801C26.8066 10.8848 26.7539 10.6562 26.7539 10.3945C26.7539 10.1445 26.8086 9.9082 26.918 9.68555C27.0312 9.46289 27.1895 9.26562 27.3926 9.09375C27.5996 8.92188 27.8477 8.78711 28.1367 8.68945C28.4258 8.5918 28.748 8.54297 29.1035 8.54297C29.6113 8.54297 30.0449 8.63281 30.4043 8.8125C30.7637 8.99219 31.0391 9.23242 31.2305 9.5332C31.4219 9.83008 31.5176 10.1602 31.5176 10.5234H30.4336C30.4336 10.3477 30.3809 10.1777 30.2754 10.0137C30.1738 9.8457 30.0234 9.70703 29.8242 9.59766C29.6289 9.48828 29.3887 9.43359 29.1035 9.43359C28.8027 9.43359 28.5586 9.48047 28.3711 9.57422C28.1875 9.66406 28.0527 9.7793 27.9668 9.91992C27.8848 10.0605 27.8438 10.209 27.8438 10.3652C27.8438 10.4824 27.8633 10.5879 27.9023 10.6816C27.9453 10.7715 28.0195 10.8555 28.125 10.9336C28.2305 11.0078 28.3789 11.0781 28.5703 11.1445C28.7617 11.2109 29.0059 11.2773 29.3027 11.3438C29.8223 11.4609 30.25 11.6016 30.5859 11.7656C30.9219 11.9297 31.1719 12.1309 31.3359 12.3691C31.5 12.6074 31.582 12.8965 31.582 13.2363C31.582 13.5137 31.5234 13.7676 31.4062 13.998C31.293 14.2285 31.127 14.4277 30.9082 14.5957C30.6934 14.7598 30.4355 14.8887 30.1348 14.9824C29.8379 15.0723 29.5039 15.1172 29.1328 15.1172C28.5742 15.1172 28.1016 15.0176 27.7148 14.8184C27.3281 14.6191 27.0352 14.3613 26.8359 14.0449C26.6367 13.7285 26.5371 13.3945 26.5371 13.043H27.627C27.6426 13.3398 27.7285 13.5762 27.8848 13.752C28.041 13.9238 28.2324 14.0469 28.459 14.1211C28.6855 14.1914 28.9102 14.2266 29.1328 14.2266C29.4297 14.2266 29.6777 14.1875 29.877 14.1094C30.0801 14.0312 30.2344 13.9238 30.3398 13.7871C30.4453 13.6504 30.498 13.4941 30.498 13.3184ZM40.6934 12.8438C40.6934 12.6445 40.6621 12.4688 40.5996 12.3164C40.541 12.1602 40.4355 12.0195 40.2832 11.8945C40.1348 11.7695 39.9277 11.6504 39.6621 11.5371C39.4004 11.4238 39.0684 11.3086 38.666 11.1914C38.2441 11.0664 37.8633 10.9277 37.5234 10.7754C37.1836 10.6191 36.8926 10.4414 36.6504 10.2422C36.4082 10.043 36.2227 9.81445 36.0938 9.55664C35.9648 9.29883 35.9004 9.00391 35.9004 8.67188C35.9004 8.33984 35.9688 8.0332 36.1055 7.75195C36.2422 7.4707 36.4375 7.22656 36.6914 7.01953C36.9492 6.80859 37.2559 6.64453 37.6113 6.52734C37.9668 6.41016 38.3633 6.35156 38.8008 6.35156C39.4414 6.35156 39.9844 6.47461 40.4297 6.7207C40.8789 6.96289 41.2207 7.28125 41.4551 7.67578C41.6895 8.06641 41.8066 8.48438 41.8066 8.92969H40.6816C40.6816 8.60938 40.6133 8.32617 40.4766 8.08008C40.3398 7.83008 40.1328 7.63477 39.8555 7.49414C39.5781 7.34961 39.2266 7.27734 38.8008 7.27734C38.3984 7.27734 38.0664 7.33789 37.8047 7.45898C37.543 7.58008 37.3477 7.74414 37.2188 7.95117C37.0938 8.1582 37.0312 8.39453 37.0312 8.66016C37.0312 8.83984 37.0684 9.00391 37.1426 9.15234C37.2207 9.29688 37.3398 9.43164 37.5 9.55664C37.6641 9.68164 37.8711 9.79688 38.1211 9.90234C38.375 10.0078 38.6777 10.1094 39.0293 10.207C39.5137 10.3438 39.9316 10.4961 40.2832 10.6641C40.6348 10.832 40.9238 11.0215 41.1504 11.2324C41.3809 11.4395 41.5508 11.6758 41.6602 11.9414C41.7734 12.2031 41.8301 12.5 41.8301 12.832C41.8301 13.1797 41.7598 13.4941 41.6191 13.7754C41.4785 14.0566 41.2773 14.2969 41.0156 14.4961C40.7539 14.6953 40.4395 14.8496 40.0723 14.959C39.709 15.0645 39.3027 15.1172 38.8535 15.1172C38.459 15.1172 38.0703 15.0625 37.6875 14.9531C37.3086 14.8438 36.9629 14.6797 36.6504 14.4609C36.3418 14.2422 36.0938 13.9727 35.9062 13.6523C35.7227 13.3281 35.6309 12.9531 35.6309 12.5273H36.7559C36.7559 12.8203 36.8125 13.0723 36.9258 13.2832C37.0391 13.4902 37.1934 13.6621 37.3887 13.7988C37.5879 13.9355 37.8125 14.0371 38.0625 14.1035C38.3164 14.166 38.5801 14.1973 38.8535 14.1973C39.248 14.1973 39.582 14.1426 39.8555 14.0332C40.1289 13.9238 40.3359 13.7676 40.4766 13.5645C40.6211 13.3613 40.6934 13.1211 40.6934 12.8438ZM45.7383 15.1172C45.2969 15.1172 44.8965 15.043 44.5371 14.8945C44.1816 14.7422 43.875 14.5293 43.6172 14.2559C43.3633 13.9824 43.168 13.6582 43.0312 13.2832C42.8945 12.9082 42.8262 12.498 42.8262 12.0527V11.8066C42.8262 11.291 42.9023 10.832 43.0547 10.4297C43.207 10.0234 43.4141 9.67969 43.6758 9.39844C43.9375 9.11719 44.2344 8.9043 44.5664 8.75977C44.8984 8.61523 45.2422 8.54297 45.5977 8.54297C46.0508 8.54297 46.4414 8.62109 46.7695 8.77734C47.1016 8.93359 47.373 9.15234 47.584 9.43359C47.7949 9.71094 47.9512 10.0391 48.0527 10.418C48.1543 10.793 48.2051 11.2031 48.2051 11.6484V12.1348H43.4707V11.25H47.1211V11.168C47.1055 10.8867 47.0469 10.6133 46.9453 10.3477C46.8477 10.082 46.6914 9.86328 46.4766 9.69141C46.2617 9.51953 45.9688 9.43359 45.5977 9.43359C45.3516 9.43359 45.125 9.48633 44.918 9.5918C44.7109 9.69336 44.5332 9.8457 44.3848 10.0488C44.2363 10.252 44.1211 10.5 44.0391 10.793C43.957 11.0859 43.916 11.4238 43.916 11.8066V12.0527C43.916 12.3535 43.957 12.6367 44.0391 12.9023C44.125 13.1641 44.248 13.3945 44.4082 13.5938C44.5723 13.793 44.7695 13.9492 45 14.0625C45.2344 14.1758 45.5 14.2324 45.7969 14.2324C46.1797 14.2324 46.5039 14.1543 46.7695 13.998C47.0352 13.8418 47.2676 13.6328 47.4668 13.3711L48.123 13.8926C47.9863 14.0996 47.8125 14.2969 47.6016 14.4844C47.3906 14.6719 47.1309 14.8242 46.8223 14.9414C46.5176 15.0586 46.1562 15.1172 45.7383 15.1172ZM53.209 13.916V10.6523C53.209 10.4023 53.1582 10.1855 53.0566 10.002C52.959 9.81445 52.8105 9.66992 52.6113 9.56836C52.4121 9.4668 52.166 9.41602 51.873 9.41602C51.5996 9.41602 51.3594 9.46289 51.1523 9.55664C50.9492 9.65039 50.7891 9.77344 50.6719 9.92578C50.5586 10.0781 50.502 10.2422 50.502 10.418H49.418C49.418 10.1914 49.4766 9.9668 49.5938 9.74414C49.7109 9.52148 49.8789 9.32031 50.0977 9.14062C50.3203 8.95703 50.5859 8.8125 50.8945 8.70703C51.207 8.59766 51.5547 8.54297 51.9375 8.54297C52.3984 8.54297 52.8047 8.62109 53.1562 8.77734C53.5117 8.93359 53.7891 9.16992 53.9883 9.48633C54.1914 9.79883 54.293 10.1914 54.293 10.6641V13.6172C54.293 13.8281 54.3105 14.0527 54.3457 14.291C54.3848 14.5293 54.4414 14.7344 54.5156 14.9062V15H53.3848C53.3301 14.875 53.2871 14.709 53.2559 14.502C53.2246 14.291 53.209 14.0957 53.209 13.916ZM53.3965 11.1562L53.4082 11.918H52.3125C52.0039 11.918 51.7285 11.9434 51.4863 11.9941C51.2441 12.041 51.041 12.1133 50.877 12.2109C50.7129 12.3086 50.5879 12.4316 50.502 12.5801C50.416 12.7246 50.373 12.8945 50.373 13.0898C50.373 13.2891 50.418 13.4707 50.5078 13.6348C50.5977 13.7988 50.7324 13.9297 50.9121 14.0273C51.0957 14.1211 51.3203 14.168 51.5859 14.168C51.918 14.168 52.2109 14.0977 52.4648 13.957C52.7188 13.8164 52.9199 13.6445 53.0684 13.4414C53.2207 13.2383 53.3027 13.041 53.3145 12.8496L53.7773 13.3711C53.75 13.5352 53.6758 13.7168 53.5547 13.916C53.4336 14.1152 53.2715 14.3066 53.0684 14.4902C52.8691 14.6699 52.6309 14.8203 52.3535 14.9414C52.0801 15.0586 51.7715 15.1172 51.4277 15.1172C50.998 15.1172 50.6211 15.0332 50.2969 14.8652C49.9766 14.6973 49.7266 14.4727 49.5469 14.1914C49.3711 13.9062 49.2832 13.5879 49.2832 13.2363C49.2832 12.8965 49.3496 12.5977 49.4824 12.3398C49.6152 12.0781 49.8066 11.8613 50.0566 11.6895C50.3066 11.5137 50.6074 11.3809 50.959 11.291C51.3105 11.2012 51.7031 11.1562 52.1367 11.1562H53.3965ZM57.082 9.65625V15H55.998V8.66016H57.0527L57.082 9.65625ZM59.0625 8.625L59.0566 9.63281C58.9668 9.61328 58.8809 9.60156 58.7988 9.59766C58.7207 9.58984 58.6309 9.58594 58.5293 9.58594C58.2793 9.58594 58.0586 9.625 57.8672 9.70312C57.6758 9.78125 57.5137 9.89062 57.3809 10.0312C57.248 10.1719 57.1426 10.3398 57.0645 10.5352C56.9902 10.7266 56.9414 10.9375 56.918 11.168L56.6133 11.3438C56.6133 10.9609 56.6504 10.6016 56.7246 10.2656C56.8027 9.92969 56.9219 9.63281 57.082 9.375C57.2422 9.11328 57.4453 8.91016 57.6914 8.76562C57.9414 8.61719 58.2383 8.54297 58.582 8.54297C58.6602 8.54297 58.75 8.55273 58.8516 8.57227C58.9531 8.58789 59.0234 8.60547 59.0625 8.625ZM63.7559 13.3184C63.7559 13.1621 63.7207 13.0176 63.6504 12.8848C63.584 12.748 63.4453 12.625 63.2344 12.5156C63.0273 12.4023 62.7148 12.3047 62.2969 12.2227C61.9453 12.1484 61.627 12.0605 61.3418 11.959C61.0605 11.8574 60.8203 11.7344 60.6211 11.5898C60.4258 11.4453 60.2754 11.2754 60.1699 11.0801C60.0645 10.8848 60.0117 10.6562 60.0117 10.3945C60.0117 10.1445 60.0664 9.9082 60.1758 9.68555C60.2891 9.46289 60.4473 9.26562 60.6504 9.09375C60.8574 8.92188 61.1055 8.78711 61.3945 8.68945C61.6836 8.5918 62.0059 8.54297 62.3613 8.54297C62.8691 8.54297 63.3027 8.63281 63.6621 8.8125C64.0215 8.99219 64.2969 9.23242 64.4883 9.5332C64.6797 9.83008 64.7754 10.1602 64.7754 10.5234H63.6914C63.6914 10.3477 63.6387 10.1777 63.5332 10.0137C63.4316 9.8457 63.2812 9.70703 63.082 9.59766C62.8867 9.48828 62.6465 9.43359 62.3613 9.43359C62.0605 9.43359 61.8164 9.48047 61.6289 9.57422C61.4453 9.66406 61.3105 9.7793 61.2246 9.91992C61.1426 10.0605 61.1016 10.209 61.1016 10.3652C61.1016 10.4824 61.1211 10.5879 61.1602 10.6816C61.2031 10.7715 61.2773 10.8555 61.3828 10.9336C61.4883 11.0078 61.6367 11.0781 61.8281 11.1445C62.0195 11.2109 62.2637 11.2773 62.5605 11.3438C63.0801 11.4609 63.5078 11.6016 63.8438 11.7656C64.1797 11.9297 64.4297 12.1309 64.5938 12.3691C64.7578 12.6074 64.8398 12.8965 64.8398 13.2363C64.8398 13.5137 64.7812 13.7676 64.6641 13.998C64.5508 14.2285 64.3848 14.4277 64.166 14.5957C63.9512 14.7598 63.6934 14.8887 63.3926 14.9824C63.0957 15.0723 62.7617 15.1172 62.3906 15.1172C61.832 15.1172 61.3594 15.0176 60.9727 14.8184C60.5859 14.6191 60.293 14.3613 60.0938 14.0449C59.8945 13.7285 59.7949 13.3945 59.7949 13.043H60.8848C60.9004 13.3398 60.9863 13.5762 61.1426 13.752C61.2988 13.9238 61.4902 14.0469 61.7168 14.1211C61.9434 14.1914 62.168 14.2266 62.3906 14.2266C62.6875 14.2266 62.9355 14.1875 63.1348 14.1094C63.3379 14.0312 63.4922 13.9238 63.5977 13.7871C63.7031 13.6504 63.7559 13.4941 63.7559 13.3184Z" fill="#AAAAAA"/>
<path d="M4.27148 24.4219V33H3.1875V25.7754L1.00195 26.5723V25.5938L4.10156 24.4219H4.27148ZM8.09766 24.4688H9.19336L11.9883 31.4238L14.7773 24.4688H15.8789L12.4102 33H11.5547L8.09766 24.4688ZM7.74023 24.4688H8.70703L8.86523 29.6719V33H7.74023V24.4688ZM15.2637 24.4688H16.2305V33H15.1055V29.6719L15.2637 24.4688ZM22.957 32.0215L24.6914 26.6602H25.7988L23.5195 33H22.793L22.957 32.0215ZM21.5098 26.6602L23.2969 32.0508L23.4199 33H22.6934L20.3965 26.6602H21.5098ZM28.0195 26.6602V33H26.9297V26.6602H28.0195ZM26.8477 24.9785C26.8477 24.8027 26.9004 24.6543 27.0059 24.5332C27.1152 24.4121 27.2754 24.3516 27.4863 24.3516C27.6934 24.3516 27.8516 24.4121 27.9609 24.5332C28.0742 24.6543 28.1309 24.8027 28.1309 24.9785C28.1309 25.1465 28.0742 25.291 27.9609 25.4121C27.8516 25.5293 27.6934 25.5879 27.4863 25.5879C27.2754 25.5879 27.1152 25.5293 27.0059 25.4121C26.9004 25.291 26.8477 25.1465 26.8477 24.9785ZM32.3906 33.1172C31.9492 33.1172 31.5488 33.043 31.1895 32.8945C30.834 32.7422 30.5273 32.5293 30.2695 32.2559C30.0156 31.9824 29.8203 31.6582 29.6836 31.2832C29.5469 30.9082 29.4785 30.498 29.4785 30.0527V29.8066C29.4785 29.291 29.5547 28.832 29.707 28.4297C29.8594 28.0234 30.0664 27.6797 30.3281 27.3984C30.5898 27.1172 30.8867 26.9043 31.2188 26.7598C31.5508 26.6152 31.8945 26.543 32.25 26.543C32.7031 26.543 33.0938 26.6211 33.4219 26.7773C33.7539 26.9336 34.0254 27.1523 34.2363 27.4336C34.4473 27.7109 34.6035 28.0391 34.7051 28.418C34.8066 28.793 34.8574 29.2031 34.8574 29.6484V30.1348H30.123V29.25H33.7734V29.168C33.7578 28.8867 33.6992 28.6133 33.5977 28.3477C33.5 28.082 33.3438 27.8633 33.1289 27.6914C32.9141 27.5195 32.6211 27.4336 32.25 27.4336C32.0039 27.4336 31.7773 27.4863 31.5703 27.5918C31.3633 27.6934 31.1855 27.8457 31.0371 28.0488C30.8887 28.252 30.7734 28.5 30.6914 28.793C30.6094 29.0859 30.5684 29.4238 30.5684 29.8066V30.0527C30.5684 30.3535 30.6094 30.6367 30.6914 30.9023C30.7773 31.1641 30.9004 31.3945 31.0605 31.5938C31.2246 31.793 31.4219 31.9492 31.6523 32.0625C31.8867 32.1758 32.1523 32.2324 32.4492 32.2324C32.832 32.2324 33.1562 32.1543 33.4219 31.998C33.6875 31.8418 33.9199 31.6328 34.1191 31.3711L34.7754 31.8926C34.6387 32.0996 34.4648 32.2969 34.2539 32.4844C34.043 32.6719 33.7832 32.8242 33.4746 32.9414C33.1699 33.0586 32.8086 33.1172 32.3906 33.1172ZM37.7285 31.875L39.3574 26.6602H40.0723L39.9316 27.6973L38.2734 33H37.5762L37.7285 31.875ZM36.6328 26.6602L38.0215 31.9336L38.1211 33H37.3887L35.5488 26.6602H36.6328ZM41.6309 31.8926L42.9551 26.6602H44.0332L42.1934 33H41.4668L41.6309 31.8926ZM40.2305 26.6602L41.8242 31.7871L42.0059 33H41.3145L39.6094 27.6855L39.4688 26.6602H40.2305ZM48.8379 31.3184C48.8379 31.1621 48.8027 31.0176 48.7324 30.8848C48.666 30.748 48.5273 30.625 48.3164 30.5156C48.1094 30.4023 47.7969 30.3047 47.3789 30.2227C47.0273 30.1484 46.709 30.0605 46.4238 29.959C46.1426 29.8574 45.9023 29.7344 45.7031 29.5898C45.5078 29.4453 45.3574 29.2754 45.252 29.0801C45.1465 28.8848 45.0938 28.6562 45.0938 28.3945C45.0938 28.1445 45.1484 27.9082 45.2578 27.6855C45.3711 27.4629 45.5293 27.2656 45.7324 27.0938C45.9395 26.9219 46.1875 26.7871 46.4766 26.6895C46.7656 26.5918 47.0879 26.543 47.4434 26.543C47.9512 26.543 48.3848 26.6328 48.7441 26.8125C49.1035 26.9922 49.3789 27.2324 49.5703 27.5332C49.7617 27.8301 49.8574 28.1602 49.8574 28.5234H48.7734C48.7734 28.3477 48.7207 28.1777 48.6152 28.0137C48.5137 27.8457 48.3633 27.707 48.1641 27.5977C47.9688 27.4883 47.7285 27.4336 47.4434 27.4336C47.1426 27.4336 46.8984 27.4805 46.7109 27.5742C46.5273 27.6641 46.3926 27.7793 46.3066 27.9199C46.2246 28.0605 46.1836 28.209 46.1836 28.3652C46.1836 28.4824 46.2031 28.5879 46.2422 28.6816C46.2852 28.7715 46.3594 28.8555 46.4648 28.9336C46.5703 29.0078 46.7188 29.0781 46.9102 29.1445C47.1016 29.2109 47.3457 29.2773 47.6426 29.3438C48.1621 29.4609 48.5898 29.6016 48.9258 29.7656C49.2617 29.9297 49.5117 30.1309 49.6758 30.3691C49.8398 30.6074 49.9219 30.8965 49.9219 31.2363C49.9219 31.5137 49.8633 31.7676 49.7461 31.998C49.6328 32.2285 49.4668 32.4277 49.248 32.5957C49.0332 32.7598 48.7754 32.8887 48.4746 32.9824C48.1777 33.0723 47.8438 33.1172 47.4727 33.1172C46.9141 33.1172 46.4414 33.0176 46.0547 32.8184C45.668 32.6191 45.375 32.3613 45.1758 32.0449C44.9766 31.7285 44.877 31.3945 44.877 31.043H45.9668C45.9824 31.3398 46.0684 31.5762 46.2246 31.752C46.3809 31.9238 46.5723 32.0469 46.7988 32.1211C47.0254 32.1914 47.25 32.2266 47.4727 32.2266C47.7695 32.2266 48.0176 32.1875 48.2168 32.1094C48.4199 32.0312 48.5742 31.9238 48.6797 31.7871C48.7852 31.6504 48.8379 31.4941 48.8379 31.3184ZM54.3398 32.4258C54.3398 32.2422 54.3965 32.0879 54.5098 31.9629C54.627 31.834 54.7949 31.7695 55.0137 31.7695C55.2324 31.7695 55.3984 31.834 55.5117 31.9629C55.6289 32.0879 55.6875 32.2422 55.6875 32.4258C55.6875 32.6055 55.6289 32.7578 55.5117 32.8828C55.3984 33.0078 55.2324 33.0703 55.0137 33.0703C54.7949 33.0703 54.627 33.0078 54.5098 32.8828C54.3965 32.7578 54.3398 32.6055 54.3398 32.4258ZM61.9277 28.2012H62.7012C63.0801 28.2012 63.3926 28.1387 63.6387 28.0137C63.8887 27.8848 64.0742 27.7109 64.1953 27.4922C64.3203 27.2695 64.3828 27.0195 64.3828 26.7422C64.3828 26.4141 64.3281 26.1387 64.2188 25.916C64.1094 25.6934 63.9453 25.5254 63.7266 25.4121C63.5078 25.2988 63.2305 25.2422 62.8945 25.2422C62.5898 25.2422 62.3203 25.3027 62.0859 25.4238C61.8555 25.541 61.6738 25.709 61.541 25.9277C61.4121 26.1465 61.3477 26.4043 61.3477 26.7012H60.2637C60.2637 26.2676 60.373 25.873 60.5918 25.5176C60.8105 25.1621 61.1172 24.8789 61.5117 24.668C61.9102 24.457 62.3711 24.3516 62.8945 24.3516C63.4102 24.3516 63.8613 24.4434 64.248 24.627C64.6348 24.8066 64.9355 25.0762 65.1504 25.4355C65.3652 25.791 65.4727 26.2344 65.4727 26.7656C65.4727 26.9805 65.4219 27.2109 65.3203 27.457C65.2227 27.6992 65.0684 27.9258 64.8574 28.1367C64.6504 28.3477 64.3809 28.5215 64.0488 28.6582C63.7168 28.791 63.3184 28.8574 62.8535 28.8574H61.9277V28.2012ZM61.9277 29.0918V28.4414H62.8535C63.3965 28.4414 63.8457 28.5059 64.2012 28.6348C64.5566 28.7637 64.8359 28.9355 65.0391 29.1504C65.2461 29.3652 65.3906 29.6016 65.4727 29.8594C65.5586 30.1133 65.6016 30.3672 65.6016 30.6211C65.6016 31.0195 65.5332 31.373 65.3965 31.6816C65.2637 31.9902 65.0742 32.252 64.8281 32.4668C64.5859 32.6816 64.3008 32.8438 63.9727 32.9531C63.6445 33.0625 63.2871 33.1172 62.9004 33.1172C62.5293 33.1172 62.1797 33.0645 61.8516 32.959C61.5273 32.8535 61.2402 32.7012 60.9902 32.502C60.7402 32.2988 60.5449 32.0508 60.4043 31.7578C60.2637 31.4609 60.1934 31.123 60.1934 30.7441H61.2773C61.2773 31.041 61.3418 31.3008 61.4707 31.5234C61.6035 31.7461 61.791 31.9199 62.0332 32.0449C62.2793 32.166 62.5684 32.2266 62.9004 32.2266C63.2324 32.2266 63.5176 32.1699 63.7559 32.0566C63.998 31.9395 64.1836 31.7637 64.3125 31.5293C64.4453 31.2949 64.5117 31 64.5117 30.6445C64.5117 30.2891 64.4375 29.998 64.2891 29.7715C64.1406 29.541 63.9297 29.3711 63.6562 29.2617C63.3867 29.1484 63.0684 29.0918 62.7012 29.0918H61.9277ZM71.9707 32.3438L73.7344 26.6602H74.8945L72.3516 33.9785C72.293 34.1348 72.2148 34.3027 72.1172 34.4824C72.0234 34.666 71.9023 34.8398 71.7539 35.0039C71.6055 35.168 71.4258 35.3008 71.2148 35.4023C71.0078 35.5078 70.7598 35.5605 70.4707 35.5605C70.3848 35.5605 70.2754 35.5488 70.1426 35.5254C70.0098 35.502 69.916 35.4824 69.8613 35.4668L69.8555 34.5879C69.8867 34.5918 69.9355 34.5957 70.002 34.5996C70.0723 34.6074 70.1211 34.6113 70.1484 34.6113C70.3945 34.6113 70.6035 34.5781 70.7754 34.5117C70.9473 34.4492 71.0918 34.3418 71.209 34.1895C71.3301 34.041 71.4336 33.8359 71.5195 33.5742L71.9707 32.3438ZM70.6758 26.6602L72.3223 31.582L72.6035 32.7246L71.8242 33.123L69.4922 26.6602H70.6758ZM78.4219 33.1172C77.9805 33.1172 77.5801 33.043 77.2207 32.8945C76.8652 32.7422 76.5586 32.5293 76.3008 32.2559C76.0469 31.9824 75.8516 31.6582 75.7148 31.2832C75.5781 30.9082 75.5098 30.498 75.5098 30.0527V29.8066C75.5098 29.291 75.5859 28.832 75.7383 28.4297C75.8906 28.0234 76.0977 27.6797 76.3594 27.3984C76.6211 27.1172 76.918 26.9043 77.25 26.7598C77.582 26.6152 77.9258 26.543 78.2812 26.543C78.7344 26.543 79.125 26.6211 79.4531 26.7773C79.7852 26.9336 80.0566 27.1523 80.2676 27.4336C80.4785 27.7109 80.6348 28.0391 80.7363 28.418C80.8379 28.793 80.8887 29.2031 80.8887 29.6484V30.1348H76.1543V29.25H79.8047V29.168C79.7891 28.8867 79.7305 28.6133 79.6289 28.3477C79.5312 28.082 79.375 27.8633 79.1602 27.6914C78.9453 27.5195 78.6523 27.4336 78.2812 27.4336C78.0352 27.4336 77.8086 27.4863 77.6016 27.5918C77.3945 27.6934 77.2168 27.8457 77.0684 28.0488C76.9199 28.252 76.8047 28.5 76.7227 28.793C76.6406 29.0859 76.5996 29.4238 76.5996 29.8066V30.0527C76.5996 30.3535 76.6406 30.6367 76.7227 30.9023C76.8086 31.1641 76.9316 31.3945 77.0918 31.5938C77.2559 31.793 77.4531 31.9492 77.6836 32.0625C77.918 32.1758 78.1836 32.2324 78.4805 32.2324C78.8633 32.2324 79.1875 32.1543 79.4531 31.998C79.7188 31.8418 79.9512 31.6328 80.1504 31.3711L80.8066 31.8926C80.6699 32.0996 80.4961 32.2969 80.2852 32.4844C80.0742 32.6719 79.8145 32.8242 79.5059 32.9414C79.2012 33.0586 78.8398 33.1172 78.4219 33.1172ZM85.8926 31.916V28.6523C85.8926 28.4023 85.8418 28.1855 85.7402 28.002C85.6426 27.8145 85.4941 27.6699 85.2949 27.5684C85.0957 27.4668 84.8496 27.416 84.5566 27.416C84.2832 27.416 84.043 27.4629 83.8359 27.5566C83.6328 27.6504 83.4727 27.7734 83.3555 27.9258C83.2422 28.0781 83.1855 28.2422 83.1855 28.418H82.1016C82.1016 28.1914 82.1602 27.9668 82.2773 27.7441C82.3945 27.5215 82.5625 27.3203 82.7812 27.1406C83.0039 26.957 83.2695 26.8125 83.5781 26.707C83.8906 26.5977 84.2383 26.543 84.6211 26.543C85.082 26.543 85.4883 26.6211 85.8398 26.7773C86.1953 26.9336 86.4727 27.1699 86.6719 27.4863C86.875 27.7988 86.9766 28.1914 86.9766 28.6641V31.6172C86.9766 31.8281 86.9941 32.0527 87.0293 32.291C87.0684 32.5293 87.125 32.7344 87.1992 32.9062V33H86.0684C86.0137 32.875 85.9707 32.709 85.9395 32.502C85.9082 32.291 85.8926 32.0957 85.8926 31.916ZM86.0801 29.1562L86.0918 29.918H84.9961C84.6875 29.918 84.4121 29.9434 84.1699 29.9941C83.9277 30.041 83.7246 30.1133 83.5605 30.2109C83.3965 30.3086 83.2715 30.4316 83.1855 30.5801C83.0996 30.7246 83.0566 30.8945 83.0566 31.0898C83.0566 31.2891 83.1016 31.4707 83.1914 31.6348C83.2812 31.7988 83.416 31.9297 83.5957 32.0273C83.7793 32.1211 84.0039 32.168 84.2695 32.168C84.6016 32.168 84.8945 32.0977 85.1484 31.957C85.4023 31.8164 85.6035 31.6445 85.752 31.4414C85.9043 31.2383 85.9863 31.041 85.998 30.8496L86.4609 31.3711C86.4336 31.5352 86.3594 31.7168 86.2383 31.916C86.1172 32.1152 85.9551 32.3066 85.752 32.4902C85.5527 32.6699 85.3145 32.8203 85.0371 32.9414C84.7637 33.0586 84.4551 33.1172 84.1113 33.1172C83.6816 33.1172 83.3047 33.0332 82.9805 32.8652C82.6602 32.6973 82.4102 32.4727 82.2305 32.1914C82.0547 31.9062 81.9668 31.5879 81.9668 31.2363C81.9668 30.8965 82.0332 30.5977 82.166 30.3398C82.2988 30.0781 82.4902 29.8613 82.7402 29.6895C82.9902 29.5137 83.291 29.3809 83.6426 29.291C83.9941 29.2012 84.3867 29.1562 84.8203 29.1562H86.0801ZM89.7656 27.6562V33H88.6816V26.6602H89.7363L89.7656 27.6562ZM91.7461 26.625L91.7402 27.6328C91.6504 27.6133 91.5645 27.6016 91.4824 27.5977C91.4043 27.5898 91.3145 27.5859 91.2129 27.5859C90.9629 27.5859 90.7422 27.625 90.5508 27.7031C90.3594 27.7812 90.1973 27.8906 90.0645 28.0312C89.9316 28.1719 89.8262 28.3398 89.748 28.5352C89.6738 28.7266 89.625 28.9375 89.6016 29.168L89.2969 29.3438C89.2969 28.9609 89.334 28.6016 89.4082 28.2656C89.4863 27.9297 89.6055 27.6328 89.7656 27.375C89.9258 27.1133 90.1289 26.9102 90.375 26.7656C90.625 26.6172 90.9219 26.543 91.2656 26.543C91.3438 26.543 91.4336 26.5527 91.5352 26.5723C91.6367 26.5879 91.707 26.6055 91.7461 26.625ZM96.4395 31.3184C96.4395 31.1621 96.4043 31.0176 96.334 30.8848C96.2676 30.748 96.1289 30.625 95.918 30.5156C95.7109 30.4023 95.3984 30.3047 94.9805 30.2227C94.6289 30.1484 94.3105 30.0605 94.0254 29.959C93.7441 29.8574 93.5039 29.7344 93.3047 29.5898C93.1094 29.4453 92.959 29.2754 92.8535 29.0801C92.748 28.8848 92.6953 28.6562 92.6953 28.3945C92.6953 28.1445 92.75 27.9082 92.8594 27.6855C92.9727 27.4629 93.1309 27.2656 93.334 27.0938C93.541 26.9219 93.7891 26.7871 94.0781 26.6895C94.3672 26.5918 94.6895 26.543 95.0449 26.543C95.5527 26.543 95.9863 26.6328 96.3457 26.8125C96.7051 26.9922 96.9805 27.2324 97.1719 27.5332C97.3633 27.8301 97.459 28.1602 97.459 28.5234H96.375C96.375 28.3477 96.3223 28.1777 96.2168 28.0137C96.1152 27.8457 95.9648 27.707 95.7656 27.5977C95.5703 27.4883 95.3301 27.4336 95.0449 27.4336C94.7441 27.4336 94.5 27.4805 94.3125 27.5742C94.1289 27.6641 93.9941 27.7793 93.9082 27.9199C93.8262 28.0605 93.7852 28.209 93.7852 28.3652C93.7852 28.4824 93.8047 28.5879 93.8438 28.6816C93.8867 28.7715 93.9609 28.8555 94.0664 28.9336C94.1719 29.0078 94.3203 29.0781 94.5117 29.1445C94.7031 29.2109 94.9473 29.2773 95.2441 29.3438C95.7637 29.4609 96.1914 29.6016 96.5273 29.7656C96.8633 29.9297 97.1133 30.1309 97.2773 30.3691C97.4414 30.6074 97.5234 30.8965 97.5234 31.2363C97.5234 31.5137 97.4648 31.7676 97.3477 31.998C97.2344 32.2285 97.0684 32.4277 96.8496 32.5957C96.6348 32.7598 96.377 32.8887 96.0762 32.9824C95.7793 33.0723 95.4453 33.1172 95.0742 33.1172C94.5156 33.1172 94.043 33.0176 93.6562 32.8184C93.2695 32.6191 92.9766 32.3613 92.7773 32.0449C92.5781 31.7285 92.4785 31.3945 92.4785 31.043H93.5684C93.584 31.3398 93.6699 31.5762 93.8262 31.752C93.9824 31.9238 94.1738 32.0469 94.4004 32.1211C94.627 32.1914 94.8516 32.2266 95.0742 32.2266C95.3711 32.2266 95.6191 32.1875 95.8184 32.1094C96.0215 32.0312 96.1758 31.9238 96.2812 31.7871C96.3867 31.6504 96.4395 31.4941 96.4395 31.3184ZM105.662 31.916V28.6523C105.662 28.4023 105.611 28.1855 105.51 28.002C105.412 27.8145 105.264 27.6699 105.064 27.5684C104.865 27.4668 104.619 27.416 104.326 27.416C104.053 27.416 103.812 27.4629 103.605 27.5566C103.402 27.6504 103.242 27.7734 103.125 27.9258C103.012 28.0781 102.955 28.2422 102.955 28.418H101.871C101.871 28.1914 101.93 27.9668 102.047 27.7441C102.164 27.5215 102.332 27.3203 102.551 27.1406C102.773 26.957 103.039 26.8125 103.348 26.707C103.66 26.5977 104.008 26.543 104.391 26.543C104.852 26.543 105.258 26.6211 105.609 26.7773C105.965 26.9336 106.242 27.1699 106.441 27.4863C106.645 27.7988 106.746 28.1914 106.746 28.6641V31.6172C106.746 31.8281 106.764 32.0527 106.799 32.291C106.838 32.5293 106.895 32.7344 106.969 32.9062V33H105.838C105.783 32.875 105.74 32.709 105.709 32.502C105.678 32.291 105.662 32.0957 105.662 31.916ZM105.85 29.1562L105.861 29.918H104.766C104.457 29.918 104.182 29.9434 103.939 29.9941C103.697 30.041 103.494 30.1133 103.33 30.2109C103.166 30.3086 103.041 30.4316 102.955 30.5801C102.869 30.7246 102.826 30.8945 102.826 31.0898C102.826 31.2891 102.871 31.4707 102.961 31.6348C103.051 31.7988 103.186 31.9297 103.365 32.0273C103.549 32.1211 103.773 32.168 104.039 32.168C104.371 32.168 104.664 32.0977 104.918 31.957C105.172 31.8164 105.373 31.6445 105.521 31.4414C105.674 31.2383 105.756 31.041 105.768 30.8496L106.23 31.3711C106.203 31.5352 106.129 31.7168 106.008 31.916C105.887 32.1152 105.725 32.3066 105.521 32.4902C105.322 32.6699 105.084 32.8203 104.807 32.9414C104.533 33.0586 104.225 33.1172 103.881 33.1172C103.451 33.1172 103.074 33.0332 102.75 32.8652C102.43 32.6973 102.18 32.4727 102 32.1914C101.824 31.9062 101.736 31.5879 101.736 31.2363C101.736 30.8965 101.803 30.5977 101.936 30.3398C102.068 30.0781 102.26 29.8613 102.51 29.6895C102.76 29.5137 103.061 29.3809 103.412 29.291C103.764 29.2012 104.156 29.1562 104.59 29.1562H105.85ZM112.559 26.6602H113.543V32.8652C113.543 33.4238 113.43 33.9004 113.203 34.2949C112.977 34.6895 112.66 34.9883 112.254 35.1914C111.852 35.3984 111.387 35.502 110.859 35.502C110.641 35.502 110.383 35.4668 110.086 35.3965C109.793 35.3301 109.504 35.2148 109.219 35.0508C108.938 34.8906 108.701 34.6738 108.51 34.4004L109.078 33.7559C109.344 34.0762 109.621 34.2988 109.91 34.4238C110.203 34.5488 110.492 34.6113 110.777 34.6113C111.121 34.6113 111.418 34.5469 111.668 34.418C111.918 34.2891 112.111 34.0977 112.248 33.8438C112.389 33.5938 112.459 33.2852 112.459 32.918V28.0547L112.559 26.6602ZM108.193 29.9004V29.7773C108.193 29.293 108.25 28.8535 108.363 28.459C108.48 28.0605 108.646 27.7188 108.861 27.4336C109.08 27.1484 109.344 26.9297 109.652 26.7773C109.961 26.6211 110.309 26.543 110.695 26.543C111.094 26.543 111.441 26.6133 111.738 26.7539C112.039 26.8906 112.293 27.0918 112.5 27.3574C112.711 27.6191 112.877 27.9355 112.998 28.3066C113.119 28.6777 113.203 29.0977 113.25 29.5664V30.1055C113.207 30.5703 113.123 30.9883 112.998 31.3594C112.877 31.7305 112.711 32.0469 112.5 32.3086C112.293 32.5703 112.039 32.7715 111.738 32.9121C111.438 33.0488 111.086 33.1172 110.684 33.1172C110.305 33.1172 109.961 33.0371 109.652 32.877C109.348 32.7168 109.086 32.4922 108.867 32.2031C108.648 31.9141 108.48 31.5742 108.363 31.1836C108.25 30.7891 108.193 30.3613 108.193 29.9004ZM109.277 29.7773V29.9004C109.277 30.2168 109.309 30.5137 109.371 30.791C109.438 31.0684 109.537 31.3125 109.67 31.5234C109.807 31.7344 109.98 31.9004 110.191 32.0215C110.402 32.1387 110.654 32.1973 110.947 32.1973C111.307 32.1973 111.604 32.1211 111.838 31.9688C112.072 31.8164 112.258 31.6152 112.395 31.3652C112.535 31.1152 112.645 30.8438 112.723 30.5508V29.1387C112.68 28.9238 112.613 28.7168 112.523 28.5176C112.438 28.3145 112.324 28.1348 112.184 27.9785C112.047 27.8184 111.877 27.6914 111.674 27.5977C111.471 27.5039 111.232 27.457 110.959 27.457C110.662 27.457 110.406 27.5195 110.191 27.6445C109.98 27.7656 109.807 27.9336 109.67 28.1484C109.537 28.3594 109.438 28.6055 109.371 28.8867C109.309 29.1641 109.277 29.4609 109.277 29.7773ZM114.902 29.9004V29.7656C114.902 29.3086 114.969 28.8848 115.102 28.4941C115.234 28.0996 115.426 27.7578 115.676 27.4688C115.926 27.1758 116.229 26.9492 116.584 26.7891C116.939 26.625 117.338 26.543 117.779 26.543C118.225 26.543 118.625 26.625 118.98 26.7891C119.34 26.9492 119.645 27.1758 119.895 27.4688C120.148 27.7578 120.342 28.0996 120.475 28.4941C120.607 28.8848 120.674 29.3086 120.674 29.7656V29.9004C120.674 30.3574 120.607 30.7812 120.475 31.1719C120.342 31.5625 120.148 31.9043 119.895 32.1973C119.645 32.4863 119.342 32.7129 118.986 32.877C118.635 33.0371 118.236 33.1172 117.791 33.1172C117.346 33.1172 116.945 33.0371 116.59 32.877C116.234 32.7129 115.93 32.4863 115.676 32.1973C115.426 31.9043 115.234 31.5625 115.102 31.1719C114.969 30.7812 114.902 30.3574 114.902 29.9004ZM115.986 29.7656V29.9004C115.986 30.2168 116.023 30.5156 116.098 30.7969C116.172 31.0742 116.283 31.3203 116.432 31.5352C116.584 31.75 116.773 31.9199 117 32.0449C117.227 32.166 117.49 32.2266 117.791 32.2266C118.088 32.2266 118.348 32.166 118.57 32.0449C118.797 31.9199 118.984 31.75 119.133 31.5352C119.281 31.3203 119.393 31.0742 119.467 30.7969C119.545 30.5156 119.584 30.2168 119.584 29.9004V29.7656C119.584 29.4531 119.545 29.1582 119.467 28.8809C119.393 28.5996 119.279 28.3516 119.127 28.1367C118.979 27.918 118.791 27.7461 118.564 27.6211C118.342 27.4961 118.08 27.4336 117.779 27.4336C117.482 27.4336 117.221 27.4961 116.994 27.6211C116.771 27.7461 116.584 27.918 116.432 28.1367C116.283 28.3516 116.172 28.5996 116.098 28.8809C116.023 29.1582 115.986 29.4531 115.986 29.7656Z" fill="#AAAAAA"/>
</svg>
