<svg width="202" height="40" viewBox="0 0 202 40" fill="none" xmlns="http://www.w3.org/2000/svg">
<path d="M4.57031 12.5098V6.46875H5.69531V12.5098C5.69531 13.0723 5.58008 13.5469 5.34961 13.9336C5.11914 14.3203 4.80078 14.6152 4.39453 14.8184C3.99219 15.0176 3.5293 15.1172 3.00586 15.1172C2.48242 15.1172 2.01758 15.0273 1.61133 14.8477C1.20508 14.668 0.886719 14.3945 0.65625 14.0273C0.425781 13.6602 0.310547 13.1973 0.310547 12.6387H1.44141C1.44141 12.998 1.50781 13.293 1.64062 13.5234C1.77344 13.7539 1.95703 13.9238 2.19141 14.0332C2.42969 14.1426 2.70117 14.1973 3.00586 14.1973C3.30273 14.1973 3.56836 14.1348 3.80273 14.0098C4.04102 13.8809 4.22852 13.6914 4.36523 13.4414C4.50195 13.1875 4.57031 12.877 4.57031 12.5098ZM11.1855 13.916V10.6523C11.1855 10.4023 11.1348 10.1855 11.0332 10.002C10.9355 9.81445 10.7871 9.66992 10.5879 9.56836C10.3887 9.4668 10.1426 9.41602 9.84961 9.41602C9.57617 9.41602 9.33594 9.46289 9.12891 9.55664C8.92578 9.65039 8.76562 9.77344 8.64844 9.92578C8.53516 10.0781 8.47852 10.2422 8.47852 10.418H7.39453C7.39453 10.1914 7.45312 9.9668 7.57031 9.74414C7.6875 9.52148 7.85547 9.32031 8.07422 9.14062C8.29688 8.95703 8.5625 8.8125 8.87109 8.70703C9.18359 8.59766 9.53125 8.54297 9.91406 8.54297C10.375 8.54297 10.7812 8.62109 11.1328 8.77734C11.4883 8.93359 11.7656 9.16992 11.9648 9.48633C12.168 9.79883 12.2695 10.1914 12.2695 10.6641V13.6172C12.2695 13.8281 12.2871 14.0527 12.3223 14.291C12.3613 14.5293 12.418 14.7344 12.4922 14.9062V15H11.3613C11.3066 14.875 11.2637 14.709 11.2324 14.502C11.2012 14.291 11.1855 14.0957 11.1855 13.916ZM11.373 11.1562L11.3848 11.918H10.2891C9.98047 11.918 9.70508 11.9434 9.46289 11.9941C9.2207 12.041 9.01758 12.1133 8.85352 12.2109C8.68945 12.3086 8.56445 12.4316 8.47852 12.5801C8.39258 12.7246 8.34961 12.8945 8.34961 13.0898C8.34961 13.2891 8.39453 13.4707 8.48438 13.6348C8.57422 13.7988 8.70898 13.9297 8.88867 14.0273C9.07227 14.1211 9.29688 14.168 9.5625 14.168C9.89453 14.168 10.1875 14.0977 10.4414 13.957C10.6953 13.8164 10.8965 13.6445 11.0449 13.4414C11.1973 13.2383 11.2793 13.041 11.291 12.8496L11.7539 13.3711C11.7266 13.5352 11.6523 13.7168 11.5312 13.916C11.4102 14.1152 11.248 14.3066 11.0449 14.4902C10.8457 14.6699 10.6074 14.8203 10.3301 14.9414C10.0566 15.0586 9.74805 15.1172 9.4043 15.1172C8.97461 15.1172 8.59766 15.0332 8.27344 14.8652C7.95312 14.6973 7.70312 14.4727 7.52344 14.1914C7.34766 13.9062 7.25977 13.5879 7.25977 13.2363C7.25977 12.8965 7.32617 12.5977 7.45898 12.3398C7.5918 12.0781 7.7832 11.8613 8.0332 11.6895C8.2832 11.5137 8.58398 11.3809 8.93555 11.291C9.28711 11.2012 9.67969 11.1562 10.1133 11.1562H11.373ZM15.0527 9.91992V15H13.9629V8.66016H14.9941L15.0527 9.91992ZM14.8301 11.5898L14.3262 11.5723C14.3301 11.1387 14.3867 10.7383 14.4961 10.3711C14.6055 10 14.7676 9.67773 14.9824 9.4043C15.1973 9.13086 15.4648 8.91992 15.7852 8.77148C16.1055 8.61914 16.4766 8.54297 16.8984 8.54297C17.1953 8.54297 17.4688 8.58594 17.7188 8.67188C17.9688 8.75391 18.1855 8.88477 18.3691 9.06445C18.5527 9.24414 18.6953 9.47461 18.7969 9.75586C18.8984 10.0371 18.9492 10.377 18.9492 10.7754V15H17.8652V10.8281C17.8652 10.4961 17.8086 10.2305 17.6953 10.0312C17.5859 9.83203 17.4297 9.6875 17.2266 9.59766C17.0234 9.50391 16.7852 9.45703 16.5117 9.45703C16.1914 9.45703 15.9238 9.51367 15.709 9.62695C15.4941 9.74023 15.3223 9.89648 15.1934 10.0957C15.0645 10.2949 14.9707 10.5234 14.9121 10.7812C14.8574 11.0352 14.8301 11.3047 14.8301 11.5898ZM18.9375 10.9922L18.2109 11.2148C18.2148 10.8672 18.2715 10.5332 18.3809 10.2129C18.4941 9.89258 18.6562 9.60742 18.8672 9.35742C19.082 9.10742 19.3457 8.91016 19.6582 8.76562C19.9707 8.61719 20.3281 8.54297 20.7305 8.54297C21.0703 8.54297 21.3711 8.58789 21.6328 8.67773C21.8984 8.76758 22.1211 8.90625 22.3008 9.09375C22.4844 9.27734 22.623 9.51367 22.7168 9.80273C22.8105 10.0918 22.8574 10.4355 22.8574 10.834V15H21.7676V10.8223C21.7676 10.4668 21.7109 10.1914 21.5977 9.99609C21.4883 9.79688 21.332 9.6582 21.1289 9.58008C20.9297 9.49805 20.6914 9.45703 20.4141 9.45703C20.1758 9.45703 19.9648 9.49805 19.7812 9.58008C19.5977 9.66211 19.4434 9.77539 19.3184 9.91992C19.1934 10.0605 19.0977 10.2227 19.0312 10.4062C18.9688 10.5898 18.9375 10.7852 18.9375 10.9922ZM27.1289 15.1172C26.6875 15.1172 26.2871 15.043 25.9277 14.8945C25.5723 14.7422 25.2656 14.5293 25.0078 14.2559C24.7539 13.9824 24.5586 13.6582 24.4219 13.2832C24.2852 12.9082 24.2168 12.498 24.2168 12.0527V11.8066C24.2168 11.291 24.293 10.832 24.4453 10.4297C24.5977 10.0234 24.8047 9.67969 25.0664 9.39844C25.3281 9.11719 25.625 8.9043 25.957 8.75977C26.2891 8.61523 26.6328 8.54297 26.9883 8.54297C27.4414 8.54297 27.832 8.62109 28.1602 8.77734C28.4922 8.93359 28.7637 9.15234 28.9746 9.43359C29.1855 9.71094 29.3418 10.0391 29.4434 10.418C29.5449 10.793 29.5957 11.2031 29.5957 11.6484V12.1348H24.8613V11.25H28.5117V11.168C28.4961 10.8867 28.4375 10.6133 28.3359 10.3477C28.2383 10.082 28.082 9.86328 27.8672 9.69141C27.6523 9.51953 27.3594 9.43359 26.9883 9.43359C26.7422 9.43359 26.5156 9.48633 26.3086 9.5918C26.1016 9.69336 25.9238 9.8457 25.7754 10.0488C25.627 10.252 25.5117 10.5 25.4297 10.793C25.3477 11.0859 25.3066 11.4238 25.3066 11.8066V12.0527C25.3066 12.3535 25.3477 12.6367 25.4297 12.9023C25.5156 13.1641 25.6387 13.3945 25.7988 13.5938C25.9629 13.793 26.1602 13.9492 26.3906 14.0625C26.625 14.1758 26.8906 14.2324 27.1875 14.2324C27.5703 14.2324 27.8945 14.1543 28.1602 13.998C28.4258 13.8418 28.6582 13.6328 28.8574 13.3711L29.5137 13.8926C29.377 14.0996 29.2031 14.2969 28.9922 14.4844C28.7812 14.6719 28.5215 14.8242 28.2129 14.9414C27.9082 15.0586 27.5469 15.1172 27.1289 15.1172ZM34.5527 13.3184C34.5527 13.1621 34.5176 13.0176 34.4473 12.8848C34.3809 12.748 34.2422 12.625 34.0312 12.5156C33.8242 12.4023 33.5117 12.3047 33.0938 12.2227C32.7422 12.1484 32.4238 12.0605 32.1387 11.959C31.8574 11.8574 31.6172 11.7344 31.418 11.5898C31.2227 11.4453 31.0723 11.2754 30.9668 11.0801C30.8613 10.8848 30.8086 10.6562 30.8086 10.3945C30.8086 10.1445 30.8633 9.9082 30.9727 9.68555C31.0859 9.46289 31.2441 9.26562 31.4473 9.09375C31.6543 8.92188 31.9023 8.78711 32.1914 8.68945C32.4805 8.5918 32.8027 8.54297 33.1582 8.54297C33.666 8.54297 34.0996 8.63281 34.459 8.8125C34.8184 8.99219 35.0938 9.23242 35.2852 9.5332C35.4766 9.83008 35.5723 10.1602 35.5723 10.5234H34.4883C34.4883 10.3477 34.4355 10.1777 34.3301 10.0137C34.2285 9.8457 34.0781 9.70703 33.8789 9.59766C33.6836 9.48828 33.4434 9.43359 33.1582 9.43359C32.8574 9.43359 32.6133 9.48047 32.4258 9.57422C32.2422 9.66406 32.1074 9.7793 32.0215 9.91992C31.9395 10.0605 31.8984 10.209 31.8984 10.3652C31.8984 10.4824 31.918 10.5879 31.957 10.6816C32 10.7715 32.0742 10.8555 32.1797 10.9336C32.2852 11.0078 32.4336 11.0781 32.625 11.1445C32.8164 11.2109 33.0605 11.2773 33.3574 11.3438C33.877 11.4609 34.3047 11.6016 34.6406 11.7656C34.9766 11.9297 35.2266 12.1309 35.3906 12.3691C35.5547 12.6074 35.6367 12.8965 35.6367 13.2363C35.6367 13.5137 35.5781 13.7676 35.4609 13.998C35.3477 14.2285 35.1816 14.4277 34.9629 14.5957C34.748 14.7598 34.4902 14.8887 34.1895 14.9824C33.8926 15.0723 33.5586 15.1172 33.1875 15.1172C32.6289 15.1172 32.1562 15.0176 31.7695 14.8184C31.3828 14.6191 31.0898 14.3613 30.8906 14.0449C30.6914 13.7285 30.5918 13.3945 30.5918 13.043H31.6816C31.6973 13.3398 31.7832 13.5762 31.9395 13.752C32.0957 13.9238 32.2871 14.0469 32.5137 14.1211C32.7402 14.1914 32.9648 14.2266 33.1875 14.2266C33.4844 14.2266 33.7324 14.1875 33.9316 14.1094C34.1348 14.0312 34.2891 13.9238 34.3945 13.7871C34.5 13.6504 34.5527 13.4941 34.5527 13.3184ZM46.5059 10.752V13.875C46.4004 14.0312 46.2324 14.207 46.002 14.4023C45.7715 14.5938 45.4531 14.7617 45.0469 14.9062C44.6445 15.0469 44.125 15.1172 43.4883 15.1172C42.9688 15.1172 42.4902 15.0273 42.0527 14.8477C41.6191 14.6641 41.2422 14.3984 40.9219 14.0508C40.6055 13.6992 40.3594 13.2734 40.1836 12.7734C40.0117 12.2695 39.9258 11.6992 39.9258 11.0625V10.4004C39.9258 9.76367 40 9.19531 40.1484 8.69531C40.3008 8.19531 40.5234 7.77148 40.8164 7.42383C41.1094 7.07227 41.4688 6.80664 41.8945 6.62695C42.3203 6.44336 42.8086 6.35156 43.3594 6.35156C44.0117 6.35156 44.5566 6.46484 44.9941 6.69141C45.4355 6.91406 45.7793 7.22266 46.0254 7.61719C46.2754 8.01172 46.4355 8.46094 46.5059 8.96484H45.375C45.3242 8.65625 45.2227 8.375 45.0703 8.12109C44.9219 7.86719 44.709 7.66406 44.4316 7.51172C44.1543 7.35547 43.7969 7.27734 43.3594 7.27734C42.9648 7.27734 42.623 7.34961 42.334 7.49414C42.0449 7.63867 41.8066 7.8457 41.6191 8.11523C41.4316 8.38477 41.291 8.71094 41.1973 9.09375C41.1074 9.47656 41.0625 9.9082 41.0625 10.3887V11.0625C41.0625 11.5547 41.1191 11.9941 41.2324 12.3809C41.3496 12.7676 41.5156 13.0977 41.7305 13.3711C41.9453 13.6406 42.2012 13.8457 42.498 13.9863C42.7988 14.127 43.1309 14.1973 43.4941 14.1973C43.8965 14.1973 44.2227 14.1641 44.4727 14.0977C44.7227 14.0273 44.918 13.9453 45.0586 13.8516C45.1992 13.7539 45.3066 13.6621 45.3809 13.5762V11.666H43.4062V10.752H46.5059ZM47.9297 11.9004V11.7656C47.9297 11.3086 47.9961 10.8848 48.1289 10.4941C48.2617 10.0996 48.4531 9.75781 48.7031 9.46875C48.9531 9.17578 49.2559 8.94922 49.6113 8.78906C49.9668 8.625 50.3652 8.54297 50.8066 8.54297C51.252 8.54297 51.6523 8.625 52.0078 8.78906C52.3672 8.94922 52.6719 9.17578 52.9219 9.46875C53.1758 9.75781 53.3691 10.0996 53.502 10.4941C53.6348 10.8848 53.7012 11.3086 53.7012 11.7656V11.9004C53.7012 12.3574 53.6348 12.7812 53.502 13.1719C53.3691 13.5625 53.1758 13.9043 52.9219 14.1973C52.6719 14.4863 52.3691 14.7129 52.0137 14.877C51.6621 15.0371 51.2637 15.1172 50.8184 15.1172C50.373 15.1172 49.9727 15.0371 49.6172 14.877C49.2617 14.7129 48.957 14.4863 48.7031 14.1973C48.4531 13.9043 48.2617 13.5625 48.1289 13.1719C47.9961 12.7812 47.9297 12.3574 47.9297 11.9004ZM49.0137 11.7656V11.9004C49.0137 12.2168 49.0508 12.5156 49.125 12.7969C49.1992 13.0742 49.3105 13.3203 49.459 13.5352C49.6113 13.75 49.8008 13.9199 50.0273 14.0449C50.2539 14.166 50.5176 14.2266 50.8184 14.2266C51.1152 14.2266 51.375 14.166 51.5977 14.0449C51.8242 13.9199 52.0117 13.75 52.1602 13.5352C52.3086 13.3203 52.4199 13.0742 52.4941 12.7969C52.5723 12.5156 52.6113 12.2168 52.6113 11.9004V11.7656C52.6113 11.4531 52.5723 11.1582 52.4941 10.8809C52.4199 10.5996 52.3066 10.3516 52.1543 10.1367C52.0059 9.91797 51.8184 9.74609 51.5918 9.62109C51.3691 9.49609 51.1074 9.43359 50.8066 9.43359C50.5098 9.43359 50.248 9.49609 50.0215 9.62109C49.7988 9.74609 49.6113 9.91797 49.459 10.1367C49.3105 10.3516 49.1992 10.5996 49.125 10.8809C49.0508 11.1582 49.0137 11.4531 49.0137 11.7656ZM58.9395 13.5352V8.66016H60.0293V15H58.9922L58.9395 13.5352ZM59.1445 12.1992L59.5957 12.1875C59.5957 12.6094 59.5508 13 59.4609 13.3594C59.375 13.7148 59.2344 14.0234 59.0391 14.2852C58.8438 14.5469 58.5879 14.752 58.2715 14.9004C57.9551 15.0449 57.5703 15.1172 57.1172 15.1172C56.8086 15.1172 56.5254 15.0723 56.2676 14.9824C56.0137 14.8926 55.7949 14.7539 55.6113 14.5664C55.4277 14.3789 55.2852 14.1348 55.1836 13.834C55.0859 13.5332 55.0371 13.1719 55.0371 12.75V8.66016H56.1211V12.7617C56.1211 13.0469 56.1523 13.2832 56.2148 13.4707C56.2812 13.6543 56.3691 13.8008 56.4785 13.9102C56.5918 14.0156 56.7168 14.0898 56.8535 14.1328C56.9941 14.1758 57.1387 14.1973 57.2871 14.1973C57.748 14.1973 58.1133 14.1094 58.3828 13.9336C58.6523 13.7539 58.8457 13.5137 58.9629 13.2129C59.084 12.9082 59.1445 12.5703 59.1445 12.1992ZM65.373 13.3184C65.373 13.1621 65.3379 13.0176 65.2676 12.8848C65.2012 12.748 65.0625 12.625 64.8516 12.5156C64.6445 12.4023 64.332 12.3047 63.9141 12.2227C63.5625 12.1484 63.2441 12.0605 62.959 11.959C62.6777 11.8574 62.4375 11.7344 62.2383 11.5898C62.043 11.4453 61.8926 11.2754 61.7871 11.0801C61.6816 10.8848 61.6289 10.6562 61.6289 10.3945C61.6289 10.1445 61.6836 9.9082 61.793 9.68555C61.9062 9.46289 62.0645 9.26562 62.2676 9.09375C62.4746 8.92188 62.7227 8.78711 63.0117 8.68945C63.3008 8.5918 63.623 8.54297 63.9785 8.54297C64.4863 8.54297 64.9199 8.63281 65.2793 8.8125C65.6387 8.99219 65.9141 9.23242 66.1055 9.5332C66.2969 9.83008 66.3926 10.1602 66.3926 10.5234H65.3086C65.3086 10.3477 65.2559 10.1777 65.1504 10.0137C65.0488 9.8457 64.8984 9.70703 64.6992 9.59766C64.5039 9.48828 64.2637 9.43359 63.9785 9.43359C63.6777 9.43359 63.4336 9.48047 63.2461 9.57422C63.0625 9.66406 62.9277 9.7793 62.8418 9.91992C62.7598 10.0605 62.7188 10.209 62.7188 10.3652C62.7188 10.4824 62.7383 10.5879 62.7773 10.6816C62.8203 10.7715 62.8945 10.8555 63 10.9336C63.1055 11.0078 63.2539 11.0781 63.4453 11.1445C63.6367 11.2109 63.8809 11.2773 64.1777 11.3438C64.6973 11.4609 65.125 11.6016 65.4609 11.7656C65.7969 11.9297 66.0469 12.1309 66.2109 12.3691C66.375 12.6074 66.457 12.8965 66.457 13.2363C66.457 13.5137 66.3984 13.7676 66.2812 13.998C66.168 14.2285 66.002 14.4277 65.7832 14.5957C65.5684 14.7598 65.3105 14.8887 65.0098 14.9824C64.7129 15.0723 64.3789 15.1172 64.0078 15.1172C63.4492 15.1172 62.9766 15.0176 62.5898 14.8184C62.2031 14.6191 61.9102 14.3613 61.7109 14.0449C61.5117 13.7285 61.4121 13.3945 61.4121 13.043H62.502C62.5176 13.3398 62.6035 13.5762 62.7598 13.752C62.916 13.9238 63.1074 14.0469 63.334 14.1211C63.5605 14.1914 63.7852 14.2266 64.0078 14.2266C64.3047 14.2266 64.5527 14.1875 64.752 14.1094C64.9551 14.0312 65.1094 13.9238 65.2148 13.7871C65.3203 13.6504 65.373 13.4941 65.373 13.3184ZM70.5117 15.1172C70.0703 15.1172 69.6699 15.043 69.3105 14.8945C68.9551 14.7422 68.6484 14.5293 68.3906 14.2559C68.1367 13.9824 67.9414 13.6582 67.8047 13.2832C67.668 12.9082 67.5996 12.498 67.5996 12.0527V11.8066C67.5996 11.291 67.6758 10.832 67.8281 10.4297C67.9805 10.0234 68.1875 9.67969 68.4492 9.39844C68.7109 9.11719 69.0078 8.9043 69.3398 8.75977C69.6719 8.61523 70.0156 8.54297 70.3711 8.54297C70.8242 8.54297 71.2148 8.62109 71.543 8.77734C71.875 8.93359 72.1465 9.15234 72.3574 9.43359C72.5684 9.71094 72.7246 10.0391 72.8262 10.418C72.9277 10.793 72.9785 11.2031 72.9785 11.6484V12.1348H68.2441V11.25H71.8945V11.168C71.8789 10.8867 71.8203 10.6133 71.7188 10.3477C71.6211 10.082 71.4648 9.86328 71.25 9.69141C71.0352 9.51953 70.7422 9.43359 70.3711 9.43359C70.125 9.43359 69.8984 9.48633 69.6914 9.5918C69.4844 9.69336 69.3066 9.8457 69.1582 10.0488C69.0098 10.252 68.8945 10.5 68.8125 10.793C68.7305 11.0859 68.6895 11.4238 68.6895 11.8066V12.0527C68.6895 12.3535 68.7305 12.6367 68.8125 12.9023C68.8984 13.1641 69.0215 13.3945 69.1816 13.5938C69.3457 13.793 69.543 13.9492 69.7734 14.0625C70.0078 14.1758 70.2734 14.2324 70.5703 14.2324C70.9531 14.2324 71.2773 14.1543 71.543 13.998C71.8086 13.8418 72.041 13.6328 72.2402 13.3711L72.8965 13.8926C72.7598 14.0996 72.5859 14.2969 72.375 14.4844C72.1641 14.6719 71.9043 14.8242 71.5957 14.9414C71.291 15.0586 70.9297 15.1172 70.5117 15.1172Z" fill="#AAAAAA"/>
<path d="M4.27148 24.4219V33H3.1875V25.7754L1.00195 26.5723V25.5938L4.10156 24.4219H4.27148ZM8.09766 24.4688H9.19336L11.9883 31.4238L14.7773 24.4688H15.8789L12.4102 33H11.5547L8.09766 24.4688ZM7.74023 24.4688H8.70703L8.86523 29.6719V33H7.74023V24.4688ZM15.2637 24.4688H16.2305V33H15.1055V29.6719L15.2637 24.4688ZM22.957 32.0215L24.6914 26.6602H25.7988L23.5195 33H22.793L22.957 32.0215ZM21.5098 26.6602L23.2969 32.0508L23.4199 33H22.6934L20.3965 26.6602H21.5098ZM28.0195 26.6602V33H26.9297V26.6602H28.0195ZM26.8477 24.9785C26.8477 24.8027 26.9004 24.6543 27.0059 24.5332C27.1152 24.4121 27.2754 24.3516 27.4863 24.3516C27.6934 24.3516 27.8516 24.4121 27.9609 24.5332C28.0742 24.6543 28.1309 24.8027 28.1309 24.9785C28.1309 25.1465 28.0742 25.291 27.9609 25.4121C27.8516 25.5293 27.6934 25.5879 27.4863 25.5879C27.2754 25.5879 27.1152 25.5293 27.0059 25.4121C26.9004 25.291 26.8477 25.1465 26.8477 24.9785ZM32.3906 33.1172C31.9492 33.1172 31.5488 33.043 31.1895 32.8945C30.834 32.7422 30.5273 32.5293 30.2695 32.2559C30.0156 31.9824 29.8203 31.6582 29.6836 31.2832C29.5469 30.9082 29.4785 30.498 29.4785 30.0527V29.8066C29.4785 29.291 29.5547 28.832 29.707 28.4297C29.8594 28.0234 30.0664 27.6797 30.3281 27.3984C30.5898 27.1172 30.8867 26.9043 31.2188 26.7598C31.5508 26.6152 31.8945 26.543 32.25 26.543C32.7031 26.543 33.0938 26.6211 33.4219 26.7773C33.7539 26.9336 34.0254 27.1523 34.2363 27.4336C34.4473 27.7109 34.6035 28.0391 34.7051 28.418C34.8066 28.793 34.8574 29.2031 34.8574 29.6484V30.1348H30.123V29.25H33.7734V29.168C33.7578 28.8867 33.6992 28.6133 33.5977 28.3477C33.5 28.082 33.3438 27.8633 33.1289 27.6914C32.9141 27.5195 32.6211 27.4336 32.25 27.4336C32.0039 27.4336 31.7773 27.4863 31.5703 27.5918C31.3633 27.6934 31.1855 27.8457 31.0371 28.0488C30.8887 28.252 30.7734 28.5 30.6914 28.793C30.6094 29.0859 30.5684 29.4238 30.5684 29.8066V30.0527C30.5684 30.3535 30.6094 30.6367 30.6914 30.9023C30.7773 31.1641 30.9004 31.3945 31.0605 31.5938C31.2246 31.793 31.4219 31.9492 31.6523 32.0625C31.8867 32.1758 32.1523 32.2324 32.4492 32.2324C32.832 32.2324 33.1562 32.1543 33.4219 31.998C33.6875 31.8418 33.9199 31.6328 34.1191 31.3711L34.7754 31.8926C34.6387 32.0996 34.4648 32.2969 34.2539 32.4844C34.043 32.6719 33.7832 32.8242 33.4746 32.9414C33.1699 33.0586 32.8086 33.1172 32.3906 33.1172ZM37.7285 31.875L39.3574 26.6602H40.0723L39.9316 27.6973L38.2734 33H37.5762L37.7285 31.875ZM36.6328 26.6602L38.0215 31.9336L38.1211 33H37.3887L35.5488 26.6602H36.6328ZM41.6309 31.8926L42.9551 26.6602H44.0332L42.1934 33H41.4668L41.6309 31.8926ZM40.2305 26.6602L41.8242 31.7871L42.0059 33H41.3145L39.6094 27.6855L39.4688 26.6602H40.2305ZM48.8379 31.3184C48.8379 31.1621 48.8027 31.0176 48.7324 30.8848C48.666 30.748 48.5273 30.625 48.3164 30.5156C48.1094 30.4023 47.7969 30.3047 47.3789 30.2227C47.0273 30.1484 46.709 30.0605 46.4238 29.959C46.1426 29.8574 45.9023 29.7344 45.7031 29.5898C45.5078 29.4453 45.3574 29.2754 45.252 29.0801C45.1465 28.8848 45.0938 28.6562 45.0938 28.3945C45.0938 28.1445 45.1484 27.9082 45.2578 27.6855C45.3711 27.4629 45.5293 27.2656 45.7324 27.0938C45.9395 26.9219 46.1875 26.7871 46.4766 26.6895C46.7656 26.5918 47.0879 26.543 47.4434 26.543C47.9512 26.543 48.3848 26.6328 48.7441 26.8125C49.1035 26.9922 49.3789 27.2324 49.5703 27.5332C49.7617 27.8301 49.8574 28.1602 49.8574 28.5234H48.7734C48.7734 28.3477 48.7207 28.1777 48.6152 28.0137C48.5137 27.8457 48.3633 27.707 48.1641 27.5977C47.9688 27.4883 47.7285 27.4336 47.4434 27.4336C47.1426 27.4336 46.8984 27.4805 46.7109 27.5742C46.5273 27.6641 46.3926 27.7793 46.3066 27.9199C46.2246 28.0605 46.1836 28.209 46.1836 28.3652C46.1836 28.4824 46.2031 28.5879 46.2422 28.6816C46.2852 28.7715 46.3594 28.8555 46.4648 28.9336C46.5703 29.0078 46.7188 29.0781 46.9102 29.1445C47.1016 29.2109 47.3457 29.2773 47.6426 29.3438C48.1621 29.4609 48.5898 29.6016 48.9258 29.7656C49.2617 29.9297 49.5117 30.1309 49.6758 30.3691C49.8398 30.6074 49.9219 30.8965 49.9219 31.2363C49.9219 31.5137 49.8633 31.7676 49.7461 31.998C49.6328 32.2285 49.4668 32.4277 49.248 32.5957C49.0332 32.7598 48.7754 32.8887 48.4746 32.9824C48.1777 33.0723 47.8438 33.1172 47.4727 33.1172C46.9141 33.1172 46.4414 33.0176 46.0547 32.8184C45.668 32.6191 45.375 32.3613 45.1758 32.0449C44.9766 31.7285 44.877 31.3945 44.877 31.043H45.9668C45.9824 31.3398 46.0684 31.5762 46.2246 31.752C46.3809 31.9238 46.5723 32.0469 46.7988 32.1211C47.0254 32.1914 47.25 32.2266 47.4727 32.2266C47.7695 32.2266 48.0176 32.1875 48.2168 32.1094C48.4199 32.0312 48.5742 31.9238 48.6797 31.7871C48.7852 31.6504 48.8379 31.4941 48.8379 31.3184ZM54.3398 32.4258C54.3398 32.2422 54.3965 32.0879 54.5098 31.9629C54.627 31.834 54.7949 31.7695 55.0137 31.7695C55.2324 31.7695 55.3984 31.834 55.5117 31.9629C55.6289 32.0879 55.6875 32.2422 55.6875 32.4258C55.6875 32.6055 55.6289 32.7578 55.5117 32.8828C55.3984 33.0078 55.2324 33.0703 55.0137 33.0703C54.7949 33.0703 54.627 33.0078 54.5098 32.8828C54.3965 32.7578 54.3398 32.6055 54.3398 32.4258ZM61.9277 28.2012H62.7012C63.0801 28.2012 63.3926 28.1387 63.6387 28.0137C63.8887 27.8848 64.0742 27.7109 64.1953 27.4922C64.3203 27.2695 64.3828 27.0195 64.3828 26.7422C64.3828 26.4141 64.3281 26.1387 64.2188 25.916C64.1094 25.6934 63.9453 25.5254 63.7266 25.4121C63.5078 25.2988 63.2305 25.2422 62.8945 25.2422C62.5898 25.2422 62.3203 25.3027 62.0859 25.4238C61.8555 25.541 61.6738 25.709 61.541 25.9277C61.4121 26.1465 61.3477 26.4043 61.3477 26.7012H60.2637C60.2637 26.2676 60.373 25.873 60.5918 25.5176C60.8105 25.1621 61.1172 24.8789 61.5117 24.668C61.9102 24.457 62.3711 24.3516 62.8945 24.3516C63.4102 24.3516 63.8613 24.4434 64.248 24.627C64.6348 24.8066 64.9355 25.0762 65.1504 25.4355C65.3652 25.791 65.4727 26.2344 65.4727 26.7656C65.4727 26.9805 65.4219 27.2109 65.3203 27.457C65.2227 27.6992 65.0684 27.9258 64.8574 28.1367C64.6504 28.3477 64.3809 28.5215 64.0488 28.6582C63.7168 28.791 63.3184 28.8574 62.8535 28.8574H61.9277V28.2012ZM61.9277 29.0918V28.4414H62.8535C63.3965 28.4414 63.8457 28.5059 64.2012 28.6348C64.5566 28.7637 64.8359 28.9355 65.0391 29.1504C65.2461 29.3652 65.3906 29.6016 65.4727 29.8594C65.5586 30.1133 65.6016 30.3672 65.6016 30.6211C65.6016 31.0195 65.5332 31.373 65.3965 31.6816C65.2637 31.9902 65.0742 32.252 64.8281 32.4668C64.5859 32.6816 64.3008 32.8438 63.9727 32.9531C63.6445 33.0625 63.2871 33.1172 62.9004 33.1172C62.5293 33.1172 62.1797 33.0645 61.8516 32.959C61.5273 32.8535 61.2402 32.7012 60.9902 32.502C60.7402 32.2988 60.5449 32.0508 60.4043 31.7578C60.2637 31.4609 60.1934 31.123 60.1934 30.7441H61.2773C61.2773 31.041 61.3418 31.3008 61.4707 31.5234C61.6035 31.7461 61.791 31.9199 62.0332 32.0449C62.2793 32.166 62.5684 32.2266 62.9004 32.2266C63.2324 32.2266 63.5176 32.1699 63.7559 32.0566C63.998 31.9395 64.1836 31.7637 64.3125 31.5293C64.4453 31.2949 64.5117 31 64.5117 30.6445C64.5117 30.2891 64.4375 29.998 64.2891 29.7715C64.1406 29.541 63.9297 29.3711 63.6562 29.2617C63.3867 29.1484 63.0684 29.0918 62.7012 29.0918H61.9277ZM71.9707 32.3438L73.7344 26.6602H74.8945L72.3516 33.9785C72.293 34.1348 72.2148 34.3027 72.1172 34.4824C72.0234 34.666 71.9023 34.8398 71.7539 35.0039C71.6055 35.168 71.4258 35.3008 71.2148 35.4023C71.0078 35.5078 70.7598 35.5605 70.4707 35.5605C70.3848 35.5605 70.2754 35.5488 70.1426 35.5254C70.0098 35.502 69.916 35.4824 69.8613 35.4668L69.8555 34.5879C69.8867 34.5918 69.9355 34.5957 70.002 34.5996C70.0723 34.6074 70.1211 34.6113 70.1484 34.6113C70.3945 34.6113 70.6035 34.5781 70.7754 34.5117C70.9473 34.4492 71.0918 34.3418 71.209 34.1895C71.3301 34.041 71.4336 33.8359 71.5195 33.5742L71.9707 32.3438ZM70.6758 26.6602L72.3223 31.582L72.6035 32.7246L71.8242 33.123L69.4922 26.6602H70.6758ZM78.4219 33.1172C77.9805 33.1172 77.5801 33.043 77.2207 32.8945C76.8652 32.7422 76.5586 32.5293 76.3008 32.2559C76.0469 31.9824 75.8516 31.6582 75.7148 31.2832C75.5781 30.9082 75.5098 30.498 75.5098 30.0527V29.8066C75.5098 29.291 75.5859 28.832 75.7383 28.4297C75.8906 28.0234 76.0977 27.6797 76.3594 27.3984C76.6211 27.1172 76.918 26.9043 77.25 26.7598C77.582 26.6152 77.9258 26.543 78.2812 26.543C78.7344 26.543 79.125 26.6211 79.4531 26.7773C79.7852 26.9336 80.0566 27.1523 80.2676 27.4336C80.4785 27.7109 80.6348 28.0391 80.7363 28.418C80.8379 28.793 80.8887 29.2031 80.8887 29.6484V30.1348H76.1543V29.25H79.8047V29.168C79.7891 28.8867 79.7305 28.6133 79.6289 28.3477C79.5312 28.082 79.375 27.8633 79.1602 27.6914C78.9453 27.5195 78.6523 27.4336 78.2812 27.4336C78.0352 27.4336 77.8086 27.4863 77.6016 27.5918C77.3945 27.6934 77.2168 27.8457 77.0684 28.0488C76.9199 28.252 76.8047 28.5 76.7227 28.793C76.6406 29.0859 76.5996 29.4238 76.5996 29.8066V30.0527C76.5996 30.3535 76.6406 30.6367 76.7227 30.9023C76.8086 31.1641 76.9316 31.3945 77.0918 31.5938C77.2559 31.793 77.4531 31.9492 77.6836 32.0625C77.918 32.1758 78.1836 32.2324 78.4805 32.2324C78.8633 32.2324 79.1875 32.1543 79.4531 31.998C79.7188 31.8418 79.9512 31.6328 80.1504 31.3711L80.8066 31.8926C80.6699 32.0996 80.4961 32.2969 80.2852 32.4844C80.0742 32.6719 79.8145 32.8242 79.5059 32.9414C79.2012 33.0586 78.8398 33.1172 78.4219 33.1172ZM85.8926 31.916V28.6523C85.8926 28.4023 85.8418 28.1855 85.7402 28.002C85.6426 27.8145 85.4941 27.6699 85.2949 27.5684C85.0957 27.4668 84.8496 27.416 84.5566 27.416C84.2832 27.416 84.043 27.4629 83.8359 27.5566C83.6328 27.6504 83.4727 27.7734 83.3555 27.9258C83.2422 28.0781 83.1855 28.2422 83.1855 28.418H82.1016C82.1016 28.1914 82.1602 27.9668 82.2773 27.7441C82.3945 27.5215 82.5625 27.3203 82.7812 27.1406C83.0039 26.957 83.2695 26.8125 83.5781 26.707C83.8906 26.5977 84.2383 26.543 84.6211 26.543C85.082 26.543 85.4883 26.6211 85.8398 26.7773C86.1953 26.9336 86.4727 27.1699 86.6719 27.4863C86.875 27.7988 86.9766 28.1914 86.9766 28.6641V31.6172C86.9766 31.8281 86.9941 32.0527 87.0293 32.291C87.0684 32.5293 87.125 32.7344 87.1992 32.9062V33H86.0684C86.0137 32.875 85.9707 32.709 85.9395 32.502C85.9082 32.291 85.8926 32.0957 85.8926 31.916ZM86.0801 29.1562L86.0918 29.918H84.9961C84.6875 29.918 84.4121 29.9434 84.1699 29.9941C83.9277 30.041 83.7246 30.1133 83.5605 30.2109C83.3965 30.3086 83.2715 30.4316 83.1855 30.5801C83.0996 30.7246 83.0566 30.8945 83.0566 31.0898C83.0566 31.2891 83.1016 31.4707 83.1914 31.6348C83.2812 31.7988 83.416 31.9297 83.5957 32.0273C83.7793 32.1211 84.0039 32.168 84.2695 32.168C84.6016 32.168 84.8945 32.0977 85.1484 31.957C85.4023 31.8164 85.6035 31.6445 85.752 31.4414C85.9043 31.2383 85.9863 31.041 85.998 30.8496L86.4609 31.3711C86.4336 31.5352 86.3594 31.7168 86.2383 31.916C86.1172 32.1152 85.9551 32.3066 85.752 32.4902C85.5527 32.6699 85.3145 32.8203 85.0371 32.9414C84.7637 33.0586 84.4551 33.1172 84.1113 33.1172C83.6816 33.1172 83.3047 33.0332 82.9805 32.8652C82.6602 32.6973 82.4102 32.4727 82.2305 32.1914C82.0547 31.9062 81.9668 31.5879 81.9668 31.2363C81.9668 30.8965 82.0332 30.5977 82.166 30.3398C82.2988 30.0781 82.4902 29.8613 82.7402 29.6895C82.9902 29.5137 83.291 29.3809 83.6426 29.291C83.9941 29.2012 84.3867 29.1562 84.8203 29.1562H86.0801ZM89.7656 27.6562V33H88.6816V26.6602H89.7363L89.7656 27.6562ZM91.7461 26.625L91.7402 27.6328C91.6504 27.6133 91.5645 27.6016 91.4824 27.5977C91.4043 27.5898 91.3145 27.5859 91.2129 27.5859C90.9629 27.5859 90.7422 27.625 90.5508 27.7031C90.3594 27.7812 90.1973 27.8906 90.0645 28.0312C89.9316 28.1719 89.8262 28.3398 89.748 28.5352C89.6738 28.7266 89.625 28.9375 89.6016 29.168L89.2969 29.3438C89.2969 28.9609 89.334 28.6016 89.4082 28.2656C89.4863 27.9297 89.6055 27.6328 89.7656 27.375C89.9258 27.1133 90.1289 26.9102 90.375 26.7656C90.625 26.6172 90.9219 26.543 91.2656 26.543C91.3438 26.543 91.4336 26.5527 91.5352 26.5723C91.6367 26.5879 91.707 26.6055 91.7461 26.625ZM96.4395 31.3184C96.4395 31.1621 96.4043 31.0176 96.334 30.8848C96.2676 30.748 96.1289 30.625 95.918 30.5156C95.7109 30.4023 95.3984 30.3047 94.9805 30.2227C94.6289 30.1484 94.3105 30.0605 94.0254 29.959C93.7441 29.8574 93.5039 29.7344 93.3047 29.5898C93.1094 29.4453 92.959 29.2754 92.8535 29.0801C92.748 28.8848 92.6953 28.6562 92.6953 28.3945C92.6953 28.1445 92.75 27.9082 92.8594 27.6855C92.9727 27.4629 93.1309 27.2656 93.334 27.0938C93.541 26.9219 93.7891 26.7871 94.0781 26.6895C94.3672 26.5918 94.6895 26.543 95.0449 26.543C95.5527 26.543 95.9863 26.6328 96.3457 26.8125C96.7051 26.9922 96.9805 27.2324 97.1719 27.5332C97.3633 27.8301 97.459 28.1602 97.459 28.5234H96.375C96.375 28.3477 96.3223 28.1777 96.2168 28.0137C96.1152 27.8457 95.9648 27.707 95.7656 27.5977C95.5703 27.4883 95.3301 27.4336 95.0449 27.4336C94.7441 27.4336 94.5 27.4805 94.3125 27.5742C94.1289 27.6641 93.9941 27.7793 93.9082 27.9199C93.8262 28.0605 93.7852 28.209 93.7852 28.3652C93.7852 28.4824 93.8047 28.5879 93.8438 28.6816C93.8867 28.7715 93.9609 28.8555 94.0664 28.9336C94.1719 29.0078 94.3203 29.0781 94.5117 29.1445C94.7031 29.2109 94.9473 29.2773 95.2441 29.3438C95.7637 29.4609 96.1914 29.6016 96.5273 29.7656C96.8633 29.9297 97.1133 30.1309 97.2773 30.3691C97.4414 30.6074 97.5234 30.8965 97.5234 31.2363C97.5234 31.5137 97.4648 31.7676 97.3477 31.998C97.2344 32.2285 97.0684 32.4277 96.8496 32.5957C96.6348 32.7598 96.377 32.8887 96.0762 32.9824C95.7793 33.0723 95.4453 33.1172 95.0742 33.1172C94.5156 33.1172 94.043 33.0176 93.6562 32.8184C93.2695 32.6191 92.9766 32.3613 92.7773 32.0449C92.5781 31.7285 92.4785 31.3945 92.4785 31.043H93.5684C93.584 31.3398 93.6699 31.5762 93.8262 31.752C93.9824 31.9238 94.1738 32.0469 94.4004 32.1211C94.627 32.1914 94.8516 32.2266 95.0742 32.2266C95.3711 32.2266 95.6191 32.1875 95.8184 32.1094C96.0215 32.0312 96.1758 31.9238 96.2812 31.7871C96.3867 31.6504 96.4395 31.4941 96.4395 31.3184ZM105.662 31.916V28.6523C105.662 28.4023 105.611 28.1855 105.51 28.002C105.412 27.8145 105.264 27.6699 105.064 27.5684C104.865 27.4668 104.619 27.416 104.326 27.416C104.053 27.416 103.812 27.4629 103.605 27.5566C103.402 27.6504 103.242 27.7734 103.125 27.9258C103.012 28.0781 102.955 28.2422 102.955 28.418H101.871C101.871 28.1914 101.93 27.9668 102.047 27.7441C102.164 27.5215 102.332 27.3203 102.551 27.1406C102.773 26.957 103.039 26.8125 103.348 26.707C103.66 26.5977 104.008 26.543 104.391 26.543C104.852 26.543 105.258 26.6211 105.609 26.7773C105.965 26.9336 106.242 27.1699 106.441 27.4863C106.645 27.7988 106.746 28.1914 106.746 28.6641V31.6172C106.746 31.8281 106.764 32.0527 106.799 32.291C106.838 32.5293 106.895 32.7344 106.969 32.9062V33H105.838C105.783 32.875 105.74 32.709 105.709 32.502C105.678 32.291 105.662 32.0957 105.662 31.916ZM105.85 29.1562L105.861 29.918H104.766C104.457 29.918 104.182 29.9434 103.939 29.9941C103.697 30.041 103.494 30.1133 103.33 30.2109C103.166 30.3086 103.041 30.4316 102.955 30.5801C102.869 30.7246 102.826 30.8945 102.826 31.0898C102.826 31.2891 102.871 31.4707 102.961 31.6348C103.051 31.7988 103.186 31.9297 103.365 32.0273C103.549 32.1211 103.773 32.168 104.039 32.168C104.371 32.168 104.664 32.0977 104.918 31.957C105.172 31.8164 105.373 31.6445 105.521 31.4414C105.674 31.2383 105.756 31.041 105.768 30.8496L106.23 31.3711C106.203 31.5352 106.129 31.7168 106.008 31.916C105.887 32.1152 105.725 32.3066 105.521 32.4902C105.322 32.6699 105.084 32.8203 104.807 32.9414C104.533 33.0586 104.225 33.1172 103.881 33.1172C103.451 33.1172 103.074 33.0332 102.75 32.8652C102.43 32.6973 102.18 32.4727 102 32.1914C101.824 31.9062 101.736 31.5879 101.736 31.2363C101.736 30.8965 101.803 30.5977 101.936 30.3398C102.068 30.0781 102.26 29.8613 102.51 29.6895C102.76 29.5137 103.061 29.3809 103.412 29.291C103.764 29.2012 104.156 29.1562 104.59 29.1562H105.85ZM112.559 26.6602H113.543V32.8652C113.543 33.4238 113.43 33.9004 113.203 34.2949C112.977 34.6895 112.66 34.9883 112.254 35.1914C111.852 35.3984 111.387 35.502 110.859 35.502C110.641 35.502 110.383 35.4668 110.086 35.3965C109.793 35.3301 109.504 35.2148 109.219 35.0508C108.938 34.8906 108.701 34.6738 108.51 34.4004L109.078 33.7559C109.344 34.0762 109.621 34.2988 109.91 34.4238C110.203 34.5488 110.492 34.6113 110.777 34.6113C111.121 34.6113 111.418 34.5469 111.668 34.418C111.918 34.2891 112.111 34.0977 112.248 33.8438C112.389 33.5938 112.459 33.2852 112.459 32.918V28.0547L112.559 26.6602ZM108.193 29.9004V29.7773C108.193 29.293 108.25 28.8535 108.363 28.459C108.48 28.0605 108.646 27.7188 108.861 27.4336C109.08 27.1484 109.344 26.9297 109.652 26.7773C109.961 26.6211 110.309 26.543 110.695 26.543C111.094 26.543 111.441 26.6133 111.738 26.7539C112.039 26.8906 112.293 27.0918 112.5 27.3574C112.711 27.6191 112.877 27.9355 112.998 28.3066C113.119 28.6777 113.203 29.0977 113.25 29.5664V30.1055C113.207 30.5703 113.123 30.9883 112.998 31.3594C112.877 31.7305 112.711 32.0469 112.5 32.3086C112.293 32.5703 112.039 32.7715 111.738 32.9121C111.438 33.0488 111.086 33.1172 110.684 33.1172C110.305 33.1172 109.961 33.0371 109.652 32.877C109.348 32.7168 109.086 32.4922 108.867 32.2031C108.648 31.9141 108.48 31.5742 108.363 31.1836C108.25 30.7891 108.193 30.3613 108.193 29.9004ZM109.277 29.7773V29.9004C109.277 30.2168 109.309 30.5137 109.371 30.791C109.438 31.0684 109.537 31.3125 109.67 31.5234C109.807 31.7344 109.98 31.9004 110.191 32.0215C110.402 32.1387 110.654 32.1973 110.947 32.1973C111.307 32.1973 111.604 32.1211 111.838 31.9688C112.072 31.8164 112.258 31.6152 112.395 31.3652C112.535 31.1152 112.645 30.8438 112.723 30.5508V29.1387C112.68 28.9238 112.613 28.7168 112.523 28.5176C112.438 28.3145 112.324 28.1348 112.184 27.9785C112.047 27.8184 111.877 27.6914 111.674 27.5977C111.471 27.5039 111.232 27.457 110.959 27.457C110.662 27.457 110.406 27.5195 110.191 27.6445C109.98 27.7656 109.807 27.9336 109.67 28.1484C109.537 28.3594 109.438 28.6055 109.371 28.8867C109.309 29.1641 109.277 29.4609 109.277 29.7773ZM114.902 29.9004V29.7656C114.902 29.3086 114.969 28.8848 115.102 28.4941C115.234 28.0996 115.426 27.7578 115.676 27.4688C115.926 27.1758 116.229 26.9492 116.584 26.7891C116.939 26.625 117.338 26.543 117.779 26.543C118.225 26.543 118.625 26.625 118.98 26.7891C119.34 26.9492 119.645 27.1758 119.895 27.4688C120.148 27.7578 120.342 28.0996 120.475 28.4941C120.607 28.8848 120.674 29.3086 120.674 29.7656V29.9004C120.674 30.3574 120.607 30.7812 120.475 31.1719C120.342 31.5625 120.148 31.9043 119.895 32.1973C119.645 32.4863 119.342 32.7129 118.986 32.877C118.635 33.0371 118.236 33.1172 117.791 33.1172C117.346 33.1172 116.945 33.0371 116.59 32.877C116.234 32.7129 115.93 32.4863 115.676 32.1973C115.426 31.9043 115.234 31.5625 115.102 31.1719C114.969 30.7812 114.902 30.3574 114.902 29.9004ZM115.986 29.7656V29.9004C115.986 30.2168 116.023 30.5156 116.098 30.7969C116.172 31.0742 116.283 31.3203 116.432 31.5352C116.584 31.75 116.773 31.9199 117 32.0449C117.227 32.166 117.49 32.2266 117.791 32.2266C118.088 32.2266 118.348 32.166 118.57 32.0449C118.797 31.9199 118.984 31.75 119.133 31.5352C119.281 31.3203 119.393 31.0742 119.467 30.7969C119.545 30.5156 119.584 30.2168 119.584 29.9004V29.7656C119.584 29.4531 119.545 29.1582 119.467 28.8809C119.393 28.5996 119.279 28.3516 119.127 28.1367C118.979 27.918 118.791 27.7461 118.564 27.6211C118.342 27.4961 118.08 27.4336 117.779 27.4336C117.482 27.4336 117.221 27.4961 116.994 27.6211C116.771 27.7461 116.584 27.918 116.432 28.1367C116.283 28.3516 116.172 28.5996 116.098 28.8809C116.023 29.1582 115.986 29.4531 115.986 29.7656Z" fill="#AAAAAA"/>
</svg>
