<svg width="188" height="32" viewBox="0 0 188 32" fill="none" xmlns="http://www.w3.org/2000/svg">
<path d="M7.47852 9.92676V11H2.20801V9.92676H7.47852ZM2.47461 1.04688V11H1.15527V1.04688H2.47461ZM6.78125 5.32617V6.39941H2.20801V5.32617H6.78125ZM7.41016 1.04688V2.12695H2.20801V1.04688H7.41016ZM10.1855 5.02539V13.8438H8.91406V3.60352H10.0762L10.1855 5.02539ZM15.1689 7.24023V7.38379C15.1689 7.92155 15.1051 8.42057 14.9775 8.88086C14.8499 9.33659 14.6631 9.73307 14.417 10.0703C14.1755 10.4076 13.877 10.6696 13.5215 10.8564C13.166 11.0433 12.7581 11.1367 12.2979 11.1367C11.8285 11.1367 11.4137 11.0592 11.0537 10.9043C10.6937 10.7493 10.3883 10.5238 10.1377 10.2275C9.88704 9.93132 9.68652 9.57585 9.53613 9.16113C9.3903 8.74642 9.29004 8.2793 9.23535 7.75977V6.99414C9.29004 6.44727 9.39258 5.95736 9.54297 5.52441C9.69336 5.09147 9.8916 4.72233 10.1377 4.41699C10.3883 4.1071 10.6914 3.8724 11.0469 3.71289C11.4023 3.54883 11.8125 3.4668 12.2773 3.4668C12.7422 3.4668 13.1546 3.55794 13.5146 3.74023C13.8747 3.91797 14.1777 4.17318 14.4238 4.50586C14.6699 4.83854 14.8545 5.2373 14.9775 5.70215C15.1051 6.16243 15.1689 6.67513 15.1689 7.24023ZM13.8975 7.38379V7.24023C13.8975 6.87109 13.8587 6.52474 13.7812 6.20117C13.7038 5.87305 13.583 5.58594 13.4189 5.33984C13.2594 5.08919 13.0544 4.89323 12.8037 4.75195C12.5531 4.60612 12.2546 4.5332 11.9082 4.5332C11.5892 4.5332 11.3112 4.58789 11.0742 4.69727C10.8418 4.80664 10.6436 4.95475 10.4795 5.1416C10.3154 5.32389 10.181 5.53353 10.0762 5.77051C9.97591 6.00293 9.90072 6.24447 9.85059 6.49512V8.26562C9.94173 8.58464 10.0693 8.88542 10.2334 9.16797C10.3975 9.44596 10.6162 9.67155 10.8896 9.84473C11.1631 10.0133 11.5072 10.0977 11.9219 10.0977C12.2637 10.0977 12.5576 10.027 12.8037 9.88574C13.0544 9.73991 13.2594 9.54167 13.4189 9.29102C13.583 9.04036 13.7038 8.75326 13.7812 8.42969C13.8587 8.10156 13.8975 7.75293 13.8975 7.38379ZM24.9717 1.0332H25.0811V2.10645H24.9717C24.3018 2.10645 23.7412 2.21582 23.29 2.43457C22.8389 2.64876 22.4811 2.93815 22.2168 3.30273C21.9525 3.66276 21.7611 4.06836 21.6426 4.51953C21.5286 4.9707 21.4717 5.42871 21.4717 5.89355V7.35645C21.4717 7.7985 21.5241 8.19043 21.6289 8.53223C21.7337 8.86947 21.8773 9.1543 22.0596 9.38672C22.2419 9.61914 22.4469 9.7946 22.6748 9.91309C22.9072 10.0316 23.1488 10.0908 23.3994 10.0908C23.6911 10.0908 23.9508 10.0361 24.1787 9.92676C24.4066 9.81283 24.598 9.6556 24.7529 9.45508C24.9124 9.25 25.0332 9.00846 25.1152 8.73047C25.1973 8.45247 25.2383 8.14714 25.2383 7.81445C25.2383 7.51823 25.2018 7.2334 25.1289 6.95996C25.056 6.68197 24.9443 6.43587 24.7939 6.22168C24.6436 6.00293 24.4544 5.83203 24.2266 5.70898C24.0033 5.58138 23.7367 5.51758 23.4268 5.51758C23.0758 5.51758 22.7477 5.60417 22.4424 5.77734C22.1416 5.94596 21.8932 6.16927 21.6973 6.44727C21.5059 6.7207 21.3965 7.01921 21.3691 7.34277L20.6992 7.33594C20.763 6.82552 20.8815 6.3903 21.0547 6.03027C21.2324 5.66569 21.4512 5.36947 21.7109 5.1416C21.9753 4.90918 22.2692 4.74056 22.5928 4.63574C22.9209 4.52637 23.2673 4.47168 23.6318 4.47168C24.1286 4.47168 24.557 4.5651 24.917 4.75195C25.277 4.9388 25.5732 5.18945 25.8057 5.50391C26.0381 5.8138 26.209 6.16471 26.3184 6.55664C26.4323 6.94401 26.4893 7.34277 26.4893 7.75293C26.4893 8.22233 26.4232 8.66211 26.291 9.07227C26.1589 9.48242 25.9606 9.84245 25.6963 10.1523C25.4365 10.4622 25.1152 10.7038 24.7324 10.877C24.3496 11.0501 23.9053 11.1367 23.3994 11.1367C22.8617 11.1367 22.3923 11.0273 21.9912 10.8086C21.5902 10.5853 21.2575 10.2891 20.9932 9.91992C20.7288 9.55078 20.5306 9.14062 20.3984 8.68945C20.2663 8.23828 20.2002 7.78027 20.2002 7.31543V6.7207C20.2002 6.01888 20.2708 5.33073 20.4121 4.65625C20.5534 3.98177 20.7972 3.37109 21.1436 2.82422C21.4945 2.27734 21.9798 1.84212 22.5996 1.51855C23.2194 1.19499 24.0101 1.0332 24.9717 1.0332ZM28.0752 10.3301C28.0752 10.1159 28.1413 9.93587 28.2734 9.79004C28.4102 9.63965 28.6061 9.56445 28.8613 9.56445C29.1165 9.56445 29.3102 9.63965 29.4424 9.79004C29.5791 9.93587 29.6475 10.1159 29.6475 10.3301C29.6475 10.5397 29.5791 10.7174 29.4424 10.8633C29.3102 11.0091 29.1165 11.082 28.8613 11.082C28.6061 11.082 28.4102 11.0091 28.2734 10.8633C28.1413 10.7174 28.0752 10.5397 28.0752 10.3301ZM28.082 4.29395C28.082 4.07975 28.1481 3.89974 28.2803 3.75391C28.417 3.60352 28.613 3.52832 28.8682 3.52832C29.1234 3.52832 29.3171 3.60352 29.4492 3.75391C29.5859 3.89974 29.6543 4.07975 29.6543 4.29395C29.6543 4.50358 29.5859 4.68132 29.4492 4.82715C29.3171 4.97298 29.1234 5.0459 28.8682 5.0459C28.613 5.0459 28.417 4.97298 28.2803 4.82715C28.1481 4.68132 28.082 4.50358 28.082 4.29395ZM41.2207 9.92676V11H36.2441V9.92676H41.2207ZM36.5039 1.04688V11H35.1846V1.04688H36.5039ZM43.9141 3.60352V11H42.6426V3.60352H43.9141ZM42.5469 1.6416C42.5469 1.43652 42.6084 1.26335 42.7314 1.12207C42.859 0.980794 43.0459 0.910156 43.292 0.910156C43.5335 0.910156 43.7181 0.980794 43.8457 1.12207C43.9779 1.26335 44.0439 1.43652 44.0439 1.6416C44.0439 1.83757 43.9779 2.00618 43.8457 2.14746C43.7181 2.28418 43.5335 2.35254 43.292 2.35254C43.0459 2.35254 42.859 2.28418 42.7314 2.14746C42.6084 2.00618 42.5469 1.83757 42.5469 1.6416ZM48.1934 9.8584L50.2168 3.60352H51.5088L48.8496 11H48.002L48.1934 9.8584ZM46.5049 3.60352L48.5898 9.89258L48.7334 11H47.8857L45.2061 3.60352H46.5049ZM54.0996 3.60352V11H52.8281V3.60352H54.0996ZM52.7324 1.6416C52.7324 1.43652 52.7939 1.26335 52.917 1.12207C53.0446 0.980794 53.2314 0.910156 53.4775 0.910156C53.7191 0.910156 53.9036 0.980794 54.0312 1.12207C54.1634 1.26335 54.2295 1.43652 54.2295 1.6416C54.2295 1.83757 54.1634 2.00618 54.0312 2.14746C53.9036 2.28418 53.7191 2.35254 53.4775 2.35254C53.2314 2.35254 53.0446 2.28418 52.917 2.14746C52.7939 2.00618 52.7324 1.83757 52.7324 1.6416ZM57.3945 5.18262V11H56.1299V3.60352H57.3262L57.3945 5.18262ZM57.0938 7.02148L56.5674 7.00098C56.5719 6.49512 56.6471 6.02799 56.793 5.59961C56.9388 5.16667 57.1439 4.79069 57.4082 4.47168C57.6725 4.15267 57.987 3.90658 58.3516 3.7334C58.7207 3.55566 59.1286 3.4668 59.5752 3.4668C59.9398 3.4668 60.2679 3.51693 60.5596 3.61719C60.8512 3.71289 61.0996 3.86784 61.3047 4.08203C61.5143 4.29622 61.6738 4.57422 61.7832 4.91602C61.8926 5.25326 61.9473 5.66569 61.9473 6.15332V11H60.6758V6.13965C60.6758 5.75228 60.6188 5.44238 60.5049 5.20996C60.391 4.97298 60.2246 4.80208 60.0059 4.69727C59.7871 4.58789 59.5182 4.5332 59.1992 4.5332C58.8848 4.5332 58.5977 4.59928 58.3379 4.73145C58.0827 4.86361 57.8617 5.0459 57.6748 5.27832C57.4925 5.51074 57.349 5.77734 57.2441 6.07812C57.1439 6.37435 57.0938 6.6888 57.0938 7.02148ZM68.6602 3.60352H69.8086V10.8428C69.8086 11.4945 69.6764 12.0505 69.4121 12.5107C69.1478 12.971 68.7786 13.3197 68.3047 13.5566C67.8353 13.7982 67.293 13.9189 66.6777 13.9189C66.4225 13.9189 66.1217 13.8779 65.7754 13.7959C65.4336 13.7184 65.0964 13.584 64.7637 13.3926C64.4355 13.2057 64.1598 12.9528 63.9365 12.6338L64.5996 11.8818C64.9095 12.2555 65.2331 12.5153 65.5703 12.6611C65.9121 12.807 66.2493 12.8799 66.582 12.8799C66.9831 12.8799 67.3294 12.8047 67.6211 12.6543C67.9128 12.5039 68.1383 12.2806 68.2979 11.9844C68.4619 11.6927 68.5439 11.3327 68.5439 10.9043V5.23047L68.6602 3.60352ZM63.5674 7.38379V7.24023C63.5674 6.67513 63.6335 6.16243 63.7656 5.70215C63.9023 5.2373 64.096 4.83854 64.3467 4.50586C64.6019 4.17318 64.9095 3.91797 65.2695 3.74023C65.6296 3.55794 66.0352 3.4668 66.4863 3.4668C66.9512 3.4668 67.3568 3.54883 67.7031 3.71289C68.054 3.8724 68.3503 4.1071 68.5918 4.41699C68.8379 4.72233 69.0316 5.09147 69.1729 5.52441C69.3141 5.95736 69.4121 6.44727 69.4668 6.99414V7.62305C69.4167 8.16536 69.3187 8.65299 69.1729 9.08594C69.0316 9.51888 68.8379 9.88802 68.5918 10.1934C68.3503 10.4987 68.054 10.7334 67.7031 10.8975C67.3522 11.057 66.9421 11.1367 66.4727 11.1367C66.0306 11.1367 65.6296 11.0433 65.2695 10.8564C64.9141 10.6696 64.6087 10.4076 64.3535 10.0703C64.0983 9.73307 63.9023 9.33659 63.7656 8.88086C63.6335 8.42057 63.5674 7.92155 63.5674 7.38379ZM64.832 7.24023V7.38379C64.832 7.75293 64.8685 8.09928 64.9414 8.42285C65.0189 8.74642 65.1351 9.03125 65.29 9.27734C65.4495 9.52344 65.6523 9.71712 65.8984 9.8584C66.1445 9.99512 66.4385 10.0635 66.7803 10.0635C67.1995 10.0635 67.5459 9.97461 67.8193 9.79688C68.0928 9.61914 68.3092 9.38444 68.4688 9.09277C68.6328 8.80111 68.7604 8.48438 68.8516 8.14258V6.49512C68.8014 6.24447 68.724 6.00293 68.6191 5.77051C68.5189 5.53353 68.3867 5.32389 68.2227 5.1416C68.0632 4.95475 67.8649 4.80664 67.6279 4.69727C67.391 4.58789 67.113 4.5332 66.7939 4.5332C66.4476 4.5332 66.1491 4.60612 65.8984 4.75195C65.6523 4.89323 65.4495 5.08919 65.29 5.33984C65.1351 5.58594 65.0189 5.87305 64.9414 6.20117C64.8685 6.52474 64.832 6.87109 64.832 7.24023ZM78.2988 3.60352V4.57422H74.2998V3.60352H78.2988ZM75.6533 1.80566H76.918V9.16797C76.918 9.41862 76.9567 9.60775 77.0342 9.73535C77.1117 9.86296 77.2119 9.94727 77.335 9.98828C77.458 10.0293 77.5902 10.0498 77.7314 10.0498C77.8363 10.0498 77.9456 10.0407 78.0596 10.0225C78.1781 9.99967 78.2669 9.98145 78.3262 9.96777L78.333 11C78.2327 11.0319 78.1006 11.0615 77.9365 11.0889C77.777 11.1208 77.5833 11.1367 77.3555 11.1367C77.0456 11.1367 76.7607 11.0752 76.501 10.9521C76.2412 10.8291 76.0339 10.624 75.8789 10.3369C75.7285 10.0452 75.6533 9.65332 75.6533 9.16113V1.80566ZM79.3105 7.38379V7.22656C79.3105 6.69336 79.388 6.19889 79.543 5.74316C79.6979 5.28288 79.9212 4.88411 80.2129 4.54688C80.5046 4.20508 80.8577 3.94076 81.2725 3.75391C81.6872 3.5625 82.152 3.4668 82.667 3.4668C83.1865 3.4668 83.6536 3.5625 84.0684 3.75391C84.4876 3.94076 84.8431 4.20508 85.1348 4.54688C85.431 4.88411 85.6566 5.28288 85.8115 5.74316C85.9665 6.19889 86.0439 6.69336 86.0439 7.22656V7.38379C86.0439 7.91699 85.9665 8.41146 85.8115 8.86719C85.6566 9.32292 85.431 9.72168 85.1348 10.0635C84.8431 10.4007 84.4899 10.665 84.0752 10.8564C83.665 11.0433 83.2002 11.1367 82.6807 11.1367C82.1611 11.1367 81.694 11.0433 81.2793 10.8564C80.8646 10.665 80.5091 10.4007 80.2129 10.0635C79.9212 9.72168 79.6979 9.32292 79.543 8.86719C79.388 8.41146 79.3105 7.91699 79.3105 7.38379ZM80.5752 7.22656V7.38379C80.5752 7.75293 80.6185 8.10156 80.7051 8.42969C80.7917 8.75326 80.9215 9.04036 81.0947 9.29102C81.2725 9.54167 81.4935 9.73991 81.7578 9.88574C82.0221 10.027 82.3298 10.0977 82.6807 10.0977C83.027 10.0977 83.3301 10.027 83.5898 9.88574C83.8542 9.73991 84.0729 9.54167 84.2461 9.29102C84.4193 9.04036 84.5492 8.75326 84.6357 8.42969C84.7269 8.10156 84.7725 7.75293 84.7725 7.38379V7.22656C84.7725 6.86198 84.7269 6.5179 84.6357 6.19434C84.5492 5.86621 84.417 5.57682 84.2393 5.32617C84.0661 5.07096 83.8473 4.87044 83.583 4.72461C83.3232 4.57878 83.0179 4.50586 82.667 4.50586C82.3206 4.50586 82.0153 4.57878 81.751 4.72461C81.4912 4.87044 81.2725 5.07096 81.0947 5.32617C80.9215 5.57682 80.7917 5.86621 80.7051 6.19434C80.6185 6.5179 80.5752 6.86198 80.5752 7.22656ZM96.5986 8.48438C96.5986 8.25195 96.5622 8.04688 96.4893 7.86914C96.4209 7.68685 96.2979 7.52279 96.1201 7.37695C95.9469 7.23112 95.7054 7.09212 95.3955 6.95996C95.0902 6.8278 94.7028 6.69336 94.2334 6.55664C93.7412 6.41081 93.2969 6.24902 92.9004 6.07129C92.5039 5.889 92.1644 5.68164 91.8818 5.44922C91.5993 5.2168 91.3828 4.9502 91.2324 4.64941C91.082 4.34863 91.0068 4.00456 91.0068 3.61719C91.0068 3.22982 91.0866 2.87207 91.2461 2.54395C91.4056 2.21582 91.6335 1.93099 91.9297 1.68945C92.2305 1.44336 92.5882 1.25195 93.0029 1.11523C93.4176 0.978516 93.8802 0.910156 94.3906 0.910156C95.138 0.910156 95.7715 1.05371 96.291 1.34082C96.8151 1.62337 97.2139 1.99479 97.4873 2.45508C97.7607 2.91081 97.8975 3.39844 97.8975 3.91797H96.585C96.585 3.54427 96.5052 3.21387 96.3457 2.92676C96.1862 2.63509 95.9447 2.40723 95.6211 2.24316C95.2975 2.07454 94.8874 1.99023 94.3906 1.99023C93.9212 1.99023 93.5339 2.06087 93.2285 2.20215C92.9232 2.34342 92.6953 2.53483 92.5449 2.77637C92.3991 3.0179 92.3262 3.29362 92.3262 3.60352C92.3262 3.81315 92.3695 4.00456 92.4561 4.17773C92.5472 4.34635 92.6862 4.50358 92.873 4.64941C93.0645 4.79525 93.306 4.92969 93.5977 5.05273C93.8939 5.17578 94.2471 5.29427 94.6572 5.4082C95.2223 5.56771 95.71 5.74544 96.1201 5.94141C96.5303 6.13737 96.8675 6.3584 97.1318 6.60449C97.4007 6.84603 97.599 7.12174 97.7266 7.43164C97.8587 7.73698 97.9248 8.08333 97.9248 8.4707C97.9248 8.8763 97.8428 9.24316 97.6787 9.57129C97.5146 9.89941 97.2799 10.1797 96.9746 10.4121C96.6693 10.6445 96.3024 10.8245 95.874 10.9521C95.4502 11.0752 94.9762 11.1367 94.4521 11.1367C93.9919 11.1367 93.5384 11.0729 93.0918 10.9453C92.6497 10.8177 92.2464 10.6263 91.8818 10.3711C91.5218 10.1159 91.2324 9.80143 91.0137 9.42773C90.7995 9.04948 90.6924 8.61198 90.6924 8.11523H92.0049C92.0049 8.45703 92.071 8.75098 92.2031 8.99707C92.3353 9.23861 92.5153 9.43913 92.7432 9.59863C92.9756 9.75814 93.2376 9.87663 93.5293 9.9541C93.8255 10.027 94.1331 10.0635 94.4521 10.0635C94.9124 10.0635 95.3021 9.99967 95.6211 9.87207C95.9401 9.74447 96.1816 9.56217 96.3457 9.3252C96.5143 9.08822 96.5986 8.80794 96.5986 8.48438ZM102.484 11.1367C101.969 11.1367 101.502 11.0501 101.083 10.877C100.668 10.6992 100.311 10.4508 100.01 10.1318C99.7135 9.81283 99.4857 9.43457 99.3262 8.99707C99.1667 8.55957 99.0869 8.08105 99.0869 7.56152V7.27441C99.0869 6.67285 99.1758 6.13737 99.3535 5.66797C99.5312 5.19401 99.7728 4.79297 100.078 4.46484C100.383 4.13672 100.73 3.88835 101.117 3.71973C101.505 3.55111 101.906 3.4668 102.32 3.4668C102.849 3.4668 103.305 3.55794 103.688 3.74023C104.075 3.92253 104.392 4.17773 104.638 4.50586C104.884 4.82943 105.066 5.21224 105.185 5.6543C105.303 6.0918 105.362 6.57031 105.362 7.08984V7.65723H99.8389V6.625H104.098V6.5293C104.079 6.20117 104.011 5.88216 103.893 5.57227C103.779 5.26237 103.596 5.00716 103.346 4.80664C103.095 4.60612 102.753 4.50586 102.32 4.50586C102.033 4.50586 101.769 4.56738 101.527 4.69043C101.286 4.80892 101.078 4.98665 100.905 5.22363C100.732 5.46061 100.598 5.75 100.502 6.0918C100.406 6.43359 100.358 6.8278 100.358 7.27441V7.56152C100.358 7.91243 100.406 8.24284 100.502 8.55273C100.602 8.85807 100.746 9.12695 100.933 9.35938C101.124 9.5918 101.354 9.77409 101.623 9.90625C101.896 10.0384 102.206 10.1045 102.553 10.1045C102.999 10.1045 103.378 10.0133 103.688 9.83105C103.997 9.64876 104.269 9.40495 104.501 9.09961L105.267 9.70801C105.107 9.94954 104.904 10.1797 104.658 10.3984C104.412 10.6172 104.109 10.7949 103.749 10.9316C103.394 11.0684 102.972 11.1367 102.484 11.1367ZM108.104 4.76562V11H106.839V3.60352H108.069L108.104 4.76562ZM110.414 3.5625L110.407 4.73828C110.302 4.71549 110.202 4.70182 110.106 4.69727C110.015 4.68815 109.91 4.68359 109.792 4.68359C109.5 4.68359 109.243 4.72917 109.02 4.82031C108.796 4.91146 108.607 5.03906 108.452 5.20312C108.297 5.36719 108.174 5.56315 108.083 5.79102C107.996 6.01432 107.939 6.26042 107.912 6.5293L107.557 6.73438C107.557 6.28776 107.6 5.86849 107.687 5.47656C107.778 5.08464 107.917 4.73828 108.104 4.4375C108.29 4.13216 108.527 3.89518 108.814 3.72656C109.106 3.55339 109.452 3.4668 109.854 3.4668C109.945 3.4668 110.049 3.47819 110.168 3.50098C110.286 3.51921 110.368 3.53971 110.414 3.5625ZM113.955 9.8584L115.979 3.60352H117.271L114.611 11H113.764L113.955 9.8584ZM112.267 3.60352L114.352 9.89258L114.495 11H113.647L110.968 3.60352H112.267ZM121.461 11.1367C120.946 11.1367 120.479 11.0501 120.06 10.877C119.645 10.6992 119.287 10.4508 118.986 10.1318C118.69 9.81283 118.462 9.43457 118.303 8.99707C118.143 8.55957 118.063 8.08105 118.063 7.56152V7.27441C118.063 6.67285 118.152 6.13737 118.33 5.66797C118.508 5.19401 118.749 4.79297 119.055 4.46484C119.36 4.13672 119.706 3.88835 120.094 3.71973C120.481 3.55111 120.882 3.4668 121.297 3.4668C121.826 3.4668 122.281 3.55794 122.664 3.74023C123.051 3.92253 123.368 4.17773 123.614 4.50586C123.86 4.82943 124.043 5.21224 124.161 5.6543C124.28 6.0918 124.339 6.57031 124.339 7.08984V7.65723H118.815V6.625H123.074V6.5293C123.056 6.20117 122.988 5.88216 122.869 5.57227C122.755 5.26237 122.573 5.00716 122.322 4.80664C122.072 4.60612 121.73 4.50586 121.297 4.50586C121.01 4.50586 120.745 4.56738 120.504 4.69043C120.262 4.80892 120.055 4.98665 119.882 5.22363C119.709 5.46061 119.574 5.75 119.479 6.0918C119.383 6.43359 119.335 6.8278 119.335 7.27441V7.56152C119.335 7.91243 119.383 8.24284 119.479 8.55273C119.579 8.85807 119.722 9.12695 119.909 9.35938C120.101 9.5918 120.331 9.77409 120.6 9.90625C120.873 10.0384 121.183 10.1045 121.529 10.1045C121.976 10.1045 122.354 10.0133 122.664 9.83105C122.974 9.64876 123.245 9.40495 123.478 9.09961L124.243 9.70801C124.084 9.94954 123.881 10.1797 123.635 10.3984C123.389 10.6172 123.086 10.7949 122.726 10.9316C122.37 11.0684 121.949 11.1367 121.461 11.1367ZM130.546 1.04688V12.8457H129.527V1.04688H130.546ZM141.675 8.48438C141.675 8.25195 141.638 8.04688 141.565 7.86914C141.497 7.68685 141.374 7.52279 141.196 7.37695C141.023 7.23112 140.782 7.09212 140.472 6.95996C140.166 6.8278 139.779 6.69336 139.31 6.55664C138.817 6.41081 138.373 6.24902 137.977 6.07129C137.58 5.889 137.241 5.68164 136.958 5.44922C136.675 5.2168 136.459 4.9502 136.309 4.64941C136.158 4.34863 136.083 4.00456 136.083 3.61719C136.083 3.22982 136.163 2.87207 136.322 2.54395C136.482 2.21582 136.71 1.93099 137.006 1.68945C137.307 1.44336 137.664 1.25195 138.079 1.11523C138.494 0.978516 138.956 0.910156 139.467 0.910156C140.214 0.910156 140.848 1.05371 141.367 1.34082C141.891 1.62337 142.29 1.99479 142.563 2.45508C142.837 2.91081 142.974 3.39844 142.974 3.91797H141.661C141.661 3.54427 141.581 3.21387 141.422 2.92676C141.262 2.63509 141.021 2.40723 140.697 2.24316C140.374 2.07454 139.964 1.99023 139.467 1.99023C138.997 1.99023 138.61 2.06087 138.305 2.20215C137.999 2.34342 137.771 2.53483 137.621 2.77637C137.475 3.0179 137.402 3.29362 137.402 3.60352C137.402 3.81315 137.446 4.00456 137.532 4.17773C137.623 4.34635 137.762 4.50358 137.949 4.64941C138.141 4.79525 138.382 4.92969 138.674 5.05273C138.97 5.17578 139.323 5.29427 139.733 5.4082C140.299 5.56771 140.786 5.74544 141.196 5.94141C141.606 6.13737 141.944 6.3584 142.208 6.60449C142.477 6.84603 142.675 7.12174 142.803 7.43164C142.935 7.73698 143.001 8.08333 143.001 8.4707C143.001 8.8763 142.919 9.24316 142.755 9.57129C142.591 9.89941 142.356 10.1797 142.051 10.4121C141.745 10.6445 141.379 10.8245 140.95 10.9521C140.526 11.0752 140.052 11.1367 139.528 11.1367C139.068 11.1367 138.615 11.0729 138.168 10.9453C137.726 10.8177 137.323 10.6263 136.958 10.3711C136.598 10.1159 136.309 9.80143 136.09 9.42773C135.876 9.04948 135.769 8.61198 135.769 8.11523H137.081C137.081 8.45703 137.147 8.75098 137.279 8.99707C137.411 9.23861 137.591 9.43913 137.819 9.59863C138.052 9.75814 138.314 9.87663 138.605 9.9541C138.902 10.027 139.209 10.0635 139.528 10.0635C139.989 10.0635 140.378 9.99967 140.697 9.87207C141.016 9.74447 141.258 9.56217 141.422 9.3252C141.59 9.08822 141.675 8.80794 141.675 8.48438ZM151.006 9.92676V11H145.735V9.92676H151.006ZM146.002 1.04688V11H144.683V1.04688H146.002ZM150.309 5.32617V6.39941H145.735V5.32617H150.309ZM150.938 1.04688V2.12695H145.735V1.04688H150.938ZM156.324 1.92871L153.029 11H151.683L155.477 1.04688H156.345L156.324 1.92871ZM159.086 11L155.784 1.92871L155.764 1.04688H156.632L160.439 11H159.086ZM158.915 7.31543V8.39551H153.323V7.31543H158.915ZM161.772 1.04688H165.067C165.815 1.04688 166.446 1.16081 166.961 1.38867C167.48 1.61654 167.875 1.95378 168.144 2.40039C168.417 2.84245 168.554 3.38704 168.554 4.03418C168.554 4.48991 168.46 4.9069 168.273 5.28516C168.091 5.65885 167.827 5.97786 167.48 6.24219C167.139 6.50195 166.729 6.69564 166.25 6.82324L165.881 6.9668H162.784L162.771 5.89355H165.108C165.582 5.89355 165.977 5.81152 166.291 5.64746C166.605 5.47884 166.842 5.25326 167.002 4.9707C167.161 4.68815 167.241 4.37598 167.241 4.03418C167.241 3.65137 167.166 3.31641 167.016 3.0293C166.865 2.74219 166.628 2.52116 166.305 2.36621C165.986 2.20671 165.573 2.12695 165.067 2.12695H163.092V11H161.772V1.04688ZM167.59 11L165.17 6.48828L166.544 6.48145L168.998 10.918V11H167.59ZM176.408 7.83496H177.721C177.652 8.46387 177.472 9.02669 177.181 9.52344C176.889 10.0202 176.477 10.4144 175.943 10.7061C175.41 10.9932 174.745 11.1367 173.947 11.1367C173.364 11.1367 172.833 11.0273 172.354 10.8086C171.881 10.5898 171.473 10.2799 171.131 9.87891C170.789 9.47331 170.525 8.98796 170.338 8.42285C170.156 7.85319 170.064 7.21973 170.064 6.52246V5.53125C170.064 4.83398 170.156 4.2028 170.338 3.6377C170.525 3.06803 170.791 2.5804 171.138 2.1748C171.489 1.76921 171.91 1.45703 172.402 1.23828C172.895 1.01953 173.448 0.910156 174.063 0.910156C174.815 0.910156 175.451 1.05143 175.971 1.33398C176.49 1.61654 176.894 2.00846 177.181 2.50977C177.472 3.00651 177.652 3.58301 177.721 4.23926H176.408C176.344 3.77441 176.226 3.37565 176.053 3.04297C175.88 2.70573 175.633 2.44596 175.314 2.26367C174.995 2.08138 174.578 1.99023 174.063 1.99023C173.621 1.99023 173.232 2.07454 172.895 2.24316C172.562 2.41178 172.282 2.65104 172.054 2.96094C171.83 3.27083 171.662 3.64225 171.548 4.0752C171.434 4.50814 171.377 4.98893 171.377 5.51758V6.52246C171.377 7.01009 171.427 7.4681 171.527 7.89648C171.632 8.32487 171.789 8.70085 171.999 9.02441C172.209 9.34798 172.475 9.60319 172.799 9.79004C173.122 9.97233 173.505 10.0635 173.947 10.0635C174.508 10.0635 174.954 9.97461 175.287 9.79688C175.62 9.61914 175.87 9.36393 176.039 9.03125C176.212 8.69857 176.335 8.2998 176.408 7.83496ZM186.02 5.32617V6.39941H180.633V5.32617H186.02ZM180.838 1.04688V11H179.519V1.04688H180.838ZM187.168 1.04688V11H185.855V1.04688H187.168ZM8.81836 25.709V26.3379C8.81836 27.0853 8.72493 27.7552 8.53809 28.3477C8.35124 28.9401 8.08236 29.4437 7.73145 29.8584C7.38053 30.2731 6.95898 30.5898 6.4668 30.8086C5.97917 31.0273 5.43229 31.1367 4.82617 31.1367C4.23828 31.1367 3.69824 31.0273 3.20605 30.8086C2.71842 30.5898 2.2946 30.2731 1.93457 29.8584C1.5791 29.4437 1.30339 28.9401 1.10742 28.3477C0.911458 27.7552 0.813477 27.0853 0.813477 26.3379V25.709C0.813477 24.9616 0.90918 24.2939 1.10059 23.7061C1.29655 23.1136 1.57227 22.61 1.92773 22.1953C2.2832 21.776 2.70475 21.457 3.19238 21.2383C3.68457 21.0195 4.22461 20.9102 4.8125 20.9102C5.41862 20.9102 5.96549 21.0195 6.45312 21.2383C6.94531 21.457 7.36686 21.776 7.71777 22.1953C8.07324 22.61 8.3444 23.1136 8.53125 23.7061C8.72266 24.2939 8.81836 24.9616 8.81836 25.709ZM7.5127 26.3379V25.6953C7.5127 25.1029 7.45117 24.5788 7.32812 24.123C7.20964 23.6673 7.03418 23.2845 6.80176 22.9746C6.56934 22.6647 6.28451 22.43 5.94727 22.2705C5.61458 22.111 5.23633 22.0312 4.8125 22.0312C4.40234 22.0312 4.03092 22.111 3.69824 22.2705C3.37012 22.43 3.08757 22.6647 2.85059 22.9746C2.61816 23.2845 2.43815 23.6673 2.31055 24.123C2.18294 24.5788 2.11914 25.1029 2.11914 25.6953V26.3379C2.11914 26.9349 2.18294 27.4635 2.31055 27.9238C2.43815 28.3796 2.62044 28.7646 2.85742 29.0791C3.09896 29.389 3.38379 29.6237 3.71191 29.7832C4.0446 29.9427 4.41602 30.0225 4.82617 30.0225C5.25456 30.0225 5.63509 29.9427 5.96777 29.7832C6.30046 29.6237 6.58073 29.389 6.80859 29.0791C7.04102 28.7646 7.21647 28.3796 7.33496 27.9238C7.45345 27.4635 7.5127 26.9349 7.5127 26.3379ZM18.4502 21.0469V31H17.124L12.1133 23.3232V31H10.7939V21.0469H12.1133L17.1445 28.7441V21.0469H18.4502Z" fill="white"/>
</svg>
