<svg width="151" height="48" viewBox="0 0 151 48" fill="none" xmlns="http://www.w3.org/2000/svg">
<rect x="0.15" y="8.15" width="142.7" height="31.7" rx="15.85" fill="#303030"/>
<path d="M14.4746 19.0469V29H13.1553V19.0469H14.4746ZM18.6445 23.5244V24.6045H14.1875V23.5244H18.6445ZM19.3213 19.0469V20.127H14.1875V19.0469H19.3213ZM21.7891 22.7656V29H20.5244V21.6035H21.7549L21.7891 22.7656ZM24.0996 21.5625L24.0928 22.7383C23.988 22.7155 23.8877 22.7018 23.792 22.6973C23.7008 22.6882 23.596 22.6836 23.4775 22.6836C23.1859 22.6836 22.9284 22.7292 22.7051 22.8203C22.4818 22.9115 22.2926 23.0391 22.1377 23.2031C21.9827 23.3672 21.8597 23.5632 21.7686 23.791C21.682 24.0143 21.625 24.2604 21.5977 24.5293L21.2422 24.7344C21.2422 24.2878 21.2855 23.8685 21.3721 23.4766C21.4632 23.0846 21.6022 22.7383 21.7891 22.4375C21.9759 22.1322 22.2129 21.8952 22.5 21.7266C22.7917 21.5534 23.138 21.4668 23.5391 21.4668C23.6302 21.4668 23.735 21.4782 23.8535 21.501C23.972 21.5192 24.054 21.5397 24.0996 21.5625ZM24.7969 25.3838V25.2266C24.7969 24.6934 24.8743 24.1989 25.0293 23.7432C25.1842 23.2829 25.4076 22.8841 25.6992 22.5469C25.9909 22.2051 26.3441 21.9408 26.7588 21.7539C27.1735 21.5625 27.6383 21.4668 28.1533 21.4668C28.6729 21.4668 29.14 21.5625 29.5547 21.7539C29.974 21.9408 30.3294 22.2051 30.6211 22.5469C30.9173 22.8841 31.1429 23.2829 31.2979 23.7432C31.4528 24.1989 31.5303 24.6934 31.5303 25.2266V25.3838C31.5303 25.917 31.4528 26.4115 31.2979 26.8672C31.1429 27.3229 30.9173 27.7217 30.6211 28.0635C30.3294 28.4007 29.9762 28.665 29.5615 28.8564C29.1514 29.0433 28.6865 29.1367 28.167 29.1367C27.6475 29.1367 27.1803 29.0433 26.7656 28.8564C26.3509 28.665 25.9954 28.4007 25.6992 28.0635C25.4076 27.7217 25.1842 27.3229 25.0293 26.8672C24.8743 26.4115 24.7969 25.917 24.7969 25.3838ZM26.0615 25.2266V25.3838C26.0615 25.7529 26.1048 26.1016 26.1914 26.4297C26.278 26.7533 26.4079 27.0404 26.5811 27.291C26.7588 27.5417 26.9798 27.7399 27.2441 27.8857C27.5085 28.027 27.8161 28.0977 28.167 28.0977C28.5133 28.0977 28.8164 28.027 29.0762 27.8857C29.3405 27.7399 29.5592 27.5417 29.7324 27.291C29.9056 27.0404 30.0355 26.7533 30.1221 26.4297C30.2132 26.1016 30.2588 25.7529 30.2588 25.3838V25.2266C30.2588 24.862 30.2132 24.5179 30.1221 24.1943C30.0355 23.8662 29.9033 23.5768 29.7256 23.3262C29.5524 23.071 29.3337 22.8704 29.0693 22.7246C28.8096 22.5788 28.5042 22.5059 28.1533 22.5059C27.807 22.5059 27.5016 22.5788 27.2373 22.7246C26.9775 22.8704 26.7588 23.071 26.5811 23.3262C26.4079 23.5768 26.278 23.8662 26.1914 24.1943C26.1048 24.5179 26.0615 24.862 26.0615 25.2266ZM34.374 23.0732V29H33.1025V21.6035H34.3057L34.374 23.0732ZM34.1143 25.0215L33.5264 25.001C33.5309 24.4951 33.597 24.028 33.7246 23.5996C33.8522 23.1667 34.0413 22.7907 34.292 22.4717C34.5426 22.1527 34.8548 21.9066 35.2285 21.7334C35.6022 21.5557 36.0352 21.4668 36.5273 21.4668C36.8737 21.4668 37.1927 21.5169 37.4844 21.6172C37.776 21.7129 38.029 21.8656 38.2432 22.0752C38.4574 22.2848 38.6237 22.5537 38.7422 22.8818C38.8607 23.21 38.9199 23.6064 38.9199 24.0713V29H37.6553V24.1328C37.6553 23.7454 37.5892 23.4355 37.457 23.2031C37.3294 22.9707 37.1471 22.8021 36.9102 22.6973C36.6732 22.5879 36.3952 22.5332 36.0762 22.5332C35.7025 22.5332 35.3903 22.5993 35.1396 22.7314C34.889 22.8636 34.6885 23.0459 34.5381 23.2783C34.3877 23.5107 34.2783 23.7773 34.21 24.0781C34.1462 24.3743 34.1143 24.6888 34.1143 25.0215ZM38.9062 24.3242L38.0586 24.584C38.0632 24.1784 38.1292 23.7887 38.2568 23.415C38.389 23.0413 38.5781 22.7087 38.8242 22.417C39.0749 22.1253 39.3825 21.8952 39.7471 21.7266C40.1117 21.5534 40.5286 21.4668 40.998 21.4668C41.3945 21.4668 41.7454 21.5192 42.0508 21.624C42.3607 21.7288 42.6204 21.8906 42.8301 22.1094C43.0443 22.3236 43.2061 22.5993 43.3154 22.9365C43.4248 23.2738 43.4795 23.6748 43.4795 24.1396V29H42.208V24.126C42.208 23.7113 42.1419 23.39 42.0098 23.1621C41.8822 22.9297 41.6999 22.7679 41.4629 22.6768C41.2305 22.5811 40.9525 22.5332 40.6289 22.5332C40.3509 22.5332 40.1048 22.5811 39.8906 22.6768C39.6764 22.7725 39.4964 22.9046 39.3506 23.0732C39.2048 23.2373 39.0931 23.4264 39.0156 23.6406C38.9427 23.8548 38.9062 24.0827 38.9062 24.3242ZM49.4746 19.0469H50.7529L54.0137 27.1611L57.2676 19.0469H58.5527L54.5059 29H53.5078L49.4746 19.0469ZM49.0576 19.0469H50.1855L50.3701 25.1172V29H49.0576V19.0469ZM57.835 19.0469H58.9629V29H57.6504V25.1172L57.835 19.0469ZM65.4502 27.7354V23.9277C65.4502 23.6361 65.391 23.3831 65.2725 23.1689C65.1585 22.9502 64.9854 22.7816 64.7529 22.6631C64.5205 22.5446 64.2334 22.4854 63.8916 22.4854C63.5726 22.4854 63.2923 22.54 63.0508 22.6494C62.8138 22.7588 62.627 22.9023 62.4902 23.0801C62.3581 23.2578 62.292 23.4492 62.292 23.6543H61.0273C61.0273 23.39 61.0957 23.1279 61.2324 22.8682C61.3691 22.6084 61.5651 22.3737 61.8203 22.1641C62.0801 21.9499 62.39 21.7812 62.75 21.6582C63.1146 21.5306 63.5202 21.4668 63.9668 21.4668C64.5046 21.4668 64.9785 21.5579 65.3887 21.7402C65.8034 21.9225 66.127 22.1982 66.3594 22.5674C66.5964 22.932 66.7148 23.39 66.7148 23.9414V27.3867C66.7148 27.6328 66.7354 27.8949 66.7764 28.1729C66.8219 28.4508 66.888 28.6901 66.9746 28.8906V29H65.6553C65.5915 28.8542 65.5413 28.6605 65.5049 28.4189C65.4684 28.1729 65.4502 27.945 65.4502 27.7354ZM65.6689 24.5156L65.6826 25.4043H64.4043C64.0443 25.4043 63.723 25.4339 63.4404 25.4932C63.1579 25.5479 62.9209 25.6322 62.7295 25.7461C62.5381 25.86 62.3923 26.0036 62.292 26.1768C62.1917 26.3454 62.1416 26.5436 62.1416 26.7715C62.1416 27.0039 62.194 27.2158 62.2988 27.4072C62.4036 27.5986 62.5609 27.7513 62.7705 27.8652C62.9847 27.9746 63.2467 28.0293 63.5566 28.0293C63.944 28.0293 64.2858 27.9473 64.582 27.7832C64.8783 27.6191 65.113 27.4186 65.2861 27.1816C65.4639 26.9447 65.5596 26.7145 65.5732 26.4912L66.1133 27.0996C66.0814 27.291 65.9948 27.5029 65.8535 27.7354C65.7122 27.9678 65.5231 28.1911 65.2861 28.4053C65.0537 28.6149 64.7757 28.7904 64.4521 28.9316C64.1331 29.0684 63.7731 29.1367 63.3721 29.1367C62.8708 29.1367 62.431 29.0387 62.0527 28.8428C61.679 28.6468 61.3874 28.3848 61.1777 28.0566C60.9727 27.724 60.8701 27.3525 60.8701 26.9424C60.8701 26.5459 60.9476 26.1973 61.1025 25.8965C61.2575 25.5911 61.4808 25.3382 61.7725 25.1377C62.0641 24.9326 62.415 24.7777 62.8252 24.6729C63.2354 24.568 63.6934 24.5156 64.1992 24.5156H65.6689ZM69.9688 22.7656V29H68.7041V21.6035H69.9346L69.9688 22.7656ZM72.2793 21.5625L72.2725 22.7383C72.1676 22.7155 72.0674 22.7018 71.9717 22.6973C71.8805 22.6882 71.7757 22.6836 71.6572 22.6836C71.3656 22.6836 71.1081 22.7292 70.8848 22.8203C70.6615 22.9115 70.4723 23.0391 70.3174 23.2031C70.1624 23.3672 70.0394 23.5632 69.9482 23.791C69.8617 24.0143 69.8047 24.2604 69.7773 24.5293L69.4219 24.7344C69.4219 24.2878 69.4652 23.8685 69.5518 23.4766C69.6429 23.0846 69.7819 22.7383 69.9688 22.4375C70.1556 22.1322 70.3926 21.8952 70.6797 21.7266C70.9714 21.5534 71.3177 21.4668 71.7188 21.4668C71.8099 21.4668 71.9147 21.4782 72.0332 21.501C72.1517 21.5192 72.2337 21.5397 72.2793 21.5625ZM76.2715 28.0977C76.5723 28.0977 76.8503 28.0361 77.1055 27.9131C77.3607 27.79 77.5703 27.6214 77.7344 27.4072C77.8984 27.1885 77.9919 26.9401 78.0146 26.6621H79.2178C79.195 27.0996 79.0469 27.5075 78.7734 27.8857C78.5046 28.2594 78.1514 28.5625 77.7139 28.7949C77.2764 29.0228 76.7956 29.1367 76.2715 29.1367C75.7155 29.1367 75.2301 29.0387 74.8154 28.8428C74.4053 28.6468 74.0635 28.3779 73.79 28.0361C73.5212 27.6943 73.3184 27.3024 73.1816 26.8604C73.0495 26.4137 72.9834 25.9421 72.9834 25.4453V25.1582C72.9834 24.6615 73.0495 24.1921 73.1816 23.75C73.3184 23.3034 73.5212 22.9092 73.79 22.5674C74.0635 22.2256 74.4053 21.9567 74.8154 21.7607C75.2301 21.5648 75.7155 21.4668 76.2715 21.4668C76.8503 21.4668 77.3561 21.5853 77.7891 21.8223C78.222 22.0547 78.5615 22.3737 78.8076 22.7793C79.0583 23.1803 79.195 23.6361 79.2178 24.1465H78.0146C77.9919 23.8411 77.9053 23.5654 77.7549 23.3193C77.609 23.0732 77.4085 22.8773 77.1533 22.7314C76.9027 22.5811 76.6087 22.5059 76.2715 22.5059C75.8841 22.5059 75.5583 22.5833 75.2939 22.7383C75.0342 22.8887 74.8268 23.0938 74.6719 23.3535C74.5215 23.6087 74.4121 23.8936 74.3438 24.208C74.2799 24.5179 74.248 24.8346 74.248 25.1582V25.4453C74.248 25.7689 74.2799 26.0879 74.3438 26.4023C74.4076 26.7168 74.5146 27.0016 74.665 27.2568C74.82 27.512 75.0273 27.7171 75.2871 27.8721C75.5514 28.0225 75.8796 28.0977 76.2715 28.0977ZM85.165 27.291V21.6035H86.4365V29H85.2266L85.165 27.291ZM85.4043 25.7324L85.9307 25.7188C85.9307 26.2109 85.8783 26.6667 85.7734 27.0859C85.6732 27.5007 85.5091 27.8607 85.2812 28.166C85.0534 28.4714 84.7549 28.7106 84.3857 28.8838C84.0166 29.0524 83.5677 29.1367 83.0391 29.1367C82.679 29.1367 82.3486 29.0843 82.0479 28.9795C81.7516 28.8747 81.4964 28.7129 81.2822 28.4941C81.068 28.2754 80.9017 27.9906 80.7832 27.6396C80.6693 27.2887 80.6123 26.8672 80.6123 26.375V21.6035H81.877V26.3887C81.877 26.7214 81.9134 26.9971 81.9863 27.2158C82.0638 27.43 82.1663 27.6009 82.2939 27.7285C82.4261 27.8516 82.5719 27.9382 82.7314 27.9883C82.8955 28.0384 83.0641 28.0635 83.2373 28.0635C83.7751 28.0635 84.2012 27.9609 84.5156 27.7559C84.8301 27.5462 85.0557 27.266 85.1924 26.915C85.3337 26.5596 85.4043 26.1654 85.4043 25.7324ZM92.6709 27.0381C92.6709 26.8558 92.6299 26.6872 92.5479 26.5322C92.4704 26.3727 92.3086 26.2292 92.0625 26.1016C91.821 25.9694 91.4564 25.8555 90.9688 25.7598C90.5586 25.6732 90.1872 25.5706 89.8545 25.4521C89.5264 25.3337 89.2461 25.1901 89.0137 25.0215C88.7858 24.8529 88.6104 24.6546 88.4873 24.4268C88.3643 24.1989 88.3027 23.9323 88.3027 23.627C88.3027 23.3353 88.3665 23.0596 88.4941 22.7998C88.6263 22.54 88.8109 22.3099 89.0479 22.1094C89.2894 21.9089 89.5788 21.7516 89.916 21.6377C90.2533 21.5238 90.6292 21.4668 91.0439 21.4668C91.6364 21.4668 92.1423 21.5716 92.5615 21.7812C92.9808 21.9909 93.3021 22.2712 93.5254 22.6221C93.7487 22.9684 93.8604 23.3535 93.8604 23.7773H92.5957C92.5957 23.5723 92.5342 23.374 92.4111 23.1826C92.2926 22.9867 92.1172 22.8249 91.8848 22.6973C91.6569 22.5697 91.3766 22.5059 91.0439 22.5059C90.693 22.5059 90.4082 22.5605 90.1895 22.6699C89.9753 22.7747 89.818 22.9092 89.7178 23.0732C89.6221 23.2373 89.5742 23.4105 89.5742 23.5928C89.5742 23.7295 89.597 23.8525 89.6426 23.9619C89.6927 24.0667 89.7793 24.1647 89.9023 24.2559C90.0254 24.3424 90.1986 24.4245 90.4219 24.502C90.6452 24.5794 90.93 24.6569 91.2764 24.7344C91.8825 24.8711 92.3815 25.0352 92.7734 25.2266C93.1654 25.418 93.457 25.6527 93.6484 25.9307C93.8398 26.2087 93.9355 26.5459 93.9355 26.9424C93.9355 27.266 93.8672 27.5622 93.7305 27.8311C93.5983 28.0999 93.4046 28.3324 93.1494 28.5283C92.8988 28.7197 92.598 28.8701 92.2471 28.9795C91.9007 29.0843 91.5111 29.1367 91.0781 29.1367C90.4264 29.1367 89.875 29.0205 89.4238 28.7881C88.9727 28.5557 88.6309 28.2549 88.3984 27.8857C88.166 27.5166 88.0498 27.127 88.0498 26.7168H89.3213C89.3395 27.0632 89.4398 27.3389 89.6221 27.5439C89.8044 27.7445 90.0277 27.888 90.292 27.9746C90.5563 28.0566 90.8184 28.0977 91.0781 28.0977C91.4245 28.0977 91.7139 28.0521 91.9463 27.9609C92.1833 27.8698 92.3633 27.7445 92.4863 27.585C92.6094 27.4255 92.6709 27.2432 92.6709 27.0381ZM105.297 27.9268V29H100.32V27.9268H105.297ZM100.58 19.0469V29H99.2607V19.0469H100.58ZM109.686 29.1367C109.171 29.1367 108.703 29.0501 108.284 28.877C107.869 28.6992 107.512 28.4508 107.211 28.1318C106.915 27.8128 106.687 27.4346 106.527 26.9971C106.368 26.5596 106.288 26.0811 106.288 25.5615V25.2744C106.288 24.6729 106.377 24.1374 106.555 23.668C106.732 23.194 106.974 22.793 107.279 22.4648C107.585 22.1367 107.931 21.8883 108.318 21.7197C108.706 21.5511 109.107 21.4668 109.521 21.4668C110.05 21.4668 110.506 21.5579 110.889 21.7402C111.276 21.9225 111.593 22.1777 111.839 22.5059C112.085 22.8294 112.267 23.2122 112.386 23.6543C112.504 24.0918 112.563 24.5703 112.563 25.0898V25.6572H107.04V24.625H111.299V24.5293C111.281 24.2012 111.212 23.8822 111.094 23.5723C110.98 23.2624 110.798 23.0072 110.547 22.8066C110.296 22.6061 109.954 22.5059 109.521 22.5059C109.234 22.5059 108.97 22.5674 108.729 22.6904C108.487 22.8089 108.28 22.9867 108.106 23.2236C107.933 23.4606 107.799 23.75 107.703 24.0918C107.607 24.4336 107.56 24.8278 107.56 25.2744V25.5615C107.56 25.9124 107.607 26.2428 107.703 26.5527C107.803 26.8581 107.947 27.127 108.134 27.3594C108.325 27.5918 108.555 27.7741 108.824 27.9062C109.098 28.0384 109.408 28.1045 109.754 28.1045C110.201 28.1045 110.579 28.0133 110.889 27.8311C111.199 27.6488 111.47 27.4049 111.702 27.0996L112.468 27.708C112.308 27.9495 112.105 28.1797 111.859 28.3984C111.613 28.6172 111.31 28.7949 110.95 28.9316C110.595 29.0684 110.173 29.1367 109.686 29.1367ZM116.193 27.8584L118.217 21.6035H119.509L116.85 29H116.002L116.193 27.8584ZM114.505 21.6035L116.59 27.8926L116.733 29H115.886L113.206 21.6035H114.505ZM122.1 21.6035V29H120.828V21.6035H122.1ZM120.732 19.6416C120.732 19.4365 120.794 19.2633 120.917 19.1221C121.045 18.9808 121.231 18.9102 121.478 18.9102C121.719 18.9102 121.904 18.9808 122.031 19.1221C122.163 19.2633 122.229 19.4365 122.229 19.6416C122.229 19.8376 122.163 20.0062 122.031 20.1475C121.904 20.2842 121.719 20.3525 121.478 20.3525C121.231 20.3525 121.045 20.2842 120.917 20.1475C120.794 20.0062 120.732 19.8376 120.732 19.6416ZM125.395 23.1826V29H124.13V21.6035H125.326L125.395 23.1826ZM125.094 25.0215L124.567 25.001C124.572 24.4951 124.647 24.028 124.793 23.5996C124.939 23.1667 125.144 22.7907 125.408 22.4717C125.673 22.1527 125.987 21.9066 126.352 21.7334C126.721 21.5557 127.129 21.4668 127.575 21.4668C127.94 21.4668 128.268 21.5169 128.56 21.6172C128.851 21.7129 129.1 21.8678 129.305 22.082C129.514 22.2962 129.674 22.5742 129.783 22.916C129.893 23.2533 129.947 23.6657 129.947 24.1533V29H128.676V24.1396C128.676 23.7523 128.619 23.4424 128.505 23.21C128.391 22.973 128.225 22.8021 128.006 22.6973C127.787 22.5879 127.518 22.5332 127.199 22.5332C126.885 22.5332 126.598 22.5993 126.338 22.7314C126.083 22.8636 125.862 23.0459 125.675 23.2783C125.493 23.5107 125.349 23.7773 125.244 24.0781C125.144 24.3743 125.094 24.6888 125.094 25.0215Z" fill="white"/>
<rect x="0.15" y="8.15" width="142.7" height="31.7" rx="15.85" stroke="#AAAAAA" stroke-width="0.3"/>
</svg>
