<svg width="120" height="51" viewBox="0 0 120 51" fill="none" xmlns="http://www.w3.org/2000/svg">
<path d="M7.16406 7.83496H8.47656C8.4082 8.46387 8.22819 9.02669 7.93652 9.52344C7.64486 10.0202 7.23242 10.4144 6.69922 10.7061C6.16602 10.9932 5.50065 11.1367 4.70312 11.1367C4.11979 11.1367 3.58887 11.0273 3.11035 10.8086C2.63639 10.5898 2.22852 10.2799 1.88672 9.87891C1.54492 9.47331 1.2806 8.98796 1.09375 8.42285C0.911458 7.85319 0.820312 7.21973 0.820312 6.52246V5.53125C0.820312 4.83398 0.911458 4.2028 1.09375 3.6377C1.2806 3.06803 1.5472 2.5804 1.89355 2.1748C2.24447 1.76921 2.66602 1.45703 3.1582 1.23828C3.65039 1.01953 4.2041 0.910156 4.81934 0.910156C5.57129 0.910156 6.20703 1.05143 6.72656 1.33398C7.24609 1.61654 7.64941 2.00846 7.93652 2.50977C8.22819 3.00651 8.4082 3.58301 8.47656 4.23926H7.16406C7.10026 3.77441 6.98177 3.37565 6.80859 3.04297C6.63542 2.70573 6.38932 2.44596 6.07031 2.26367C5.7513 2.08138 5.33431 1.99023 4.81934 1.99023C4.37728 1.99023 3.98763 2.07454 3.65039 2.24316C3.31771 2.41178 3.03743 2.65104 2.80957 2.96094C2.58626 3.27083 2.41764 3.64225 2.30371 4.0752C2.18978 4.50814 2.13281 4.98893 2.13281 5.51758V6.52246C2.13281 7.01009 2.18294 7.4681 2.2832 7.89648C2.38802 8.32487 2.54525 8.70085 2.75488 9.02441C2.96452 9.34798 3.23112 9.60319 3.55469 9.79004C3.87826 9.97233 4.26107 10.0635 4.70312 10.0635C5.26367 10.0635 5.71029 9.97461 6.04297 9.79688C6.37565 9.61914 6.6263 9.36393 6.79492 9.03125C6.9681 8.69857 7.09115 8.2998 7.16406 7.83496ZM14.4443 9.73535V5.92773C14.4443 5.63607 14.3851 5.38314 14.2666 5.16895C14.1527 4.9502 13.9795 4.78158 13.7471 4.66309C13.5146 4.5446 13.2275 4.48535 12.8857 4.48535C12.5667 4.48535 12.2865 4.54004 12.0449 4.64941C11.8079 4.75879 11.6211 4.90234 11.4844 5.08008C11.3522 5.25781 11.2861 5.44922 11.2861 5.6543H10.0215C10.0215 5.38997 10.0898 5.12793 10.2266 4.86816C10.3633 4.6084 10.5592 4.3737 10.8145 4.16406C11.0742 3.94987 11.3841 3.78125 11.7441 3.6582C12.1087 3.5306 12.5143 3.4668 12.9609 3.4668C13.4987 3.4668 13.9727 3.55794 14.3828 3.74023C14.7975 3.92253 15.1211 4.19824 15.3535 4.56738C15.5905 4.93197 15.709 5.38997 15.709 5.94141V9.38672C15.709 9.63281 15.7295 9.89486 15.7705 10.1729C15.8161 10.4508 15.8822 10.6901 15.9688 10.8906V11H14.6494C14.5856 10.8542 14.5355 10.6605 14.499 10.4189C14.4626 10.1729 14.4443 9.94499 14.4443 9.73535ZM14.6631 6.51562L14.6768 7.4043H13.3984C13.0384 7.4043 12.7171 7.43392 12.4346 7.49316C12.152 7.54785 11.915 7.63216 11.7236 7.74609C11.5322 7.86003 11.3864 8.00358 11.2861 8.17676C11.1859 8.34538 11.1357 8.54362 11.1357 8.77148C11.1357 9.00391 11.1882 9.21582 11.293 9.40723C11.3978 9.59863 11.555 9.7513 11.7646 9.86523C11.9788 9.97461 12.2409 10.0293 12.5508 10.0293C12.9382 10.0293 13.2799 9.94727 13.5762 9.7832C13.8724 9.61914 14.1071 9.41862 14.2803 9.18164C14.458 8.94466 14.5537 8.71452 14.5674 8.49121L15.1074 9.09961C15.0755 9.29102 14.9889 9.50293 14.8477 9.73535C14.7064 9.96777 14.5173 10.1911 14.2803 10.4053C14.0479 10.6149 13.7699 10.7904 13.4463 10.9316C13.1273 11.0684 12.7673 11.1367 12.3662 11.1367C11.8649 11.1367 11.4251 11.0387 11.0469 10.8428C10.6732 10.6468 10.3815 10.3848 10.1719 10.0566C9.9668 9.72396 9.86426 9.35254 9.86426 8.94238C9.86426 8.5459 9.94173 8.19727 10.0967 7.89648C10.2516 7.59115 10.4749 7.33822 10.7666 7.1377C11.0583 6.93262 11.4092 6.77767 11.8193 6.67285C12.2295 6.56803 12.6875 6.51562 13.1934 6.51562H14.6631ZM18.9629 5.18262V11H17.6982V3.60352H18.8945L18.9629 5.18262ZM18.6621 7.02148L18.1357 7.00098C18.1403 6.49512 18.2155 6.02799 18.3613 5.59961C18.5072 5.16667 18.7122 4.79069 18.9766 4.47168C19.2409 4.15267 19.5553 3.90658 19.9199 3.7334C20.2891 3.55566 20.6969 3.4668 21.1436 3.4668C21.5081 3.4668 21.8363 3.51693 22.1279 3.61719C22.4196 3.71289 22.668 3.86784 22.873 4.08203C23.0827 4.29622 23.2422 4.57422 23.3516 4.91602C23.4609 5.25326 23.5156 5.66569 23.5156 6.15332V11H22.2441V6.13965C22.2441 5.75228 22.1872 5.44238 22.0732 5.20996C21.9593 4.97298 21.793 4.80208 21.5742 4.69727C21.3555 4.58789 21.0866 4.5332 20.7676 4.5332C20.4531 4.5332 20.166 4.59928 19.9062 4.73145C19.651 4.86361 19.43 5.0459 19.2432 5.27832C19.0609 5.51074 18.9173 5.77734 18.8125 6.07812C18.7122 6.37435 18.6621 6.6888 18.6621 7.02148ZM30.9873 10.2344L33.0449 3.60352H34.3984L31.4316 12.1416C31.3633 12.3239 31.2721 12.5199 31.1582 12.7295C31.0488 12.9437 30.9076 13.1465 30.7344 13.3379C30.5612 13.5293 30.3516 13.6842 30.1055 13.8027C29.8639 13.9258 29.5745 13.9873 29.2373 13.9873C29.137 13.9873 29.0094 13.9736 28.8545 13.9463C28.6995 13.9189 28.5902 13.8962 28.5264 13.8779L28.5195 12.8525C28.556 12.8571 28.613 12.8617 28.6904 12.8662C28.7725 12.8753 28.8294 12.8799 28.8613 12.8799C29.1484 12.8799 29.3923 12.8411 29.5928 12.7637C29.7933 12.6908 29.9619 12.5654 30.0986 12.3877C30.2399 12.2145 30.3607 11.9753 30.4609 11.6699L30.9873 10.2344ZM29.4766 3.60352L31.3975 9.3457L31.7256 10.6787L30.8164 11.1436L28.0957 3.60352H29.4766ZM35.0957 7.38379V7.22656C35.0957 6.69336 35.1732 6.19889 35.3281 5.74316C35.4831 5.28288 35.7064 4.88411 35.998 4.54688C36.2897 4.20508 36.6429 3.94076 37.0576 3.75391C37.4723 3.5625 37.9372 3.4668 38.4521 3.4668C38.9717 3.4668 39.4388 3.5625 39.8535 3.75391C40.2728 3.94076 40.6283 4.20508 40.9199 4.54688C41.2161 4.88411 41.4417 5.28288 41.5967 5.74316C41.7516 6.19889 41.8291 6.69336 41.8291 7.22656V7.38379C41.8291 7.91699 41.7516 8.41146 41.5967 8.86719C41.4417 9.32292 41.2161 9.72168 40.9199 10.0635C40.6283 10.4007 40.2751 10.665 39.8604 10.8564C39.4502 11.0433 38.9854 11.1367 38.4658 11.1367C37.9463 11.1367 37.4792 11.0433 37.0645 10.8564C36.6497 10.665 36.2943 10.4007 35.998 10.0635C35.7064 9.72168 35.4831 9.32292 35.3281 8.86719C35.1732 8.41146 35.0957 7.91699 35.0957 7.38379ZM36.3604 7.22656V7.38379C36.3604 7.75293 36.4036 8.10156 36.4902 8.42969C36.5768 8.75326 36.7067 9.04036 36.8799 9.29102C37.0576 9.54167 37.2786 9.73991 37.543 9.88574C37.8073 10.027 38.1149 10.0977 38.4658 10.0977C38.8122 10.0977 39.1152 10.027 39.375 9.88574C39.6393 9.73991 39.8581 9.54167 40.0312 9.29102C40.2044 9.04036 40.3343 8.75326 40.4209 8.42969C40.512 8.10156 40.5576 7.75293 40.5576 7.38379V7.22656C40.5576 6.86198 40.512 6.5179 40.4209 6.19434C40.3343 5.86621 40.2021 5.57682 40.0244 5.32617C39.8512 5.07096 39.6325 4.87044 39.3682 4.72461C39.1084 4.57878 38.8031 4.50586 38.4521 4.50586C38.1058 4.50586 37.8005 4.57878 37.5361 4.72461C37.2764 4.87044 37.0576 5.07096 36.8799 5.32617C36.7067 5.57682 36.5768 5.86621 36.4902 6.19434C36.4036 6.5179 36.3604 6.86198 36.3604 7.22656ZM47.9404 9.29102V3.60352H49.2119V11H48.002L47.9404 9.29102ZM48.1797 7.73242L48.7061 7.71875C48.7061 8.21094 48.6536 8.66667 48.5488 9.08594C48.4486 9.50065 48.2845 9.86068 48.0566 10.166C47.8288 10.4714 47.5303 10.7106 47.1611 10.8838C46.792 11.0524 46.3431 11.1367 45.8145 11.1367C45.4544 11.1367 45.124 11.0843 44.8232 10.9795C44.527 10.8747 44.2718 10.7129 44.0576 10.4941C43.8434 10.2754 43.6771 9.99056 43.5586 9.63965C43.4447 9.28874 43.3877 8.86719 43.3877 8.375V3.60352H44.6523V8.38867C44.6523 8.72135 44.6888 8.99707 44.7617 9.21582C44.8392 9.43001 44.9417 9.60091 45.0693 9.72852C45.2015 9.85156 45.3473 9.93815 45.5068 9.98828C45.6709 10.0384 45.8395 10.0635 46.0127 10.0635C46.5505 10.0635 46.9766 9.96094 47.291 9.75586C47.6055 9.54622 47.8311 9.26595 47.9678 8.91504C48.109 8.55957 48.1797 8.16536 48.1797 7.73242ZM55.877 5.02539V13.8438H54.6055V3.60352H55.7676L55.877 5.02539ZM60.8604 7.24023V7.38379C60.8604 7.92155 60.7965 8.42057 60.6689 8.88086C60.5413 9.33659 60.3545 9.73307 60.1084 10.0703C59.8669 10.4076 59.5684 10.6696 59.2129 10.8564C58.8574 11.0433 58.4495 11.1367 57.9893 11.1367C57.5199 11.1367 57.1051 11.0592 56.7451 10.9043C56.3851 10.7493 56.0798 10.5238 55.8291 10.2275C55.5785 9.93132 55.3779 9.57585 55.2275 9.16113C55.0817 8.74642 54.9814 8.2793 54.9268 7.75977V6.99414C54.9814 6.44727 55.084 5.95736 55.2344 5.52441C55.3848 5.09147 55.583 4.72233 55.8291 4.41699C56.0798 4.1071 56.3828 3.8724 56.7383 3.71289C57.0938 3.54883 57.5039 3.4668 57.9688 3.4668C58.4336 3.4668 58.846 3.55794 59.2061 3.74023C59.5661 3.91797 59.8691 4.17318 60.1152 4.50586C60.3613 4.83854 60.5459 5.2373 60.6689 5.70215C60.7965 6.16243 60.8604 6.67513 60.8604 7.24023ZM59.5889 7.38379V7.24023C59.5889 6.87109 59.5501 6.52474 59.4727 6.20117C59.3952 5.87305 59.2744 5.58594 59.1104 5.33984C58.9508 5.08919 58.7458 4.89323 58.4951 4.75195C58.2445 4.60612 57.946 4.5332 57.5996 4.5332C57.2806 4.5332 57.0026 4.58789 56.7656 4.69727C56.5332 4.80664 56.335 4.95475 56.1709 5.1416C56.0068 5.32389 55.8724 5.53353 55.7676 5.77051C55.6673 6.00293 55.5921 6.24447 55.542 6.49512V8.26562C55.6331 8.58464 55.7607 8.88542 55.9248 9.16797C56.0889 9.44596 56.3076 9.67155 56.5811 9.84473C56.8545 10.0133 57.1986 10.0977 57.6133 10.0977C57.9551 10.0977 58.249 10.027 58.4951 9.88574C58.7458 9.73991 58.9508 9.54167 59.1104 9.29102C59.2744 9.04036 59.3952 8.75326 59.4727 8.42969C59.5501 8.10156 59.5889 7.75293 59.5889 7.38379ZM63.7383 4.76562V11H62.4736V3.60352H63.7041L63.7383 4.76562ZM66.0488 3.5625L66.042 4.73828C65.9372 4.71549 65.8369 4.70182 65.7412 4.69727C65.6501 4.68815 65.5452 4.68359 65.4268 4.68359C65.1351 4.68359 64.8776 4.72917 64.6543 4.82031C64.431 4.91146 64.2419 5.03906 64.0869 5.20312C63.932 5.36719 63.8089 5.56315 63.7178 5.79102C63.6312 6.01432 63.5742 6.26042 63.5469 6.5293L63.1914 6.73438C63.1914 6.28776 63.2347 5.86849 63.3213 5.47656C63.4124 5.08464 63.5514 4.73828 63.7383 4.4375C63.9251 4.13216 64.1621 3.89518 64.4492 3.72656C64.7409 3.55339 65.0872 3.4668 65.4883 3.4668C65.5794 3.4668 65.6842 3.47819 65.8027 3.50098C65.9212 3.51921 66.0033 3.53971 66.0488 3.5625ZM66.7461 7.38379V7.22656C66.7461 6.69336 66.8236 6.19889 66.9785 5.74316C67.1335 5.28288 67.3568 4.88411 67.6484 4.54688C67.9401 4.20508 68.2933 3.94076 68.708 3.75391C69.1227 3.5625 69.5876 3.4668 70.1025 3.4668C70.6221 3.4668 71.0892 3.5625 71.5039 3.75391C71.9232 3.94076 72.2786 4.20508 72.5703 4.54688C72.8665 4.88411 73.0921 5.28288 73.2471 5.74316C73.402 6.19889 73.4795 6.69336 73.4795 7.22656V7.38379C73.4795 7.91699 73.402 8.41146 73.2471 8.86719C73.0921 9.32292 72.8665 9.72168 72.5703 10.0635C72.2786 10.4007 71.9255 10.665 71.5107 10.8564C71.1006 11.0433 70.6357 11.1367 70.1162 11.1367C69.5967 11.1367 69.1296 11.0433 68.7148 10.8564C68.3001 10.665 67.9447 10.4007 67.6484 10.0635C67.3568 9.72168 67.1335 9.32292 66.9785 8.86719C66.8236 8.41146 66.7461 7.91699 66.7461 7.38379ZM68.0107 7.22656V7.38379C68.0107 7.75293 68.054 8.10156 68.1406 8.42969C68.2272 8.75326 68.3571 9.04036 68.5303 9.29102C68.708 9.54167 68.929 9.73991 69.1934 9.88574C69.4577 10.027 69.7653 10.0977 70.1162 10.0977C70.4626 10.0977 70.7656 10.027 71.0254 9.88574C71.2897 9.73991 71.5085 9.54167 71.6816 9.29102C71.8548 9.04036 71.9847 8.75326 72.0713 8.42969C72.1624 8.10156 72.208 7.75293 72.208 7.38379V7.22656C72.208 6.86198 72.1624 6.5179 72.0713 6.19434C71.9847 5.86621 71.8525 5.57682 71.6748 5.32617C71.5016 5.07096 71.2829 4.87044 71.0186 4.72461C70.7588 4.57878 70.4535 4.50586 70.1025 4.50586C69.7562 4.50586 69.4508 4.57878 69.1865 4.72461C68.9268 4.87044 68.708 5.07096 68.5303 5.32617C68.3571 5.57682 68.2272 5.86621 68.1406 6.19434C68.054 6.5179 68.0107 6.86198 68.0107 7.22656ZM77.2051 9.8584L79.2285 3.60352H80.5205L77.8613 11H77.0137L77.2051 9.8584ZM75.5166 3.60352L77.6016 9.89258L77.7451 11H76.8975L74.2178 3.60352H75.5166ZM83.1113 3.60352V11H81.8398V3.60352H83.1113ZM81.7441 1.6416C81.7441 1.43652 81.8057 1.26335 81.9287 1.12207C82.0563 0.980794 82.2432 0.910156 82.4893 0.910156C82.7308 0.910156 82.9154 0.980794 83.043 1.12207C83.1751 1.26335 83.2412 1.43652 83.2412 1.6416C83.2412 1.83757 83.1751 2.00618 83.043 2.14746C82.9154 2.28418 82.7308 2.35254 82.4893 2.35254C82.2432 2.35254 82.0563 2.28418 81.9287 2.14746C81.8057 2.00618 81.7441 1.83757 81.7441 1.6416ZM89.8037 9.56445V0.5H91.0752V11H89.9131L89.8037 9.56445ZM84.8271 7.38379V7.24023C84.8271 6.67513 84.8955 6.16243 85.0322 5.70215C85.1735 5.2373 85.3717 4.83854 85.627 4.50586C85.8867 4.17318 86.1943 3.91797 86.5498 3.74023C86.9098 3.55794 87.3109 3.4668 87.7529 3.4668C88.2178 3.4668 88.6234 3.54883 88.9697 3.71289C89.3206 3.8724 89.6169 4.1071 89.8584 4.41699C90.1045 4.72233 90.2982 5.09147 90.4395 5.52441C90.5807 5.95736 90.6787 6.44727 90.7334 6.99414V7.62305C90.6833 8.16536 90.5853 8.65299 90.4395 9.08594C90.2982 9.51888 90.1045 9.88802 89.8584 10.1934C89.6169 10.4987 89.3206 10.7334 88.9697 10.8975C88.6188 11.057 88.2087 11.1367 87.7393 11.1367C87.3063 11.1367 86.9098 11.0433 86.5498 10.8564C86.1943 10.6696 85.8867 10.4076 85.627 10.0703C85.3717 9.73307 85.1735 9.33659 85.0322 8.88086C84.8955 8.42057 84.8271 7.92155 84.8271 7.38379ZM86.0986 7.24023V7.38379C86.0986 7.75293 86.1351 8.09928 86.208 8.42285C86.2855 8.74642 86.404 9.03125 86.5635 9.27734C86.723 9.52344 86.9258 9.71712 87.1719 9.8584C87.418 9.99512 87.7119 10.0635 88.0537 10.0635C88.473 10.0635 88.8171 9.97461 89.0859 9.79688C89.3594 9.61914 89.5781 9.38444 89.7422 9.09277C89.9062 8.80111 90.0339 8.48438 90.125 8.14258V6.49512C90.0703 6.24447 89.9906 6.00293 89.8857 5.77051C89.7855 5.53353 89.6533 5.32389 89.4893 5.1416C89.3298 4.95475 89.1315 4.80664 88.8945 4.69727C88.6621 4.58789 88.3864 4.5332 88.0674 4.5332C87.721 4.5332 87.4225 4.60612 87.1719 4.75195C86.9258 4.89323 86.723 5.08919 86.5635 5.33984C86.404 5.58594 86.2855 5.87305 86.208 6.20117C86.1351 6.52474 86.0986 6.87109 86.0986 7.24023ZM96.1133 11.1367C95.5983 11.1367 95.1312 11.0501 94.7119 10.877C94.2972 10.6992 93.9395 10.4508 93.6387 10.1318C93.3424 9.81283 93.1146 9.43457 92.9551 8.99707C92.7956 8.55957 92.7158 8.08105 92.7158 7.56152V7.27441C92.7158 6.67285 92.8047 6.13737 92.9824 5.66797C93.1602 5.19401 93.4017 4.79297 93.707 4.46484C94.0124 4.13672 94.3587 3.88835 94.7461 3.71973C95.1335 3.55111 95.5345 3.4668 95.9492 3.4668C96.4779 3.4668 96.9336 3.55794 97.3164 3.74023C97.7038 3.92253 98.0205 4.17773 98.2666 4.50586C98.5127 4.82943 98.695 5.21224 98.8135 5.6543C98.932 6.0918 98.9912 6.57031 98.9912 7.08984V7.65723H93.4678V6.625H97.7266V6.5293C97.7083 6.20117 97.64 5.88216 97.5215 5.57227C97.4076 5.26237 97.2253 5.00716 96.9746 4.80664C96.724 4.60612 96.3822 4.50586 95.9492 4.50586C95.6621 4.50586 95.3978 4.56738 95.1562 4.69043C94.9147 4.80892 94.7074 4.98665 94.5342 5.22363C94.361 5.46061 94.2266 5.75 94.1309 6.0918C94.0352 6.43359 93.9873 6.8278 93.9873 7.27441V7.56152C93.9873 7.91243 94.0352 8.24284 94.1309 8.55273C94.2311 8.85807 94.3747 9.12695 94.5615 9.35938C94.7529 9.5918 94.9831 9.77409 95.252 9.90625C95.5254 10.0384 95.8353 10.1045 96.1816 10.1045C96.6283 10.1045 97.0065 10.0133 97.3164 9.83105C97.6263 9.64876 97.8975 9.40495 98.1299 9.09961L98.8955 9.70801C98.736 9.94954 98.5332 10.1797 98.2871 10.3984C98.041 10.6172 97.738 10.7949 97.3779 10.9316C97.0225 11.0684 96.6009 11.1367 96.1133 11.1367ZM103.216 8.19727H101.944C101.949 7.75977 101.988 7.40202 102.061 7.12402C102.138 6.84147 102.263 6.58398 102.437 6.35156C102.61 6.11914 102.84 5.85482 103.127 5.55859C103.337 5.3444 103.528 5.14388 103.701 4.95703C103.879 4.76562 104.022 4.56055 104.132 4.3418C104.241 4.11849 104.296 3.85189 104.296 3.54199C104.296 3.22754 104.239 2.95638 104.125 2.72852C104.016 2.50065 103.852 2.3252 103.633 2.20215C103.419 2.0791 103.152 2.01758 102.833 2.01758C102.569 2.01758 102.318 2.06543 102.081 2.16113C101.844 2.25684 101.653 2.40495 101.507 2.60547C101.361 2.80143 101.286 3.05892 101.281 3.37793H100.017C100.026 2.86296 100.153 2.4209 100.399 2.05176C100.65 1.68262 100.987 1.40007 101.411 1.2041C101.835 1.00814 102.309 0.910156 102.833 0.910156C103.412 0.910156 103.904 1.01497 104.31 1.22461C104.72 1.43424 105.032 1.73503 105.246 2.12695C105.46 2.51432 105.567 2.97461 105.567 3.50781C105.567 3.91797 105.483 4.29622 105.314 4.64258C105.15 4.98438 104.938 5.30566 104.679 5.60645C104.419 5.90723 104.143 6.19434 103.852 6.46777C103.601 6.7002 103.432 6.96224 103.346 7.25391C103.259 7.54557 103.216 7.86003 103.216 8.19727ZM101.89 10.3643C101.89 10.1592 101.953 9.986 102.081 9.84473C102.209 9.70345 102.393 9.63281 102.635 9.63281C102.881 9.63281 103.068 9.70345 103.195 9.84473C103.323 9.986 103.387 10.1592 103.387 10.3643C103.387 10.5602 103.323 10.7288 103.195 10.8701C103.068 11.0114 102.881 11.082 102.635 11.082C102.393 11.082 102.209 11.0114 102.081 10.8701C101.953 10.7288 101.89 10.5602 101.89 10.3643ZM8.81836 45.709V46.3379C8.81836 47.0853 8.72493 47.7552 8.53809 48.3477C8.35124 48.9401 8.08236 49.4437 7.73145 49.8584C7.38053 50.2731 6.95898 50.5898 6.4668 50.8086C5.97917 51.0273 5.43229 51.1367 4.82617 51.1367C4.23828 51.1367 3.69824 51.0273 3.20605 50.8086C2.71842 50.5898 2.2946 50.2731 1.93457 49.8584C1.5791 49.4437 1.30339 48.9401 1.10742 48.3477C0.911458 47.7552 0.813477 47.0853 0.813477 46.3379V45.709C0.813477 44.9616 0.90918 44.2939 1.10059 43.7061C1.29655 43.1136 1.57227 42.61 1.92773 42.1953C2.2832 41.776 2.70475 41.457 3.19238 41.2383C3.68457 41.0195 4.22461 40.9102 4.8125 40.9102C5.41862 40.9102 5.96549 41.0195 6.45312 41.2383C6.94531 41.457 7.36686 41.776 7.71777 42.1953C8.07324 42.61 8.3444 43.1136 8.53125 43.7061C8.72266 44.2939 8.81836 44.9616 8.81836 45.709ZM7.5127 46.3379V45.6953C7.5127 45.1029 7.45117 44.5788 7.32812 44.123C7.20964 43.6673 7.03418 43.2845 6.80176 42.9746C6.56934 42.6647 6.28451 42.43 5.94727 42.2705C5.61458 42.111 5.23633 42.0312 4.8125 42.0312C4.40234 42.0312 4.03092 42.111 3.69824 42.2705C3.37012 42.43 3.08757 42.6647 2.85059 42.9746C2.61816 43.2845 2.43815 43.6673 2.31055 44.123C2.18294 44.5788 2.11914 45.1029 2.11914 45.6953V46.3379C2.11914 46.9349 2.18294 47.4635 2.31055 47.9238C2.43815 48.3796 2.62044 48.7646 2.85742 49.0791C3.09896 49.389 3.38379 49.6237 3.71191 49.7832C4.0446 49.9427 4.41602 50.0225 4.82617 50.0225C5.25456 50.0225 5.63509 49.9427 5.96777 49.7832C6.30046 49.6237 6.58073 49.389 6.80859 49.0791C7.04102 48.7646 7.21647 48.3796 7.33496 47.9238C7.45345 47.4635 7.5127 46.9349 7.5127 46.3379ZM11.8672 45.1826V51H10.6025V43.6035H11.7988L11.8672 45.1826ZM11.5664 47.0215L11.04 47.001C11.0446 46.4951 11.1198 46.028 11.2656 45.5996C11.4115 45.1667 11.6165 44.7907 11.8809 44.4717C12.1452 44.1527 12.4596 43.9066 12.8242 43.7334C13.1934 43.5557 13.6012 43.4668 14.0479 43.4668C14.4124 43.4668 14.7406 43.5169 15.0322 43.6172C15.3239 43.7129 15.5723 43.8678 15.7773 44.082C15.987 44.2962 16.1465 44.5742 16.2559 44.916C16.3652 45.2533 16.4199 45.6657 16.4199 46.1533V51H15.1484V46.1396C15.1484 45.7523 15.0915 45.4424 14.9775 45.21C14.8636 44.973 14.6973 44.8021 14.4785 44.6973C14.2598 44.5879 13.9909 44.5332 13.6719 44.5332C13.3574 44.5332 13.0703 44.5993 12.8105 44.7314C12.5553 44.8636 12.3343 45.0459 12.1475 45.2783C11.9652 45.5107 11.8216 45.7773 11.7168 46.0781C11.6165 46.3743 11.5664 46.6888 11.5664 47.0215ZM26.1816 48.0947V41.0469H27.4941V48.0947C27.4941 48.751 27.3597 49.3047 27.0908 49.7559C26.8219 50.207 26.4505 50.5511 25.9766 50.7881C25.5072 51.0205 24.9671 51.1367 24.3564 51.1367C23.7458 51.1367 23.2035 51.0319 22.7295 50.8223C22.2555 50.6126 21.8841 50.2936 21.6152 49.8652C21.3464 49.4368 21.2119 48.8968 21.2119 48.2451H22.5312C22.5312 48.6644 22.6087 49.0085 22.7637 49.2773C22.9186 49.5462 23.1328 49.7445 23.4062 49.8721C23.6842 49.9997 24.001 50.0635 24.3564 50.0635C24.7028 50.0635 25.0127 49.9906 25.2861 49.8447C25.5641 49.6943 25.7829 49.4733 25.9424 49.1816C26.1019 48.8854 26.1816 48.5231 26.1816 48.0947ZM33.8994 49.7354V45.9277C33.8994 45.6361 33.8402 45.3831 33.7217 45.1689C33.6077 44.9502 33.4346 44.7816 33.2021 44.6631C32.9697 44.5446 32.6826 44.4854 32.3408 44.4854C32.0218 44.4854 31.7415 44.54 31.5 44.6494C31.263 44.7588 31.0762 44.9023 30.9395 45.0801C30.8073 45.2578 30.7412 45.4492 30.7412 45.6543H29.4766C29.4766 45.39 29.5449 45.1279 29.6816 44.8682C29.8184 44.6084 30.0143 44.3737 30.2695 44.1641C30.5293 43.9499 30.8392 43.7812 31.1992 43.6582C31.5638 43.5306 31.9694 43.4668 32.416 43.4668C32.9538 43.4668 33.4277 43.5579 33.8379 43.7402C34.2526 43.9225 34.5762 44.1982 34.8086 44.5674C35.0456 44.932 35.1641 45.39 35.1641 45.9414V49.3867C35.1641 49.6328 35.1846 49.8949 35.2256 50.1729C35.2712 50.4508 35.3372 50.6901 35.4238 50.8906V51H34.1045C34.0407 50.8542 33.9906 50.6605 33.9541 50.4189C33.9176 50.1729 33.8994 49.945 33.8994 49.7354ZM34.1182 46.5156L34.1318 47.4043H32.8535C32.4935 47.4043 32.1722 47.4339 31.8896 47.4932C31.6071 47.5479 31.3701 47.6322 31.1787 47.7461C30.9873 47.86 30.8415 48.0036 30.7412 48.1768C30.641 48.3454 30.5908 48.5436 30.5908 48.7715C30.5908 49.0039 30.6432 49.2158 30.748 49.4072C30.8529 49.5986 31.0101 49.7513 31.2197 49.8652C31.4339 49.9746 31.696 50.0293 32.0059 50.0293C32.3932 50.0293 32.735 49.9473 33.0312 49.7832C33.3275 49.6191 33.5622 49.4186 33.7354 49.1816C33.9131 48.9447 34.0088 48.7145 34.0225 48.4912L34.5625 49.0996C34.5306 49.291 34.444 49.5029 34.3027 49.7354C34.1615 49.9678 33.9723 50.1911 33.7354 50.4053C33.5029 50.6149 33.2249 50.7904 32.9014 50.9316C32.5824 51.0684 32.2223 51.1367 31.8213 51.1367C31.32 51.1367 30.8802 51.0387 30.502 50.8428C30.1283 50.6468 29.8366 50.3848 29.627 50.0566C29.4219 49.724 29.3193 49.3525 29.3193 48.9424C29.3193 48.5459 29.3968 48.1973 29.5518 47.8965C29.7067 47.5911 29.93 47.3382 30.2217 47.1377C30.5133 46.9326 30.8643 46.7777 31.2744 46.6729C31.6846 46.568 32.1426 46.5156 32.6484 46.5156H34.1182ZM38.418 45.1826V51H37.1533V43.6035H38.3496L38.418 45.1826ZM38.1172 47.0215L37.5908 47.001C37.5954 46.4951 37.6706 46.028 37.8164 45.5996C37.9622 45.1667 38.1673 44.7907 38.4316 44.4717C38.696 44.1527 39.0104 43.9066 39.375 43.7334C39.7441 43.5557 40.152 43.4668 40.5986 43.4668C40.9632 43.4668 41.2913 43.5169 41.583 43.6172C41.8747 43.7129 42.123 43.8678 42.3281 44.082C42.5378 44.2962 42.6973 44.5742 42.8066 44.916C42.916 45.2533 42.9707 45.6657 42.9707 46.1533V51H41.6992V46.1396C41.6992 45.7523 41.6423 45.4424 41.5283 45.21C41.4144 44.973 41.248 44.8021 41.0293 44.6973C40.8105 44.5879 40.5417 44.5332 40.2227 44.5332C39.9082 44.5332 39.6211 44.5993 39.3613 44.7314C39.1061 44.8636 38.8851 45.0459 38.6982 45.2783C38.516 45.5107 38.3724 45.7773 38.2676 46.0781C38.1673 46.3743 38.1172 46.6888 38.1172 47.0215ZM49.417 49.291V43.6035H50.6885V51H49.4785L49.417 49.291ZM49.6562 47.7324L50.1826 47.7188C50.1826 48.2109 50.1302 48.6667 50.0254 49.0859C49.9251 49.5007 49.7611 49.8607 49.5332 50.166C49.3053 50.4714 49.0068 50.7106 48.6377 50.8838C48.2686 51.0524 47.8197 51.1367 47.291 51.1367C46.931 51.1367 46.6006 51.0843 46.2998 50.9795C46.0036 50.8747 45.7484 50.7129 45.5342 50.4941C45.32 50.2754 45.1536 49.9906 45.0352 49.6396C44.9212 49.2887 44.8643 48.8672 44.8643 48.375V43.6035H46.1289V48.3887C46.1289 48.7214 46.1654 48.9971 46.2383 49.2158C46.3158 49.43 46.4183 49.6009 46.5459 49.7285C46.6781 49.8516 46.8239 49.9382 46.9834 49.9883C47.1475 50.0384 47.3161 50.0635 47.4893 50.0635C48.027 50.0635 48.4531 49.9609 48.7676 49.7559C49.082 49.5462 49.3076 49.266 49.4443 48.915C49.5856 48.5596 49.6562 48.1654 49.6562 47.7324ZM56.9775 49.7354V45.9277C56.9775 45.6361 56.9183 45.3831 56.7998 45.1689C56.6859 44.9502 56.5127 44.7816 56.2803 44.6631C56.0479 44.5446 55.7607 44.4854 55.4189 44.4854C55.0999 44.4854 54.8197 44.54 54.5781 44.6494C54.3411 44.7588 54.1543 44.9023 54.0176 45.0801C53.8854 45.2578 53.8193 45.4492 53.8193 45.6543H52.5547C52.5547 45.39 52.623 45.1279 52.7598 44.8682C52.8965 44.6084 53.0924 44.3737 53.3477 44.1641C53.6074 43.9499 53.9173 43.7812 54.2773 43.6582C54.6419 43.5306 55.0475 43.4668 55.4941 43.4668C56.0319 43.4668 56.5059 43.5579 56.916 43.7402C57.3307 43.9225 57.6543 44.1982 57.8867 44.5674C58.1237 44.932 58.2422 45.39 58.2422 45.9414V49.3867C58.2422 49.6328 58.2627 49.8949 58.3037 50.1729C58.3493 50.4508 58.4154 50.6901 58.502 50.8906V51H57.1826C57.1188 50.8542 57.0687 50.6605 57.0322 50.4189C56.9958 50.1729 56.9775 49.945 56.9775 49.7354ZM57.1963 46.5156L57.21 47.4043H55.9316C55.5716 47.4043 55.2503 47.4339 54.9678 47.4932C54.6852 47.5479 54.4482 47.6322 54.2568 47.7461C54.0654 47.86 53.9196 48.0036 53.8193 48.1768C53.7191 48.3454 53.6689 48.5436 53.6689 48.7715C53.6689 49.0039 53.7214 49.2158 53.8262 49.4072C53.931 49.5986 54.0882 49.7513 54.2979 49.8652C54.512 49.9746 54.7741 50.0293 55.084 50.0293C55.4714 50.0293 55.8132 49.9473 56.1094 49.7832C56.4056 49.6191 56.6403 49.4186 56.8135 49.1816C56.9912 48.9447 57.0869 48.7145 57.1006 48.4912L57.6406 49.0996C57.6087 49.291 57.5221 49.5029 57.3809 49.7354C57.2396 49.9678 57.0505 50.1911 56.8135 50.4053C56.5811 50.6149 56.3031 50.7904 55.9795 50.9316C55.6605 51.0684 55.3005 51.1367 54.8994 51.1367C54.3981 51.1367 53.9583 51.0387 53.5801 50.8428C53.2064 50.6468 52.9147 50.3848 52.7051 50.0566C52.5 49.724 52.3975 49.3525 52.3975 48.9424C52.3975 48.5459 52.4749 48.1973 52.6299 47.8965C52.7848 47.5911 53.0081 47.3382 53.2998 47.1377C53.5915 46.9326 53.9424 46.7777 54.3525 46.6729C54.7627 46.568 55.2207 46.5156 55.7266 46.5156H57.1963ZM61.4961 44.7656V51H60.2314V43.6035H61.4619L61.4961 44.7656ZM63.8066 43.5625L63.7998 44.7383C63.695 44.7155 63.5947 44.7018 63.499 44.6973C63.4079 44.6882 63.3031 44.6836 63.1846 44.6836C62.8929 44.6836 62.6354 44.7292 62.4121 44.8203C62.1888 44.9115 61.9997 45.0391 61.8447 45.2031C61.6898 45.3672 61.5667 45.5632 61.4756 45.791C61.389 46.0143 61.332 46.2604 61.3047 46.5293L60.9492 46.7344C60.9492 46.2878 60.9925 45.8685 61.0791 45.4766C61.1702 45.0846 61.3092 44.7383 61.4961 44.4375C61.6829 44.1322 61.9199 43.8952 62.207 43.7266C62.4987 43.5534 62.8451 43.4668 63.2461 43.4668C63.3372 43.4668 63.4421 43.4782 63.5605 43.501C63.679 43.5192 63.7611 43.5397 63.8066 43.5625ZM67.1768 50.2344L69.2344 43.6035H70.5879L67.6211 52.1416C67.5527 52.3239 67.4616 52.5199 67.3477 52.7295C67.2383 52.9437 67.097 53.1465 66.9238 53.3379C66.7507 53.5293 66.541 53.6842 66.2949 53.8027C66.0534 53.9258 65.764 53.9873 65.4268 53.9873C65.3265 53.9873 65.1989 53.9736 65.0439 53.9463C64.889 53.9189 64.7796 53.8962 64.7158 53.8779L64.709 52.8525C64.7454 52.8571 64.8024 52.8617 64.8799 52.8662C64.9619 52.8753 65.0189 52.8799 65.0508 52.8799C65.3379 52.8799 65.5817 52.8411 65.7822 52.7637C65.9827 52.6908 66.1514 52.5654 66.2881 52.3877C66.4294 52.2145 66.5501 51.9753 66.6504 51.6699L67.1768 50.2344ZM65.666 43.6035L67.5869 49.3457L67.915 50.6787L67.0059 51.1436L64.2852 43.6035H65.666ZM81.5869 49.9609V51H75.0723V50.0908L78.333 46.4609C78.734 46.0143 79.0439 45.6361 79.2627 45.3262C79.486 45.0117 79.641 44.7314 79.7275 44.4854C79.8187 44.2347 79.8643 43.9795 79.8643 43.7197C79.8643 43.3916 79.7959 43.0954 79.6592 42.8311C79.527 42.5622 79.3311 42.348 79.0713 42.1885C78.8115 42.029 78.4971 41.9492 78.1279 41.9492C77.6859 41.9492 77.3167 42.0358 77.0205 42.209C76.7288 42.3776 76.5101 42.6146 76.3643 42.9199C76.2184 43.2253 76.1455 43.5762 76.1455 43.9727H74.8809C74.8809 43.4121 75.0039 42.8994 75.25 42.4346C75.4961 41.9697 75.8607 41.6006 76.3438 41.3271C76.8268 41.0492 77.4215 40.9102 78.1279 40.9102C78.7568 40.9102 79.2946 41.0218 79.7412 41.2451C80.1878 41.4639 80.5296 41.7738 80.7666 42.1748C81.0081 42.5713 81.1289 43.0361 81.1289 43.5693C81.1289 43.861 81.0788 44.1572 80.9785 44.458C80.8828 44.7542 80.7484 45.0505 80.5752 45.3467C80.4066 45.6429 80.2083 45.9346 79.9805 46.2217C79.7572 46.5088 79.5179 46.7913 79.2627 47.0693L76.5967 49.9609H81.5869ZM84.2256 49.4961V50.5146C84.2256 50.9294 84.1208 51.3669 83.9111 51.8271C83.7015 52.292 83.4076 52.6794 83.0293 52.9893L82.3115 52.4902C82.4574 52.2897 82.5804 52.0846 82.6807 51.875C82.7809 51.6699 82.8561 51.4557 82.9062 51.2324C82.9609 51.0137 82.9883 50.7812 82.9883 50.5352V49.4961H84.2256ZM95.6963 49.9609V51H89.1816V50.0908L92.4424 46.4609C92.8434 46.0143 93.1533 45.6361 93.3721 45.3262C93.5954 45.0117 93.7503 44.7314 93.8369 44.4854C93.9281 44.2347 93.9736 43.9795 93.9736 43.7197C93.9736 43.3916 93.9053 43.0954 93.7686 42.8311C93.6364 42.5622 93.4404 42.348 93.1807 42.1885C92.9209 42.029 92.6064 41.9492 92.2373 41.9492C91.7952 41.9492 91.4261 42.0358 91.1299 42.209C90.8382 42.3776 90.6195 42.6146 90.4736 42.9199C90.3278 43.2253 90.2549 43.5762 90.2549 43.9727H88.9902C88.9902 43.4121 89.1133 42.8994 89.3594 42.4346C89.6055 41.9697 89.9701 41.6006 90.4531 41.3271C90.9362 41.0492 91.5309 40.9102 92.2373 40.9102C92.8662 40.9102 93.404 41.0218 93.8506 41.2451C94.2972 41.4639 94.639 41.7738 94.876 42.1748C95.1175 42.5713 95.2383 43.0361 95.2383 43.5693C95.2383 43.861 95.1882 44.1572 95.0879 44.458C94.9922 44.7542 94.8577 45.0505 94.6846 45.3467C94.516 45.6429 94.3177 45.9346 94.0898 46.2217C93.8665 46.5088 93.6273 46.7913 93.3721 47.0693L90.7061 49.9609H95.6963ZM103.298 45.2305V46.748C103.298 47.5638 103.225 48.252 103.079 48.8125C102.933 49.373 102.724 49.8242 102.45 50.166C102.177 50.5078 101.846 50.7562 101.459 50.9111C101.076 51.0615 100.643 51.1367 100.16 51.1367C99.7773 51.1367 99.4242 51.0889 99.1006 50.9932C98.777 50.8975 98.4854 50.7448 98.2256 50.5352C97.9704 50.321 97.7516 50.043 97.5693 49.7012C97.387 49.3594 97.248 48.9447 97.1523 48.457C97.0566 47.9694 97.0088 47.3997 97.0088 46.748V45.2305C97.0088 44.4147 97.0817 43.7311 97.2275 43.1797C97.3779 42.6283 97.5898 42.1862 97.8633 41.8535C98.1367 41.5163 98.4648 41.2747 98.8477 41.1289C99.235 40.9831 99.668 40.9102 100.146 40.9102C100.534 40.9102 100.889 40.958 101.213 41.0537C101.541 41.1449 101.833 41.293 102.088 41.498C102.343 41.6986 102.56 41.9674 102.737 42.3047C102.92 42.6374 103.059 43.0452 103.154 43.5283C103.25 44.0114 103.298 44.5788 103.298 45.2305ZM102.026 46.9531V45.0186C102.026 44.5719 101.999 44.18 101.944 43.8428C101.894 43.501 101.819 43.2093 101.719 42.9678C101.618 42.7262 101.491 42.5303 101.336 42.3799C101.186 42.2295 101.01 42.1201 100.81 42.0518C100.614 41.9788 100.393 41.9424 100.146 41.9424C99.8457 41.9424 99.5791 41.9993 99.3467 42.1133C99.1143 42.2227 98.9183 42.3981 98.7588 42.6396C98.6038 42.8812 98.4854 43.1979 98.4033 43.5898C98.3213 43.9818 98.2803 44.458 98.2803 45.0186V46.9531C98.2803 47.3997 98.3053 47.7939 98.3555 48.1357C98.4102 48.4775 98.4899 48.7738 98.5947 49.0244C98.6995 49.2705 98.8271 49.4733 98.9775 49.6328C99.1279 49.7923 99.3011 49.9108 99.4971 49.9883C99.6976 50.0612 99.9186 50.0977 100.16 50.0977C100.47 50.0977 100.741 50.0384 100.974 49.9199C101.206 49.8014 101.4 49.6169 101.555 49.3662C101.714 49.111 101.833 48.7852 101.91 48.3887C101.988 47.9876 102.026 47.5091 102.026 46.9531ZM111.446 49.9609V51H104.932V50.0908L108.192 46.4609C108.593 46.0143 108.903 45.6361 109.122 45.3262C109.345 45.0117 109.5 44.7314 109.587 44.4854C109.678 44.2347 109.724 43.9795 109.724 43.7197C109.724 43.3916 109.655 43.0954 109.519 42.8311C109.386 42.5622 109.19 42.348 108.931 42.1885C108.671 42.029 108.356 41.9492 107.987 41.9492C107.545 41.9492 107.176 42.0358 106.88 42.209C106.588 42.3776 106.369 42.6146 106.224 42.9199C106.078 43.2253 106.005 43.5762 106.005 43.9727H104.74C104.74 43.4121 104.863 42.8994 105.109 42.4346C105.355 41.9697 105.72 41.6006 106.203 41.3271C106.686 41.0492 107.281 40.9102 107.987 40.9102C108.616 40.9102 109.154 41.0218 109.601 41.2451C110.047 41.4639 110.389 41.7738 110.626 42.1748C110.868 42.5713 110.988 43.0361 110.988 43.5693C110.988 43.861 110.938 44.1572 110.838 44.458C110.742 44.7542 110.608 45.0505 110.435 45.3467C110.266 45.6429 110.068 45.9346 109.84 46.2217C109.617 46.5088 109.377 46.7913 109.122 47.0693L106.456 49.9609H111.446ZM119.321 49.9609V51H112.807V50.0908L116.067 46.4609C116.468 46.0143 116.778 45.6361 116.997 45.3262C117.22 45.0117 117.375 44.7314 117.462 44.4854C117.553 44.2347 117.599 43.9795 117.599 43.7197C117.599 43.3916 117.53 43.0954 117.394 42.8311C117.261 42.5622 117.065 42.348 116.806 42.1885C116.546 42.029 116.231 41.9492 115.862 41.9492C115.42 41.9492 115.051 42.0358 114.755 42.209C114.463 42.3776 114.244 42.6146 114.099 42.9199C113.953 43.2253 113.88 43.5762 113.88 43.9727H112.615C112.615 43.4121 112.738 42.8994 112.984 42.4346C113.23 41.9697 113.595 41.6006 114.078 41.3271C114.561 41.0492 115.156 40.9102 115.862 40.9102C116.491 40.9102 117.029 41.0218 117.476 41.2451C117.922 41.4639 118.264 41.7738 118.501 42.1748C118.743 42.5713 118.863 43.0361 118.863 43.5693C118.863 43.861 118.813 44.1572 118.713 44.458C118.617 44.7542 118.483 45.0505 118.31 45.3467C118.141 45.6429 117.943 45.9346 117.715 46.2217C117.492 46.5088 117.252 46.7913 116.997 47.0693L114.331 49.9609H119.321Z" fill="white"/>
</svg>
