<svg width="544" height="22" viewBox="0 0 544 22" fill="none" xmlns="http://www.w3.org/2000/svg">
<path d="M4.58301 6.33838L2.06934 14H0.0444336L3.47852 4.75781H4.76709L4.58301 6.33838ZM6.67139 14L4.15137 6.33838L3.94824 4.75781H5.24951L8.70264 14H6.67139ZM6.55713 10.5596V12.0513H1.67578V10.5596H6.55713ZM11.375 4.25V14H9.54053V4.25H11.375ZM16.5928 12.4512V9.3916C16.5928 9.17155 16.5568 8.98324 16.4849 8.82666C16.4129 8.66585 16.3008 8.54102 16.1484 8.45215C16.0003 8.36328 15.8078 8.31885 15.5708 8.31885C15.3677 8.31885 15.1921 8.35482 15.0439 8.42676C14.8958 8.49447 14.7816 8.59391 14.7012 8.7251C14.6208 8.85205 14.5806 9.00228 14.5806 9.17578H12.7524C12.7524 8.88379 12.8201 8.60661 12.9556 8.34424C13.091 8.08187 13.2878 7.85124 13.5459 7.65234C13.804 7.44922 14.1108 7.29053 14.4663 7.17627C14.826 7.06201 15.228 7.00488 15.6724 7.00488C16.2056 7.00488 16.6795 7.09375 17.0942 7.27148C17.509 7.44922 17.8348 7.71582 18.0718 8.07129C18.313 8.42676 18.4336 8.87109 18.4336 9.4043V12.3433C18.4336 12.7199 18.4569 13.0288 18.5034 13.27C18.55 13.507 18.6177 13.7144 18.7065 13.8921V14H16.8594C16.7705 13.8138 16.7028 13.5811 16.6562 13.3018C16.6139 13.0182 16.5928 12.7347 16.5928 12.4512ZM16.834 9.81689L16.8467 10.8516H15.8247C15.5835 10.8516 15.374 10.8791 15.1963 10.9341C15.0186 10.9891 14.8726 11.0674 14.7583 11.1689C14.644 11.2663 14.5594 11.3805 14.5044 11.5117C14.4536 11.6429 14.4282 11.7868 14.4282 11.9434C14.4282 12.0999 14.4642 12.2417 14.5361 12.3687C14.6081 12.4914 14.7118 12.5887 14.8472 12.6606C14.9826 12.7284 15.1413 12.7622 15.3232 12.7622C15.5983 12.7622 15.8374 12.7072 16.0405 12.5972C16.2437 12.4871 16.4002 12.3517 16.5103 12.1909C16.6245 12.0301 16.6838 11.8778 16.688 11.7339L17.1704 12.5083C17.1027 12.6818 17.0096 12.8617 16.8911 13.0479C16.7769 13.234 16.6309 13.4097 16.4531 13.5747C16.2754 13.7355 16.0617 13.8688 15.812 13.9746C15.5623 14.0762 15.2661 14.127 14.9233 14.127C14.4875 14.127 14.0918 14.0402 13.7363 13.8667C13.3851 13.689 13.1058 13.4456 12.8984 13.1367C12.6953 12.8236 12.5938 12.4681 12.5938 12.0703C12.5938 11.7106 12.6615 11.3911 12.7969 11.1118C12.9323 10.8325 13.1312 10.5977 13.3936 10.4072C13.6602 10.2126 13.9924 10.0666 14.3901 9.96924C14.7879 9.86768 15.2492 9.81689 15.7739 9.81689H16.834ZM21.6328 8.59814V14H19.8047V7.13184H21.5186L21.6328 8.59814ZM21.3662 10.3247H20.8711C20.8711 9.81689 20.9367 9.35986 21.0679 8.95361C21.1991 8.54313 21.3831 8.19401 21.6201 7.90625C21.8571 7.61426 22.1385 7.39209 22.4644 7.23975C22.7944 7.08317 23.1626 7.00488 23.5688 7.00488C23.8905 7.00488 24.1846 7.05143 24.4512 7.14453C24.7178 7.23763 24.9463 7.38574 25.1367 7.58887C25.3314 7.79199 25.4795 8.06071 25.5811 8.39502C25.6868 8.72933 25.7397 9.1377 25.7397 9.62012V14H23.8989V9.61377C23.8989 9.30908 23.8566 9.0721 23.772 8.90283C23.6873 8.73356 23.5625 8.61507 23.3975 8.54736C23.2367 8.47542 23.0378 8.43945 22.8008 8.43945C22.5553 8.43945 22.3416 8.48812 22.1597 8.58545C21.9819 8.68278 21.8338 8.8182 21.7153 8.9917C21.6011 9.16097 21.5143 9.35986 21.4551 9.58838C21.3958 9.81689 21.3662 10.0623 21.3662 10.3247ZM35.8389 10.9341H37.7368C37.6987 11.5562 37.5273 12.1084 37.2227 12.5908C36.9222 13.0732 36.5011 13.4499 35.9595 13.7207C35.422 13.9915 34.7746 14.127 34.0171 14.127C33.4246 14.127 32.8936 14.0254 32.4238 13.8223C31.9541 13.6149 31.5521 13.3187 31.2178 12.9336C30.8877 12.5485 30.6359 12.083 30.4624 11.5371C30.2889 10.9912 30.2021 10.3797 30.2021 9.70264V9.06152C30.2021 8.38444 30.291 7.77295 30.4688 7.22705C30.6507 6.67692 30.9089 6.20931 31.2432 5.82422C31.5817 5.43913 31.9858 5.1429 32.4556 4.93555C32.9253 4.72819 33.45 4.62451 34.0298 4.62451C34.8 4.62451 35.4495 4.76416 35.9785 5.04346C36.5117 5.32275 36.9243 5.70785 37.2163 6.19873C37.5125 6.68962 37.6903 7.24821 37.7495 7.87451H35.8452C35.8241 7.50212 35.75 7.18685 35.623 6.92871C35.4961 6.66634 35.3035 6.46956 35.0454 6.33838C34.7915 6.20296 34.453 6.13525 34.0298 6.13525C33.7124 6.13525 33.4352 6.1945 33.1982 6.31299C32.9613 6.43148 32.7624 6.61133 32.6016 6.85254C32.4408 7.09375 32.3201 7.39844 32.2397 7.7666C32.1636 8.13053 32.1255 8.55794 32.1255 9.04883V9.70264C32.1255 10.1808 32.1615 10.6019 32.2334 10.9658C32.3053 11.3255 32.4154 11.6302 32.5635 11.8799C32.7158 12.1253 32.9105 12.3115 33.1475 12.4385C33.3887 12.5612 33.6785 12.6226 34.0171 12.6226C34.4149 12.6226 34.7428 12.5591 35.001 12.4321C35.2591 12.3052 35.4559 12.1169 35.5913 11.8672C35.731 11.6175 35.8135 11.3065 35.8389 10.9341ZM38.5811 10.6357V10.5024C38.5811 9.99886 38.653 9.53548 38.7969 9.1123C38.9408 8.6849 39.1502 8.31462 39.4253 8.00146C39.7004 7.68831 40.0389 7.44499 40.4409 7.27148C40.8429 7.09375 41.3042 7.00488 41.8247 7.00488C42.3452 7.00488 42.8086 7.09375 43.2148 7.27148C43.6211 7.44499 43.9618 7.68831 44.2368 8.00146C44.5161 8.31462 44.7277 8.6849 44.8716 9.1123C45.0155 9.53548 45.0874 9.99886 45.0874 10.5024V10.6357C45.0874 11.1351 45.0155 11.5985 44.8716 12.0259C44.7277 12.4491 44.5161 12.8193 44.2368 13.1367C43.9618 13.4499 43.6232 13.6932 43.2212 13.8667C42.8192 14.0402 42.3579 14.127 41.8374 14.127C41.3169 14.127 40.8535 14.0402 40.4473 13.8667C40.0452 13.6932 39.7046 13.4499 39.4253 13.1367C39.1502 12.8193 38.9408 12.4491 38.7969 12.0259C38.653 11.5985 38.5811 11.1351 38.5811 10.6357ZM40.4092 10.5024V10.6357C40.4092 10.9235 40.4346 11.1922 40.4854 11.4419C40.5361 11.6916 40.6165 11.9116 40.7266 12.1021C40.8408 12.2882 40.9889 12.4342 41.1709 12.54C41.3529 12.6458 41.575 12.6987 41.8374 12.6987C42.0913 12.6987 42.3092 12.6458 42.4912 12.54C42.6732 12.4342 42.8192 12.2882 42.9292 12.1021C43.0392 11.9116 43.1196 11.6916 43.1704 11.4419C43.2254 11.1922 43.2529 10.9235 43.2529 10.6357V10.5024C43.2529 10.2231 43.2254 9.96077 43.1704 9.71533C43.1196 9.46566 43.0371 9.24561 42.9229 9.05518C42.8128 8.86051 42.6668 8.70817 42.4849 8.59814C42.3029 8.48812 42.0828 8.43311 41.8247 8.43311C41.5666 8.43311 41.3465 8.48812 41.1646 8.59814C40.9868 8.70817 40.8408 8.86051 40.7266 9.05518C40.6165 9.24561 40.5361 9.46566 40.4854 9.71533C40.4346 9.96077 40.4092 10.2231 40.4092 10.5024ZM45.9189 10.6357V10.5024C45.9189 9.99886 45.9909 9.53548 46.1348 9.1123C46.2786 8.6849 46.4881 8.31462 46.7632 8.00146C47.0382 7.68831 47.3768 7.44499 47.7788 7.27148C48.1808 7.09375 48.6421 7.00488 49.1626 7.00488C49.6831 7.00488 50.1465 7.09375 50.5527 7.27148C50.959 7.44499 51.2996 7.68831 51.5747 8.00146C51.854 8.31462 52.0656 8.6849 52.2095 9.1123C52.3534 9.53548 52.4253 9.99886 52.4253 10.5024V10.6357C52.4253 11.1351 52.3534 11.5985 52.2095 12.0259C52.0656 12.4491 51.854 12.8193 51.5747 13.1367C51.2996 13.4499 50.9611 13.6932 50.5591 13.8667C50.1571 14.0402 49.6958 14.127 49.1753 14.127C48.6548 14.127 48.1914 14.0402 47.7852 13.8667C47.3831 13.6932 47.0425 13.4499 46.7632 13.1367C46.4881 12.8193 46.2786 12.4491 46.1348 12.0259C45.9909 11.5985 45.9189 11.1351 45.9189 10.6357ZM47.7471 10.5024V10.6357C47.7471 10.9235 47.7725 11.1922 47.8232 11.4419C47.874 11.6916 47.9544 11.9116 48.0645 12.1021C48.1787 12.2882 48.3268 12.4342 48.5088 12.54C48.6908 12.6458 48.9129 12.6987 49.1753 12.6987C49.4292 12.6987 49.6471 12.6458 49.8291 12.54C50.0111 12.4342 50.1571 12.2882 50.2671 12.1021C50.3771 11.9116 50.4575 11.6916 50.5083 11.4419C50.5633 11.1922 50.5908 10.9235 50.5908 10.6357V10.5024C50.5908 10.2231 50.5633 9.96077 50.5083 9.71533C50.4575 9.46566 50.375 9.24561 50.2607 9.05518C50.1507 8.86051 50.0047 8.70817 49.8228 8.59814C49.6408 8.48812 49.4207 8.43311 49.1626 8.43311C48.9045 8.43311 48.6844 8.48812 48.5024 8.59814C48.3247 8.70817 48.1787 8.86051 48.0645 9.05518C47.9544 9.24561 47.874 9.46566 47.8232 9.71533C47.7725 9.96077 47.7471 10.2231 47.7471 10.5024ZM55.377 8.45215V16.6406H53.5488V7.13184H55.2437L55.377 8.45215ZM59.7251 10.4897V10.623C59.7251 11.1224 59.6659 11.5858 59.5474 12.0132C59.4331 12.4406 59.2638 12.813 59.0396 13.1304C58.8153 13.4435 58.536 13.689 58.2017 13.8667C57.8716 14.0402 57.4907 14.127 57.0591 14.127C56.6401 14.127 56.2762 14.0423 55.9673 13.873C55.6584 13.7038 55.3981 13.4668 55.1865 13.1621C54.9792 12.8532 54.812 12.4956 54.6851 12.0894C54.5581 11.6831 54.4608 11.2472 54.3931 10.7817V10.4326C54.4608 9.93327 54.5581 9.47624 54.6851 9.06152C54.812 8.64258 54.9792 8.28076 55.1865 7.97607C55.3981 7.66715 55.6562 7.42806 55.9609 7.25879C56.2699 7.08952 56.6317 7.00488 57.0464 7.00488C57.4823 7.00488 57.8652 7.0874 58.1953 7.25244C58.5296 7.41748 58.8089 7.65446 59.0332 7.96338C59.2617 8.2723 59.4331 8.64046 59.5474 9.06787C59.6659 9.49528 59.7251 9.96924 59.7251 10.4897ZM57.8906 10.623V10.4897C57.8906 10.1978 57.8652 9.92904 57.8145 9.68359C57.7679 9.43392 57.6917 9.21598 57.5859 9.02979C57.4844 8.84359 57.349 8.69971 57.1797 8.59814C57.0146 8.49235 56.8136 8.43945 56.5767 8.43945C56.327 8.43945 56.1133 8.47965 55.9355 8.56006C55.762 8.64046 55.6203 8.75684 55.5103 8.90918C55.4002 9.06152 55.3177 9.24349 55.2627 9.45508C55.2077 9.66667 55.1738 9.90576 55.1611 10.1724V11.0547C55.1823 11.3678 55.2415 11.6493 55.3389 11.8989C55.4362 12.1444 55.5864 12.339 55.7896 12.4829C55.9927 12.6268 56.2593 12.6987 56.5894 12.6987C56.8306 12.6987 57.0337 12.6458 57.1987 12.54C57.3638 12.43 57.4971 12.2798 57.5986 12.0894C57.7044 11.8989 57.7785 11.6789 57.8208 11.4292C57.8674 11.1795 57.8906 10.9108 57.8906 10.623ZM64.0225 14.127C63.4893 14.127 63.0111 14.0423 62.5879 13.873C62.1647 13.6995 61.805 13.4604 61.5088 13.1558C61.2168 12.8511 60.9925 12.4977 60.8359 12.0957C60.6794 11.6895 60.6011 11.2578 60.6011 10.8008V10.5469C60.6011 10.0264 60.6751 9.55029 60.8232 9.11865C60.9714 8.68701 61.1829 8.3125 61.458 7.99512C61.7373 7.67773 62.0758 7.43441 62.4736 7.26514C62.8714 7.09163 63.32 7.00488 63.8193 7.00488C64.306 7.00488 64.7376 7.08529 65.1143 7.24609C65.4909 7.4069 65.8062 7.63542 66.0601 7.93164C66.3182 8.22786 66.5129 8.58333 66.644 8.99805C66.7752 9.40853 66.8408 9.86556 66.8408 10.3691V11.1309H61.3818V9.91211H65.0444V9.77246C65.0444 9.51855 64.9979 9.29215 64.9048 9.09326C64.8159 8.89014 64.6805 8.72933 64.4985 8.61084C64.3166 8.49235 64.0838 8.43311 63.8003 8.43311C63.5591 8.43311 63.3517 8.486 63.1782 8.5918C63.0047 8.69759 62.863 8.8457 62.7529 9.03613C62.6471 9.22656 62.5667 9.45085 62.5117 9.70898C62.4609 9.96289 62.4355 10.2422 62.4355 10.5469V10.8008C62.4355 11.0758 62.4736 11.3298 62.5498 11.5625C62.6302 11.7952 62.7424 11.9963 62.8862 12.1655C63.0343 12.3348 63.2121 12.466 63.4194 12.5591C63.631 12.6522 63.8701 12.6987 64.1367 12.6987C64.4668 12.6987 64.7736 12.6353 65.0571 12.5083C65.3449 12.3771 65.5924 12.1803 65.7998 11.918L66.6885 12.8828C66.5446 13.0902 66.3478 13.2891 66.0981 13.4795C65.8527 13.6699 65.5565 13.8265 65.2095 13.9492C64.8625 14.0677 64.4668 14.127 64.0225 14.127ZM69.71 8.62988V14H67.8818V7.13184H69.6021L69.71 8.62988ZM71.7793 7.0874L71.7476 8.78223C71.6587 8.76953 71.5508 8.75895 71.4238 8.75049C71.3011 8.73779 71.189 8.73145 71.0874 8.73145C70.8293 8.73145 70.605 8.7653 70.4146 8.83301C70.2284 8.89648 70.0718 8.9917 69.9448 9.11865C69.8221 9.24561 69.729 9.40007 69.6655 9.58203C69.6063 9.764 69.5724 9.97135 69.564 10.2041L69.1958 10.0898C69.1958 9.64551 69.2402 9.23714 69.3291 8.86475C69.418 8.48812 69.547 8.16016 69.7163 7.88086C69.8898 7.60156 70.1014 7.38574 70.3511 7.2334C70.6007 7.08105 70.8864 7.00488 71.208 7.00488C71.3096 7.00488 71.4132 7.01335 71.519 7.03027C71.6248 7.04297 71.7116 7.06201 71.7793 7.0874Z" fill="white"/>
<path d="M81.4512 11.1289V12.0195H75.2871V11.3809L79.1074 5.46875H79.9922L79.043 7.17969L76.5176 11.1289H81.4512ZM80.2617 5.46875V14H79.1777V5.46875H80.2617ZM89.5254 12.7695V5H90.6152V14H89.6191L89.5254 12.7695ZM85.2598 10.9004V10.7773C85.2598 10.293 85.3184 9.85352 85.4355 9.45898C85.5566 9.06055 85.7266 8.71875 85.9453 8.43359C86.168 8.14844 86.4316 7.92969 86.7363 7.77734C87.0449 7.62109 87.3887 7.54297 87.7676 7.54297C88.166 7.54297 88.5137 7.61328 88.8105 7.75391C89.1113 7.89062 89.3652 8.0918 89.5723 8.35742C89.7832 8.61914 89.9492 8.93555 90.0703 9.30664C90.1914 9.67773 90.2754 10.0977 90.3223 10.5664V11.1055C90.2793 11.5703 90.1953 11.9883 90.0703 12.3594C89.9492 12.7305 89.7832 13.0469 89.5723 13.3086C89.3652 13.5703 89.1113 13.7715 88.8105 13.9121C88.5098 14.0488 88.1582 14.1172 87.7559 14.1172C87.3848 14.1172 87.0449 14.0371 86.7363 13.877C86.4316 13.7168 86.168 13.4922 85.9453 13.2031C85.7266 12.9141 85.5566 12.5742 85.4355 12.1836C85.3184 11.7891 85.2598 11.3613 85.2598 10.9004ZM86.3496 10.7773V10.9004C86.3496 11.2168 86.3809 11.5137 86.4434 11.791C86.5098 12.0684 86.6113 12.3125 86.748 12.5234C86.8848 12.7344 87.0586 12.9004 87.2695 13.0215C87.4805 13.1387 87.7324 13.1973 88.0254 13.1973C88.3848 13.1973 88.6797 13.1211 88.9102 12.9688C89.1445 12.8164 89.332 12.6152 89.4727 12.3652C89.6133 12.1152 89.7227 11.8438 89.8008 11.5508V10.1387C89.7539 9.92383 89.6855 9.7168 89.5957 9.51758C89.5098 9.31445 89.3965 9.13477 89.2559 8.97852C89.1191 8.81836 88.9492 8.69141 88.7461 8.59766C88.5469 8.50391 88.3105 8.45703 88.0371 8.45703C87.7402 8.45703 87.4844 8.51953 87.2695 8.64453C87.0586 8.76562 86.8848 8.93359 86.748 9.14844C86.6113 9.35938 86.5098 9.60547 86.4434 9.88672C86.3809 10.1641 86.3496 10.4609 86.3496 10.7773ZM96.041 12.916V9.65234C96.041 9.40234 95.9902 9.18555 95.8887 9.00195C95.791 8.81445 95.6426 8.66992 95.4434 8.56836C95.2441 8.4668 94.998 8.41602 94.7051 8.41602C94.4316 8.41602 94.1914 8.46289 93.9844 8.55664C93.7812 8.65039 93.6211 8.77344 93.5039 8.92578C93.3906 9.07812 93.334 9.24219 93.334 9.41797H92.25C92.25 9.19141 92.3086 8.9668 92.4258 8.74414C92.543 8.52148 92.7109 8.32031 92.9297 8.14062C93.1523 7.95703 93.418 7.8125 93.7266 7.70703C94.0391 7.59766 94.3867 7.54297 94.7695 7.54297C95.2305 7.54297 95.6367 7.62109 95.9883 7.77734C96.3438 7.93359 96.6211 8.16992 96.8203 8.48633C97.0234 8.79883 97.125 9.19141 97.125 9.66406V12.6172C97.125 12.8281 97.1426 13.0527 97.1777 13.291C97.2168 13.5293 97.2734 13.7344 97.3477 13.9062V14H96.2168C96.1621 13.875 96.1191 13.709 96.0879 13.502C96.0566 13.291 96.041 13.0957 96.041 12.916ZM96.2285 10.1562L96.2402 10.918H95.1445C94.8359 10.918 94.5605 10.9434 94.3184 10.9941C94.0762 11.041 93.873 11.1133 93.709 11.2109C93.5449 11.3086 93.4199 11.4316 93.334 11.5801C93.248 11.7246 93.2051 11.8945 93.2051 12.0898C93.2051 12.2891 93.25 12.4707 93.3398 12.6348C93.4297 12.7988 93.5645 12.9297 93.7441 13.0273C93.9277 13.1211 94.1523 13.168 94.418 13.168C94.75 13.168 95.043 13.0977 95.2969 12.957C95.5508 12.8164 95.752 12.6445 95.9004 12.4414C96.0527 12.2383 96.1348 12.041 96.1465 11.8496L96.6094 12.3711C96.582 12.5352 96.5078 12.7168 96.3867 12.916C96.2656 13.1152 96.1035 13.3066 95.9004 13.4902C95.7012 13.6699 95.4629 13.8203 95.1855 13.9414C94.9121 14.0586 94.6035 14.1172 94.2598 14.1172C93.8301 14.1172 93.4531 14.0332 93.1289 13.8652C92.8086 13.6973 92.5586 13.4727 92.3789 13.1914C92.2031 12.9062 92.1152 12.5879 92.1152 12.2363C92.1152 11.8965 92.1816 11.5977 92.3145 11.3398C92.4473 11.0781 92.6387 10.8613 92.8887 10.6895C93.1387 10.5137 93.4395 10.3809 93.791 10.291C94.1426 10.2012 94.5352 10.1562 94.9688 10.1562H96.2285ZM100.518 13.3438L102.281 7.66016H103.441L100.898 14.9785C100.84 15.1348 100.762 15.3027 100.664 15.4824C100.57 15.666 100.449 15.8398 100.301 16.0039C100.152 16.168 99.9727 16.3008 99.7617 16.4023C99.5547 16.5078 99.3066 16.5605 99.0176 16.5605C98.9316 16.5605 98.8223 16.5488 98.6895 16.5254C98.5566 16.502 98.4629 16.4824 98.4082 16.4668L98.4023 15.5879C98.4336 15.5918 98.4824 15.5957 98.5488 15.5996C98.6191 15.6074 98.668 15.6113 98.6953 15.6113C98.9414 15.6113 99.1504 15.5781 99.3223 15.5117C99.4941 15.4492 99.6387 15.3418 99.7559 15.1895C99.877 15.041 99.9805 14.8359 100.066 14.5742L100.518 13.3438ZM99.2227 7.66016L100.869 12.582L101.15 13.7246L100.371 14.123L98.0391 7.66016H99.2227ZM108.111 12.3184C108.111 12.1621 108.076 12.0176 108.006 11.8848C107.939 11.748 107.801 11.625 107.59 11.5156C107.383 11.4023 107.07 11.3047 106.652 11.2227C106.301 11.1484 105.982 11.0605 105.697 10.959C105.416 10.8574 105.176 10.7344 104.977 10.5898C104.781 10.4453 104.631 10.2754 104.525 10.0801C104.42 9.88477 104.367 9.65625 104.367 9.39453C104.367 9.14453 104.422 8.9082 104.531 8.68555C104.645 8.46289 104.803 8.26562 105.006 8.09375C105.213 7.92188 105.461 7.78711 105.75 7.68945C106.039 7.5918 106.361 7.54297 106.717 7.54297C107.225 7.54297 107.658 7.63281 108.018 7.8125C108.377 7.99219 108.652 8.23242 108.844 8.5332C109.035 8.83008 109.131 9.16016 109.131 9.52344H108.047C108.047 9.34766 107.994 9.17773 107.889 9.01367C107.787 8.8457 107.637 8.70703 107.438 8.59766C107.242 8.48828 107.002 8.43359 106.717 8.43359C106.416 8.43359 106.172 8.48047 105.984 8.57422C105.801 8.66406 105.666 8.7793 105.58 8.91992C105.498 9.06055 105.457 9.20898 105.457 9.36523C105.457 9.48242 105.477 9.58789 105.516 9.68164C105.559 9.77148 105.633 9.85547 105.738 9.93359C105.844 10.0078 105.992 10.0781 106.184 10.1445C106.375 10.2109 106.619 10.2773 106.916 10.3438C107.436 10.4609 107.863 10.6016 108.199 10.7656C108.535 10.9297 108.785 11.1309 108.949 11.3691C109.113 11.6074 109.195 11.8965 109.195 12.2363C109.195 12.5137 109.137 12.7676 109.02 12.998C108.906 13.2285 108.74 13.4277 108.521 13.5957C108.307 13.7598 108.049 13.8887 107.748 13.9824C107.451 14.0723 107.117 14.1172 106.746 14.1172C106.188 14.1172 105.715 14.0176 105.328 13.8184C104.941 13.6191 104.648 13.3613 104.449 13.0449C104.25 12.7285 104.15 12.3945 104.15 12.043H105.24C105.256 12.3398 105.342 12.5762 105.498 12.752C105.654 12.9238 105.846 13.0469 106.072 13.1211C106.299 13.1914 106.523 13.2266 106.746 13.2266C107.043 13.2266 107.291 13.1875 107.49 13.1094C107.693 13.0312 107.848 12.9238 107.953 12.7871C108.059 12.6504 108.111 12.4941 108.111 12.3184ZM117.334 12.916V9.65234C117.334 9.40234 117.283 9.18555 117.182 9.00195C117.084 8.81445 116.936 8.66992 116.736 8.56836C116.537 8.4668 116.291 8.41602 115.998 8.41602C115.725 8.41602 115.484 8.46289 115.277 8.55664C115.074 8.65039 114.914 8.77344 114.797 8.92578C114.684 9.07812 114.627 9.24219 114.627 9.41797H113.543C113.543 9.19141 113.602 8.9668 113.719 8.74414C113.836 8.52148 114.004 8.32031 114.223 8.14062C114.445 7.95703 114.711 7.8125 115.02 7.70703C115.332 7.59766 115.68 7.54297 116.062 7.54297C116.523 7.54297 116.93 7.62109 117.281 7.77734C117.637 7.93359 117.914 8.16992 118.113 8.48633C118.316 8.79883 118.418 9.19141 118.418 9.66406V12.6172C118.418 12.8281 118.436 13.0527 118.471 13.291C118.51 13.5293 118.566 13.7344 118.641 13.9062V14H117.51C117.455 13.875 117.412 13.709 117.381 13.502C117.35 13.291 117.334 13.0957 117.334 12.916ZM117.521 10.1562L117.533 10.918H116.438C116.129 10.918 115.854 10.9434 115.611 10.9941C115.369 11.041 115.166 11.1133 115.002 11.2109C114.838 11.3086 114.713 11.4316 114.627 11.5801C114.541 11.7246 114.498 11.8945 114.498 12.0898C114.498 12.2891 114.543 12.4707 114.633 12.6348C114.723 12.7988 114.857 12.9297 115.037 13.0273C115.221 13.1211 115.445 13.168 115.711 13.168C116.043 13.168 116.336 13.0977 116.59 12.957C116.844 12.8164 117.045 12.6445 117.193 12.4414C117.346 12.2383 117.428 12.041 117.439 11.8496L117.902 12.3711C117.875 12.5352 117.801 12.7168 117.68 12.916C117.559 13.1152 117.396 13.3066 117.193 13.4902C116.994 13.6699 116.756 13.8203 116.479 13.9414C116.205 14.0586 115.896 14.1172 115.553 14.1172C115.123 14.1172 114.746 14.0332 114.422 13.8652C114.102 13.6973 113.852 13.4727 113.672 13.1914C113.496 12.9062 113.408 12.5879 113.408 12.2363C113.408 11.8965 113.475 11.5977 113.607 11.3398C113.74 11.0781 113.932 10.8613 114.182 10.6895C114.432 10.5137 114.732 10.3809 115.084 10.291C115.436 10.2012 115.828 10.1562 116.262 10.1562H117.521ZM124.23 7.66016H125.215V13.8652C125.215 14.4238 125.102 14.9004 124.875 15.2949C124.648 15.6895 124.332 15.9883 123.926 16.1914C123.523 16.3984 123.059 16.502 122.531 16.502C122.312 16.502 122.055 16.4668 121.758 16.3965C121.465 16.3301 121.176 16.2148 120.891 16.0508C120.609 15.8906 120.373 15.6738 120.182 15.4004L120.75 14.7559C121.016 15.0762 121.293 15.2988 121.582 15.4238C121.875 15.5488 122.164 15.6113 122.449 15.6113C122.793 15.6113 123.09 15.5469 123.34 15.418C123.59 15.2891 123.783 15.0977 123.92 14.8438C124.061 14.5938 124.131 14.2852 124.131 13.918V9.05469L124.23 7.66016ZM119.865 10.9004V10.7773C119.865 10.293 119.922 9.85352 120.035 9.45898C120.152 9.06055 120.318 8.71875 120.533 8.43359C120.752 8.14844 121.016 7.92969 121.324 7.77734C121.633 7.62109 121.98 7.54297 122.367 7.54297C122.766 7.54297 123.113 7.61328 123.41 7.75391C123.711 7.89062 123.965 8.0918 124.172 8.35742C124.383 8.61914 124.549 8.93555 124.67 9.30664C124.791 9.67773 124.875 10.0977 124.922 10.5664V11.1055C124.879 11.5703 124.795 11.9883 124.67 12.3594C124.549 12.7305 124.383 13.0469 124.172 13.3086C123.965 13.5703 123.711 13.7715 123.41 13.9121C123.109 14.0488 122.758 14.1172 122.355 14.1172C121.977 14.1172 121.633 14.0371 121.324 13.877C121.02 13.7168 120.758 13.4922 120.539 13.2031C120.32 12.9141 120.152 12.5742 120.035 12.1836C119.922 11.7891 119.865 11.3613 119.865 10.9004ZM120.949 10.7773V10.9004C120.949 11.2168 120.98 11.5137 121.043 11.791C121.109 12.0684 121.209 12.3125 121.342 12.5234C121.479 12.7344 121.652 12.9004 121.863 13.0215C122.074 13.1387 122.326 13.1973 122.619 13.1973C122.979 13.1973 123.275 13.1211 123.51 12.9688C123.744 12.8164 123.93 12.6152 124.066 12.3652C124.207 12.1152 124.316 11.8438 124.395 11.5508V10.1387C124.352 9.92383 124.285 9.7168 124.195 9.51758C124.109 9.31445 123.996 9.13477 123.855 8.97852C123.719 8.81836 123.549 8.69141 123.346 8.59766C123.143 8.50391 122.904 8.45703 122.631 8.45703C122.334 8.45703 122.078 8.51953 121.863 8.64453C121.652 8.76562 121.479 8.93359 121.342 9.14844C121.209 9.35938 121.109 9.60547 121.043 9.88672C120.98 10.1641 120.949 10.4609 120.949 10.7773ZM126.574 10.9004V10.7656C126.574 10.3086 126.641 9.88477 126.773 9.49414C126.906 9.09961 127.098 8.75781 127.348 8.46875C127.598 8.17578 127.9 7.94922 128.256 7.78906C128.611 7.625 129.01 7.54297 129.451 7.54297C129.896 7.54297 130.297 7.625 130.652 7.78906C131.012 7.94922 131.316 8.17578 131.566 8.46875C131.82 8.75781 132.014 9.09961 132.146 9.49414C132.279 9.88477 132.346 10.3086 132.346 10.7656V10.9004C132.346 11.3574 132.279 11.7812 132.146 12.1719C132.014 12.5625 131.82 12.9043 131.566 13.1973C131.316 13.4863 131.014 13.7129 130.658 13.877C130.307 14.0371 129.908 14.1172 129.463 14.1172C129.018 14.1172 128.617 14.0371 128.262 13.877C127.906 13.7129 127.602 13.4863 127.348 13.1973C127.098 12.9043 126.906 12.5625 126.773 12.1719C126.641 11.7812 126.574 11.3574 126.574 10.9004ZM127.658 10.7656V10.9004C127.658 11.2168 127.695 11.5156 127.77 11.7969C127.844 12.0742 127.955 12.3203 128.104 12.5352C128.256 12.75 128.445 12.9199 128.672 13.0449C128.898 13.166 129.162 13.2266 129.463 13.2266C129.76 13.2266 130.02 13.166 130.242 13.0449C130.469 12.9199 130.656 12.75 130.805 12.5352C130.953 12.3203 131.064 12.0742 131.139 11.7969C131.217 11.5156 131.256 11.2168 131.256 10.9004V10.7656C131.256 10.4531 131.217 10.1582 131.139 9.88086C131.064 9.59961 130.951 9.35156 130.799 9.13672C130.65 8.91797 130.463 8.74609 130.236 8.62109C130.014 8.49609 129.752 8.43359 129.451 8.43359C129.154 8.43359 128.893 8.49609 128.666 8.62109C128.443 8.74609 128.256 8.91797 128.104 9.13672C127.955 9.35156 127.844 9.59961 127.77 9.88086C127.695 10.1582 127.658 10.4531 127.658 10.7656Z" fill="#AAAAAA"/>
</svg>
