<svg width="100" height="38" viewBox="0 0 100 38" fill="none" xmlns="http://www.w3.org/2000/svg">
<rect width="100" height="38" rx="2" fill="#313131"/>
<path d="M17.904 12.038H26.038V13.508H17.904V12.038ZM16.574 17.554H28.292V19.052H16.574V17.554ZM21.432 18.604H23.308V24.26H21.432V18.604ZM25.086 12.038H26.92V13.186C26.92 14.586 26.92 16.154 26.416 18.45L24.582 18.24C25.086 16.07 25.086 14.53 25.086 13.186V12.038ZM29.4529 17.568H41.1709V19.024H29.4529V17.568ZM34.3669 15.454H36.2289V18.016H34.3669V15.454ZM30.7409 19.906H39.7849V24.288H37.9369V21.376H30.7409V19.906ZM30.8669 14.95H39.8969V16.434H30.8669V14.95ZM30.8669 11.8H39.7849V13.27H32.7289V15.748H30.8669V11.8ZM47.2458 17.792H49.1078V20.074H47.2458V17.792ZM42.3178 17.176H54.0358V18.646H42.3178V17.176ZM48.1558 19.57C50.9558 19.57 52.6498 20.41 52.6498 21.908C52.6498 23.406 50.9558 24.246 48.1558 24.246C45.3418 24.246 43.6478 23.406 43.6478 21.908C43.6478 20.41 45.3418 19.57 48.1558 19.57ZM48.1558 20.97C46.4198 20.97 45.5378 21.264 45.5378 21.908C45.5378 22.538 46.4198 22.846 48.1558 22.846C49.8918 22.846 50.7738 22.538 50.7738 21.908C50.7738 21.264 49.8918 20.97 48.1558 20.97ZM46.8958 12.5H48.5478V12.822C48.5478 14.768 46.7978 16.364 43.4518 16.672L42.8078 15.216C45.6498 14.978 46.8958 13.83 46.8958 12.822V12.5ZM47.8058 12.5H49.4578V12.822C49.4578 13.844 50.6898 14.978 53.5458 15.216L52.9018 16.672C49.5698 16.364 47.8058 14.782 47.8058 12.822V12.5ZM43.3818 11.814H52.9858V13.284H43.3818V11.814Z" fill="white"/>
<path d="M72.9167 25H76.0833C76.0833 25.825 75.3708 26.5 74.5 26.5C73.6292 26.5 72.9167 25.825 72.9167 25ZM80.8333 23.0125V24.25H68.1667V23.0125L69.75 21.6025V17.74C69.75 15.55 70.985 13.825 72.9167 13.255V12.97C72.9167 11.905 74.0963 11.095 75.2838 11.65C75.7983 11.89 76.0833 12.4225 76.0833 12.97V13.2625C78.015 13.825 79.25 15.5575 79.25 17.7475V21.61L80.8333 23.0125ZM80.0417 23.3275L78.4583 21.9175V17.815C78.4583 15.9625 77.5163 14.545 75.9804 13.99C74.9829 13.5925 73.8904 13.615 72.9404 14.0125C71.4521 14.5825 70.5417 15.9925 70.5417 17.815V21.9175L68.9583 23.3275V23.5H80.0417V23.3275Z" fill="white"/>
</svg>
