<svg width="58" height="36" viewBox="0 0 58 36" fill="none" xmlns="http://www.w3.org/2000/svg">
<rect width="58" height="36" rx="2" fill="#CC0000"/>
<path d="M17.904 12.038H26.038V13.508H17.904V12.038ZM16.574 17.554H28.292V19.052H16.574V17.554ZM21.432 18.604H23.308V24.26H21.432V18.604ZM25.086 12.038H26.92V13.186C26.92 14.586 26.92 16.154 26.416 18.45L24.582 18.24C25.086 16.07 25.086 14.53 25.086 13.186V12.038ZM29.4529 17.568H41.1709V19.024H29.4529V17.568ZM34.3669 15.454H36.2289V18.016H34.3669V15.454ZM30.7409 19.906H39.7849V24.288H37.9369V21.376H30.7409V19.906ZM30.8669 14.95H39.8969V16.434H30.8669V14.95ZM30.8669 11.8H39.7849V13.27H32.7289V15.748H30.8669V11.8Z" fill="white"/>
</svg>
