<svg width="322" height="48" viewBox="0 0 322 48" fill="none" xmlns="http://www.w3.org/2000/svg">
<path d="M52.87 32.17L47.28 26.58C48.35 25.35 49 23.75 49 22C49 18.13 45.87 15 42 15C38.13 15 35 18.13 35 22C35 25.87 38.13 29 42 29C43.75 29 45.35 28.35 46.58 27.29L52.17 32.88L52.87 32.17ZM42 28C38.69 28 36 25.31 36 22C36 18.69 38.69 16 42 16C45.31 16 48 18.69 48 22C48 25.31 45.31 28 42 28Z" fill="#AAAAAA"/>
<path d="M289.455 30.975L296.43 24L289.455 17.025L290.52 15.96L298.545 24L290.52 32.025L289.455 30.975Z" fill="#AAAAAA"/>
</svg>
